<svg width="250" height="70" viewBox="0 0 657 109" fill="none" xmlns="http://www.w3.org/2000/svg">
<g filter="url(#filter0_d_1_4278)">
<path d="M203.692 25.1313H191.211V37.6263H203.692V25.1313Z" fill="#FFFDFB"/>
<path d="M191.211 25.1313H178.731V37.6263H191.211V25.1313Z" fill="#FFFDFB"/>
<path d="M178.731 25.1313H166.25V37.6263H178.731V25.1313Z" fill="#FFFDFB"/>
<path d="M166.25 25.1313H153.769V37.6263H166.25V25.1313Z" fill="#FFFDFB"/>
<path d="M153.769 25.1313H141.289V37.6263H153.769V25.1313Z" fill="#FFFDFB"/>
<path d="M141.289 25.1313H128.808V37.6263H141.289V25.1313Z" fill="#FFFDFB"/>
<path d="M128.808 25.1313H116.327V37.6263H128.808V25.1313Z" fill="#FFFDFB"/>
<path d="M116.327 25.1313H103.846V37.6263H116.327V25.1313Z" fill="#FFFDFB"/>
<path d="M103.846 25.1313H91.3655V37.6263H103.846V25.1313Z" fill="#FFFDFB"/>
<path d="M91.3655 25.1313H78.8845V37.6263H91.3655V25.1313Z" fill="#FFFDFB"/>
<path d="M78.8845 25.1313H66.4038V37.6263H78.8845V25.1313Z" fill="#FFFDFB"/>
<path d="M66.4038 25.1313H53.9231V37.6263H66.4038V25.1313Z" fill="#FFFDFB"/>
<path d="M53.9231 25.1313H41.4424V37.6263H53.9231V25.1313Z" fill="#FFFDFB"/>
<path d="M203.692 75.111H191.211V87.606H203.692V75.111Z" fill="#F6BCC2"/>
<path d="M191.211 75.111H178.731V87.606H191.211V75.111Z" fill="#F6BCC2"/>
<path d="M178.731 75.111H166.25V87.606H178.731V75.111Z" fill="#F6BCC2"/>
<path d="M166.25 75.111H153.769V87.606H166.25V75.111Z" fill="#F6BCC2"/>
<path d="M153.769 75.111H141.289V87.606H153.769V75.111Z" fill="#F6BCC2"/>
<path d="M141.289 75.111H128.808V87.606H141.289V75.111Z" fill="#F6BCC2"/>
<path d="M128.808 75.111H116.327V87.606H128.808V75.111Z" fill="#F6BCC2"/>
<path d="M116.327 75.111H103.846V87.606H116.327V75.111Z" fill="#F6BCC2"/>
<path d="M103.846 75.111H91.3655V87.606H103.846V75.111Z" fill="#F6BCC2"/>
<path d="M91.3655 75.111H78.8845V87.606H91.3655V75.111Z" fill="#F6BCC2"/>
<path d="M78.8845 75.111H66.4038V87.606H78.8845V75.111Z" fill="#F6BCC2"/>
<path d="M66.4038 75.111H53.9231V87.606H66.4038V75.111Z" fill="#F6BCC2"/>
<path d="M53.9231 75.111H41.4424V87.606H53.9231V75.111Z" fill="#F6BCC2"/>
<path d="M41.4424 75.111H28.9614V87.606H41.4424V75.111Z" fill="#F6BCC2"/>
<path d="M203.692 62.616H191.211V75.111H203.692V62.616Z" fill="#F6BCC2"/>
<path d="M191.211 62.616H178.731V75.111H191.211V62.616Z" fill="#F6BCC2"/>
<path d="M178.731 62.616H166.25V75.111H178.731V62.616Z" fill="#F6BCC2"/>
<path d="M166.25 62.616H153.769V75.111H166.25V62.616Z" fill="#F6BCC2"/>
<path d="M153.769 62.616H141.289V75.111H153.769V62.616Z" fill="#F6BCC2"/>
<path d="M141.289 62.616H128.808V75.111H141.289V62.616Z" fill="#F6BCC2"/>
<path d="M128.808 62.616H116.327V75.111H128.808V62.616Z" fill="#F6BCC2"/>
<path d="M116.327 62.616H103.846V75.111H116.327V62.616Z" fill="#F6BCC2"/>
<path d="M103.846 62.616H91.3655V75.111H103.846V62.616Z" fill="#F6BCC2"/>
<path d="M91.3655 62.616H78.8845V75.111H91.3655V62.616Z" fill="#F6BCC2"/>
<path d="M78.8845 62.616H66.4038V75.111H78.8845V62.616Z" fill="#F6BCC2"/>
<path d="M66.4038 62.616H53.9231V75.111H66.4038V62.616Z" fill="#F6BCC2"/>
<path d="M53.9231 62.616H41.4424V75.111H53.9231V62.616Z" fill="#F6BCC2"/>
<path d="M41.4424 62.616H28.9614V75.111H41.4424V62.616Z" fill="#F6BCC2"/>
<path d="M28.9614 62.616H16.4807V75.111L28.9614 75.111V62.616Z" fill="#F6BCC2"/>
<path d="M203.692 50.1211H191.211V62.616H203.692V50.1211Z" fill="#F6BCC2"/>
<path d="M191.211 50.1211H178.731V62.616H191.211V50.1211Z" fill="#F6BCC2"/>
<path d="M178.731 50.1211H166.25V62.616H178.731V50.1211Z" fill="#F6BCC2"/>
<path d="M166.25 50.1211H153.769V62.616H166.25V50.1211Z" fill="#F6BCC2"/>
<path d="M153.769 50.1211H141.289V62.616H153.769V50.1211Z" fill="#F6BCC2"/>
<path d="M141.289 50.1211H128.808V62.616H141.289V50.1211Z" fill="#F6BCC2"/>
<path d="M128.808 50.1211H116.327V62.616H128.808V50.1211Z" fill="#F6BCC2"/>
<path d="M116.327 50.1211H103.846V62.616H116.327V50.1211Z" fill="#F6BCC2"/>
<path d="M103.846 50.1211H91.3655V62.616H103.846V50.1211Z" fill="#F6BCC2"/>
<path d="M91.3655 50.1211H78.8845V62.616H91.3655V50.1211Z" fill="#F6BCC2"/>
<path d="M78.8845 50.1211H66.4038V62.616H78.8845V50.1211Z" fill="#F6BCC2"/>
<path d="M66.4038 50.1211H53.9231V62.616H66.4038V50.1211Z" fill="#F6BCC2"/>
<path d="M53.9231 50.1211H41.4424V62.616H53.9231V50.1211Z" fill="#F6BCC2"/>
<path d="M41.4424 50.1211H28.9614V62.616H41.4424V50.1211Z" fill="#F6BCC2"/>
<path d="M28.9614 50.1211H16.4807V62.616H28.9614V50.1211Z" fill="#F6BCC2"/>
<path d="M203.692 37.6262H191.211V50.1211H203.692V37.6262Z" fill="#F6BCC2"/>
<path d="M191.211 37.6262H178.731V50.1211H191.211V37.6262Z" fill="#F6BCC2"/>
<path d="M178.731 37.6262H166.25V50.1211H178.731V37.6262Z" fill="#F6BCC2"/>
<path d="M166.25 37.6262H153.769V50.1211H166.25V37.6262Z" fill="#F6BCC2"/>
<path d="M153.769 37.6262H141.289V50.1211H153.769V37.6262Z" fill="#F6BCC2"/>
<path d="M141.289 37.6262H128.808V50.1211H141.289V37.6262Z" fill="#F6BCC2"/>
<path d="M128.808 37.6262H116.327V50.1211H128.808V37.6262Z" fill="#F6BCC2"/>
<path d="M116.327 37.6262H103.846V50.1211H116.327V37.6262Z" fill="#F6BCC2"/>
<path d="M103.846 37.6262H91.3655V50.1211H103.846V37.6262Z" fill="#F6BCC2"/>
<path d="M91.3655 37.6262H78.8845V50.1211H91.3655V37.6262Z" fill="#F6BCC2"/>
<path d="M78.8845 37.6262H66.4038V50.1211H78.8845V37.6262Z" fill="#F6BCC2"/>
<path d="M66.4038 37.6262H53.9231V50.1211H66.4038V37.6262Z" fill="#F6BCC2"/>
<path d="M53.9231 37.6262H41.4424V50.1211H53.9231V37.6262Z" fill="#F6BCC2"/>
<path d="M41.4424 37.6262H28.9614V50.1211H41.4424V37.6262Z" fill="#F6BCC2"/>
<path d="M28.9614 37.6262H16.4807V50.1211H28.9614V37.6262Z" fill="#F6BCC2"/>
<path d="M41.4422 25.1311H28.9614V37.6262H41.4424L41.4422 25.1311Z" fill="#F6BCC2"/>
<path d="M28.9614 25.1311H16.4807V37.6262H28.9614V25.1311Z" fill="#F6BCC2"/>
<path d="M203.692 12.6362H191.211V25.1312H203.692V12.6362Z" fill="#F6BCC2"/>
<path d="M191.211 12.6362H178.731V25.1312H191.211V12.6362Z" fill="#F6BCC2"/>
<path d="M178.731 12.6362H166.25V25.1312H178.731V12.6362Z" fill="#F6BCC2"/>
<path d="M166.25 12.6362H153.769V25.1312H166.25V12.6362Z" fill="#F6BCC2"/>
<path d="M153.769 12.6362H141.289V25.1312H153.769V12.6362Z" fill="#F6BCC2"/>
<path d="M141.289 12.6362H128.808V25.1312H141.289V12.6362Z" fill="#F6BCC2"/>
<path d="M128.808 12.6362H116.327V25.1312H128.808V12.6362Z" fill="#F6BCC2"/>
<path d="M116.327 12.6362H103.846V25.1312H116.327V12.6362Z" fill="#F6BCC2"/>
<path d="M103.846 12.6362H91.3655V25.1312H103.846V12.6362Z" fill="#F6BCC2"/>
<path d="M91.3655 12.6362H78.8845V25.1312H91.3655V12.6362Z" fill="#F6BCC2"/>
<path d="M78.8845 12.6362H66.4038V25.1312H78.8845V12.6362Z" fill="#F6BCC2"/>
<path d="M66.4038 12.6362H53.9231V25.1312H66.4038V12.6362Z" fill="#F6BCC2"/>
<path d="M53.9231 12.6362H41.4424L41.4422 25.1311L53.9231 25.1312V12.6362Z" fill="#F6BCC2"/>
<path d="M41.4424 12.6362H28.9614V25.1311H41.4422L41.4424 12.6362Z" fill="#F6BCC2"/>
<path d="M628.038 75.111H615.558V87.606H628.038V75.111Z" fill="#6D3435"/>
<path d="M615.558 75.111H603.077V87.606H615.558V75.111Z" fill="#6D3435"/>
<path d="M515.711 75.111H503.231V87.606H515.711V75.111Z" fill="#6D3435"/>
<path d="M465.788 75.111H453.308V87.606H465.788V75.111Z" fill="#6D3435"/>
<path d="M453.308 75.111H440.827V87.606H453.308V75.111Z" fill="#6D3435"/>
<path d="M440.827 75.111H428.346V87.606H440.827V75.111Z" fill="#6D3435"/>
<path d="M428.346 75.111H415.865V87.606H428.346V75.111Z" fill="#6D3435"/>
<path d="M415.865 75.111H403.385V87.606H415.865V75.111Z" fill="#6D3435"/>
<path d="M403.385 75.111H390.904V87.606H403.385V75.111Z" fill="#6D3435"/>
<path d="M390.904 75.111H378.423V87.606H390.904V75.111Z" fill="#6D3435"/>
<path d="M378.423 75.111H365.942V87.606H378.423V75.111Z" fill="#6D3435"/>
<path d="M365.942 75.111H353.461V87.606H365.942V75.111Z" fill="#6D3435"/>
<path d="M353.461 75.111H340.981V87.606H353.461V75.111Z" fill="#6D3435"/>
<path d="M340.981 75.111H328.5V87.606H340.981V75.111Z" fill="#6D3435"/>
<path d="M328.5 75.111H316.019V87.606H328.5V75.111Z" fill="#6D3435"/>
<path d="M316.019 75.111H303.539V87.606H316.019V75.111Z" fill="#6D3435"/>
<path d="M303.539 75.111H291.058V87.606H303.539V75.111Z" fill="#6D3435"/>
<path d="M291.058 75.111H278.577V87.606H291.058V75.111Z" fill="#6D3435"/>
<path d="M278.577 75.111H266.096V87.606H278.577V75.111Z" fill="#6D3435"/>
<path d="M216.173 75.111H203.692V87.606H216.173V75.111Z" fill="#6D3435"/>
<path d="M640.519 62.616H628.039L628.038 75.111L640.519 75.111V62.616Z" fill="#6D3435"/>
<path d="M628.039 62.616H615.558V75.111H628.038L628.039 62.616Z" fill="#6D3435"/>
<path d="M615.558 62.616H603.077V75.111H615.558V62.616Z" fill="#6D3435"/>
<path d="M515.711 62.616H503.231V75.111H515.711V62.616Z" fill="#6D3435"/>
<path d="M465.788 62.616H453.308V75.111H465.788V62.616Z" fill="#6D3435"/>
<path d="M453.308 62.616H440.827V75.111H453.308V62.616Z" fill="#6D3435"/>
<path d="M440.827 62.616H428.346V75.111H440.827V62.616Z" fill="#6D3435"/>
<path d="M428.346 62.616H415.865V75.111H428.346V62.616Z" fill="#6D3435"/>
<path d="M415.865 62.616H403.385V75.111H415.865V62.616Z" fill="#6D3435"/>
<path d="M403.385 62.616H390.904V75.111H403.385V62.616Z" fill="#6D3435"/>
<path d="M390.904 62.616H378.423V75.111H390.904V62.616Z" fill="#6D3435"/>
<path d="M378.423 62.616H365.942V75.111H378.423V62.616Z" fill="#6D3435"/>
<path d="M365.942 62.616H353.461V75.111H365.942V62.616Z" fill="#6D3435"/>
<path d="M353.461 62.616H340.981V75.111H353.461V62.616Z" fill="#6D3435"/>
<path d="M340.981 62.616H328.5V75.111H340.981V62.616Z" fill="#6D3435"/>
<path d="M328.5 62.616H316.019V75.111H328.5V62.616Z" fill="#6D3435"/>
<path d="M316.019 62.616H303.539V75.111H316.019V62.616Z" fill="#6D3435"/>
<path d="M303.539 62.616H291.058V75.111H303.539V62.616Z" fill="#6D3435"/>
<path d="M291.058 62.616H278.577V75.111H291.058V62.616Z" fill="#6D3435"/>
<path d="M278.577 62.616H266.096V75.111H278.577V62.616Z" fill="#6D3435"/>
<path d="M216.173 62.616H203.692V75.111H216.173V62.616Z" fill="#6D3435"/>
<path d="M640.519 50.1211H628.039V62.616H640.519V50.1211Z" fill="#6D3435"/>
<path d="M628.039 50.1211H615.558V62.616H628.039V50.1211Z" fill="#6D3435"/>
<path d="M615.558 50.1211H603.077V62.616H615.558V50.1211Z" fill="#6D3435"/>
<path d="M515.711 50.1211H503.231V62.616H515.711V50.1211Z" fill="#6D3435"/>
<path d="M465.788 50.1211H453.308V62.616H465.788V50.1211Z" fill="#6D3435"/>
<path d="M453.308 50.1211H440.827V62.616H453.308V50.1211Z" fill="#6D3435"/>
<path d="M440.827 50.1211H428.346V62.616H440.827V50.1211Z" fill="#6D3435"/>
<path d="M428.346 50.1211H415.865V62.616H428.346V50.1211Z" fill="#6D3435"/>
<path d="M415.865 50.1211H403.385V62.616H415.865V50.1211Z" fill="#6D3435"/>
<path d="M403.385 50.1211H390.904V62.616H403.385V50.1211Z" fill="#6D3435"/>
<path d="M390.904 50.1211H378.423V62.616H390.904V50.1211Z" fill="#6D3435"/>
<path d="M378.423 50.1211H365.942V62.616H378.423V50.1211Z" fill="#6D3435"/>
<path d="M365.942 50.1211H353.461V62.616H365.942V50.1211Z" fill="#6D3435"/>
<path d="M353.461 50.1211H340.981V62.616H353.461V50.1211Z" fill="#6D3435"/>
<path d="M340.981 50.1211H328.5V62.616H340.981V50.1211Z" fill="#6D3435"/>
<path d="M328.5 50.1211H316.019V62.616H328.5V50.1211Z" fill="#6D3435"/>
<path d="M316.019 50.1211H303.539V62.616H316.019V50.1211Z" fill="#6D3435"/>
<path d="M303.539 50.1211H291.058V62.616H303.539V50.1211Z" fill="#6D3435"/>
<path d="M291.058 50.1211H278.577V62.616H291.058V50.1211Z" fill="#6D3435"/>
<path d="M278.577 50.1211H266.096V62.616H278.577V50.1211Z" fill="#6D3435"/>
<path d="M216.173 50.1211H203.692V62.616H216.173V50.1211Z" fill="#6D3435"/>
<path d="M640.519 37.6262H628.039V50.1211H640.519V37.6262Z" fill="#6D3435"/>
<path d="M628.039 37.6262H615.558V50.1211H628.039V37.6262Z" fill="#6D3435"/>
<path d="M615.558 37.6262H603.077V50.1211H615.558V37.6262Z" fill="#6D3435"/>
<path d="M515.711 37.6262H503.231V50.1211H515.711V37.6262Z" fill="#6D3435"/>
<path d="M465.788 37.6262H453.308V50.1211H465.788V37.6262Z" fill="#6D3435"/>
<path d="M453.308 37.6262H440.827V50.1211H453.308V37.6262Z" fill="#6D3435"/>
<path d="M440.827 37.6262H428.346V50.1211H440.827V37.6262Z" fill="#6D3435"/>
<path d="M428.346 37.6262H415.865V50.1211H428.346V37.6262Z" fill="#6D3435"/>
<path d="M415.865 37.6262H403.385V50.1211H415.865V37.6262Z" fill="#6D3435"/>
<path d="M403.385 37.6262H390.904V50.1211H403.385V37.6262Z" fill="#6D3435"/>
<path d="M390.904 37.6262H378.423V50.1211H390.904V37.6262Z" fill="#6D3435"/>
<path d="M378.423 37.6262H365.942V50.1211H378.423V37.6262Z" fill="#6D3435"/>
<path d="M365.942 37.6262H353.461V50.1211H365.942V37.6262Z" fill="#6D3435"/>
<path d="M353.461 37.6262H340.981V50.1211H353.461V37.6262Z" fill="#6D3435"/>
<path d="M340.981 37.6262H328.5V50.1211H340.981V37.6262Z" fill="#6D3435"/>
<path d="M328.5 37.6262H316.019V50.1211H328.5V37.6262Z" fill="#6D3435"/>
<path d="M316.019 37.6262H303.539V50.1211H316.019V37.6262Z" fill="#6D3435"/>
<path d="M303.539 37.6262H291.058V50.1211H303.539V37.6262Z" fill="#6D3435"/>
<path d="M291.058 37.6262H278.577V50.1211H291.058V37.6262Z" fill="#6D3435"/>
<path d="M278.577 37.6262H266.096V50.1211H278.577V37.6262Z" fill="#6D3435"/>
<path d="M216.173 37.6262H203.692V50.1211H216.173V37.6262Z" fill="#6D3435"/>
<path d="M640.519 25.1311H628.039V37.6262H640.519V25.1311Z" fill="#6D3435"/>
<path d="M628.039 25.1311H615.558V37.6262H628.039V25.1311Z" fill="#6D3435"/>
<path d="M615.558 25.1311H603.077V37.6262H615.558V25.1311Z" fill="#6D3435"/>
<path d="M515.711 25.1311H503.231V37.6262H515.711V25.1311Z" fill="#6D3435"/>
<path d="M465.788 25.1311H453.308V37.6262H465.788V25.1311Z" fill="#6D3435"/>
<path d="M453.308 25.1311H440.827V37.6262H453.308V25.1311Z" fill="#6D3435"/>
<path d="M440.827 25.1311H428.346V37.6262H440.827V25.1311Z" fill="#6D3435"/>
<path d="M428.346 25.1311H415.865V37.6262H428.346V25.1311Z" fill="#6D3435"/>
<path d="M415.865 25.1311H403.385V37.6262H415.865V25.1311Z" fill="#6D3435"/>
<path d="M403.385 25.1311H390.904V37.6262H403.385V25.1311Z" fill="#6D3435"/>
<path d="M390.904 25.1311H378.423V37.6262H390.904V25.1311Z" fill="#6D3435"/>
<path d="M378.423 25.1311H365.942V37.6262H378.423V25.1311Z" fill="#6D3435"/>
<path d="M365.942 25.1311H353.461V37.6262H365.942V25.1311Z" fill="#6D3435"/>
<path d="M353.461 25.1311H340.981V37.6262H353.461V25.1311Z" fill="#6D3435"/>
<path d="M340.981 25.1311H328.5V37.6262H340.981V25.1311Z" fill="#6D3435"/>
<path d="M328.5 25.1311H316.019V37.6262H328.5V25.1311Z" fill="#6D3435"/>
<path d="M316.019 25.1311H303.539V37.6262H316.019V25.1311Z" fill="#6D3435"/>
<path d="M303.539 25.1311H291.058V37.6262H303.539V25.1311Z" fill="#6D3435"/>
<path d="M291.058 25.1311H278.577V37.6262H291.058V25.1311Z" fill="#6D3435"/>
<path d="M278.577 25.1311H266.096V37.6262H278.577V25.1311Z" fill="#6D3435"/>
<path d="M216.173 25.1311H203.692V37.6262H216.173V25.1311Z" fill="#6D3435"/>
<path d="M628.038 12.6362H615.558V25.1311H628.039L628.038 12.6362Z" fill="#6D3435"/>
<path d="M615.558 12.6362H603.077V25.1311H615.558V12.6362Z" fill="#6D3435"/>
<path d="M515.711 12.6362H503.231V25.1311H515.711V12.6362Z" fill="#6D3435"/>
<path d="M465.788 12.6362H453.308V25.1311H465.788V12.6362Z" fill="#6D3435"/>
<path d="M453.308 12.6362H440.827V25.1311H453.308V12.6362Z" fill="#6D3435"/>
<path d="M440.827 12.6362H428.346V25.1311H440.827V12.6362Z" fill="#6D3435"/>
<path d="M428.346 12.6362H415.865V25.1311H428.346V12.6362Z" fill="#6D3435"/>
<path d="M415.865 12.6362H403.385V25.1311H415.865V12.6362Z" fill="#6D3435"/>
<path d="M403.385 12.6362H390.904V25.1311H403.385V12.6362Z" fill="#6D3435"/>
<path d="M390.904 12.6362H378.423V25.1311H390.904V12.6362Z" fill="#6D3435"/>
<path d="M378.423 12.6362H365.942V25.1311H378.423V12.6362Z" fill="#6D3435"/>
<path d="M365.942 12.6362H353.461V25.1311H365.942V12.6362Z" fill="#6D3435"/>
<path d="M353.461 12.6362H340.981V25.1311H353.461V12.6362Z" fill="#6D3435"/>
<path d="M340.981 12.6362H328.5V25.1311H340.981V12.6362Z" fill="#6D3435"/>
<path d="M328.5 12.6362H316.019V25.1311H328.5V12.6362Z" fill="#6D3435"/>
<path d="M316.019 12.6362H303.539V25.1311H316.019V12.6362Z" fill="#6D3435"/>
<path d="M303.539 12.6362H291.058V25.1311H303.539V12.6362Z" fill="#6D3435"/>
<path d="M291.058 12.6362H278.577V25.1311H291.058V12.6362Z" fill="#6D3435"/>
<path d="M278.577 12.6362H266.096V25.1311H278.577V12.6362Z" fill="#6D3435"/>
<path d="M216.173 12.6362H203.692V25.1311H216.173V12.6362Z" fill="#6D3435"/>
<path d="M503.231 75.111H490.75V87.606H503.231V75.111Z" fill="#6D3435"/>
<path d="M490.75 75.111H478.269V87.606H490.75V75.111Z" fill="#6D3435"/>
<path d="M478.269 75.111H465.788V87.606H478.269V75.111Z" fill="#6D3435"/>
<path d="M503.231 62.616H490.75V75.111H503.231V62.616Z" fill="#6D3435"/>
<path d="M490.75 62.616H478.269V75.111H490.75V62.616Z" fill="#6D3435"/>
<path d="M478.269 62.616H465.788V75.111H478.269V62.616Z" fill="#6D3435"/>
<path d="M503.231 50.1211H490.75V62.616H503.231V50.1211Z" fill="#6D3435"/>
<path d="M490.75 50.1211H478.269V62.616H490.75V50.1211Z" fill="#6D3435"/>
<path d="M478.269 50.1211H465.788V62.616H478.269V50.1211Z" fill="#6D3435"/>
<path d="M503.231 37.6262H490.75V50.1211H503.231V37.6262Z" fill="#6D3435"/>
<path d="M490.75 37.6262H478.269V50.1211H490.75V37.6262Z" fill="#6D3435"/>
<path d="M478.269 37.6262H465.788V50.1211H478.269V37.6262Z" fill="#6D3435"/>
<path d="M503.231 25.1311H490.75V37.6262H503.231V25.1311Z" fill="#6D3435"/>
<path d="M490.75 25.1311H478.269V37.6262H490.75V25.1311Z" fill="#6D3435"/>
<path d="M478.269 25.1311H465.788V37.6262H478.269V25.1311Z" fill="#6D3435"/>
<path d="M503.231 12.6362H490.75V25.1311H503.231V12.6362Z" fill="#6D3435"/>
<path d="M490.75 12.6362H478.269V25.1311H490.75V12.6362Z" fill="#6D3435"/>
<path d="M478.269 12.6362H465.788V25.1311H478.269V12.6362Z" fill="#6D3435"/>
<path d="M603.077 75.111H590.596V87.606H603.077V75.111Z" fill="#6D3435"/>
<path d="M590.596 75.111H578.115V87.606H590.596V75.111Z" fill="#6D3435"/>
<path d="M603.077 62.616H590.596V75.111H603.077V62.616Z" fill="#6D3435"/>
<path d="M590.596 62.616H578.115V75.111H590.596V62.616Z" fill="#6D3435"/>
<path d="M603.077 50.1211H590.596V62.616H603.077V50.1211Z" fill="#6D3435"/>
<path d="M590.596 50.1211H578.115V62.616H590.596V50.1211Z" fill="#6D3435"/>
<path d="M603.077 37.6262H590.596V50.1211H603.077V37.6262Z" fill="#6D3435"/>
<path d="M590.596 37.6262H578.115V50.1211H590.596V37.6262Z" fill="#6D3435"/>
<path d="M603.077 25.1311H590.596V37.6262H603.077V25.1311Z" fill="#6D3435"/>
<path d="M590.596 25.1311H578.115V37.6262H590.596V25.1311Z" fill="#6D3435"/>
<path d="M603.077 12.6362H590.596V25.1311H603.077V12.6362Z" fill="#6D3435"/>
<path d="M590.596 12.6362H578.115V25.1311H590.596V12.6362Z" fill="#6D3435"/>
<path d="M266.096 75.111H253.615V87.606H266.096V75.111Z" fill="#6D3435"/>
<path d="M253.615 75.111H241.135V87.606H253.615V75.111Z" fill="#6D3435"/>
<path d="M241.135 75.111H228.654V87.606H241.135V75.111Z" fill="#6D3435"/>
<path d="M228.654 75.111H216.173V87.606H228.654V75.111Z" fill="#6D3435"/>
<path d="M266.096 62.616H253.615V75.111H266.096V62.616Z" fill="#6D3435"/>
<path d="M253.615 62.616H241.135V75.111H253.615V62.616Z" fill="#6D3435"/>
<path d="M241.135 62.616H228.654V75.111H241.135V62.616Z" fill="#6D3435"/>
<path d="M228.654 62.616H216.173V75.111H228.654V62.616Z" fill="#6D3435"/>
<path d="M266.096 50.1211H253.615V62.616H266.096V50.1211Z" fill="#6D3435"/>
<path d="M253.615 50.1211H241.135V62.616H253.615V50.1211Z" fill="#6D3435"/>
<path d="M241.135 50.1211H228.654V62.616H241.135V50.1211Z" fill="#6D3435"/>
<path d="M228.654 50.1211H216.173V62.616H228.654V50.1211Z" fill="#6D3435"/>
<path d="M266.096 37.6262H253.615V50.1211H266.096V37.6262Z" fill="#6D3435"/>
<path d="M253.615 37.6262H241.135V50.1211H253.615V37.6262Z" fill="#6D3435"/>
<path d="M241.135 37.6262H228.654V50.1211H241.135V37.6262Z" fill="#6D3435"/>
<path d="M228.654 37.6262H216.173V50.1211H228.654V37.6262Z" fill="#6D3435"/>
<path d="M266.096 25.1311H253.615V37.6262H266.096V25.1311Z" fill="#6D3435"/>
<path d="M253.615 25.1311H241.135V37.6262H253.615V25.1311Z" fill="#6D3435"/>
<path d="M241.135 25.1311H228.654V37.6262H241.135V25.1311Z" fill="#6D3435"/>
<path d="M228.654 25.1311H216.173V37.6262H228.654V25.1311Z" fill="#6D3435"/>
<path d="M266.096 12.6362H253.615V25.1311H266.096V12.6362Z" fill="#6D3435"/>
<path d="M253.615 12.6362H241.135V25.1311H253.615V12.6362Z" fill="#6D3435"/>
<path d="M241.135 12.6362H228.654V25.1311H241.135V12.6362Z" fill="#6D3435"/>
<path d="M228.654 12.6362H216.173V25.1311H228.654V12.6362Z" fill="#6D3435"/>
<path d="M578.115 75.111H565.635V87.606H578.115V75.111Z" fill="#6D3435"/>
<path d="M578.115 62.616H565.635V75.111H578.115V62.616Z" fill="#6D3435"/>
<path d="M578.115 50.1211H565.635V62.616H578.115V50.1211Z" fill="#6D3435"/>
<path d="M578.115 37.6262H565.635V50.1211H578.115V37.6262Z" fill="#6D3435"/>
<path d="M578.115 25.1311H565.635V37.6262H578.115V25.1311Z" fill="#6D3435"/>
<path d="M578.115 12.6362H565.635V25.1311H578.115V12.6362Z" fill="#6D3435"/>
<path d="M565.635 75.111H553.154V87.606H565.635V75.111Z" fill="#6D3435"/>
<path d="M553.154 75.111H540.673V87.606H553.154V75.111Z" fill="#6D3435"/>
<path d="M565.635 62.616H553.154V75.111H565.635V62.616Z" fill="#6D3435"/>
<path d="M553.154 62.616H540.673V75.111H553.154V62.616Z" fill="#6D3435"/>
<path d="M565.635 50.1211H553.154V62.616H565.635V50.1211Z" fill="#6D3435"/>
<path d="M553.154 50.1211H540.673V62.616H553.154V50.1211Z" fill="#6D3435"/>
<path d="M565.635 37.6262H553.154V50.1211H565.635V37.6262Z" fill="#6D3435"/>
<path d="M553.154 37.6262H540.673V50.1211H553.154V37.6262Z" fill="#6D3435"/>
<path d="M565.635 25.1311H553.154V37.6262H565.635V25.1311Z" fill="#6D3435"/>
<path d="M553.154 25.1311H540.673V37.6262H553.154V25.1311Z" fill="#6D3435"/>
<path d="M565.635 12.6362H553.154V25.1311H565.635V12.6362Z" fill="#6D3435"/>
<path d="M553.154 12.6362H540.673V25.1311H553.154V12.6362Z" fill="#6D3435"/>
<path d="M540.673 75.111H528.192V87.606H540.673V75.111Z" fill="#6D3435"/>
<path d="M540.673 62.616H528.192V75.111H540.673V62.616Z" fill="#6D3435"/>
<path d="M540.673 50.1211H528.192V62.616H540.673V50.1211Z" fill="#6D3435"/>
<path d="M540.673 37.6262H528.192V50.1211H540.673V37.6262Z" fill="#6D3435"/>
<path d="M540.673 25.1311H528.192V37.6262H540.673V25.1311Z" fill="#6D3435"/>
<path d="M540.673 12.6362H528.192V25.1311H540.673V12.6362Z" fill="#6D3435"/>
<path d="M528.192 75.111H515.711V87.606H528.192V75.111Z" fill="#6D3435"/>
<path d="M528.192 62.616H515.711V75.111H528.192V62.616Z" fill="#6D3435"/>
<path d="M528.192 50.1211H515.711V62.616H528.192V50.1211Z" fill="#6D3435"/>
<path d="M528.192 37.6262H515.711V50.1211H528.192V37.6262Z" fill="#6D3435"/>
<path d="M528.192 25.1311H515.711V37.6262H528.192V25.1311Z" fill="#6D3435"/>
<path d="M528.192 12.6362H515.711V25.1311H528.192V12.6362Z" fill="#6D3435"/>
<path d="M628.038 87.606H615.558V100.101H628.038V87.606Z" fill="#813E3F"/>
<path d="M615.558 87.606H603.077V100.101H615.558V87.606Z" fill="#813E3F"/>
<path d="M515.711 87.606H503.231V100.101H515.711V87.606Z" fill="#813E3F"/>
<path d="M465.788 87.606H453.308V100.101H465.788V87.606Z" fill="#813E3F"/>
<path d="M453.308 87.606H440.827V100.101H453.308V87.606Z" fill="#813E3F"/>
<path d="M440.827 87.606H428.346V100.101H440.827V87.606Z" fill="#813E3F"/>
<path d="M428.346 87.606H415.865V100.101H428.346V87.606Z" fill="#813E3F"/>
<path d="M415.865 87.606H403.385V100.101H415.865V87.606Z" fill="#813E3F"/>
<path d="M403.385 87.606H390.904V100.101H403.385V87.606Z" fill="#813E3F"/>
<path d="M390.904 87.606H378.423V100.101H390.904V87.606Z" fill="#813E3F"/>
<path d="M378.423 87.606H365.942V100.101H378.423V87.606Z" fill="#813E3F"/>
<path d="M365.942 87.606H353.461V100.101H365.942V87.606Z" fill="#813E3F"/>
<path d="M353.461 87.606H340.981V100.101H353.461V87.606Z" fill="#813E3F"/>
<path d="M340.981 87.606H328.5V100.101H340.981V87.606Z" fill="#813E3F"/>
<path d="M328.5 87.606H316.019V100.101H328.5V87.606Z" fill="#813E3F"/>
<path d="M316.019 87.606H303.539V100.101H316.019V87.606Z" fill="#813E3F"/>
<path d="M303.539 87.606H291.058V100.101H303.539V87.606Z" fill="#813E3F"/>
<path d="M291.058 87.606H278.577V100.101H291.058V87.606Z" fill="#813E3F"/>
<path d="M278.577 87.606H266.096V100.101H278.577V87.606Z" fill="#813E3F"/>
<path d="M216.173 87.606H203.692V100.101H216.173V87.606Z" fill="#813E3F"/>
<path d="M203.692 87.606H191.211V100.101H203.692V87.606Z" fill="#813E3F"/>
<path d="M191.211 87.606H178.731V100.101H191.211V87.606Z" fill="#813E3F"/>
<path d="M178.731 87.606H166.25V100.101H178.731V87.606Z" fill="#813E3F"/>
<path d="M166.25 87.606H153.769V100.101H166.25V87.606Z" fill="#813E3F"/>
<path d="M153.769 87.606H141.289V100.101H153.769V87.606Z" fill="#813E3F"/>
<path d="M141.289 87.606H128.808V100.101H141.289V87.606Z" fill="#813E3F"/>
<path d="M128.808 87.606H116.327V100.101H128.808V87.606Z" fill="#813E3F"/>
<path d="M116.327 87.606H103.846V100.101H116.327V87.606Z" fill="#813E3F"/>
<path d="M103.846 87.606H91.3655V100.101H103.846V87.606Z" fill="#813E3F"/>
<path d="M91.3655 87.606H78.8845V100.101H91.3655V87.606Z" fill="#813E3F"/>
<path d="M78.8845 87.606H66.4038V100.101H78.8845V87.606Z" fill="#813E3F"/>
<path d="M66.4038 87.606H53.9231V100.101H66.4038V87.606Z" fill="#813E3F"/>
<path d="M53.9231 87.606H41.4424V100.101H53.9231V87.606Z" fill="#813E3F"/>
<path d="M41.4424 87.606H28.9614V100.101H41.4424V87.606Z" fill="#813E3F"/>
<path d="M640.519 75.1111H628.039L628.038 87.606L640.519 87.606V75.1111Z" fill="#813E3F"/>
<path d="M28.9615 75.1111H16.4807V87.606L28.9614 87.606L28.9615 75.1111Z" fill="#813E3F"/>
<path d="M653 62.6161H640.519L640.519 75.1111L653 75.111V62.6161Z" fill="#813E3F"/>
<path d="M16.4808 62.6161H4V75.111L16.4807 75.1111L16.4808 62.6161Z" fill="#813E3F"/>
<path d="M653 50.1212H640.519V62.6161H653V50.1212Z" fill="#813E3F"/>
<path d="M16.4808 50.1212H4V62.6161H16.4808V50.1212Z" fill="#813E3F"/>
<path d="M653 37.6262H640.519V50.1212H653V37.6262Z" fill="#813E3F"/>
<path d="M16.4808 37.6262H4V50.1212H16.4808V37.6262Z" fill="#813E3F"/>
<path d="M653 25.1312H640.519V37.6262H653V25.1312Z" fill="#813E3F"/>
<path d="M16.4808 25.1312H4V37.6262H16.4808V25.1312Z" fill="#813E3F"/>
<path d="M640.519 12.6363H628.039V25.1312L640.519 25.1312L640.519 12.6363Z" fill="#813E3F"/>
<path d="M28.9615 12.6363H16.4807L16.4808 25.1312L28.9615 25.1312V12.6363Z" fill="#813E3F"/>
<path d="M628.038 0.141357H615.558V12.6363L628.039 12.6363L628.038 0.141357Z" fill="#813E3F"/>
<path d="M615.558 0.141357H603.077V12.6363H615.558V0.141357Z" fill="#813E3F"/>
<path d="M515.711 0.141357H503.231V12.6363H515.711V0.141357Z" fill="#813E3F"/>
<path d="M465.788 0.141357H453.308V12.6363H465.788V0.141357Z" fill="#813E3F"/>
<path d="M453.308 0.141357H440.827V12.6363H453.308V0.141357Z" fill="#813E3F"/>
<path d="M440.827 0.141357H428.346V12.6363H440.827V0.141357Z" fill="#813E3F"/>
<path d="M503.231 87.606H490.75V100.101H503.231V87.606Z" fill="#813E3F"/>
<path d="M490.75 87.606H478.269V100.101H490.75V87.606Z" fill="#813E3F"/>
<path d="M478.269 87.606H465.788V100.101H478.269V87.606Z" fill="#813E3F"/>
<path d="M503.231 0.141357H490.75V12.6363H503.231V0.141357Z" fill="#813E3F"/>
<path d="M490.75 0.141357H478.269V12.6363H490.75V0.141357Z" fill="#813E3F"/>
<path d="M603.077 87.606H590.596V100.101H603.077V87.606Z" fill="#813E3F"/>
<path d="M590.596 87.606H578.115V100.101H590.596V87.606Z" fill="#813E3F"/>
<path d="M603.077 0.141357H590.596V12.6363H603.077V0.141357Z" fill="#813E3F"/>
<path d="M590.596 0.141357H578.115V12.6363H590.596V0.141357Z" fill="#813E3F"/>
<path d="M478.269 0.141357H465.788V12.6363H478.269V0.141357Z" fill="#813E3F"/>
<path d="M428.346 0.141357H415.865V12.6363H428.346V0.141357Z" fill="#813E3F"/>
<path d="M415.865 0.141357H403.385V12.6363H415.865V0.141357Z" fill="#813E3F"/>
<path d="M403.385 0.141357H390.904V12.6363H403.385V0.141357Z" fill="#813E3F"/>
<path d="M390.904 0.141357H378.423V12.6363H390.904V0.141357Z" fill="#813E3F"/>
<path d="M378.423 0.141357H365.942V12.6363H378.423V0.141357Z" fill="#813E3F"/>
<path d="M365.942 0.141357H353.461V12.6363H365.942V0.141357Z" fill="#813E3F"/>
<path d="M353.461 0.141357H340.981V12.6363H353.461V0.141357Z" fill="#813E3F"/>
<path d="M340.981 0.141357H328.5V12.6363H340.981V0.141357Z" fill="#813E3F"/>
<path d="M328.5 0.141357H316.019V12.6363H328.5V0.141357Z" fill="#813E3F"/>
<path d="M316.019 0.141357H303.539V12.6363H316.019V0.141357Z" fill="#813E3F"/>
<path d="M303.539 0.141357H291.058V12.6363H303.539V0.141357Z" fill="#813E3F"/>
<path d="M291.058 0.141357H278.577V12.6363H291.058V0.141357Z" fill="#813E3F"/>
<path d="M278.577 0.141357H266.096V12.6363H278.577V0.141357Z" fill="#813E3F"/>
<path d="M216.173 0.141357H203.692V12.6363H216.173V0.141357Z" fill="#813E3F"/>
<path d="M203.692 0.141357H191.211V12.6363H203.692V0.141357Z" fill="#813E3F"/>
<path d="M191.211 0.141357H178.731V12.6363H191.211V0.141357Z" fill="#813E3F"/>
<path d="M178.731 0.141357H166.25V12.6363H178.731V0.141357Z" fill="#813E3F"/>
<path d="M266.096 87.606H253.615V100.101H266.096V87.606Z" fill="#813E3F"/>
<path d="M253.615 87.606H241.135V100.101H253.615V87.606Z" fill="#813E3F"/>
<path d="M241.135 87.606H228.654V100.101H241.135V87.606Z" fill="#813E3F"/>
<path d="M228.654 87.606H216.173V100.101H228.654V87.606Z" fill="#813E3F"/>
<path d="M266.096 0.141357H253.615V12.6363H266.096V0.141357Z" fill="#813E3F"/>
<path d="M253.615 0.141357H241.135V12.6363H253.615V0.141357Z" fill="#813E3F"/>
<path d="M241.135 0.141357H228.654V12.6363H241.135V0.141357Z" fill="#813E3F"/>
<path d="M228.654 0.141357H216.173V12.6363H228.654V0.141357Z" fill="#813E3F"/>
<path d="M166.25 0.141357H153.769V12.6363H166.25V0.141357Z" fill="#813E3F"/>
<path d="M153.769 0.141357H141.289V12.6363H153.769V0.141357Z" fill="#813E3F"/>
<path d="M141.289 0.141357H128.808V12.6363H141.289V0.141357Z" fill="#813E3F"/>
<path d="M128.808 0.141357H116.327V12.6363H128.808V0.141357Z" fill="#813E3F"/>
<path d="M116.327 0.141357H103.846V12.6363H116.327V0.141357Z" fill="#813E3F"/>
<path d="M103.846 0.141357H91.3655V12.6363H103.846V0.141357Z" fill="#813E3F"/>
<path d="M91.3655 0.141357H78.8845V12.6363H91.3655V0.141357Z" fill="#813E3F"/>
<path d="M78.8845 0.141357H66.4038V12.6363H78.8845V0.141357Z" fill="#813E3F"/>
<path d="M66.4038 0.141357H53.9231V12.6363H66.4038V0.141357Z" fill="#813E3F"/>
<path d="M53.9231 0.141357H41.4424V12.6363H53.9231V0.141357Z" fill="#813E3F"/>
<path d="M41.4424 0.141357H28.9614L28.9615 12.6363L41.4424 12.6363V0.141357Z" fill="#813E3F"/>
<path d="M540.673 87.606H528.192V100.101H540.673V87.606Z" fill="#813E3F"/>
<path d="M540.673 0.141357H528.192V12.6363H540.673V0.141357Z" fill="#813E3F"/>
<path d="M528.192 87.606H515.711V100.101H528.192V87.606Z" fill="#813E3F"/>
<path d="M528.192 0.141357H515.711V12.6363H528.192V0.141357Z" fill="#813E3F"/>
<path d="M578.115 87.606H565.635V100.101H578.115V87.606Z" fill="#813E3F"/>
<path d="M578.115 0.141357H565.635V12.6363H578.115V0.141357Z" fill="#813E3F"/>
<path d="M565.635 87.606H553.154V100.101H565.635V87.606Z" fill="#813E3F"/>
<path d="M553.154 87.606H540.673V100.101H553.154V87.606Z" fill="#813E3F"/>
<path d="M565.635 0.141357H553.154V12.6363H565.635V0.141357Z" fill="#813E3F"/>
<path d="M553.154 0.141357H540.673V12.6363H553.154V0.141357Z" fill="#813E3F"/>
</g>
<defs>
<filter id="filter0_d_1_4278" x="0" y="0.141357" width="657" height="107.96" filterUnits="userSpaceOnUse" color-interpolation-filters="sRGB">
<feFlood flood-opacity="0" result="BackgroundImageFix"/>
<feColorMatrix in="SourceAlpha" type="matrix" values="0 0 0 0 0 0 0 0 0 0 0 0 0 0 0 0 0 0 127 0" result="hardAlpha"/>
<feOffset dy="4"/>
<feGaussianBlur stdDeviation="2"/>
<feComposite in2="hardAlpha" operator="out"/>
<feColorMatrix type="matrix" values="0 0 0 0 0 0 0 0 0 0 0 0 0 0 0 0 0 0 0.25 0"/>
<feBlend mode="normal" in2="BackgroundImageFix" result="effect1_dropShadow_1_4278"/>
<feBlend mode="normal" in="SourceGraphic" in2="effect1_dropShadow_1_4278" result="shape"/>
</filter>
</defs>
</svg>
