<svg width="250" height="70" viewBox="0 0 657 109" fill="none" xmlns="http://www.w3.org/2000/svg">
<g filter="url(#filter0_d_1_3063)">
<path d="M390.904 25.2827H378.423V37.7777H390.904V25.2827Z" fill="#FFFDFB"/>
<path d="M378.423 25.2827H365.942V37.7777H378.423V25.2827Z" fill="#FFFDFB"/>
<path d="M365.942 25.2827H353.461V37.7777H365.942V25.2827Z" fill="#FFFDFB"/>
<path d="M353.461 25.2827H340.981V37.7777H353.461V25.2827Z" fill="#FFFDFB"/>
<path d="M340.981 25.2827H328.5V37.7777H340.981V25.2827Z" fill="#FFFDFB"/>
<path d="M328.5 25.2827H316.019V37.7777H328.5V25.2827Z" fill="#FFFDFB"/>
<path d="M316.019 25.2827H303.539V37.7777H316.019V25.2827Z" fill="#FFFDFB"/>
<path d="M303.539 25.2827H291.058V37.7777H303.539V25.2827Z" fill="#FFFDFB"/>
<path d="M291.058 25.2827H278.577V37.7777H291.058V25.2827Z" fill="#FFFDFB"/>
<path d="M278.577 25.2827H266.096V37.7777H278.577V25.2827Z" fill="#FFFDFB"/>
<path d="M216.173 25.2827H203.692V37.7777H216.173V25.2827Z" fill="#FFFDFB"/>
<path d="M203.692 25.2827H191.211V37.7777H203.692V25.2827Z" fill="#FFFDFB"/>
<path d="M191.211 25.2827H178.731V37.7777H191.211V25.2827Z" fill="#FFFDFB"/>
<path d="M178.731 25.2827H166.25V37.7777H178.731V25.2827Z" fill="#FFFDFB"/>
<path d="M166.25 25.2827H153.769V37.7777H166.25V25.2827Z" fill="#FFFDFB"/>
<path d="M153.769 25.2827H141.289V37.7777H153.769V25.2827Z" fill="#FFFDFB"/>
<path d="M141.289 25.2827H128.808V37.7777H141.289V25.2827Z" fill="#FFFDFB"/>
<path d="M128.808 25.2827H116.327V37.7777H128.808V25.2827Z" fill="#FFFDFB"/>
<path d="M116.327 25.2827H103.846V37.7777H116.327V25.2827Z" fill="#FFFDFB"/>
<path d="M103.846 25.2827H91.3655V37.7777H103.846V25.2827Z" fill="#FFFDFB"/>
<path d="M91.3655 25.2827H78.8845V37.7777H91.3655V25.2827Z" fill="#FFFDFB"/>
<path d="M78.8845 25.2827H66.4038V37.7777H78.8845V25.2827Z" fill="#FFFDFB"/>
<path d="M66.4038 25.2827H53.9231V37.7777H66.4038V25.2827Z" fill="#FFFDFB"/>
<path d="M53.9231 25.2827H41.4424V37.7777H53.9231V25.2827Z" fill="#FFFDFB"/>
<path d="M266.096 25.2827H253.615V37.7777H266.096V25.2827Z" fill="#FFFDFB"/>
<path d="M253.615 25.2827H241.135V37.7777H253.615V25.2827Z" fill="#FFFDFB"/>
<path d="M241.135 25.2827H228.654V37.7777H241.135V25.2827Z" fill="#FFFDFB"/>
<path d="M228.654 25.2827H216.173V37.7777H228.654V25.2827Z" fill="#FFFDFB"/>
<path d="M390.904 75.2626H378.423V87.7575H390.904V75.2626Z" fill="#F6BCC2"/>
<path d="M378.423 75.2626H365.942V87.7575H378.423V75.2626Z" fill="#F6BCC2"/>
<path d="M365.942 75.2626H353.461V87.7575H365.942V75.2626Z" fill="#F6BCC2"/>
<path d="M353.461 75.2626H340.981V87.7575H353.461V75.2626Z" fill="#F6BCC2"/>
<path d="M340.981 75.2626H328.5V87.7575H340.981V75.2626Z" fill="#F6BCC2"/>
<path d="M328.5 75.2626H316.019V87.7575H328.5V75.2626Z" fill="#F6BCC2"/>
<path d="M316.019 75.2626H303.539V87.7575H316.019V75.2626Z" fill="#F6BCC2"/>
<path d="M303.539 75.2626H291.058V87.7575H303.539V75.2626Z" fill="#F6BCC2"/>
<path d="M291.058 75.2626H278.577V87.7575H291.058V75.2626Z" fill="#F6BCC2"/>
<path d="M278.577 75.2626H266.096V87.7575H278.577V75.2626Z" fill="#F6BCC2"/>
<path d="M216.173 75.2626H203.692V87.7575H216.173V75.2626Z" fill="#F6BCC2"/>
<path d="M203.692 75.2626H191.211V87.7575H203.692V75.2626Z" fill="#F6BCC2"/>
<path d="M191.211 75.2626H178.731V87.7575H191.211V75.2626Z" fill="#F6BCC2"/>
<path d="M178.731 75.2626H166.25V87.7575H178.731V75.2626Z" fill="#F6BCC2"/>
<path d="M166.25 75.2626H153.769V87.7575H166.25V75.2626Z" fill="#F6BCC2"/>
<path d="M153.769 75.2626H141.289V87.7575H153.769V75.2626Z" fill="#F6BCC2"/>
<path d="M141.289 75.2626H128.808V87.7575H141.289V75.2626Z" fill="#F6BCC2"/>
<path d="M128.808 75.2626H116.327V87.7575H128.808V75.2626Z" fill="#F6BCC2"/>
<path d="M116.327 75.2626H103.846V87.7575H116.327V75.2626Z" fill="#F6BCC2"/>
<path d="M103.846 75.2626H91.3655V87.7575H103.846V75.2626Z" fill="#F6BCC2"/>
<path d="M91.3655 75.2626H78.8845V87.7575H91.3655V75.2626Z" fill="#F6BCC2"/>
<path d="M78.8845 75.2626H66.4038V87.7575H78.8845V75.2626Z" fill="#F6BCC2"/>
<path d="M66.4038 75.2626H53.9231V87.7575H66.4038V75.2626Z" fill="#F6BCC2"/>
<path d="M53.9231 75.2626H41.4424V87.7575H53.9231V75.2626Z" fill="#F6BCC2"/>
<path d="M41.4424 75.2626H28.9614V87.7575H41.4424V75.2626Z" fill="#F6BCC2"/>
<path d="M390.904 62.7676H378.423V75.2626H390.904V62.7676Z" fill="#F6BCC2"/>
<path d="M378.423 62.7676H365.942V75.2626H378.423V62.7676Z" fill="#F6BCC2"/>
<path d="M365.942 62.7676H353.461V75.2626H365.942V62.7676Z" fill="#F6BCC2"/>
<path d="M353.461 62.7676H340.981V75.2626H353.461V62.7676Z" fill="#F6BCC2"/>
<path d="M340.981 62.7676H328.5V75.2626H340.981V62.7676Z" fill="#F6BCC2"/>
<path d="M328.5 62.7676H316.019V75.2626H328.5V62.7676Z" fill="#F6BCC2"/>
<path d="M316.019 62.7676H303.539V75.2626H316.019V62.7676Z" fill="#F6BCC2"/>
<path d="M303.539 62.7676H291.058V75.2626H303.539V62.7676Z" fill="#F6BCC2"/>
<path d="M291.058 62.7676H278.577V75.2626H291.058V62.7676Z" fill="#F6BCC2"/>
<path d="M278.577 62.7676H266.096V75.2626H278.577V62.7676Z" fill="#F6BCC2"/>
<path d="M216.173 62.7676H203.692V75.2626H216.173V62.7676Z" fill="#F6BCC2"/>
<path d="M203.692 62.7676H191.211V75.2626H203.692V62.7676Z" fill="#F6BCC2"/>
<path d="M191.211 62.7676H178.731V75.2626H191.211V62.7676Z" fill="#F6BCC2"/>
<path d="M178.731 62.7676H166.25V75.2626H178.731V62.7676Z" fill="#F6BCC2"/>
<path d="M166.25 62.7676H153.769V75.2626H166.25V62.7676Z" fill="#F6BCC2"/>
<path d="M153.769 62.7676H141.289V75.2626H153.769V62.7676Z" fill="#F6BCC2"/>
<path d="M141.289 62.7676H128.808V75.2626H141.289V62.7676Z" fill="#F6BCC2"/>
<path d="M128.808 62.7676H116.327V75.2626H128.808V62.7676Z" fill="#F6BCC2"/>
<path d="M116.327 62.7676H103.846V75.2626H116.327V62.7676Z" fill="#F6BCC2"/>
<path d="M103.846 62.7676H91.3655V75.2626H103.846V62.7676Z" fill="#F6BCC2"/>
<path d="M91.3655 62.7676H78.8845V75.2626H91.3655V62.7676Z" fill="#F6BCC2"/>
<path d="M78.8845 62.7676H66.4038V75.2626H78.8845V62.7676Z" fill="#F6BCC2"/>
<path d="M66.4038 62.7676H53.9231V75.2626H66.4038V62.7676Z" fill="#F6BCC2"/>
<path d="M53.9231 62.7676H41.4424V75.2626H53.9231V62.7676Z" fill="#F6BCC2"/>
<path d="M41.4424 62.7676H28.9614V75.2626H41.4424V62.7676Z" fill="#F6BCC2"/>
<path d="M28.9614 62.7676H16.4807V75.2625L28.9614 75.2626V62.7676Z" fill="#F6BCC2"/>
<path d="M390.904 50.2726H378.423V62.7676H390.904V50.2726Z" fill="#F6BCC2"/>
<path d="M378.423 50.2726H365.942V62.7676H378.423V50.2726Z" fill="#F6BCC2"/>
<path d="M365.942 50.2726H353.461V62.7676H365.942V50.2726Z" fill="#F6BCC2"/>
<path d="M353.461 50.2726H340.981V62.7676H353.461V50.2726Z" fill="#F6BCC2"/>
<path d="M340.981 50.2726H328.5V62.7676H340.981V50.2726Z" fill="#F6BCC2"/>
<path d="M328.5 50.2726H316.019V62.7676H328.5V50.2726Z" fill="#F6BCC2"/>
<path d="M316.019 50.2726H303.539V62.7676H316.019V50.2726Z" fill="#F6BCC2"/>
<path d="M303.539 50.2726H291.058V62.7676H303.539V50.2726Z" fill="#F6BCC2"/>
<path d="M291.058 50.2726H278.577V62.7676H291.058V50.2726Z" fill="#F6BCC2"/>
<path d="M278.577 50.2726H266.096V62.7676H278.577V50.2726Z" fill="#F6BCC2"/>
<path d="M216.173 50.2726H203.692V62.7676H216.173V50.2726Z" fill="#F6BCC2"/>
<path d="M203.692 50.2726H191.211V62.7676H203.692V50.2726Z" fill="#F6BCC2"/>
<path d="M191.211 50.2726H178.731V62.7676H191.211V50.2726Z" fill="#F6BCC2"/>
<path d="M178.731 50.2726H166.25V62.7676H178.731V50.2726Z" fill="#F6BCC2"/>
<path d="M166.25 50.2726H153.769V62.7676H166.25V50.2726Z" fill="#F6BCC2"/>
<path d="M153.769 50.2726H141.289V62.7676H153.769V50.2726Z" fill="#F6BCC2"/>
<path d="M141.289 50.2726H128.808V62.7676H141.289V50.2726Z" fill="#F6BCC2"/>
<path d="M128.808 50.2726H116.327V62.7676H128.808V50.2726Z" fill="#F6BCC2"/>
<path d="M116.327 50.2726H103.846V62.7676H116.327V50.2726Z" fill="#F6BCC2"/>
<path d="M103.846 50.2726H91.3655V62.7676H103.846V50.2726Z" fill="#F6BCC2"/>
<path d="M91.3655 50.2726H78.8845V62.7676H91.3655V50.2726Z" fill="#F6BCC2"/>
<path d="M78.8845 50.2726H66.4038V62.7676H78.8845V50.2726Z" fill="#F6BCC2"/>
<path d="M66.4038 50.2726H53.9231V62.7676H66.4038V50.2726Z" fill="#F6BCC2"/>
<path d="M53.9231 50.2726H41.4424V62.7676H53.9231V50.2726Z" fill="#F6BCC2"/>
<path d="M41.4424 50.2726H28.9614V62.7676H41.4424V50.2726Z" fill="#F6BCC2"/>
<path d="M28.9614 50.2726H16.4807V62.7676H28.9614V50.2726Z" fill="#F6BCC2"/>
<path d="M390.904 37.7777H378.423V50.2726H390.904V37.7777Z" fill="#F6BCC2"/>
<path d="M378.423 37.7777H365.942V50.2726H378.423V37.7777Z" fill="#F6BCC2"/>
<path d="M365.942 37.7777H353.461V50.2726H365.942V37.7777Z" fill="#F6BCC2"/>
<path d="M353.461 37.7777H340.981V50.2726H353.461V37.7777Z" fill="#F6BCC2"/>
<path d="M340.981 37.7777H328.5V50.2726H340.981V37.7777Z" fill="#F6BCC2"/>
<path d="M328.5 37.7777H316.019V50.2726H328.5V37.7777Z" fill="#F6BCC2"/>
<path d="M316.019 37.7777H303.539V50.2726H316.019V37.7777Z" fill="#F6BCC2"/>
<path d="M303.539 37.7777H291.058V50.2726H303.539V37.7777Z" fill="#F6BCC2"/>
<path d="M291.058 37.7777H278.577V50.2726H291.058V37.7777Z" fill="#F6BCC2"/>
<path d="M278.577 37.7777H266.096V50.2726H278.577V37.7777Z" fill="#F6BCC2"/>
<path d="M216.173 37.7777H203.692V50.2726H216.173V37.7777Z" fill="#F6BCC2"/>
<path d="M203.692 37.7777H191.211V50.2726H203.692V37.7777Z" fill="#F6BCC2"/>
<path d="M191.211 37.7777H178.731V50.2726H191.211V37.7777Z" fill="#F6BCC2"/>
<path d="M178.731 37.7777H166.25V50.2726H178.731V37.7777Z" fill="#F6BCC2"/>
<path d="M166.25 37.7777H153.769V50.2726H166.25V37.7777Z" fill="#F6BCC2"/>
<path d="M153.769 37.7777H141.289V50.2726H153.769V37.7777Z" fill="#F6BCC2"/>
<path d="M141.289 37.7777H128.808V50.2726H141.289V37.7777Z" fill="#F6BCC2"/>
<path d="M128.808 37.7777H116.327V50.2726H128.808V37.7777Z" fill="#F6BCC2"/>
<path d="M116.327 37.7777H103.846V50.2726H116.327V37.7777Z" fill="#F6BCC2"/>
<path d="M103.846 37.7777H91.3655V50.2726H103.846V37.7777Z" fill="#F6BCC2"/>
<path d="M91.3655 37.7777H78.8845V50.2726H91.3655V37.7777Z" fill="#F6BCC2"/>
<path d="M78.8845 37.7777H66.4038V50.2726H78.8845V37.7777Z" fill="#F6BCC2"/>
<path d="M66.4038 37.7777H53.9231V50.2726H66.4038V37.7777Z" fill="#F6BCC2"/>
<path d="M53.9231 37.7777H41.4424V50.2726H53.9231V37.7777Z" fill="#F6BCC2"/>
<path d="M41.4424 37.7777H28.9614V50.2726H41.4424V37.7777Z" fill="#F6BCC2"/>
<path d="M28.9614 37.7777H16.4807V50.2726H28.9614V37.7777Z" fill="#F6BCC2"/>
<path d="M41.4422 25.2828H28.9614V37.7777H41.4424L41.4422 25.2828Z" fill="#F6BCC2"/>
<path d="M28.9614 25.2828H16.4807V37.7777H28.9614V25.2828Z" fill="#F6BCC2"/>
<path d="M390.904 12.7878H378.423V25.2828H390.904V12.7878Z" fill="#F6BCC2"/>
<path d="M378.423 12.7878H365.942V25.2828H378.423V12.7878Z" fill="#F6BCC2"/>
<path d="M365.942 12.7878H353.461V25.2828H365.942V12.7878Z" fill="#F6BCC2"/>
<path d="M353.461 12.7878H340.981V25.2828H353.461V12.7878Z" fill="#F6BCC2"/>
<path d="M340.981 12.7878H328.5V25.2828H340.981V12.7878Z" fill="#F6BCC2"/>
<path d="M328.5 12.7878H316.019V25.2828H328.5V12.7878Z" fill="#F6BCC2"/>
<path d="M316.019 12.7878H303.539V25.2828H316.019V12.7878Z" fill="#F6BCC2"/>
<path d="M303.539 12.7878H291.058V25.2828H303.539V12.7878Z" fill="#F6BCC2"/>
<path d="M291.058 12.7878H278.577V25.2828H291.058V12.7878Z" fill="#F6BCC2"/>
<path d="M278.577 12.7878H266.096V25.2828H278.577V12.7878Z" fill="#F6BCC2"/>
<path d="M216.173 12.7878H203.692V25.2828H216.173V12.7878Z" fill="#F6BCC2"/>
<path d="M203.692 12.7878H191.211V25.2828H203.692V12.7878Z" fill="#F6BCC2"/>
<path d="M191.211 12.7878H178.731V25.2828H191.211V12.7878Z" fill="#F6BCC2"/>
<path d="M178.731 12.7878H166.25V25.2828H178.731V12.7878Z" fill="#F6BCC2"/>
<path d="M166.25 12.7878H153.769V25.2828H166.25V12.7878Z" fill="#F6BCC2"/>
<path d="M153.769 12.7878H141.289V25.2828H153.769V12.7878Z" fill="#F6BCC2"/>
<path d="M141.289 12.7878H128.808V25.2828H141.289V12.7878Z" fill="#F6BCC2"/>
<path d="M128.808 12.7878H116.327V25.2828H128.808V12.7878Z" fill="#F6BCC2"/>
<path d="M116.327 12.7878H103.846V25.2828H116.327V12.7878Z" fill="#F6BCC2"/>
<path d="M103.846 12.7878H91.3655V25.2828H103.846V12.7878Z" fill="#F6BCC2"/>
<path d="M91.3655 12.7878H78.8845V25.2828H91.3655V12.7878Z" fill="#F6BCC2"/>
<path d="M78.8845 12.7878H66.4038V25.2828H78.8845V12.7878Z" fill="#F6BCC2"/>
<path d="M66.4038 12.7878H53.9231V25.2828H66.4038V12.7878Z" fill="#F6BCC2"/>
<path d="M53.9231 12.7878H41.4424L41.4422 25.2828L53.9231 25.2828V12.7878Z" fill="#F6BCC2"/>
<path d="M41.4424 12.7878H28.9614V25.2828H41.4422L41.4424 12.7878Z" fill="#F6BCC2"/>
<path d="M266.096 75.2626H253.615V87.7575H266.096V75.2626Z" fill="#F6BCC2"/>
<path d="M253.615 75.2626H241.135V87.7575H253.615V75.2626Z" fill="#F6BCC2"/>
<path d="M241.135 75.2626H228.654V87.7575H241.135V75.2626Z" fill="#F6BCC2"/>
<path d="M228.654 75.2626H216.173V87.7575H228.654V75.2626Z" fill="#F6BCC2"/>
<path d="M266.096 62.7676H253.615V75.2626H266.096V62.7676Z" fill="#F6BCC2"/>
<path d="M253.615 62.7676H241.135V75.2626H253.615V62.7676Z" fill="#F6BCC2"/>
<path d="M241.135 62.7676H228.654V75.2626H241.135V62.7676Z" fill="#F6BCC2"/>
<path d="M228.654 62.7676H216.173V75.2626H228.654V62.7676Z" fill="#F6BCC2"/>
<path d="M266.096 50.2726H253.615V62.7676H266.096V50.2726Z" fill="#F6BCC2"/>
<path d="M253.615 50.2726H241.135V62.7676H253.615V50.2726Z" fill="#F6BCC2"/>
<path d="M241.135 50.2726H228.654V62.7676H241.135V50.2726Z" fill="#F6BCC2"/>
<path d="M228.654 50.2726H216.173V62.7676H228.654V50.2726Z" fill="#F6BCC2"/>
<path d="M266.096 37.7777H253.615V50.2726H266.096V37.7777Z" fill="#F6BCC2"/>
<path d="M253.615 37.7777H241.135V50.2726H253.615V37.7777Z" fill="#F6BCC2"/>
<path d="M241.135 37.7777H228.654V50.2726H241.135V37.7777Z" fill="#F6BCC2"/>
<path d="M228.654 37.7777H216.173V50.2726H228.654V37.7777Z" fill="#F6BCC2"/>
<path d="M266.096 12.7878H253.615V25.2828H266.096V12.7878Z" fill="#F6BCC2"/>
<path d="M253.615 12.7878H241.135V25.2828H253.615V12.7878Z" fill="#F6BCC2"/>
<path d="M241.135 12.7878H228.654V25.2828H241.135V12.7878Z" fill="#F6BCC2"/>
<path d="M228.654 12.7878H216.173V25.2828H228.654V12.7878Z" fill="#F6BCC2"/>
<path d="M628.038 75.2626H615.558V87.7575H628.038V75.2626Z" fill="#6D3435"/>
<path d="M615.558 75.2626H603.077V87.7575H615.558V75.2626Z" fill="#6D3435"/>
<path d="M515.711 75.2626H503.231V87.7575H515.711V75.2626Z" fill="#6D3435"/>
<path d="M465.788 75.2626H453.308V87.7575H465.788V75.2626Z" fill="#6D3435"/>
<path d="M453.308 75.2626H440.827V87.7575H453.308V75.2626Z" fill="#6D3435"/>
<path d="M440.827 75.2626H428.346V87.7575H440.827V75.2626Z" fill="#6D3435"/>
<path d="M428.346 75.2626H415.865V87.7575H428.346V75.2626Z" fill="#6D3435"/>
<path d="M415.865 75.2626H403.385V87.7575H415.865V75.2626Z" fill="#6D3435"/>
<path d="M403.385 75.2626H390.904V87.7575H403.385V75.2626Z" fill="#6D3435"/>
<path d="M640.519 62.7676H628.039L628.038 75.2626L640.519 75.2625V62.7676Z" fill="#6D3435"/>
<path d="M628.039 62.7676H615.558V75.2626H628.038L628.039 62.7676Z" fill="#6D3435"/>
<path d="M615.558 62.7676H603.077V75.2626H615.558V62.7676Z" fill="#6D3435"/>
<path d="M515.711 62.7676H503.231V75.2626H515.711V62.7676Z" fill="#6D3435"/>
<path d="M465.788 62.7676H453.308V75.2626H465.788V62.7676Z" fill="#6D3435"/>
<path d="M453.308 62.7676H440.827V75.2626H453.308V62.7676Z" fill="#6D3435"/>
<path d="M440.827 62.7676H428.346V75.2626H440.827V62.7676Z" fill="#6D3435"/>
<path d="M428.346 62.7676H415.865V75.2626H428.346V62.7676Z" fill="#6D3435"/>
<path d="M415.865 62.7676H403.385V75.2626H415.865V62.7676Z" fill="#6D3435"/>
<path d="M403.385 62.7676H390.904V75.2626H403.385V62.7676Z" fill="#6D3435"/>
<path d="M640.519 50.2726H628.039V62.7676H640.519V50.2726Z" fill="#6D3435"/>
<path d="M628.039 50.2726H615.558V62.7676H628.039V50.2726Z" fill="#6D3435"/>
<path d="M615.558 50.2726H603.077V62.7676H615.558V50.2726Z" fill="#6D3435"/>
<path d="M515.711 50.2726H503.231V62.7676H515.711V50.2726Z" fill="#6D3435"/>
<path d="M465.788 50.2726H453.308V62.7676H465.788V50.2726Z" fill="#6D3435"/>
<path d="M453.308 50.2726H440.827V62.7676H453.308V50.2726Z" fill="#6D3435"/>
<path d="M440.827 50.2726H428.346V62.7676H440.827V50.2726Z" fill="#6D3435"/>
<path d="M428.346 50.2726H415.865V62.7676H428.346V50.2726Z" fill="#6D3435"/>
<path d="M415.865 50.2726H403.385V62.7676H415.865V50.2726Z" fill="#6D3435"/>
<path d="M403.385 50.2726H390.904V62.7676H403.385V50.2726Z" fill="#6D3435"/>
<path d="M640.519 37.7777H628.039V50.2726H640.519V37.7777Z" fill="#6D3435"/>
<path d="M628.039 37.7777H615.558V50.2726H628.039V37.7777Z" fill="#6D3435"/>
<path d="M615.558 37.7777H603.077V50.2726H615.558V37.7777Z" fill="#6D3435"/>
<path d="M515.711 37.7777H503.231V50.2726H515.711V37.7777Z" fill="#6D3435"/>
<path d="M465.788 37.7777H453.308V50.2726H465.788V37.7777Z" fill="#6D3435"/>
<path d="M453.308 37.7777H440.827V50.2726H453.308V37.7777Z" fill="#6D3435"/>
<path d="M440.827 37.7777H428.346V50.2726H440.827V37.7777Z" fill="#6D3435"/>
<path d="M428.346 37.7777H415.865V50.2726H428.346V37.7777Z" fill="#6D3435"/>
<path d="M415.865 37.7777H403.385V50.2726H415.865V37.7777Z" fill="#6D3435"/>
<path d="M403.385 37.7777H390.904V50.2726H403.385V37.7777Z" fill="#6D3435"/>
<path d="M640.519 25.2828H628.039V37.7777H640.519V25.2828Z" fill="#6D3435"/>
<path d="M628.039 25.2828H615.558V37.7777H628.039V25.2828Z" fill="#6D3435"/>
<path d="M615.558 25.2828H603.077V37.7777H615.558V25.2828Z" fill="#6D3435"/>
<path d="M515.711 25.2828H503.231V37.7777H515.711V25.2828Z" fill="#6D3435"/>
<path d="M465.788 25.2828H453.308V37.7777H465.788V25.2828Z" fill="#6D3435"/>
<path d="M453.308 25.2828H440.827V37.7777H453.308V25.2828Z" fill="#6D3435"/>
<path d="M440.827 25.2828H428.346V37.7777H440.827V25.2828Z" fill="#6D3435"/>
<path d="M428.346 25.2828H415.865V37.7777H428.346V25.2828Z" fill="#6D3435"/>
<path d="M415.865 25.2828H403.385V37.7777H415.865V25.2828Z" fill="#6D3435"/>
<path d="M403.385 25.2828H390.904V37.7777H403.385V25.2828Z" fill="#6D3435"/>
<path d="M628.038 12.7878H615.558V25.2828H628.039L628.038 12.7878Z" fill="#6D3435"/>
<path d="M615.558 12.7878H603.077V25.2828H615.558V12.7878Z" fill="#6D3435"/>
<path d="M515.711 12.7878H503.231V25.2828H515.711V12.7878Z" fill="#6D3435"/>
<path d="M465.788 12.7878H453.308V25.2828H465.788V12.7878Z" fill="#6D3435"/>
<path d="M453.308 12.7878H440.827V25.2828H453.308V12.7878Z" fill="#6D3435"/>
<path d="M440.827 12.7878H428.346V25.2828H440.827V12.7878Z" fill="#6D3435"/>
<path d="M428.346 12.7878H415.865V25.2828H428.346V12.7878Z" fill="#6D3435"/>
<path d="M415.865 12.7878H403.385V25.2828H415.865V12.7878Z" fill="#6D3435"/>
<path d="M403.385 12.7878H390.904V25.2828H403.385V12.7878Z" fill="#6D3435"/>
<path d="M503.231 75.2626H490.75V87.7575H503.231V75.2626Z" fill="#6D3435"/>
<path d="M490.75 75.2626H478.269V87.7575H490.75V75.2626Z" fill="#6D3435"/>
<path d="M478.269 75.2626H465.788V87.7575H478.269V75.2626Z" fill="#6D3435"/>
<path d="M503.231 62.7676H490.75V75.2626H503.231V62.7676Z" fill="#6D3435"/>
<path d="M490.75 62.7676H478.269V75.2626H490.75V62.7676Z" fill="#6D3435"/>
<path d="M478.269 62.7676H465.788V75.2626H478.269V62.7676Z" fill="#6D3435"/>
<path d="M503.231 50.2726H490.75V62.7676H503.231V50.2726Z" fill="#6D3435"/>
<path d="M490.75 50.2726H478.269V62.7676H490.75V50.2726Z" fill="#6D3435"/>
<path d="M478.269 50.2726H465.788V62.7676H478.269V50.2726Z" fill="#6D3435"/>
<path d="M503.231 37.7777H490.75V50.2726H503.231V37.7777Z" fill="#6D3435"/>
<path d="M490.75 37.7777H478.269V50.2726H490.75V37.7777Z" fill="#6D3435"/>
<path d="M478.269 37.7777H465.788V50.2726H478.269V37.7777Z" fill="#6D3435"/>
<path d="M503.231 25.2828H490.75V37.7777H503.231V25.2828Z" fill="#6D3435"/>
<path d="M490.75 25.2828H478.269V37.7777H490.75V25.2828Z" fill="#6D3435"/>
<path d="M478.269 25.2828H465.788V37.7777H478.269V25.2828Z" fill="#6D3435"/>
<path d="M503.231 12.7878H490.75V25.2828H503.231V12.7878Z" fill="#6D3435"/>
<path d="M490.75 12.7878H478.269V25.2828H490.75V12.7878Z" fill="#6D3435"/>
<path d="M478.269 12.7878H465.788V25.2828H478.269V12.7878Z" fill="#6D3435"/>
<path d="M603.077 75.2626H590.596V87.7575H603.077V75.2626Z" fill="#6D3435"/>
<path d="M590.596 75.2626H578.115V87.7575H590.596V75.2626Z" fill="#6D3435"/>
<path d="M603.077 62.7676H590.596V75.2626H603.077V62.7676Z" fill="#6D3435"/>
<path d="M590.596 62.7676H578.115V75.2626H590.596V62.7676Z" fill="#6D3435"/>
<path d="M603.077 50.2726H590.596V62.7676H603.077V50.2726Z" fill="#6D3435"/>
<path d="M590.596 50.2726H578.115V62.7676H590.596V50.2726Z" fill="#6D3435"/>
<path d="M603.077 37.7777H590.596V50.2726H603.077V37.7777Z" fill="#6D3435"/>
<path d="M590.596 37.7777H578.115V50.2726H590.596V37.7777Z" fill="#6D3435"/>
<path d="M603.077 25.2828H590.596V37.7777H603.077V25.2828Z" fill="#6D3435"/>
<path d="M590.596 25.2828H578.115V37.7777H590.596V25.2828Z" fill="#6D3435"/>
<path d="M603.077 12.7878H590.596V25.2828H603.077V12.7878Z" fill="#6D3435"/>
<path d="M590.596 12.7878H578.115V25.2828H590.596V12.7878Z" fill="#6D3435"/>
<path d="M578.115 75.2626H565.635V87.7575H578.115V75.2626Z" fill="#6D3435"/>
<path d="M578.115 62.7676H565.635V75.2626H578.115V62.7676Z" fill="#6D3435"/>
<path d="M578.115 50.2726H565.635V62.7676H578.115V50.2726Z" fill="#6D3435"/>
<path d="M578.115 37.7777H565.635V50.2726H578.115V37.7777Z" fill="#6D3435"/>
<path d="M578.115 25.2828H565.635V37.7777H578.115V25.2828Z" fill="#6D3435"/>
<path d="M578.115 12.7878H565.635V25.2828H578.115V12.7878Z" fill="#6D3435"/>
<path d="M565.635 75.2626H553.154V87.7575H565.635V75.2626Z" fill="#6D3435"/>
<path d="M553.154 75.2626H540.673V87.7575H553.154V75.2626Z" fill="#6D3435"/>
<path d="M565.635 62.7676H553.154V75.2626H565.635V62.7676Z" fill="#6D3435"/>
<path d="M553.154 62.7676H540.673V75.2626H553.154V62.7676Z" fill="#6D3435"/>
<path d="M565.635 50.2726H553.154V62.7676H565.635V50.2726Z" fill="#6D3435"/>
<path d="M553.154 50.2726H540.673V62.7676H553.154V50.2726Z" fill="#6D3435"/>
<path d="M565.635 37.7777H553.154V50.2726H565.635V37.7777Z" fill="#6D3435"/>
<path d="M553.154 37.7777H540.673V50.2726H553.154V37.7777Z" fill="#6D3435"/>
<path d="M565.635 25.2828H553.154V37.7777H565.635V25.2828Z" fill="#6D3435"/>
<path d="M553.154 25.2828H540.673V37.7777H553.154V25.2828Z" fill="#6D3435"/>
<path d="M565.635 12.7878H553.154V25.2828H565.635V12.7878Z" fill="#6D3435"/>
<path d="M553.154 12.7878H540.673V25.2828H553.154V12.7878Z" fill="#6D3435"/>
<path d="M540.673 75.2626H528.192V87.7575H540.673V75.2626Z" fill="#6D3435"/>
<path d="M540.673 62.7676H528.192V75.2626H540.673V62.7676Z" fill="#6D3435"/>
<path d="M540.673 50.2726H528.192V62.7676H540.673V50.2726Z" fill="#6D3435"/>
<path d="M540.673 37.7777H528.192V50.2726H540.673V37.7777Z" fill="#6D3435"/>
<path d="M540.673 25.2828H528.192V37.7777H540.673V25.2828Z" fill="#6D3435"/>
<path d="M540.673 12.7878H528.192V25.2828H540.673V12.7878Z" fill="#6D3435"/>
<path d="M528.192 75.2626H515.711V87.7575H528.192V75.2626Z" fill="#6D3435"/>
<path d="M528.192 62.7676H515.711V75.2626H528.192V62.7676Z" fill="#6D3435"/>
<path d="M528.192 50.2726H515.711V62.7676H528.192V50.2726Z" fill="#6D3435"/>
<path d="M528.192 37.7777H515.711V50.2726H528.192V37.7777Z" fill="#6D3435"/>
<path d="M528.192 25.2828H515.711V37.7777H528.192V25.2828Z" fill="#6D3435"/>
<path d="M528.192 12.7878H515.711V25.2828H528.192V12.7878Z" fill="#6D3435"/>
<path d="M628.038 87.7576H615.558V100.253H628.038V87.7576Z" fill="#813E3F"/>
<path d="M615.558 87.7576H603.077V100.253H615.558V87.7576Z" fill="#813E3F"/>
<path d="M515.711 87.7576H503.231V100.253H515.711V87.7576Z" fill="#813E3F"/>
<path d="M465.788 87.7576H453.308V100.253H465.788V87.7576Z" fill="#813E3F"/>
<path d="M453.308 87.7576H440.827V100.253H453.308V87.7576Z" fill="#813E3F"/>
<path d="M440.827 87.7576H428.346V100.253H440.827V87.7576Z" fill="#813E3F"/>
<path d="M428.346 87.7576H415.865V100.253H428.346V87.7576Z" fill="#813E3F"/>
<path d="M415.865 87.7576H403.385V100.253H415.865V87.7576Z" fill="#813E3F"/>
<path d="M403.385 87.7576H390.904V100.253H403.385V87.7576Z" fill="#813E3F"/>
<path d="M390.904 87.7576H378.423V100.253H390.904V87.7576Z" fill="#813E3F"/>
<path d="M378.423 87.7576H365.942V100.253H378.423V87.7576Z" fill="#813E3F"/>
<path d="M365.942 87.7576H353.461V100.253H365.942V87.7576Z" fill="#813E3F"/>
<path d="M353.461 87.7576H340.981V100.253H353.461V87.7576Z" fill="#813E3F"/>
<path d="M340.981 87.7576H328.5V100.253H340.981V87.7576Z" fill="#813E3F"/>
<path d="M328.5 87.7576H316.019V100.253H328.5V87.7576Z" fill="#813E3F"/>
<path d="M316.019 87.7576H303.539V100.253H316.019V87.7576Z" fill="#813E3F"/>
<path d="M303.539 87.7576H291.058V100.253H303.539V87.7576Z" fill="#813E3F"/>
<path d="M291.058 87.7576H278.577V100.253H291.058V87.7576Z" fill="#813E3F"/>
<path d="M278.577 87.7576H266.096V100.253H278.577V87.7576Z" fill="#813E3F"/>
<path d="M216.173 87.7576H203.692V100.253H216.173V87.7576Z" fill="#813E3F"/>
<path d="M203.692 87.7576H191.211V100.253H203.692V87.7576Z" fill="#813E3F"/>
<path d="M191.211 87.7576H178.731V100.253H191.211V87.7576Z" fill="#813E3F"/>
<path d="M178.731 87.7576H166.25V100.253H178.731V87.7576Z" fill="#813E3F"/>
<path d="M166.25 87.7576H153.769V100.253H166.25V87.7576Z" fill="#813E3F"/>
<path d="M153.769 87.7576H141.289V100.253H153.769V87.7576Z" fill="#813E3F"/>
<path d="M141.289 87.7576H128.808V100.253H141.289V87.7576Z" fill="#813E3F"/>
<path d="M128.808 87.7576H116.327V100.253H128.808V87.7576Z" fill="#813E3F"/>
<path d="M116.327 87.7576H103.846V100.253H116.327V87.7576Z" fill="#813E3F"/>
<path d="M103.846 87.7576H91.3655V100.253H103.846V87.7576Z" fill="#813E3F"/>
<path d="M91.3655 87.7576H78.8845V100.253H91.3655V87.7576Z" fill="#813E3F"/>
<path d="M78.8845 87.7576H66.4038V100.253H78.8845V87.7576Z" fill="#813E3F"/>
<path d="M66.4038 87.7576H53.9231V100.253H66.4038V87.7576Z" fill="#813E3F"/>
<path d="M53.9231 87.7576H41.4424V100.253H53.9231V87.7576Z" fill="#813E3F"/>
<path d="M41.4424 87.7576H28.9614V100.253H41.4424V87.7576Z" fill="#813E3F"/>
<path d="M640.519 75.2626H628.039L628.038 87.7576L640.519 87.7576V75.2626Z" fill="#813E3F"/>
<path d="M28.9615 75.2626H16.4807V87.7576L28.9614 87.7576L28.9615 75.2626Z" fill="#813E3F"/>
<path d="M653 62.7676H640.519L640.519 75.2626L653 75.2626V62.7676Z" fill="#813E3F"/>
<path d="M16.4808 62.7676H4V75.2626L16.4807 75.2626L16.4808 62.7676Z" fill="#813E3F"/>
<path d="M653 50.2727H640.519V62.7676H653V50.2727Z" fill="#813E3F"/>
<path d="M16.4808 50.2727H4V62.7676H16.4808V50.2727Z" fill="#813E3F"/>
<path d="M653 37.7778H640.519V50.2727H653V37.7778Z" fill="#813E3F"/>
<path d="M16.4808 37.7778H4V50.2727H16.4808V37.7778Z" fill="#813E3F"/>
<path d="M653 25.2828H640.519V37.7778H653V25.2828Z" fill="#813E3F"/>
<path d="M16.4808 25.2828H4V37.7778H16.4808V25.2828Z" fill="#813E3F"/>
<path d="M640.519 12.7879H628.039V25.2829L640.519 25.2828L640.519 12.7879Z" fill="#813E3F"/>
<path d="M28.9615 12.7879H16.4807L16.4808 25.2828L28.9615 25.2829V12.7879Z" fill="#813E3F"/>
<path d="M628.038 0.292969H615.558V12.7879L628.039 12.7879L628.038 0.292969Z" fill="#813E3F"/>
<path d="M615.558 0.292969H603.077V12.7879H615.558V0.292969Z" fill="#813E3F"/>
<path d="M515.711 0.292969H503.231V12.7879H515.711V0.292969Z" fill="#813E3F"/>
<path d="M465.788 0.292969H453.308V12.7879H465.788V0.292969Z" fill="#813E3F"/>
<path d="M453.308 0.292969H440.827V12.7879H453.308V0.292969Z" fill="#813E3F"/>
<path d="M440.827 0.292969H428.346V12.7879H440.827V0.292969Z" fill="#813E3F"/>
<path d="M503.231 87.7576H490.75V100.253H503.231V87.7576Z" fill="#813E3F"/>
<path d="M490.75 87.7576H478.269V100.253H490.75V87.7576Z" fill="#813E3F"/>
<path d="M478.269 87.7576H465.788V100.253H478.269V87.7576Z" fill="#813E3F"/>
<path d="M503.231 0.292969H490.75V12.7879H503.231V0.292969Z" fill="#813E3F"/>
<path d="M490.75 0.292969H478.269V12.7879H490.75V0.292969Z" fill="#813E3F"/>
<path d="M603.077 87.7576H590.596V100.253H603.077V87.7576Z" fill="#813E3F"/>
<path d="M590.596 87.7576H578.115V100.253H590.596V87.7576Z" fill="#813E3F"/>
<path d="M603.077 0.292969H590.596V12.7879H603.077V0.292969Z" fill="#813E3F"/>
<path d="M590.596 0.292969H578.115V12.7879H590.596V0.292969Z" fill="#813E3F"/>
<path d="M478.269 0.292969H465.788V12.7879H478.269V0.292969Z" fill="#813E3F"/>
<path d="M428.346 0.292969H415.865V12.7879H428.346V0.292969Z" fill="#813E3F"/>
<path d="M415.865 0.292969H403.385V12.7879H415.865V0.292969Z" fill="#813E3F"/>
<path d="M403.385 0.292969H390.904V12.7879H403.385V0.292969Z" fill="#813E3F"/>
<path d="M390.904 0.292969H378.423V12.7879H390.904V0.292969Z" fill="#813E3F"/>
<path d="M378.423 0.292969H365.942V12.7879H378.423V0.292969Z" fill="#813E3F"/>
<path d="M365.942 0.292969H353.461V12.7879H365.942V0.292969Z" fill="#813E3F"/>
<path d="M353.461 0.292969H340.981V12.7879H353.461V0.292969Z" fill="#813E3F"/>
<path d="M340.981 0.292969H328.5V12.7879H340.981V0.292969Z" fill="#813E3F"/>
<path d="M328.5 0.292969H316.019V12.7879H328.5V0.292969Z" fill="#813E3F"/>
<path d="M316.019 0.292969H303.539V12.7879H316.019V0.292969Z" fill="#813E3F"/>
<path d="M303.539 0.292969H291.058V12.7879H303.539V0.292969Z" fill="#813E3F"/>
<path d="M291.058 0.292969H278.577V12.7879H291.058V0.292969Z" fill="#813E3F"/>
<path d="M278.577 0.292969H266.096V12.7879H278.577V0.292969Z" fill="#813E3F"/>
<path d="M216.173 0.292969H203.692V12.7879H216.173V0.292969Z" fill="#813E3F"/>
<path d="M203.692 0.292969H191.211V12.7879H203.692V0.292969Z" fill="#813E3F"/>
<path d="M191.211 0.292969H178.731V12.7879H191.211V0.292969Z" fill="#813E3F"/>
<path d="M178.731 0.292969H166.25V12.7879H178.731V0.292969Z" fill="#813E3F"/>
<path d="M266.096 87.7576H253.615V100.253H266.096V87.7576Z" fill="#813E3F"/>
<path d="M253.615 87.7576H241.135V100.253H253.615V87.7576Z" fill="#813E3F"/>
<path d="M241.135 87.7576H228.654V100.253H241.135V87.7576Z" fill="#813E3F"/>
<path d="M228.654 87.7576H216.173V100.253H228.654V87.7576Z" fill="#813E3F"/>
<path d="M266.096 0.292969H253.615V12.7879H266.096V0.292969Z" fill="#813E3F"/>
<path d="M253.615 0.292969H241.135V12.7879H253.615V0.292969Z" fill="#813E3F"/>
<path d="M241.135 0.292969H228.654V12.7879H241.135V0.292969Z" fill="#813E3F"/>
<path d="M228.654 0.292969H216.173V12.7879H228.654V0.292969Z" fill="#813E3F"/>
<path d="M166.25 0.292969H153.769V12.7879H166.25V0.292969Z" fill="#813E3F"/>
<path d="M153.769 0.292969H141.289V12.7879H153.769V0.292969Z" fill="#813E3F"/>
<path d="M141.289 0.292969H128.808V12.7879H141.289V0.292969Z" fill="#813E3F"/>
<path d="M128.808 0.292969H116.327V12.7879H128.808V0.292969Z" fill="#813E3F"/>
<path d="M116.327 0.292969H103.846V12.7879H116.327V0.292969Z" fill="#813E3F"/>
<path d="M103.846 0.292969H91.3655V12.7879H103.846V0.292969Z" fill="#813E3F"/>
<path d="M91.3655 0.292969H78.8845V12.7879H91.3655V0.292969Z" fill="#813E3F"/>
<path d="M78.8845 0.292969H66.4038V12.7879H78.8845V0.292969Z" fill="#813E3F"/>
<path d="M66.4038 0.292969H53.9231V12.7879H66.4038V0.292969Z" fill="#813E3F"/>
<path d="M53.9231 0.292969H41.4424V12.7879H53.9231V0.292969Z" fill="#813E3F"/>
<path d="M41.4424 0.292969H28.9614L28.9615 12.7879L41.4424 12.7879V0.292969Z" fill="#813E3F"/>
<path d="M540.673 87.7576H528.192V100.253H540.673V87.7576Z" fill="#813E3F"/>
<path d="M540.673 0.292969H528.192V12.7879H540.673V0.292969Z" fill="#813E3F"/>
<path d="M528.192 87.7576H515.711V100.253H528.192V87.7576Z" fill="#813E3F"/>
<path d="M528.192 0.292969H515.711V12.7879H528.192V0.292969Z" fill="#813E3F"/>
<path d="M578.115 87.7576H565.635V100.253H578.115V87.7576Z" fill="#813E3F"/>
<path d="M578.115 0.292969H565.635V12.7879H578.115V0.292969Z" fill="#813E3F"/>
<path d="M565.635 87.7576H553.154V100.253H565.635V87.7576Z" fill="#813E3F"/>
<path d="M553.154 87.7576H540.673V100.253H553.154V87.7576Z" fill="#813E3F"/>
<path d="M565.635 0.292969H553.154V12.7879H565.635V0.292969Z" fill="#813E3F"/>
<path d="M553.154 0.292969H540.673V12.7879H553.154V0.292969Z" fill="#813E3F"/>
</g>
<defs>
<filter id="filter0_d_1_3063" x="0" y="0.292969" width="657" height="107.959" filterUnits="userSpaceOnUse" color-interpolation-filters="sRGB">
<feFlood flood-opacity="0" result="BackgroundImageFix"/>
<feColorMatrix in="SourceAlpha" type="matrix" values="0 0 0 0 0 0 0 0 0 0 0 0 0 0 0 0 0 0 127 0" result="hardAlpha"/>
<feOffset dy="4"/>
<feGaussianBlur stdDeviation="2"/>
<feComposite in2="hardAlpha" operator="out"/>
<feColorMatrix type="matrix" values="0 0 0 0 0 0 0 0 0 0 0 0 0 0 0 0 0 0 0.25 0"/>
<feBlend mode="normal" in2="BackgroundImageFix" result="effect1_dropShadow_1_3063"/>
<feBlend mode="normal" in="SourceGraphic" in2="effect1_dropShadow_1_3063" result="shape"/>
</filter>
</defs>
</svg>
