<svg width="250" height="70" viewBox="0 0 649 101" fill="none" xmlns="http://www.w3.org/2000/svg">
<path d="M137.288 25.0808H124.808V37.5758H137.288V25.0808Z" fill="#FFFDFB"/>
<path d="M124.808 25.0808H112.327V37.5758H124.808V25.0808Z" fill="#FFFDFB"/>
<path d="M112.327 25.0808H99.8462V37.5758H112.327V25.0808Z" fill="#FFFDFB"/>
<path d="M99.8462 25.0808H87.3655V37.5758H99.8462V25.0808Z" fill="#FFFDFB"/>
<path d="M87.3655 25.0808H74.8845V37.5758H87.3655V25.0808Z" fill="#FFFDFB"/>
<path d="M74.8845 25.0808H62.4038V37.5758H74.8845V25.0808Z" fill="#FFFDFB"/>
<path d="M62.4038 25.0808H49.9231V37.5758H62.4038V25.0808Z" fill="#FFFDFB"/>
<path d="M49.9231 25.0808H37.4424V37.5758H49.9231V25.0808Z" fill="#FFFDFB"/>
<path d="M137.288 75.0607H124.808V87.5556H137.288V75.0607Z" fill="#F6BCC2"/>
<path d="M124.808 75.0607H112.327V87.5556H124.808V75.0607Z" fill="#F6BCC2"/>
<path d="M112.327 75.0607H99.8462V87.5556H112.327V75.0607Z" fill="#F6BCC2"/>
<path d="M99.8462 75.0607H87.3655V87.5556H99.8462V75.0607Z" fill="#F6BCC2"/>
<path d="M87.3655 75.0607H74.8845V87.5556H87.3655V75.0607Z" fill="#F6BCC2"/>
<path d="M74.8845 75.0607H62.4038V87.5556H74.8845V75.0607Z" fill="#F6BCC2"/>
<path d="M62.4038 75.0607H49.9231V87.5556H62.4038V75.0607Z" fill="#F6BCC2"/>
<path d="M49.9231 75.0607H37.4424V87.5556H49.9231V75.0607Z" fill="#F6BCC2"/>
<path d="M37.4424 75.0607H24.9614V87.5556H37.4424V75.0607Z" fill="#F6BCC2"/>
<path d="M137.288 62.5657H124.808V75.0607H137.288V62.5657Z" fill="#F6BCC2"/>
<path d="M124.808 62.5657H112.327V75.0607H124.808V62.5657Z" fill="#F6BCC2"/>
<path d="M112.327 62.5657H99.8462V75.0607H112.327V62.5657Z" fill="#F6BCC2"/>
<path d="M99.8462 62.5657H87.3655V75.0607H99.8462V62.5657Z" fill="#F6BCC2"/>
<path d="M87.3655 62.5657H74.8845V75.0607H87.3655V62.5657Z" fill="#F6BCC2"/>
<path d="M74.8845 62.5657H62.4038V75.0607H74.8845V62.5657Z" fill="#F6BCC2"/>
<path d="M62.4038 62.5657H49.9231V75.0607H62.4038V62.5657Z" fill="#F6BCC2"/>
<path d="M49.9231 62.5657H37.4424V75.0607H49.9231V62.5657Z" fill="#F6BCC2"/>
<path d="M37.4424 62.5657H24.9614V75.0607H37.4424V62.5657Z" fill="#F6BCC2"/>
<path d="M24.9614 62.5657H12.4807V75.0606L24.9614 75.0607V62.5657Z" fill="#F6BCC2"/>
<path d="M137.288 50.0707H124.808V62.5657H137.288V50.0707Z" fill="#F6BCC2"/>
<path d="M124.808 50.0707H112.327V62.5657H124.808V50.0707Z" fill="#F6BCC2"/>
<path d="M112.327 50.0707H99.8462V62.5657H112.327V50.0707Z" fill="#F6BCC2"/>
<path d="M99.8462 50.0707H87.3655V62.5657H99.8462V50.0707Z" fill="#F6BCC2"/>
<path d="M87.3655 50.0707H74.8845V62.5657H87.3655V50.0707Z" fill="#F6BCC2"/>
<path d="M74.8845 50.0707H62.4038V62.5657H74.8845V50.0707Z" fill="#F6BCC2"/>
<path d="M62.4038 50.0707H49.9231V62.5657H62.4038V50.0707Z" fill="#F6BCC2"/>
<path d="M49.9231 50.0707H37.4424V62.5657H49.9231V50.0707Z" fill="#F6BCC2"/>
<path d="M37.4424 50.0707H24.9614V62.5657H37.4424V50.0707Z" fill="#F6BCC2"/>
<path d="M24.9614 50.0707H12.4807V62.5657H24.9614V50.0707Z" fill="#F6BCC2"/>
<path d="M137.288 37.5758H124.808V50.0707H137.288V37.5758Z" fill="#F6BCC2"/>
<path d="M124.808 37.5758H112.327V50.0707H124.808V37.5758Z" fill="#F6BCC2"/>
<path d="M112.327 37.5758H99.8462V50.0707H112.327V37.5758Z" fill="#F6BCC2"/>
<path d="M99.8462 37.5758H87.3655V50.0707H99.8462V37.5758Z" fill="#F6BCC2"/>
<path d="M87.3655 37.5758H74.8845V50.0707H87.3655V37.5758Z" fill="#F6BCC2"/>
<path d="M74.8845 37.5758H62.4038V50.0707H74.8845V37.5758Z" fill="#F6BCC2"/>
<path d="M62.4038 37.5758H49.9231V50.0707H62.4038V37.5758Z" fill="#F6BCC2"/>
<path d="M49.9231 37.5758H37.4424V50.0707H49.9231V37.5758Z" fill="#F6BCC2"/>
<path d="M37.4424 37.5758H24.9614V50.0707H37.4424V37.5758Z" fill="#F6BCC2"/>
<path d="M24.9614 37.5758H12.4807V50.0707H24.9614V37.5758Z" fill="#F6BCC2"/>
<path d="M37.4422 25.0808H24.9614V37.5758H37.4424L37.4422 25.0808Z" fill="#F6BCC2"/>
<path d="M24.9614 25.0808H12.4807V37.5758H24.9614V25.0808Z" fill="#F6BCC2"/>
<path d="M137.288 12.5859H124.808V25.0809H137.288V12.5859Z" fill="#F6BCC2"/>
<path d="M124.808 12.5859H112.327V25.0809H124.808V12.5859Z" fill="#F6BCC2"/>
<path d="M112.327 12.5859H99.8462V25.0809H112.327V12.5859Z" fill="#F6BCC2"/>
<path d="M99.8462 12.5859H87.3655V25.0809H99.8462V12.5859Z" fill="#F6BCC2"/>
<path d="M87.3655 12.5859H74.8845V25.0809H87.3655V12.5859Z" fill="#F6BCC2"/>
<path d="M74.8845 12.5859H62.4038V25.0809H74.8845V12.5859Z" fill="#F6BCC2"/>
<path d="M62.4038 12.5859H49.9231V25.0809H62.4038V12.5859Z" fill="#F6BCC2"/>
<path d="M49.9231 12.5859H37.4424L37.4422 25.0808L49.9231 25.0809V12.5859Z" fill="#F6BCC2"/>
<path d="M37.4424 12.5859H24.9614V25.0808H37.4422L37.4424 12.5859Z" fill="#F6BCC2"/>
<path d="M624.038 75.0607H611.558V87.5556H624.038V75.0607Z" fill="#6D3435"/>
<path d="M611.558 75.0607H599.077V87.5556H611.558V75.0607Z" fill="#6D3435"/>
<path d="M511.711 75.0607H499.231V87.5556H511.711V75.0607Z" fill="#6D3435"/>
<path d="M461.788 75.0607H449.308V87.5556H461.788V75.0607Z" fill="#6D3435"/>
<path d="M449.308 75.0607H436.827V87.5556H449.308V75.0607Z" fill="#6D3435"/>
<path d="M436.827 75.0607H424.346V87.5556H436.827V75.0607Z" fill="#6D3435"/>
<path d="M424.346 75.0607H411.865V87.5556H424.346V75.0607Z" fill="#6D3435"/>
<path d="M411.865 75.0607H399.385V87.5556H411.865V75.0607Z" fill="#6D3435"/>
<path d="M399.385 75.0607H386.904V87.5556H399.385V75.0607Z" fill="#6D3435"/>
<path d="M386.904 75.0607H374.423V87.5556H386.904V75.0607Z" fill="#6D3435"/>
<path d="M374.423 75.0607H361.942V87.5556H374.423V75.0607Z" fill="#6D3435"/>
<path d="M361.942 75.0607H349.461V87.5556H361.942V75.0607Z" fill="#6D3435"/>
<path d="M349.461 75.0607H336.981V87.5556H349.461V75.0607Z" fill="#6D3435"/>
<path d="M336.981 75.0607H324.5V87.5556H336.981V75.0607Z" fill="#6D3435"/>
<path d="M324.5 75.0607H312.019V87.5556H324.5V75.0607Z" fill="#6D3435"/>
<path d="M312.019 75.0607H299.539V87.5556H312.019V75.0607Z" fill="#6D3435"/>
<path d="M299.539 75.0607H287.058V87.5556H299.539V75.0607Z" fill="#6D3435"/>
<path d="M287.058 75.0607H274.577V87.5556H287.058V75.0607Z" fill="#6D3435"/>
<path d="M274.577 75.0607H262.096V87.5556H274.577V75.0607Z" fill="#6D3435"/>
<path d="M212.173 75.0607H199.692V87.5556H212.173V75.0607Z" fill="#6D3435"/>
<path d="M199.692 75.0607H187.211V87.5556H199.692V75.0607Z" fill="#6D3435"/>
<path d="M187.211 75.0607H174.731V87.5556H187.211V75.0607Z" fill="#6D3435"/>
<path d="M174.731 75.0607H162.25V87.5556H174.731V75.0607Z" fill="#6D3435"/>
<path d="M162.25 75.0607H149.769V87.5556H162.25V75.0607Z" fill="#6D3435"/>
<path d="M149.769 75.0607H137.289V87.5556H149.769V75.0607Z" fill="#6D3435"/>
<path d="M636.519 62.5657H624.039L624.038 75.0607L636.519 75.0606V62.5657Z" fill="#6D3435"/>
<path d="M624.039 62.5657H611.558V75.0607H624.038L624.039 62.5657Z" fill="#6D3435"/>
<path d="M611.558 62.5657H599.077V75.0607H611.558V62.5657Z" fill="#6D3435"/>
<path d="M511.711 62.5657H499.231V75.0607H511.711V62.5657Z" fill="#6D3435"/>
<path d="M461.788 62.5657H449.308V75.0607H461.788V62.5657Z" fill="#6D3435"/>
<path d="M449.308 62.5657H436.827V75.0607H449.308V62.5657Z" fill="#6D3435"/>
<path d="M436.827 62.5657H424.346V75.0607H436.827V62.5657Z" fill="#6D3435"/>
<path d="M424.346 62.5657H411.865V75.0607H424.346V62.5657Z" fill="#6D3435"/>
<path d="M411.865 62.5657H399.385V75.0607H411.865V62.5657Z" fill="#6D3435"/>
<path d="M399.385 62.5657H386.904V75.0607H399.385V62.5657Z" fill="#6D3435"/>
<path d="M386.904 62.5657H374.423V75.0607H386.904V62.5657Z" fill="#6D3435"/>
<path d="M374.423 62.5657H361.942V75.0607H374.423V62.5657Z" fill="#6D3435"/>
<path d="M361.942 62.5657H349.461V75.0607H361.942V62.5657Z" fill="#6D3435"/>
<path d="M349.461 62.5657H336.981V75.0607H349.461V62.5657Z" fill="#6D3435"/>
<path d="M336.981 62.5657H324.5V75.0607H336.981V62.5657Z" fill="#6D3435"/>
<path d="M324.5 62.5657H312.019V75.0607H324.5V62.5657Z" fill="#6D3435"/>
<path d="M312.019 62.5657H299.539V75.0607H312.019V62.5657Z" fill="#6D3435"/>
<path d="M299.539 62.5657H287.058V75.0607H299.539V62.5657Z" fill="#6D3435"/>
<path d="M287.058 62.5657H274.577V75.0607H287.058V62.5657Z" fill="#6D3435"/>
<path d="M274.577 62.5657H262.096V75.0607H274.577V62.5657Z" fill="#6D3435"/>
<path d="M212.173 62.5657H199.692V75.0607H212.173V62.5657Z" fill="#6D3435"/>
<path d="M199.692 62.5657H187.211V75.0607H199.692V62.5657Z" fill="#6D3435"/>
<path d="M187.211 62.5657H174.731V75.0607H187.211V62.5657Z" fill="#6D3435"/>
<path d="M174.731 62.5657H162.25V75.0607H174.731V62.5657Z" fill="#6D3435"/>
<path d="M162.25 62.5657H149.769V75.0607H162.25V62.5657Z" fill="#6D3435"/>
<path d="M149.769 62.5657H137.289V75.0607H149.769V62.5657Z" fill="#6D3435"/>
<path d="M636.519 50.0707H624.039V62.5657H636.519V50.0707Z" fill="#6D3435"/>
<path d="M624.039 50.0707H611.558V62.5657H624.039V50.0707Z" fill="#6D3435"/>
<path d="M611.558 50.0707H599.077V62.5657H611.558V50.0707Z" fill="#6D3435"/>
<path d="M511.711 50.0707H499.231V62.5657H511.711V50.0707Z" fill="#6D3435"/>
<path d="M461.788 50.0707H449.308V62.5657H461.788V50.0707Z" fill="#6D3435"/>
<path d="M449.308 50.0707H436.827V62.5657H449.308V50.0707Z" fill="#6D3435"/>
<path d="M436.827 50.0707H424.346V62.5657H436.827V50.0707Z" fill="#6D3435"/>
<path d="M424.346 50.0707H411.865V62.5657H424.346V50.0707Z" fill="#6D3435"/>
<path d="M411.865 50.0707H399.385V62.5657H411.865V50.0707Z" fill="#6D3435"/>
<path d="M399.385 50.0707H386.904V62.5657H399.385V50.0707Z" fill="#6D3435"/>
<path d="M386.904 50.0707H374.423V62.5657H386.904V50.0707Z" fill="#6D3435"/>
<path d="M374.423 50.0707H361.942V62.5657H374.423V50.0707Z" fill="#6D3435"/>
<path d="M361.942 50.0707H349.461V62.5657H361.942V50.0707Z" fill="#6D3435"/>
<path d="M349.461 50.0707H336.981V62.5657H349.461V50.0707Z" fill="#6D3435"/>
<path d="M336.981 50.0707H324.5V62.5657H336.981V50.0707Z" fill="#6D3435"/>
<path d="M324.5 50.0707H312.019V62.5657H324.5V50.0707Z" fill="#6D3435"/>
<path d="M312.019 50.0707H299.539V62.5657H312.019V50.0707Z" fill="#6D3435"/>
<path d="M299.539 50.0707H287.058V62.5657H299.539V50.0707Z" fill="#6D3435"/>
<path d="M287.058 50.0707H274.577V62.5657H287.058V50.0707Z" fill="#6D3435"/>
<path d="M274.577 50.0707H262.096V62.5657H274.577V50.0707Z" fill="#6D3435"/>
<path d="M212.173 50.0707H199.692V62.5657H212.173V50.0707Z" fill="#6D3435"/>
<path d="M199.692 50.0707H187.211V62.5657H199.692V50.0707Z" fill="#6D3435"/>
<path d="M187.211 50.0707H174.731V62.5657H187.211V50.0707Z" fill="#6D3435"/>
<path d="M174.731 50.0707H162.25V62.5657H174.731V50.0707Z" fill="#6D3435"/>
<path d="M162.25 50.0707H149.769V62.5657H162.25V50.0707Z" fill="#6D3435"/>
<path d="M149.769 50.0707H137.289V62.5657H149.769V50.0707Z" fill="#6D3435"/>
<path d="M636.519 37.5758H624.039V50.0707H636.519V37.5758Z" fill="#6D3435"/>
<path d="M624.039 37.5758H611.558V50.0707H624.039V37.5758Z" fill="#6D3435"/>
<path d="M611.558 37.5758H599.077V50.0707H611.558V37.5758Z" fill="#6D3435"/>
<path d="M511.711 37.5758H499.231V50.0707H511.711V37.5758Z" fill="#6D3435"/>
<path d="M461.788 37.5758H449.308V50.0707H461.788V37.5758Z" fill="#6D3435"/>
<path d="M449.308 37.5758H436.827V50.0707H449.308V37.5758Z" fill="#6D3435"/>
<path d="M436.827 37.5758H424.346V50.0707H436.827V37.5758Z" fill="#6D3435"/>
<path d="M424.346 37.5758H411.865V50.0707H424.346V37.5758Z" fill="#6D3435"/>
<path d="M411.865 37.5758H399.385V50.0707H411.865V37.5758Z" fill="#6D3435"/>
<path d="M399.385 37.5758H386.904V50.0707H399.385V37.5758Z" fill="#6D3435"/>
<path d="M386.904 37.5758H374.423V50.0707H386.904V37.5758Z" fill="#6D3435"/>
<path d="M374.423 37.5758H361.942V50.0707H374.423V37.5758Z" fill="#6D3435"/>
<path d="M361.942 37.5758H349.461V50.0707H361.942V37.5758Z" fill="#6D3435"/>
<path d="M349.461 37.5758H336.981V50.0707H349.461V37.5758Z" fill="#6D3435"/>
<path d="M336.981 37.5758H324.5V50.0707H336.981V37.5758Z" fill="#6D3435"/>
<path d="M324.5 37.5758H312.019V50.0707H324.5V37.5758Z" fill="#6D3435"/>
<path d="M312.019 37.5758H299.539V50.0707H312.019V37.5758Z" fill="#6D3435"/>
<path d="M299.539 37.5758H287.058V50.0707H299.539V37.5758Z" fill="#6D3435"/>
<path d="M287.058 37.5758H274.577V50.0707H287.058V37.5758Z" fill="#6D3435"/>
<path d="M274.577 37.5758H262.096V50.0707H274.577V37.5758Z" fill="#6D3435"/>
<path d="M212.173 37.5758H199.692V50.0707H212.173V37.5758Z" fill="#6D3435"/>
<path d="M199.692 37.5758H187.211V50.0707H199.692V37.5758Z" fill="#6D3435"/>
<path d="M187.211 37.5758H174.731V50.0707H187.211V37.5758Z" fill="#6D3435"/>
<path d="M174.731 37.5758H162.25V50.0707H174.731V37.5758Z" fill="#6D3435"/>
<path d="M162.25 37.5758H149.769V50.0707H162.25V37.5758Z" fill="#6D3435"/>
<path d="M149.769 37.5758H137.289V50.0707H149.769V37.5758Z" fill="#6D3435"/>
<path d="M636.519 25.0808H624.039V37.5758H636.519V25.0808Z" fill="#6D3435"/>
<path d="M624.039 25.0808H611.558V37.5758H624.039V25.0808Z" fill="#6D3435"/>
<path d="M611.558 25.0808H599.077V37.5758H611.558V25.0808Z" fill="#6D3435"/>
<path d="M511.711 25.0808H499.231V37.5758H511.711V25.0808Z" fill="#6D3435"/>
<path d="M461.788 25.0808H449.308V37.5758H461.788V25.0808Z" fill="#6D3435"/>
<path d="M449.308 25.0808H436.827V37.5758H449.308V25.0808Z" fill="#6D3435"/>
<path d="M436.827 25.0808H424.346V37.5758H436.827V25.0808Z" fill="#6D3435"/>
<path d="M424.346 25.0808H411.865V37.5758H424.346V25.0808Z" fill="#6D3435"/>
<path d="M411.865 25.0808H399.385V37.5758H411.865V25.0808Z" fill="#6D3435"/>
<path d="M399.385 25.0808H386.904V37.5758H399.385V25.0808Z" fill="#6D3435"/>
<path d="M386.904 25.0808H374.423V37.5758H386.904V25.0808Z" fill="#6D3435"/>
<path d="M374.423 25.0808H361.942V37.5758H374.423V25.0808Z" fill="#6D3435"/>
<path d="M361.942 25.0808H349.461V37.5758H361.942V25.0808Z" fill="#6D3435"/>
<path d="M349.461 25.0808H336.981V37.5758H349.461V25.0808Z" fill="#6D3435"/>
<path d="M336.981 25.0808H324.5V37.5758H336.981V25.0808Z" fill="#6D3435"/>
<path d="M324.5 25.0808H312.019V37.5758H324.5V25.0808Z" fill="#6D3435"/>
<path d="M312.019 25.0808H299.539V37.5758H312.019V25.0808Z" fill="#6D3435"/>
<path d="M299.539 25.0808H287.058V37.5758H299.539V25.0808Z" fill="#6D3435"/>
<path d="M287.058 25.0808H274.577V37.5758H287.058V25.0808Z" fill="#6D3435"/>
<path d="M274.577 25.0808H262.096V37.5758H274.577V25.0808Z" fill="#6D3435"/>
<path d="M212.173 25.0808H199.692V37.5758H212.173V25.0808Z" fill="#6D3435"/>
<path d="M199.692 25.0808H187.211V37.5758H199.692V25.0808Z" fill="#6D3435"/>
<path d="M187.211 25.0808H174.731V37.5758H187.211V25.0808Z" fill="#6D3435"/>
<path d="M174.731 25.0808H162.25V37.5758H174.731V25.0808Z" fill="#6D3435"/>
<path d="M162.25 25.0808H149.769V37.5758H162.25V25.0808Z" fill="#6D3435"/>
<path d="M149.769 25.0808H137.289V37.5758H149.769V25.0808Z" fill="#6D3435"/>
<path d="M624.038 12.5859H611.558V25.0808H624.039L624.038 12.5859Z" fill="#6D3435"/>
<path d="M611.558 12.5859H599.077V25.0808H611.558V12.5859Z" fill="#6D3435"/>
<path d="M511.711 12.5859H499.231V25.0808H511.711V12.5859Z" fill="#6D3435"/>
<path d="M461.788 12.5859H449.308V25.0808H461.788V12.5859Z" fill="#6D3435"/>
<path d="M449.308 12.5859H436.827V25.0808H449.308V12.5859Z" fill="#6D3435"/>
<path d="M436.827 12.5859H424.346V25.0808H436.827V12.5859Z" fill="#6D3435"/>
<path d="M424.346 12.5859H411.865V25.0808H424.346V12.5859Z" fill="#6D3435"/>
<path d="M411.865 12.5859H399.385V25.0808H411.865V12.5859Z" fill="#6D3435"/>
<path d="M399.385 12.5859H386.904V25.0808H399.385V12.5859Z" fill="#6D3435"/>
<path d="M386.904 12.5859H374.423V25.0808H386.904V12.5859Z" fill="#6D3435"/>
<path d="M374.423 12.5859H361.942V25.0808H374.423V12.5859Z" fill="#6D3435"/>
<path d="M361.942 12.5859H349.461V25.0808H361.942V12.5859Z" fill="#6D3435"/>
<path d="M349.461 12.5859H336.981V25.0808H349.461V12.5859Z" fill="#6D3435"/>
<path d="M336.981 12.5859H324.5V25.0808H336.981V12.5859Z" fill="#6D3435"/>
<path d="M324.5 12.5859H312.019V25.0808H324.5V12.5859Z" fill="#6D3435"/>
<path d="M312.019 12.5859H299.539V25.0808H312.019V12.5859Z" fill="#6D3435"/>
<path d="M299.539 12.5859H287.058V25.0808H299.539V12.5859Z" fill="#6D3435"/>
<path d="M287.058 12.5859H274.577V25.0808H287.058V12.5859Z" fill="#6D3435"/>
<path d="M274.577 12.5859H262.096V25.0808H274.577V12.5859Z" fill="#6D3435"/>
<path d="M212.173 12.5859H199.692V25.0808H212.173V12.5859Z" fill="#6D3435"/>
<path d="M199.692 12.5859H187.211V25.0808H199.692V12.5859Z" fill="#6D3435"/>
<path d="M187.211 12.5859H174.731V25.0808H187.211V12.5859Z" fill="#6D3435"/>
<path d="M174.731 12.5859H162.25V25.0808H174.731V12.5859Z" fill="#6D3435"/>
<path d="M162.25 12.5859H149.769V25.0808H162.25V12.5859Z" fill="#6D3435"/>
<path d="M149.769 12.5859H137.289V25.0808H149.769V12.5859Z" fill="#6D3435"/>
<path d="M499.231 75.0607H486.75V87.5556H499.231V75.0607Z" fill="#6D3435"/>
<path d="M486.75 75.0607H474.269V87.5556H486.75V75.0607Z" fill="#6D3435"/>
<path d="M474.269 75.0607H461.788V87.5556H474.269V75.0607Z" fill="#6D3435"/>
<path d="M499.231 62.5657H486.75V75.0607H499.231V62.5657Z" fill="#6D3435"/>
<path d="M486.75 62.5657H474.269V75.0607H486.75V62.5657Z" fill="#6D3435"/>
<path d="M474.269 62.5657H461.788V75.0607H474.269V62.5657Z" fill="#6D3435"/>
<path d="M499.231 50.0707H486.75V62.5657H499.231V50.0707Z" fill="#6D3435"/>
<path d="M486.75 50.0707H474.269V62.5657H486.75V50.0707Z" fill="#6D3435"/>
<path d="M474.269 50.0707H461.788V62.5657H474.269V50.0707Z" fill="#6D3435"/>
<path d="M499.231 37.5758H486.75V50.0707H499.231V37.5758Z" fill="#6D3435"/>
<path d="M486.75 37.5758H474.269V50.0707H486.75V37.5758Z" fill="#6D3435"/>
<path d="M474.269 37.5758H461.788V50.0707H474.269V37.5758Z" fill="#6D3435"/>
<path d="M499.231 25.0808H486.75V37.5758H499.231V25.0808Z" fill="#6D3435"/>
<path d="M486.75 25.0808H474.269V37.5758H486.75V25.0808Z" fill="#6D3435"/>
<path d="M474.269 25.0808H461.788V37.5758H474.269V25.0808Z" fill="#6D3435"/>
<path d="M499.231 12.5859H486.75V25.0808H499.231V12.5859Z" fill="#6D3435"/>
<path d="M486.75 12.5859H474.269V25.0808H486.75V12.5859Z" fill="#6D3435"/>
<path d="M474.269 12.5859H461.788V25.0808H474.269V12.5859Z" fill="#6D3435"/>
<path d="M574.115 75.0607H561.635V87.5556H574.115V75.0607Z" fill="#6D3435"/>
<path d="M574.115 62.5657H561.635V75.0607H574.115V62.5657Z" fill="#6D3435"/>
<path d="M574.115 50.0707H561.635V62.5657H574.115V50.0707Z" fill="#6D3435"/>
<path d="M574.115 37.5758H561.635V50.0707H574.115V37.5758Z" fill="#6D3435"/>
<path d="M574.115 25.0808H561.635V37.5758H574.115V25.0808Z" fill="#6D3435"/>
<path d="M574.115 12.5859H561.635V25.0808H574.115V12.5859Z" fill="#6D3435"/>
<path d="M561.635 75.0607H549.154V87.5556H561.635V75.0607Z" fill="#6D3435"/>
<path d="M549.154 75.0607H536.673V87.5556H549.154V75.0607Z" fill="#6D3435"/>
<path d="M561.635 62.5657H549.154V75.0607H561.635V62.5657Z" fill="#6D3435"/>
<path d="M549.154 62.5657H536.673V75.0607H549.154V62.5657Z" fill="#6D3435"/>
<path d="M561.635 50.0707H549.154V62.5657H561.635V50.0707Z" fill="#6D3435"/>
<path d="M549.154 50.0707H536.673V62.5657H549.154V50.0707Z" fill="#6D3435"/>
<path d="M561.635 37.5758H549.154V50.0707H561.635V37.5758Z" fill="#6D3435"/>
<path d="M549.154 37.5758H536.673V50.0707H549.154V37.5758Z" fill="#6D3435"/>
<path d="M561.635 25.0808H549.154V37.5758H561.635V25.0808Z" fill="#6D3435"/>
<path d="M549.154 25.0808H536.673V37.5758H549.154V25.0808Z" fill="#6D3435"/>
<path d="M561.635 12.5859H549.154V25.0808H561.635V12.5859Z" fill="#6D3435"/>
<path d="M549.154 12.5859H536.673V25.0808H549.154V12.5859Z" fill="#6D3435"/>
<path d="M599.077 75.0607H586.596V87.5556H599.077V75.0607Z" fill="#6D3435"/>
<path d="M586.596 75.0607H574.115V87.5556H586.596V75.0607Z" fill="#6D3435"/>
<path d="M599.077 62.5657H586.596V75.0607H599.077V62.5657Z" fill="#6D3435"/>
<path d="M586.596 62.5657H574.115V75.0607H586.596V62.5657Z" fill="#6D3435"/>
<path d="M599.077 50.0707H586.596V62.5657H599.077V50.0707Z" fill="#6D3435"/>
<path d="M586.596 50.0707H574.115V62.5657H586.596V50.0707Z" fill="#6D3435"/>
<path d="M599.077 37.5758H586.596V50.0707H599.077V37.5758Z" fill="#6D3435"/>
<path d="M586.596 37.5758H574.115V50.0707H586.596V37.5758Z" fill="#6D3435"/>
<path d="M599.077 25.0808H586.596V37.5758H599.077V25.0808Z" fill="#6D3435"/>
<path d="M586.596 25.0808H574.115V37.5758H586.596V25.0808Z" fill="#6D3435"/>
<path d="M599.077 12.5859H586.596V25.0808H599.077V12.5859Z" fill="#6D3435"/>
<path d="M586.596 12.5859H574.115V25.0808H586.596V12.5859Z" fill="#6D3435"/>
<path d="M262.096 75.0607H249.615V87.5556H262.096V75.0607Z" fill="#6D3435"/>
<path d="M249.615 75.0607H237.135V87.5556H249.615V75.0607Z" fill="#6D3435"/>
<path d="M237.135 75.0607H224.654V87.5556H237.135V75.0607Z" fill="#6D3435"/>
<path d="M224.654 75.0607H212.173V87.5556H224.654V75.0607Z" fill="#6D3435"/>
<path d="M262.096 62.5657H249.615V75.0607H262.096V62.5657Z" fill="#6D3435"/>
<path d="M249.615 62.5657H237.135V75.0607H249.615V62.5657Z" fill="#6D3435"/>
<path d="M237.135 62.5657H224.654V75.0607H237.135V62.5657Z" fill="#6D3435"/>
<path d="M224.654 62.5657H212.173V75.0607H224.654V62.5657Z" fill="#6D3435"/>
<path d="M262.096 50.0707H249.615V62.5657H262.096V50.0707Z" fill="#6D3435"/>
<path d="M249.615 50.0707H237.135V62.5657H249.615V50.0707Z" fill="#6D3435"/>
<path d="M237.135 50.0707H224.654V62.5657H237.135V50.0707Z" fill="#6D3435"/>
<path d="M224.654 50.0707H212.173V62.5657H224.654V50.0707Z" fill="#6D3435"/>
<path d="M262.096 37.5758H249.615V50.0707H262.096V37.5758Z" fill="#6D3435"/>
<path d="M249.615 37.5758H237.135V50.0707H249.615V37.5758Z" fill="#6D3435"/>
<path d="M237.135 37.5758H224.654V50.0707H237.135V37.5758Z" fill="#6D3435"/>
<path d="M224.654 37.5758H212.173V50.0707H224.654V37.5758Z" fill="#6D3435"/>
<path d="M262.096 25.0808H249.615V37.5758H262.096V25.0808Z" fill="#6D3435"/>
<path d="M249.615 25.0808H237.135V37.5758H249.615V25.0808Z" fill="#6D3435"/>
<path d="M237.135 25.0808H224.654V37.5758H237.135V25.0808Z" fill="#6D3435"/>
<path d="M224.654 25.0808H212.173V37.5758H224.654V25.0808Z" fill="#6D3435"/>
<path d="M262.096 12.5859H249.615V25.0808H262.096V12.5859Z" fill="#6D3435"/>
<path d="M249.615 12.5859H237.135V25.0808H249.615V12.5859Z" fill="#6D3435"/>
<path d="M237.135 12.5859H224.654V25.0808H237.135V12.5859Z" fill="#6D3435"/>
<path d="M224.654 12.5859H212.173V25.0808H224.654V12.5859Z" fill="#6D3435"/>
<path d="M536.673 75.0607H524.192V87.5556H536.673V75.0607Z" fill="#6D3435"/>
<path d="M536.673 62.5657H524.192V75.0607H536.673V62.5657Z" fill="#6D3435"/>
<path d="M536.673 50.0707H524.192V62.5657H536.673V50.0707Z" fill="#6D3435"/>
<path d="M536.673 37.5758H524.192V50.0707H536.673V37.5758Z" fill="#6D3435"/>
<path d="M536.673 25.0808H524.192V37.5758H536.673V25.0808Z" fill="#6D3435"/>
<path d="M536.673 12.5859H524.192V25.0808H536.673V12.5859Z" fill="#6D3435"/>
<path d="M524.192 75.0607H511.711V87.5556H524.192V75.0607Z" fill="#6D3435"/>
<path d="M524.192 62.5657H511.711V75.0607H524.192V62.5657Z" fill="#6D3435"/>
<path d="M524.192 50.0707H511.711V62.5657H524.192V50.0707Z" fill="#6D3435"/>
<path d="M524.192 37.5758H511.711V50.0707H524.192V37.5758Z" fill="#6D3435"/>
<path d="M524.192 25.0808H511.711V37.5758H524.192V25.0808Z" fill="#6D3435"/>
<path d="M524.192 12.5859H511.711V25.0808H524.192V12.5859Z" fill="#6D3435"/>
<path d="M624.038 87.5554H611.558V100.05H624.038V87.5554Z" fill="#813E3F"/>
<path d="M611.558 87.5554H599.077V100.05H611.558V87.5554Z" fill="#813E3F"/>
<path d="M511.711 87.5554H499.231V100.05H511.711V87.5554Z" fill="#813E3F"/>
<path d="M461.788 87.5554H449.308V100.05H461.788V87.5554Z" fill="#813E3F"/>
<path d="M449.308 87.5554H436.827V100.05H449.308V87.5554Z" fill="#813E3F"/>
<path d="M436.827 87.5554H424.346V100.05H436.827V87.5554Z" fill="#813E3F"/>
<path d="M424.346 87.5554H411.865V100.05H424.346V87.5554Z" fill="#813E3F"/>
<path d="M411.865 87.5554H399.385V100.05H411.865V87.5554Z" fill="#813E3F"/>
<path d="M399.385 87.5554H386.904V100.05H399.385V87.5554Z" fill="#813E3F"/>
<path d="M386.904 87.5554H374.423V100.05H386.904V87.5554Z" fill="#813E3F"/>
<path d="M374.423 87.5554H361.942V100.05H374.423V87.5554Z" fill="#813E3F"/>
<path d="M361.942 87.5554H349.461V100.05H361.942V87.5554Z" fill="#813E3F"/>
<path d="M349.461 87.5554H336.981V100.05H349.461V87.5554Z" fill="#813E3F"/>
<path d="M336.981 87.5554H324.5V100.05H336.981V87.5554Z" fill="#813E3F"/>
<path d="M324.5 87.5554H312.019V100.05H324.5V87.5554Z" fill="#813E3F"/>
<path d="M312.019 87.5554H299.539V100.05H312.019V87.5554Z" fill="#813E3F"/>
<path d="M299.539 87.5554H287.058V100.05H299.539V87.5554Z" fill="#813E3F"/>
<path d="M287.058 87.5554H274.577V100.05H287.058V87.5554Z" fill="#813E3F"/>
<path d="M274.577 87.5554H262.096V100.05H274.577V87.5554Z" fill="#813E3F"/>
<path d="M212.173 87.5554H199.692V100.05H212.173V87.5554Z" fill="#813E3F"/>
<path d="M199.692 87.5554H187.211V100.05H199.692V87.5554Z" fill="#813E3F"/>
<path d="M187.211 87.5554H174.731V100.05H187.211V87.5554Z" fill="#813E3F"/>
<path d="M174.731 87.5554H162.25V100.05H174.731V87.5554Z" fill="#813E3F"/>
<path d="M162.25 87.5554H149.769V100.05H162.25V87.5554Z" fill="#813E3F"/>
<path d="M149.769 87.5554H137.289V100.05H149.769V87.5554Z" fill="#813E3F"/>
<path d="M137.289 87.5554H124.808V100.05H137.289V87.5554Z" fill="#813E3F"/>
<path d="M124.808 87.5554H112.327V100.05H124.808V87.5554Z" fill="#813E3F"/>
<path d="M112.327 87.5554H99.8462V100.05H112.327V87.5554Z" fill="#813E3F"/>
<path d="M99.8462 87.5554H87.3655V100.05H99.8462V87.5554Z" fill="#813E3F"/>
<path d="M87.3655 87.5554H74.8845V100.05H87.3655V87.5554Z" fill="#813E3F"/>
<path d="M74.8845 87.5554H62.4038V100.05H74.8845V87.5554Z" fill="#813E3F"/>
<path d="M62.4038 87.5554H49.9231V100.05H62.4038V87.5554Z" fill="#813E3F"/>
<path d="M49.9231 87.5554H37.4424V100.05H49.9231V87.5554Z" fill="#813E3F"/>
<path d="M37.4424 87.5554H24.9614V100.05H37.4424V87.5554Z" fill="#813E3F"/>
<path d="M636.519 75.0605H624.039L624.038 87.5554L636.519 87.5555V75.0605Z" fill="#813E3F"/>
<path d="M24.9615 75.0605H12.4807V87.5555L24.9614 87.5554L24.9615 75.0605Z" fill="#813E3F"/>
<path d="M649 62.5656H636.519L636.519 75.0605L649 75.0605V62.5656Z" fill="#813E3F"/>
<path d="M12.4808 62.5656H0V75.0605L12.4807 75.0605L12.4808 62.5656Z" fill="#813E3F"/>
<path d="M649 50.0706H636.519V62.5656H649V50.0706Z" fill="#813E3F"/>
<path d="M12.4808 50.0706H0V62.5656H12.4808V50.0706Z" fill="#813E3F"/>
<path d="M649 37.5757H636.519V50.0706H649V37.5757Z" fill="#813E3F"/>
<path d="M12.4808 37.5757H0V50.0706H12.4808V37.5757Z" fill="#813E3F"/>
<path d="M649 25.0807H636.519V37.5757H649V25.0807Z" fill="#813E3F"/>
<path d="M12.4808 25.0807H0V37.5757H12.4808V25.0807Z" fill="#813E3F"/>
<path d="M636.519 12.5858H624.039V25.0808L636.519 25.0807L636.519 12.5858Z" fill="#813E3F"/>
<path d="M24.9615 12.5858H12.4807L12.4808 25.0807L24.9615 25.0808V12.5858Z" fill="#813E3F"/>
<path d="M624.038 0.0908203H611.558V12.5858L624.039 12.5858L624.038 0.0908203Z" fill="#813E3F"/>
<path d="M611.558 0.0908203H599.077V12.5858H611.558V0.0908203Z" fill="#813E3F"/>
<path d="M511.711 0.0908203H499.231V12.5858H511.711V0.0908203Z" fill="#813E3F"/>
<path d="M461.788 0.0908203H449.308V12.5858H461.788V0.0908203Z" fill="#813E3F"/>
<path d="M449.308 0.0908203H436.827V12.5858H449.308V0.0908203Z" fill="#813E3F"/>
<path d="M436.827 0.0908203H424.346V12.5858H436.827V0.0908203Z" fill="#813E3F"/>
<path d="M499.231 87.5554H486.75V100.05H499.231V87.5554Z" fill="#813E3F"/>
<path d="M486.75 87.5554H474.269V100.05H486.75V87.5554Z" fill="#813E3F"/>
<path d="M474.269 87.5554H461.788V100.05H474.269V87.5554Z" fill="#813E3F"/>
<path d="M499.231 0.0908203H486.75V12.5858H499.231V0.0908203Z" fill="#813E3F"/>
<path d="M536.673 87.5554H524.192V100.05H536.673V87.5554Z" fill="#813E3F"/>
<path d="M536.673 0.0908203H524.192V12.5858H536.673V0.0908203Z" fill="#813E3F"/>
<path d="M524.192 87.5554H511.711V100.05H524.192V87.5554Z" fill="#813E3F"/>
<path d="M524.192 0.0908203H511.711V12.5858H524.192V0.0908203Z" fill="#813E3F"/>
<path d="M486.75 0.0908203H474.269V12.5858H486.75V0.0908203Z" fill="#813E3F"/>
<path d="M574.115 87.5554H561.635V100.05H574.115V87.5554Z" fill="#813E3F"/>
<path d="M574.115 0.0908203H561.635V12.5858H574.115V0.0908203Z" fill="#813E3F"/>
<path d="M561.635 87.5554H549.154V100.05H561.635V87.5554Z" fill="#813E3F"/>
<path d="M549.154 87.5554H536.673V100.05H549.154V87.5554Z" fill="#813E3F"/>
<path d="M561.635 0.0908203H549.154V12.5858H561.635V0.0908203Z" fill="#813E3F"/>
<path d="M549.154 0.0908203H536.673V12.5858H549.154V0.0908203Z" fill="#813E3F"/>
<path d="M599.077 87.5554H586.596V100.05H599.077V87.5554Z" fill="#813E3F"/>
<path d="M586.596 87.5554H574.115V100.05H586.596V87.5554Z" fill="#813E3F"/>
<path d="M599.077 0.0908203H586.596V12.5858H599.077V0.0908203Z" fill="#813E3F"/>
<path d="M586.596 0.0908203H574.115V12.5858H586.596V0.0908203Z" fill="#813E3F"/>
<path d="M474.269 0.0908203H461.788V12.5858H474.269V0.0908203Z" fill="#813E3F"/>
<path d="M424.346 0.0908203H411.865V12.5858H424.346V0.0908203Z" fill="#813E3F"/>
<path d="M411.865 0.0908203H399.385V12.5858H411.865V0.0908203Z" fill="#813E3F"/>
<path d="M399.385 0.0908203H386.904V12.5858H399.385V0.0908203Z" fill="#813E3F"/>
<path d="M386.904 0.0908203H374.423V12.5858H386.904V0.0908203Z" fill="#813E3F"/>
<path d="M374.423 0.0908203H361.942V12.5858H374.423V0.0908203Z" fill="#813E3F"/>
<path d="M361.942 0.0908203H349.461V12.5858H361.942V0.0908203Z" fill="#813E3F"/>
<path d="M349.461 0.0908203H336.981V12.5858H349.461V0.0908203Z" fill="#813E3F"/>
<path d="M336.981 0.0908203H324.5V12.5858H336.981V0.0908203Z" fill="#813E3F"/>
<path d="M324.5 0.0908203H312.019V12.5858H324.5V0.0908203Z" fill="#813E3F"/>
<path d="M312.019 0.0908203H299.539V12.5858H312.019V0.0908203Z" fill="#813E3F"/>
<path d="M299.539 0.0908203H287.058V12.5858H299.539V0.0908203Z" fill="#813E3F"/>
<path d="M287.058 0.0908203H274.577V12.5858H287.058V0.0908203Z" fill="#813E3F"/>
<path d="M274.577 0.0908203H262.096V12.5858H274.577V0.0908203Z" fill="#813E3F"/>
<path d="M212.173 0.0908203H199.692V12.5858H212.173V0.0908203Z" fill="#813E3F"/>
<path d="M199.692 0.0908203H187.211V12.5858H199.692V0.0908203Z" fill="#813E3F"/>
<path d="M187.211 0.0908203H174.731V12.5858H187.211V0.0908203Z" fill="#813E3F"/>
<path d="M174.731 0.0908203H162.25V12.5858H174.731V0.0908203Z" fill="#813E3F"/>
<path d="M262.096 87.5554H249.615V100.05H262.096V87.5554Z" fill="#813E3F"/>
<path d="M249.615 87.5554H237.135V100.05H249.615V87.5554Z" fill="#813E3F"/>
<path d="M237.135 87.5554H224.654V100.05H237.135V87.5554Z" fill="#813E3F"/>
<path d="M224.654 87.5554H212.173V100.05H224.654V87.5554Z" fill="#813E3F"/>
<path d="M262.096 0.0908203H249.615V12.5858H262.096V0.0908203Z" fill="#813E3F"/>
<path d="M249.615 0.0908203H237.135V12.5858H249.615V0.0908203Z" fill="#813E3F"/>
<path d="M237.135 0.0908203H224.654V12.5858H237.135V0.0908203Z" fill="#813E3F"/>
<path d="M224.654 0.0908203H212.173V12.5858H224.654V0.0908203Z" fill="#813E3F"/>
<path d="M162.25 0.0908203H149.769V12.5858H162.25V0.0908203Z" fill="#813E3F"/>
<path d="M149.769 0.0908203H137.289V12.5858H149.769V0.0908203Z" fill="#813E3F"/>
<path d="M137.289 0.0908203H124.808V12.5858H137.289V0.0908203Z" fill="#813E3F"/>
<path d="M124.808 0.0908203H112.327V12.5858H124.808V0.0908203Z" fill="#813E3F"/>
<path d="M112.327 0.0908203H99.8462V12.5858H112.327V0.0908203Z" fill="#813E3F"/>
<path d="M99.8462 0.0908203H87.3655V12.5858H99.8462V0.0908203Z" fill="#813E3F"/>
<path d="M87.3655 0.0908203H74.8845V12.5858H87.3655V0.0908203Z" fill="#813E3F"/>
<path d="M74.8845 0.0908203H62.4038V12.5858H74.8845V0.0908203Z" fill="#813E3F"/>
<path d="M62.4038 0.0908203H49.9231V12.5858H62.4038V0.0908203Z" fill="#813E3F"/>
<path d="M49.9231 0.0908203H37.4424V12.5858H49.9231V0.0908203Z" fill="#813E3F"/>
<path d="M37.4424 0.0908203H24.9614L24.9615 12.5858L37.4424 12.5858V0.0908203Z" fill="#813E3F"/>
</svg>
