<svg width="250" height="70" viewBox="0 0 649 101" fill="none" xmlns="http://www.w3.org/2000/svg">
<path d="M449.308 75.313H436.827V87.8079H449.308V75.313Z" fill="#F6BCC2"/>
<path d="M436.827 75.313H424.346V87.8079H436.827V75.313Z" fill="#F6BCC2"/>
<path d="M424.346 75.313H411.865V87.8079H424.346V75.313Z" fill="#F6BCC2"/>
<path d="M411.865 75.313H399.385V87.8079H411.865V75.313Z" fill="#F6BCC2"/>
<path d="M399.385 75.313H386.904V87.8079H399.385V75.313Z" fill="#F6BCC2"/>
<path d="M386.904 75.313H374.423V87.8079H386.904V75.313Z" fill="#F6BCC2"/>
<path d="M374.423 75.313H361.942V87.8079H374.423V75.313Z" fill="#F6BCC2"/>
<path d="M361.942 75.313H349.461V87.8079H361.942V75.313Z" fill="#F6BCC2"/>
<path d="M349.461 75.313H336.981V87.8079H349.461V75.313Z" fill="#F6BCC2"/>
<path d="M336.981 75.313H324.5V87.8079H336.981V75.313Z" fill="#F6BCC2"/>
<path d="M324.5 75.313H312.019V87.8079H324.5V75.313Z" fill="#F6BCC2"/>
<path d="M312.019 75.313H299.539V87.8079H312.019V75.313Z" fill="#F6BCC2"/>
<path d="M299.538 75.313H287.058V87.8079H299.538V75.313Z" fill="#F6BCC2"/>
<path d="M287.058 75.313H274.577V87.8079H287.058V75.313Z" fill="#F6BCC2"/>
<path d="M274.577 75.313H262.096V87.8079H274.577V75.313Z" fill="#F6BCC2"/>
<path d="M212.173 75.313H199.692V87.8079H212.173V75.313Z" fill="#F6BCC2"/>
<path d="M199.692 75.313H187.211V87.8079H199.692V75.313Z" fill="#F6BCC2"/>
<path d="M187.211 75.313H174.731V87.8079H187.211V75.313Z" fill="#F6BCC2"/>
<path d="M174.731 75.313H162.25V87.8079H174.731V75.313Z" fill="#F6BCC2"/>
<path d="M162.25 75.313H149.769V87.8079H162.25V75.313Z" fill="#F6BCC2"/>
<path d="M149.769 75.313H137.289V87.8079H149.769V75.313Z" fill="#F6BCC2"/>
<path d="M137.288 75.313H124.808V87.8079H137.288V75.313Z" fill="#F6BCC2"/>
<path d="M124.808 75.313H112.327V87.8079H124.808V75.313Z" fill="#F6BCC2"/>
<path d="M112.327 75.313H99.8462V87.8079H112.327V75.313Z" fill="#F6BCC2"/>
<path d="M99.8462 75.313H87.3655V87.8079H99.8462V75.313Z" fill="#F6BCC2"/>
<path d="M87.3653 75.313H74.8845V87.8079H87.3653V75.313Z" fill="#F6BCC2"/>
<path d="M74.8846 75.313H62.4038V87.8079H74.8846V75.313Z" fill="#F6BCC2"/>
<path d="M62.4039 75.313H49.9231V87.8079H62.4039V75.313Z" fill="#F6BCC2"/>
<path d="M49.9232 75.313H37.4424V87.8079H49.9232V75.313Z" fill="#F6BCC2"/>
<path d="M37.4422 75.313H24.9614V87.8079H37.4422V75.313Z" fill="#F6BCC2"/>
<path d="M449.308 62.8181H436.827V75.3131H449.308V62.8181Z" fill="#F6BCC2"/>
<path d="M436.827 62.8181H424.346V75.3131H436.827V62.8181Z" fill="#F6BCC2"/>
<path d="M424.346 62.8181H411.865V75.3131H424.346V62.8181Z" fill="#F6BCC2"/>
<path d="M411.865 62.8181H399.385V75.3131H411.865V62.8181Z" fill="#F6BCC2"/>
<path d="M399.385 62.8181H386.904V75.3131H399.385V62.8181Z" fill="#F6BCC2"/>
<path d="M386.904 62.8181H374.423V75.3131H386.904V62.8181Z" fill="#F6BCC2"/>
<path d="M374.423 62.8181H361.942V75.3131H374.423V62.8181Z" fill="#F6BCC2"/>
<path d="M361.942 62.8181H349.461V75.3131H361.942V62.8181Z" fill="#F6BCC2"/>
<path d="M349.461 62.8181H336.981V75.3131H349.461V62.8181Z" fill="#F6BCC2"/>
<path d="M336.981 62.8181H324.5V75.3131H336.981V62.8181Z" fill="#F6BCC2"/>
<path d="M324.5 62.8181H312.019V75.3131H324.5V62.8181Z" fill="#F6BCC2"/>
<path d="M312.019 62.8181H299.539V75.3131H312.019V62.8181Z" fill="#F6BCC2"/>
<path d="M299.538 62.8181H287.058V75.3131H299.538V62.8181Z" fill="#F6BCC2"/>
<path d="M287.058 62.8181H274.577V75.3131H287.058V62.8181Z" fill="#F6BCC2"/>
<path d="M274.577 62.8181H262.096V75.3131H274.577V62.8181Z" fill="#F6BCC2"/>
<path d="M212.173 62.8181H199.692V75.3131H212.173V62.8181Z" fill="#F6BCC2"/>
<path d="M199.692 62.8181H187.211V75.3131H199.692V62.8181Z" fill="#F6BCC2"/>
<path d="M187.211 62.8181H174.731V75.3131H187.211V62.8181Z" fill="#F6BCC2"/>
<path d="M174.731 62.8181H162.25V75.3131H174.731V62.8181Z" fill="#F6BCC2"/>
<path d="M162.25 62.8181H149.769V75.3131H162.25V62.8181Z" fill="#F6BCC2"/>
<path d="M149.769 62.8181H137.289V75.3131H149.769V62.8181Z" fill="#F6BCC2"/>
<path d="M137.288 62.8181H124.808V75.3131H137.288V62.8181Z" fill="#F6BCC2"/>
<path d="M124.808 62.8181H112.327V75.3131H124.808V62.8181Z" fill="#F6BCC2"/>
<path d="M112.327 62.8181H99.8462V75.3131H112.327V62.8181Z" fill="#F6BCC2"/>
<path d="M99.8462 62.8181H87.3655V75.3131H99.8462V62.8181Z" fill="#F6BCC2"/>
<path d="M87.3653 62.8181H74.8845V75.3131H87.3653V62.8181Z" fill="#F6BCC2"/>
<path d="M74.8846 62.8181H62.4038V75.3131H74.8846V62.8181Z" fill="#F6BCC2"/>
<path d="M62.4039 62.8181H49.9231V75.3131H62.4039V62.8181Z" fill="#F6BCC2"/>
<path d="M49.9232 62.8181H37.4424V75.3131H49.9232V62.8181Z" fill="#F6BCC2"/>
<path d="M37.4422 62.8181H24.9614V75.3131H37.4422V62.8181Z" fill="#F6BCC2"/>
<path d="M24.9615 62.8181H12.4807V75.3131H24.9615V62.8181Z" fill="#F6BCC2"/>
<path d="M449.308 50.323H436.827V62.8179H449.308V50.323Z" fill="#F6BCC2"/>
<path d="M436.827 50.323H424.346V62.8179H436.827V50.323Z" fill="#F6BCC2"/>
<path d="M424.346 50.323H411.865V62.8179H424.346V50.323Z" fill="#F6BCC2"/>
<path d="M411.865 50.323H399.385V62.8179H411.865V50.323Z" fill="#F6BCC2"/>
<path d="M399.385 50.323H386.904V62.8179H399.385V50.323Z" fill="#F6BCC2"/>
<path d="M386.904 50.323H374.423V62.8179H386.904V50.323Z" fill="#F6BCC2"/>
<path d="M374.423 50.323H361.942V62.8179H374.423V50.323Z" fill="#F6BCC2"/>
<path d="M361.942 50.323H349.461V62.8179H361.942V50.323Z" fill="#F6BCC2"/>
<path d="M349.461 50.323H336.981V62.8179H349.461V50.323Z" fill="#F6BCC2"/>
<path d="M336.981 50.323H324.5V62.8179H336.981V50.323Z" fill="#F6BCC2"/>
<path d="M324.5 50.323H312.019V62.8179H324.5V50.323Z" fill="#F6BCC2"/>
<path d="M312.019 50.323H299.539V62.8179H312.019V50.323Z" fill="#F6BCC2"/>
<path d="M299.538 50.323H287.058V62.8179H299.538V50.323Z" fill="#F6BCC2"/>
<path d="M287.058 50.323H274.577V62.8179H287.058V50.323Z" fill="#F6BCC2"/>
<path d="M274.577 50.323H262.096V62.8179H274.577V50.323Z" fill="#F6BCC2"/>
<path d="M212.173 50.323H199.692V62.8179H212.173V50.323Z" fill="#F6BCC2"/>
<path d="M199.692 50.323H187.211V62.8179H199.692V50.323Z" fill="#F6BCC2"/>
<path d="M187.211 50.323H174.731V62.8179H187.211V50.323Z" fill="#F6BCC2"/>
<path d="M174.731 50.323H162.25V62.8179H174.731V50.323Z" fill="#F6BCC2"/>
<path d="M162.25 50.323H149.769V62.8179H162.25V50.323Z" fill="#F6BCC2"/>
<path d="M149.769 50.323H137.289V62.8179H149.769V50.323Z" fill="#F6BCC2"/>
<path d="M137.288 50.323H124.808V62.8179H137.288V50.323Z" fill="#F6BCC2"/>
<path d="M124.808 50.323H112.327V62.8179H124.808V50.323Z" fill="#F6BCC2"/>
<path d="M112.327 50.323H99.8462V62.8179H112.327V50.323Z" fill="#F6BCC2"/>
<path d="M99.8462 50.323H87.3655V62.8179H99.8462V50.323Z" fill="#F6BCC2"/>
<path d="M87.3653 50.323H74.8845V62.8179H87.3653V50.323Z" fill="#F6BCC2"/>
<path d="M74.8846 50.323H62.4038V62.8179H74.8846V50.323Z" fill="#F6BCC2"/>
<path d="M62.4039 50.323H49.9231V62.8179H62.4039V50.323Z" fill="#F6BCC2"/>
<path d="M49.9232 50.323H37.4424V62.8179H49.9232V50.323Z" fill="#F6BCC2"/>
<path d="M37.4422 50.323H24.9614V62.8179H37.4422V50.323Z" fill="#F6BCC2"/>
<path d="M24.9615 50.323H12.4807V62.8179H24.9615V50.323Z" fill="#F6BCC2"/>
<path d="M449.308 37.8281H436.827V50.3231H449.308V37.8281Z" fill="#F6BCC2"/>
<path d="M436.827 37.8281H424.346V50.3231H436.827V37.8281Z" fill="#F6BCC2"/>
<path d="M424.346 37.8281H411.865V50.3231H424.346V37.8281Z" fill="#F6BCC2"/>
<path d="M411.865 37.8281H399.385V50.3231H411.865V37.8281Z" fill="#F6BCC2"/>
<path d="M399.385 37.8281H386.904V50.3231H399.385V37.8281Z" fill="#F6BCC2"/>
<path d="M386.904 37.8281H374.423V50.3231H386.904V37.8281Z" fill="#F6BCC2"/>
<path d="M374.423 37.8281H361.942V50.3231H374.423V37.8281Z" fill="#F6BCC2"/>
<path d="M361.942 37.8281H349.461V50.3231H361.942V37.8281Z" fill="#F6BCC2"/>
<path d="M349.461 37.8281H336.981V50.3231H349.461V37.8281Z" fill="#F6BCC2"/>
<path d="M336.981 37.8281H324.5V50.3231H336.981V37.8281Z" fill="#F6BCC2"/>
<path d="M324.5 37.8281H312.019V50.3231H324.5V37.8281Z" fill="#F6BCC2"/>
<path d="M312.019 37.8281H299.539V50.3231H312.019V37.8281Z" fill="#F6BCC2"/>
<path d="M299.538 37.8281H287.058V50.3231H299.538V37.8281Z" fill="#F6BCC2"/>
<path d="M287.058 37.8281H274.577V50.3231H287.058V37.8281Z" fill="#F6BCC2"/>
<path d="M274.577 37.8281H262.096V50.3231H274.577V37.8281Z" fill="#F6BCC2"/>
<path d="M212.173 37.8281H199.692V50.3231H212.173V37.8281Z" fill="#F6BCC2"/>
<path d="M199.692 37.8281H187.211V50.3231H199.692V37.8281Z" fill="#F6BCC2"/>
<path d="M187.211 37.8281H174.731V50.3231H187.211V37.8281Z" fill="#F6BCC2"/>
<path d="M174.731 37.8281H162.25V50.3231H174.731V37.8281Z" fill="#F6BCC2"/>
<path d="M162.25 37.8281H149.769V50.3231H162.25V37.8281Z" fill="#F6BCC2"/>
<path d="M149.769 37.8281H137.289V50.3231H149.769V37.8281Z" fill="#F6BCC2"/>
<path d="M137.288 37.8281H124.808V50.3231H137.288V37.8281Z" fill="#F6BCC2"/>
<path d="M124.808 37.8281H112.327V50.3231H124.808V37.8281Z" fill="#F6BCC2"/>
<path d="M112.327 37.8281H99.8462V50.3231H112.327V37.8281Z" fill="#F6BCC2"/>
<path d="M99.8462 37.8281H87.3655V50.3231H99.8462V37.8281Z" fill="#F6BCC2"/>
<path d="M87.3653 37.8281H74.8845V50.3231H87.3653V37.8281Z" fill="#F6BCC2"/>
<path d="M74.8846 37.8281H62.4038V50.3231H74.8846V37.8281Z" fill="#F6BCC2"/>
<path d="M62.4039 37.8281H49.9231V50.3231H62.4039V37.8281Z" fill="#F6BCC2"/>
<path d="M49.9232 37.8281H37.4424V50.3231H49.9232V37.8281Z" fill="#F6BCC2"/>
<path d="M37.4422 37.8281H24.9614V50.3231H37.4422V37.8281Z" fill="#F6BCC2"/>
<path d="M24.9615 37.8281H12.4807V50.3231H24.9615V37.8281Z" fill="#F6BCC2"/>
<path d="M37.4422 25.3333H24.9614V37.8282H37.4422V25.3333Z" fill="#F6BCC2"/>
<path d="M24.9615 25.3333H12.4807V37.8282H24.9615V25.3333Z" fill="#F6BCC2"/>
<path d="M449.308 12.8381H436.827V25.3331H449.308V12.8381Z" fill="#F6BCC2"/>
<path d="M436.827 12.8381H424.346V25.3331H436.827V12.8381Z" fill="#F6BCC2"/>
<path d="M424.346 12.8381H411.865V25.3331H424.346V12.8381Z" fill="#F6BCC2"/>
<path d="M411.865 12.8381H399.385V25.3331H411.865V12.8381Z" fill="#F6BCC2"/>
<path d="M399.385 12.8381H386.904V25.3331H399.385V12.8381Z" fill="#F6BCC2"/>
<path d="M386.904 12.8381H374.423V25.3331H386.904V12.8381Z" fill="#F6BCC2"/>
<path d="M374.423 12.8381H361.942V25.3331H374.423V12.8381Z" fill="#F6BCC2"/>
<path d="M361.942 12.8381H349.461V25.3331H361.942V12.8381Z" fill="#F6BCC2"/>
<path d="M349.461 12.8381H336.981V25.3331H349.461V12.8381Z" fill="#F6BCC2"/>
<path d="M336.981 12.8381H324.5V25.3331H336.981V12.8381Z" fill="#F6BCC2"/>
<path d="M324.5 12.8381H312.019V25.3331H324.5V12.8381Z" fill="#F6BCC2"/>
<path d="M312.019 12.8381H299.539V25.3331H312.019V12.8381Z" fill="#F6BCC2"/>
<path d="M299.538 12.8381H287.058V25.3331H299.538V12.8381Z" fill="#F6BCC2"/>
<path d="M287.058 12.8381H274.577V25.3331H287.058V12.8381Z" fill="#F6BCC2"/>
<path d="M274.577 12.8381H262.096V25.3331H274.577V12.8381Z" fill="#F6BCC2"/>
<path d="M212.173 12.8381H199.692V25.3331H212.173V12.8381Z" fill="#F6BCC2"/>
<path d="M199.692 12.8381H187.211V25.3331H199.692V12.8381Z" fill="#F6BCC2"/>
<path d="M187.211 12.8381H174.731V25.3331H187.211V12.8381Z" fill="#F6BCC2"/>
<path d="M174.731 12.8381H162.25V25.3331H174.731V12.8381Z" fill="#F6BCC2"/>
<path d="M162.25 12.8381H149.769V25.3331H162.25V12.8381Z" fill="#F6BCC2"/>
<path d="M149.769 12.8381H137.289V25.3331H149.769V12.8381Z" fill="#F6BCC2"/>
<path d="M137.288 12.8381H124.808V25.3331H137.288V12.8381Z" fill="#F6BCC2"/>
<path d="M124.808 12.8381H112.327V25.3331H124.808V12.8381Z" fill="#F6BCC2"/>
<path d="M112.327 12.8381H99.8462V25.3331H112.327V12.8381Z" fill="#F6BCC2"/>
<path d="M99.8462 12.8381H87.3655V25.3331H99.8462V12.8381Z" fill="#F6BCC2"/>
<path d="M87.3653 12.8381H74.8845V25.3331H87.3653V12.8381Z" fill="#F6BCC2"/>
<path d="M74.8846 12.8381H62.4038V25.3331H74.8846V12.8381Z" fill="#F6BCC2"/>
<path d="M62.4039 12.8381H49.9231V25.3331H62.4039V12.8381Z" fill="#F6BCC2"/>
<path d="M49.9232 12.8381H37.4424V25.3331H49.9232V12.8381Z" fill="#F6BCC2"/>
<path d="M37.4422 12.8381H24.9614V25.3331H37.4422V12.8381Z" fill="#F6BCC2"/>
<path d="M262.096 75.313H249.615V87.8079H262.096V75.313Z" fill="#F6BCC2"/>
<path d="M249.615 75.313H237.135V87.8079H249.615V75.313Z" fill="#F6BCC2"/>
<path d="M237.135 75.313H224.654V87.8079H237.135V75.313Z" fill="#F6BCC2"/>
<path d="M224.654 75.313H212.173V87.8079H224.654V75.313Z" fill="#F6BCC2"/>
<path d="M262.096 62.8181H249.615V75.3131H262.096V62.8181Z" fill="#F6BCC2"/>
<path d="M249.615 62.8181H237.135V75.3131H249.615V62.8181Z" fill="#F6BCC2"/>
<path d="M237.135 62.8181H224.654V75.3131H237.135V62.8181Z" fill="#F6BCC2"/>
<path d="M224.654 62.8181H212.173V75.3131H224.654V62.8181Z" fill="#F6BCC2"/>
<path d="M262.096 50.323H249.615V62.8179H262.096V50.323Z" fill="#F6BCC2"/>
<path d="M249.615 50.323H237.135V62.8179H249.615V50.323Z" fill="#F6BCC2"/>
<path d="M237.135 50.323H224.654V62.8179H237.135V50.323Z" fill="#F6BCC2"/>
<path d="M224.654 50.323H212.173V62.8179H224.654V50.323Z" fill="#F6BCC2"/>
<path d="M262.096 37.8281H249.615V50.3231H262.096V37.8281Z" fill="#F6BCC2"/>
<path d="M249.615 37.8281H237.135V50.3231H249.615V37.8281Z" fill="#F6BCC2"/>
<path d="M237.135 37.8281H224.654V50.3231H237.135V37.8281Z" fill="#F6BCC2"/>
<path d="M224.654 37.8281H212.173V50.3231H224.654V37.8281Z" fill="#F6BCC2"/>
<path d="M449.308 25.3335H436.827V37.8284H449.308V25.3335Z" fill="#FFFDFB"/>
<path d="M436.827 25.3335H424.346V37.8284H436.827V25.3335Z" fill="#FFFDFB"/>
<path d="M424.346 25.3335H411.865V37.8284H424.346V25.3335Z" fill="#FFFDFB"/>
<path d="M411.865 25.3335H399.385V37.8284H411.865V25.3335Z" fill="#FFFDFB"/>
<path d="M399.385 25.3335H386.904V37.8284H399.385V25.3335Z" fill="#FFFDFB"/>
<path d="M386.904 25.3335H374.423V37.8284H386.904V25.3335Z" fill="#FFFDFB"/>
<path d="M374.423 25.3335H361.942V37.8284H374.423V25.3335Z" fill="#FFFDFB"/>
<path d="M361.942 25.3335H349.461V37.8284H361.942V25.3335Z" fill="#FFFDFB"/>
<path d="M349.461 25.3335H336.981V37.8284H349.461V25.3335Z" fill="#FFFDFB"/>
<path d="M336.981 25.3335H324.5V37.8284H336.981V25.3335Z" fill="#FFFDFB"/>
<path d="M324.5 25.3335H312.019V37.8284H324.5V25.3335Z" fill="#FFFDFB"/>
<path d="M312.019 25.3335H299.539V37.8284H312.019V25.3335Z" fill="#FFFDFB"/>
<path d="M299.539 25.3335H287.058V37.8284H299.539V25.3335Z" fill="#FFFDFB"/>
<path d="M287.058 25.3335H274.577V37.8284H287.058V25.3335Z" fill="#FFFDFB"/>
<path d="M274.577 25.3335H262.096V37.8284H274.577V25.3335Z" fill="#FFFDFB"/>
<path d="M212.173 25.3335H199.692V37.8284H212.173V25.3335Z" fill="#FFFDFB"/>
<path d="M199.692 25.3335H187.211V37.8284H199.692V25.3335Z" fill="#FFFDFB"/>
<path d="M187.211 25.3335H174.731V37.8284H187.211V25.3335Z" fill="#FFFDFB"/>
<path d="M174.731 25.3335H162.25V37.8284H174.731V25.3335Z" fill="#FFFDFB"/>
<path d="M162.25 25.3335H149.769V37.8284H162.25V25.3335Z" fill="#FFFDFB"/>
<path d="M149.769 25.3335H137.289V37.8284H149.769V25.3335Z" fill="#FFFDFB"/>
<path d="M137.289 25.3335H124.808V37.8284H137.289V25.3335Z" fill="#FFFDFB"/>
<path d="M124.808 25.3335H112.327V37.8284H124.808V25.3335Z" fill="#FFFDFB"/>
<path d="M112.327 25.3335H99.8462V37.8284H112.327V25.3335Z" fill="#FFFDFB"/>
<path d="M99.8462 25.3335H87.3655V37.8284H99.8462V25.3335Z" fill="#FFFDFB"/>
<path d="M87.3655 25.3335H74.8845V37.8284H87.3655V25.3335Z" fill="#FFFDFB"/>
<path d="M74.8845 25.3335H62.4038V37.8284H74.8845V25.3335Z" fill="#FFFDFB"/>
<path d="M62.4038 25.3335H49.9231V37.8284H62.4038V25.3335Z" fill="#FFFDFB"/>
<path d="M49.9231 25.3335H37.4424V37.8284H49.9231V25.3335Z" fill="#FFFDFB"/>
<path d="M262.096 25.3335H249.615V37.8284H262.096V25.3335Z" fill="#FFFDFB"/>
<path d="M249.615 25.3335H237.135V37.8284H249.615V25.3335Z" fill="#FFFDFB"/>
<path d="M237.135 25.3335H224.654V37.8284H237.135V25.3335Z" fill="#FFFDFB"/>
<path d="M224.654 25.3335H212.173V37.8284H224.654V25.3335Z" fill="#FFFDFB"/>
<path d="M262.096 12.8381H249.615V25.3331H262.096V12.8381Z" fill="#F6BCC2"/>
<path d="M249.615 12.8381H237.135V25.3331H249.615V12.8381Z" fill="#F6BCC2"/>
<path d="M237.135 12.8381H224.654V25.3331H237.135V12.8381Z" fill="#F6BCC2"/>
<path d="M224.654 12.8381H212.173V25.3331H224.654V12.8381Z" fill="#F6BCC2"/>
<path d="M624.038 75.3132H611.558V87.8081H624.038V75.3132Z" fill="#6D3435"/>
<path d="M611.558 75.3132H599.077V87.8081H611.558V75.3132Z" fill="#6D3435"/>
<path d="M511.711 75.3132H499.231V87.8081H511.711V75.3132Z" fill="#6D3435"/>
<path d="M461.788 75.3132H449.308V87.8081H461.788V75.3132Z" fill="#6D3435"/>
<path d="M636.519 62.8182H624.039L624.038 75.3132L636.519 75.3132V62.8182Z" fill="#6D3435"/>
<path d="M624.039 62.8182H611.558V75.3132H624.038L624.039 62.8182Z" fill="#6D3435"/>
<path d="M611.558 62.8182H599.077V75.3132H611.558V62.8182Z" fill="#6D3435"/>
<path d="M511.711 62.8182H499.231V75.3132H511.711V62.8182Z" fill="#6D3435"/>
<path d="M461.788 62.8182H449.308V75.3132H461.788V62.8182Z" fill="#6D3435"/>
<path d="M636.519 50.3232H624.039V62.8182H636.519V50.3232Z" fill="#6D3435"/>
<path d="M624.039 50.3232H611.558V62.8182H624.039V50.3232Z" fill="#6D3435"/>
<path d="M611.558 50.3232H599.077V62.8182H611.558V50.3232Z" fill="#6D3435"/>
<path d="M511.711 50.3232H499.231V62.8182H511.711V50.3232Z" fill="#6D3435"/>
<path d="M461.788 50.3232H449.308V62.8182H461.788V50.3232Z" fill="#6D3435"/>
<path d="M636.519 37.8283H624.039V50.3232H636.519V37.8283Z" fill="#6D3435"/>
<path d="M624.039 37.8283H611.558V50.3232H624.039V37.8283Z" fill="#6D3435"/>
<path d="M611.558 37.8283H599.077V50.3232H611.558V37.8283Z" fill="#6D3435"/>
<path d="M511.711 37.8283H499.231V50.3232H511.711V37.8283Z" fill="#6D3435"/>
<path d="M461.788 37.8283H449.308V50.3232H461.788V37.8283Z" fill="#6D3435"/>
<path d="M636.519 25.3334H624.039V37.8283H636.519V25.3334Z" fill="#6D3435"/>
<path d="M624.039 25.3334H611.558V37.8283H624.039V25.3334Z" fill="#6D3435"/>
<path d="M611.558 25.3334H599.077V37.8283H611.558V25.3334Z" fill="#6D3435"/>
<path d="M511.711 25.3334H499.231V37.8283H511.711V25.3334Z" fill="#6D3435"/>
<path d="M461.788 25.3334H449.308V37.8283H461.788V25.3334Z" fill="#6D3435"/>
<path d="M624.038 12.8384H611.558V25.3334H624.039L624.038 12.8384Z" fill="#6D3435"/>
<path d="M611.558 12.8384H599.077V25.3334H611.558V12.8384Z" fill="#6D3435"/>
<path d="M511.711 12.8384H499.231V25.3334H511.711V12.8384Z" fill="#6D3435"/>
<path d="M461.788 12.8384H449.308V25.3334H461.788V12.8384Z" fill="#6D3435"/>
<path d="M499.231 75.3132H486.75V87.8081H499.231V75.3132Z" fill="#6D3435"/>
<path d="M486.75 75.3132H474.269V87.8081H486.75V75.3132Z" fill="#6D3435"/>
<path d="M474.269 75.3132H461.788V87.8081H474.269V75.3132Z" fill="#6D3435"/>
<path d="M499.231 62.8182H486.75V75.3132H499.231V62.8182Z" fill="#6D3435"/>
<path d="M486.75 62.8182H474.269V75.3132H486.75V62.8182Z" fill="#6D3435"/>
<path d="M474.269 62.8182H461.788V75.3132H474.269V62.8182Z" fill="#6D3435"/>
<path d="M499.231 50.3232H486.75V62.8182H499.231V50.3232Z" fill="#6D3435"/>
<path d="M486.75 50.3232H474.269V62.8182H486.75V50.3232Z" fill="#6D3435"/>
<path d="M474.269 50.3232H461.788V62.8182H474.269V50.3232Z" fill="#6D3435"/>
<path d="M499.231 37.8283H486.75V50.3232H499.231V37.8283Z" fill="#6D3435"/>
<path d="M486.75 37.8283H474.269V50.3232H486.75V37.8283Z" fill="#6D3435"/>
<path d="M474.269 37.8283H461.788V50.3232H474.269V37.8283Z" fill="#6D3435"/>
<path d="M499.231 25.3334H486.75V37.8283H499.231V25.3334Z" fill="#6D3435"/>
<path d="M486.75 25.3334H474.269V37.8283H486.75V25.3334Z" fill="#6D3435"/>
<path d="M474.269 25.3334H461.788V37.8283H474.269V25.3334Z" fill="#6D3435"/>
<path d="M499.231 12.8384H486.75V25.3334H499.231V12.8384Z" fill="#6D3435"/>
<path d="M486.75 12.8384H474.269V25.3334H486.75V12.8384Z" fill="#6D3435"/>
<path d="M474.269 12.8384H461.788V25.3334H474.269V12.8384Z" fill="#6D3435"/>
<path d="M599.077 75.3132H586.596V87.8081H599.077V75.3132Z" fill="#6D3435"/>
<path d="M586.596 75.3132H574.115V87.8081H586.596V75.3132Z" fill="#6D3435"/>
<path d="M599.077 62.8182H586.596V75.3132H599.077V62.8182Z" fill="#6D3435"/>
<path d="M586.596 62.8182H574.115V75.3132H586.596V62.8182Z" fill="#6D3435"/>
<path d="M599.077 50.3232H586.596V62.8182H599.077V50.3232Z" fill="#6D3435"/>
<path d="M586.596 50.3232H574.115V62.8182H586.596V50.3232Z" fill="#6D3435"/>
<path d="M599.077 37.8283H586.596V50.3232H599.077V37.8283Z" fill="#6D3435"/>
<path d="M586.596 37.8283H574.115V50.3232H586.596V37.8283Z" fill="#6D3435"/>
<path d="M599.077 25.3334H586.596V37.8283H599.077V25.3334Z" fill="#6D3435"/>
<path d="M586.596 25.3334H574.115V37.8283H586.596V25.3334Z" fill="#6D3435"/>
<path d="M599.077 12.8384H586.596V25.3334H599.077V12.8384Z" fill="#6D3435"/>
<path d="M586.596 12.8384H574.115V25.3334H586.596V12.8384Z" fill="#6D3435"/>
<path d="M574.115 75.3132H561.635V87.8081H574.115V75.3132Z" fill="#6D3435"/>
<path d="M574.115 62.8182H561.635V75.3132H574.115V62.8182Z" fill="#6D3435"/>
<path d="M574.115 50.3232H561.635V62.8182H574.115V50.3232Z" fill="#6D3435"/>
<path d="M574.115 37.8283H561.635V50.3232H574.115V37.8283Z" fill="#6D3435"/>
<path d="M574.115 25.3334H561.635V37.8283H574.115V25.3334Z" fill="#6D3435"/>
<path d="M574.115 12.8384H561.635V25.3334H574.115V12.8384Z" fill="#6D3435"/>
<path d="M561.635 75.3132H549.154V87.8081H561.635V75.3132Z" fill="#6D3435"/>
<path d="M549.154 75.3132H536.673V87.8081H549.154V75.3132Z" fill="#6D3435"/>
<path d="M561.635 62.8182H549.154V75.3132H561.635V62.8182Z" fill="#6D3435"/>
<path d="M549.154 62.8182H536.673V75.3132H549.154V62.8182Z" fill="#6D3435"/>
<path d="M561.635 50.3232H549.154V62.8182H561.635V50.3232Z" fill="#6D3435"/>
<path d="M549.154 50.3232H536.673V62.8182H549.154V50.3232Z" fill="#6D3435"/>
<path d="M561.635 37.8283H549.154V50.3232H561.635V37.8283Z" fill="#6D3435"/>
<path d="M549.154 37.8283H536.673V50.3232H549.154V37.8283Z" fill="#6D3435"/>
<path d="M561.635 25.3334H549.154V37.8283H561.635V25.3334Z" fill="#6D3435"/>
<path d="M549.154 25.3334H536.673V37.8283H549.154V25.3334Z" fill="#6D3435"/>
<path d="M561.635 12.8384H549.154V25.3334H561.635V12.8384Z" fill="#6D3435"/>
<path d="M549.154 12.8384H536.673V25.3334H549.154V12.8384Z" fill="#6D3435"/>
<path d="M536.673 75.3132H524.192V87.8081H536.673V75.3132Z" fill="#6D3435"/>
<path d="M536.673 62.8182H524.192V75.3132H536.673V62.8182Z" fill="#6D3435"/>
<path d="M536.673 50.3232H524.192V62.8182H536.673V50.3232Z" fill="#6D3435"/>
<path d="M536.673 37.8283H524.192V50.3232H536.673V37.8283Z" fill="#6D3435"/>
<path d="M536.673 25.3334H524.192V37.8283H536.673V25.3334Z" fill="#6D3435"/>
<path d="M536.673 12.8384H524.192V25.3334H536.673V12.8384Z" fill="#6D3435"/>
<path d="M524.192 75.3132H511.711V87.8081H524.192V75.3132Z" fill="#6D3435"/>
<path d="M524.192 62.8182H511.711V75.3132H524.192V62.8182Z" fill="#6D3435"/>
<path d="M524.192 50.3232H511.711V62.8182H524.192V50.3232Z" fill="#6D3435"/>
<path d="M524.192 37.8283H511.711V50.3232H524.192V37.8283Z" fill="#6D3435"/>
<path d="M524.192 25.3334H511.711V37.8283H524.192V25.3334Z" fill="#6D3435"/>
<path d="M524.192 12.8384H511.711V25.3334H524.192V12.8384Z" fill="#6D3435"/>
<path d="M624.038 87.808H611.558V100.303H624.038V87.808Z" fill="#813E3F"/>
<path d="M611.558 87.808H599.077V100.303H611.558V87.808Z" fill="#813E3F"/>
<path d="M511.711 87.808H499.231V100.303H511.711V87.808Z" fill="#813E3F"/>
<path d="M461.788 87.808H449.308V100.303H461.788V87.808Z" fill="#813E3F"/>
<path d="M449.308 87.808H436.827V100.303H449.308V87.808Z" fill="#813E3F"/>
<path d="M436.827 87.808H424.346V100.303H436.827V87.808Z" fill="#813E3F"/>
<path d="M424.346 87.808H411.865V100.303H424.346V87.808Z" fill="#813E3F"/>
<path d="M411.865 87.808H399.385V100.303H411.865V87.808Z" fill="#813E3F"/>
<path d="M399.385 87.808H386.904V100.303H399.385V87.808Z" fill="#813E3F"/>
<path d="M386.904 87.808H374.423V100.303H386.904V87.808Z" fill="#813E3F"/>
<path d="M374.423 87.808H361.942V100.303H374.423V87.808Z" fill="#813E3F"/>
<path d="M361.942 87.808H349.461V100.303H361.942V87.808Z" fill="#813E3F"/>
<path d="M349.461 87.808H336.981V100.303H349.461V87.808Z" fill="#813E3F"/>
<path d="M336.981 87.808H324.5V100.303H336.981V87.808Z" fill="#813E3F"/>
<path d="M324.5 87.808H312.019V100.303H324.5V87.808Z" fill="#813E3F"/>
<path d="M312.019 87.808H299.539V100.303H312.019V87.808Z" fill="#813E3F"/>
<path d="M299.539 87.808H287.058V100.303H299.539V87.808Z" fill="#813E3F"/>
<path d="M287.058 87.808H274.577V100.303H287.058V87.808Z" fill="#813E3F"/>
<path d="M274.577 87.808H262.096V100.303H274.577V87.808Z" fill="#813E3F"/>
<path d="M212.173 87.808H199.692V100.303H212.173V87.808Z" fill="#813E3F"/>
<path d="M199.692 87.808H187.211V100.303H199.692V87.808Z" fill="#813E3F"/>
<path d="M187.211 87.808H174.731V100.303H187.211V87.808Z" fill="#813E3F"/>
<path d="M174.731 87.808H162.25V100.303H174.731V87.808Z" fill="#813E3F"/>
<path d="M162.25 87.808H149.769V100.303H162.25V87.808Z" fill="#813E3F"/>
<path d="M149.769 87.808H137.289V100.303H149.769V87.808Z" fill="#813E3F"/>
<path d="M137.289 87.808H124.808V100.303H137.289V87.808Z" fill="#813E3F"/>
<path d="M124.808 87.808H112.327V100.303H124.808V87.808Z" fill="#813E3F"/>
<path d="M112.327 87.808H99.8462V100.303H112.327V87.808Z" fill="#813E3F"/>
<path d="M99.8462 87.808H87.3655V100.303H99.8462V87.808Z" fill="#813E3F"/>
<path d="M87.3655 87.808H74.8845V100.303H87.3655V87.808Z" fill="#813E3F"/>
<path d="M74.8845 87.808H62.4038V100.303H74.8845V87.808Z" fill="#813E3F"/>
<path d="M62.4038 87.808H49.9231V100.303H62.4038V87.808Z" fill="#813E3F"/>
<path d="M49.9231 87.808H37.4424V100.303H49.9231V87.808Z" fill="#813E3F"/>
<path d="M37.4424 87.808H24.9614V100.303H37.4424V87.808Z" fill="#813E3F"/>
<path d="M636.519 75.313H624.039L624.038 87.808L636.519 87.808V75.313Z" fill="#813E3F"/>
<path d="M24.9615 75.313H12.4807V87.808L24.9614 87.808L24.9615 75.313Z" fill="#813E3F"/>
<path d="M649 62.8181H636.519L636.519 75.313L649 75.313V62.8181Z" fill="#813E3F"/>
<path d="M12.4808 62.8181H0V75.313L12.4807 75.313L12.4808 62.8181Z" fill="#813E3F"/>
<path d="M649 50.3231H636.519V62.8181H649V50.3231Z" fill="#813E3F"/>
<path d="M12.4808 50.3231H0V62.8181H12.4808V50.3231Z" fill="#813E3F"/>
<path d="M649 37.8282H636.519V50.3231H649V37.8282Z" fill="#813E3F"/>
<path d="M12.4808 37.8282H0V50.3231H12.4808V37.8282Z" fill="#813E3F"/>
<path d="M649 25.3332H636.519V37.8282H649V25.3332Z" fill="#813E3F"/>
<path d="M12.4808 25.3332H0V37.8282H12.4808V25.3332Z" fill="#813E3F"/>
<path d="M636.519 12.8382H624.039V25.3332L636.519 25.3332L636.519 12.8382Z" fill="#813E3F"/>
<path d="M24.9615 12.8382H12.4807L12.4808 25.3332L24.9615 25.3332V12.8382Z" fill="#813E3F"/>
<path d="M624.038 0.343262H611.558V12.8382L624.039 12.8382L624.038 0.343262Z" fill="#813E3F"/>
<path d="M611.558 0.343262H599.077V12.8382H611.558V0.343262Z" fill="#813E3F"/>
<path d="M511.711 0.343262H499.231V12.8382H511.711V0.343262Z" fill="#813E3F"/>
<path d="M461.788 0.343262H449.308V12.8382H461.788V0.343262Z" fill="#813E3F"/>
<path d="M449.308 0.343262H436.827V12.8382H449.308V0.343262Z" fill="#813E3F"/>
<path d="M436.827 0.343262H424.346V12.8382H436.827V0.343262Z" fill="#813E3F"/>
<path d="M499.231 87.808H486.75V100.303H499.231V87.808Z" fill="#813E3F"/>
<path d="M486.75 87.808H474.269V100.303H486.75V87.808Z" fill="#813E3F"/>
<path d="M474.269 87.808H461.788V100.303H474.269V87.808Z" fill="#813E3F"/>
<path d="M499.231 0.343262H486.75V12.8382H499.231V0.343262Z" fill="#813E3F"/>
<path d="M486.75 0.343262H474.269V12.8382H486.75V0.343262Z" fill="#813E3F"/>
<path d="M599.077 87.808H586.596V100.303H599.077V87.808Z" fill="#813E3F"/>
<path d="M586.596 87.808H574.115V100.303H586.596V87.808Z" fill="#813E3F"/>
<path d="M599.077 0.343262H586.596V12.8382H599.077V0.343262Z" fill="#813E3F"/>
<path d="M586.596 0.343262H574.115V12.8382H586.596V0.343262Z" fill="#813E3F"/>
<path d="M474.269 0.343262H461.788V12.8382H474.269V0.343262Z" fill="#813E3F"/>
<path d="M424.346 0.343262H411.865V12.8382H424.346V0.343262Z" fill="#813E3F"/>
<path d="M411.865 0.343262H399.385V12.8382H411.865V0.343262Z" fill="#813E3F"/>
<path d="M399.385 0.343262H386.904V12.8382H399.385V0.343262Z" fill="#813E3F"/>
<path d="M386.904 0.343262H374.423V12.8382H386.904V0.343262Z" fill="#813E3F"/>
<path d="M374.423 0.343262H361.942V12.8382H374.423V0.343262Z" fill="#813E3F"/>
<path d="M361.942 0.343262H349.461V12.8382H361.942V0.343262Z" fill="#813E3F"/>
<path d="M349.461 0.343262H336.981V12.8382H349.461V0.343262Z" fill="#813E3F"/>
<path d="M336.981 0.343262H324.5V12.8382H336.981V0.343262Z" fill="#813E3F"/>
<path d="M324.5 0.343262H312.019V12.8382H324.5V0.343262Z" fill="#813E3F"/>
<path d="M312.019 0.343262H299.539V12.8382H312.019V0.343262Z" fill="#813E3F"/>
<path d="M299.539 0.343262H287.058V12.8382H299.539V0.343262Z" fill="#813E3F"/>
<path d="M287.058 0.343262H274.577V12.8382H287.058V0.343262Z" fill="#813E3F"/>
<path d="M274.577 0.343262H262.096V12.8382H274.577V0.343262Z" fill="#813E3F"/>
<path d="M212.173 0.343262H199.692V12.8382H212.173V0.343262Z" fill="#813E3F"/>
<path d="M199.692 0.343262H187.211V12.8382H199.692V0.343262Z" fill="#813E3F"/>
<path d="M187.211 0.343262H174.731V12.8382H187.211V0.343262Z" fill="#813E3F"/>
<path d="M174.731 0.343262H162.25V12.8382H174.731V0.343262Z" fill="#813E3F"/>
<path d="M262.096 87.808H249.615V100.303H262.096V87.808Z" fill="#813E3F"/>
<path d="M249.615 87.808H237.135V100.303H249.615V87.808Z" fill="#813E3F"/>
<path d="M237.135 87.808H224.654V100.303H237.135V87.808Z" fill="#813E3F"/>
<path d="M224.654 87.808H212.173V100.303H224.654V87.808Z" fill="#813E3F"/>
<path d="M262.096 0.343262H249.615V12.8382H262.096V0.343262Z" fill="#813E3F"/>
<path d="M249.615 0.343262H237.135V12.8382H249.615V0.343262Z" fill="#813E3F"/>
<path d="M237.135 0.343262H224.654V12.8382H237.135V0.343262Z" fill="#813E3F"/>
<path d="M224.654 0.343262H212.173V12.8382H224.654V0.343262Z" fill="#813E3F"/>
<path d="M162.25 0.343262H149.769V12.8382H162.25V0.343262Z" fill="#813E3F"/>
<path d="M149.769 0.343262H137.289V12.8382H149.769V0.343262Z" fill="#813E3F"/>
<path d="M137.289 0.343262H124.808V12.8382H137.289V0.343262Z" fill="#813E3F"/>
<path d="M124.808 0.343262H112.327V12.8382H124.808V0.343262Z" fill="#813E3F"/>
<path d="M112.327 0.343262H99.8462V12.8382H112.327V0.343262Z" fill="#813E3F"/>
<path d="M99.8462 0.343262H87.3655V12.8382H99.8462V0.343262Z" fill="#813E3F"/>
<path d="M87.3655 0.343262H74.8845V12.8382H87.3655V0.343262Z" fill="#813E3F"/>
<path d="M74.8845 0.343262H62.4038V12.8382H74.8845V0.343262Z" fill="#813E3F"/>
<path d="M62.4038 0.343262H49.9231V12.8382H62.4038V0.343262Z" fill="#813E3F"/>
<path d="M49.9231 0.343262H37.4424V12.8382H49.9231V0.343262Z" fill="#813E3F"/>
<path d="M37.4424 0.343262H24.9614L24.9615 12.8382L37.4424 12.8382V0.343262Z" fill="#813E3F"/>
<path d="M536.673 87.808H524.192V100.303H536.673V87.808Z" fill="#813E3F"/>
<path d="M536.673 0.343262H524.192V12.8382H536.673V0.343262Z" fill="#813E3F"/>
<path d="M524.192 87.808H511.711V100.303H524.192V87.808Z" fill="#813E3F"/>
<path d="M524.192 0.343262H511.711V12.8382H524.192V0.343262Z" fill="#813E3F"/>
<path d="M574.115 87.808H561.635V100.303H574.115V87.808Z" fill="#813E3F"/>
<path d="M574.115 0.343262H561.635V12.8382H574.115V0.343262Z" fill="#813E3F"/>
<path d="M561.635 87.808H549.154V100.303H561.635V87.808Z" fill="#813E3F"/>
<path d="M549.154 87.808H536.673V100.303H549.154V87.808Z" fill="#813E3F"/>
<path d="M561.635 0.343262H549.154V12.8382H561.635V0.343262Z" fill="#813E3F"/>
<path d="M549.154 0.343262H536.673V12.8382H549.154V0.343262Z" fill="#813E3F"/>
</svg>
