<svg width="250" height="70" viewBox="0 0 649 101" fill="none" xmlns="http://www.w3.org/2000/svg">
<path d="M511.711 25.3838H499.231V37.8787H511.711V25.3838Z" fill="#FFFDFB"/>
<path d="M461.788 25.3838H449.308V37.8787H461.788V25.3838Z" fill="#FFFDFB"/>
<path d="M449.308 25.3838H436.827V37.8787H449.308V25.3838Z" fill="#FFFDFB"/>
<path d="M436.827 25.3838H424.346V37.8787H436.827V25.3838Z" fill="#FFFDFB"/>
<path d="M424.346 25.3838H411.865V37.8787H424.346V25.3838Z" fill="#FFFDFB"/>
<path d="M411.865 25.3838H399.385V37.8787H411.865V25.3838Z" fill="#FFFDFB"/>
<path d="M399.385 25.3838H386.904V37.8787H399.385V25.3838Z" fill="#FFFDFB"/>
<path d="M386.904 25.3838H374.423V37.8787H386.904V25.3838Z" fill="#FFFDFB"/>
<path d="M374.423 25.3838H361.942V37.8787H374.423V25.3838Z" fill="#FFFDFB"/>
<path d="M361.942 25.3838H349.461V37.8787H361.942V25.3838Z" fill="#FFFDFB"/>
<path d="M349.461 25.3838H336.981V37.8787H349.461V25.3838Z" fill="#FFFDFB"/>
<path d="M336.981 25.3838H324.5V37.8787H336.981V25.3838Z" fill="#FFFDFB"/>
<path d="M324.5 25.3838H312.019V37.8787H324.5V25.3838Z" fill="#FFFDFB"/>
<path d="M312.019 25.3838H299.539V37.8787H312.019V25.3838Z" fill="#FFFDFB"/>
<path d="M299.539 25.3838H287.058V37.8787H299.539V25.3838Z" fill="#FFFDFB"/>
<path d="M287.058 25.3838H274.577V37.8787H287.058V25.3838Z" fill="#FFFDFB"/>
<path d="M274.577 25.3838H262.096V37.8787H274.577V25.3838Z" fill="#FFFDFB"/>
<path d="M212.173 25.3838H199.692V37.8787H212.173V25.3838Z" fill="#FFFDFB"/>
<path d="M199.692 25.3838H187.211V37.8787H199.692V25.3838Z" fill="#FFFDFB"/>
<path d="M187.211 25.3838H174.731V37.8787H187.211V25.3838Z" fill="#FFFDFB"/>
<path d="M174.731 25.3838H162.25V37.8787H174.731V25.3838Z" fill="#FFFDFB"/>
<path d="M162.25 25.3838H149.769V37.8787H162.25V25.3838Z" fill="#FFFDFB"/>
<path d="M149.769 25.3838H137.289V37.8787H149.769V25.3838Z" fill="#FFFDFB"/>
<path d="M137.289 25.3838H124.808V37.8787H137.289V25.3838Z" fill="#FFFDFB"/>
<path d="M124.808 25.3838H112.327V37.8787H124.808V25.3838Z" fill="#FFFDFB"/>
<path d="M112.327 25.3838H99.8462V37.8787H112.327V25.3838Z" fill="#FFFDFB"/>
<path d="M99.8462 25.3838H87.3655V37.8787H99.8462V25.3838Z" fill="#FFFDFB"/>
<path d="M87.3655 25.3838H74.8845V37.8787H87.3655V25.3838Z" fill="#FFFDFB"/>
<path d="M74.8845 25.3838H62.4038V37.8787H74.8845V25.3838Z" fill="#FFFDFB"/>
<path d="M62.4038 25.3838H49.9231V37.8787H62.4038V25.3838Z" fill="#FFFDFB"/>
<path d="M49.9231 25.3838H37.4424V37.8787H49.9231V25.3838Z" fill="#FFFDFB"/>
<path d="M499.231 25.3838H486.75V37.8787H499.231V25.3838Z" fill="#FFFDFB"/>
<path d="M486.75 25.3838H474.269V37.8787H486.75V25.3838Z" fill="#FFFDFB"/>
<path d="M474.269 25.3838H461.788V37.8787H474.269V25.3838Z" fill="#FFFDFB"/>
<path d="M262.096 25.3838H249.615V37.8787H262.096V25.3838Z" fill="#FFFDFB"/>
<path d="M249.615 25.3838H237.135V37.8787H249.615V25.3838Z" fill="#FFFDFB"/>
<path d="M237.135 25.3838H224.654V37.8787H237.135V25.3838Z" fill="#FFFDFB"/>
<path d="M224.654 25.3838H212.173V37.8787H224.654V25.3838Z" fill="#FFFDFB"/>
<path d="M511.711 75.3636H499.231V87.8586H511.711V75.3636Z" fill="#F6BCC2"/>
<path d="M461.788 75.3636H449.308V87.8586H461.788V75.3636Z" fill="#F6BCC2"/>
<path d="M449.308 75.3636H436.827V87.8586H449.308V75.3636Z" fill="#F6BCC2"/>
<path d="M436.827 75.3636H424.346V87.8586H436.827V75.3636Z" fill="#F6BCC2"/>
<path d="M424.346 75.3636H411.865V87.8586H424.346V75.3636Z" fill="#F6BCC2"/>
<path d="M411.865 75.3636H399.385V87.8586H411.865V75.3636Z" fill="#F6BCC2"/>
<path d="M399.385 75.3636H386.904V87.8586H399.385V75.3636Z" fill="#F6BCC2"/>
<path d="M386.904 75.3636H374.423V87.8586H386.904V75.3636Z" fill="#F6BCC2"/>
<path d="M374.423 75.3636H361.942V87.8586H374.423V75.3636Z" fill="#F6BCC2"/>
<path d="M361.942 75.3636H349.461V87.8586H361.942V75.3636Z" fill="#F6BCC2"/>
<path d="M349.461 75.3636H336.981V87.8586H349.461V75.3636Z" fill="#F6BCC2"/>
<path d="M336.981 75.3636H324.5V87.8586H336.981V75.3636Z" fill="#F6BCC2"/>
<path d="M324.5 75.3636H312.019V87.8586H324.5V75.3636Z" fill="#F6BCC2"/>
<path d="M312.019 75.3636H299.539V87.8586H312.019V75.3636Z" fill="#F6BCC2"/>
<path d="M299.539 75.3636H287.058V87.8586H299.539V75.3636Z" fill="#F6BCC2"/>
<path d="M287.058 75.3636H274.577V87.8586H287.058V75.3636Z" fill="#F6BCC2"/>
<path d="M274.577 75.3636H262.096V87.8586H274.577V75.3636Z" fill="#F6BCC2"/>
<path d="M212.173 75.3636H199.692V87.8586H212.173V75.3636Z" fill="#F6BCC2"/>
<path d="M199.692 75.3636H187.211V87.8586H199.692V75.3636Z" fill="#F6BCC2"/>
<path d="M187.211 75.3636H174.731V87.8586H187.211V75.3636Z" fill="#F6BCC2"/>
<path d="M174.731 75.3636H162.25V87.8586H174.731V75.3636Z" fill="#F6BCC2"/>
<path d="M162.25 75.3636H149.769V87.8586H162.25V75.3636Z" fill="#F6BCC2"/>
<path d="M149.769 75.3636H137.289V87.8586H149.769V75.3636Z" fill="#F6BCC2"/>
<path d="M137.289 75.3636H124.808V87.8586H137.289V75.3636Z" fill="#F6BCC2"/>
<path d="M124.808 75.3636H112.327V87.8586H124.808V75.3636Z" fill="#F6BCC2"/>
<path d="M112.327 75.3636H99.8462V87.8586H112.327V75.3636Z" fill="#F6BCC2"/>
<path d="M99.8462 75.3636H87.3655V87.8586H99.8462V75.3636Z" fill="#F6BCC2"/>
<path d="M87.3655 75.3636H74.8845V87.8586H87.3655V75.3636Z" fill="#F6BCC2"/>
<path d="M74.8845 75.3636H62.4038V87.8586H74.8845V75.3636Z" fill="#F6BCC2"/>
<path d="M62.4038 75.3636H49.9231V87.8586H62.4038V75.3636Z" fill="#F6BCC2"/>
<path d="M49.9231 75.3636H37.4424V87.8586H49.9231V75.3636Z" fill="#F6BCC2"/>
<path d="M37.4424 75.3636H24.9614V87.8586H37.4424V75.3636Z" fill="#F6BCC2"/>
<path d="M511.711 62.8687H499.231V75.3636H511.711V62.8687Z" fill="#F6BCC2"/>
<path d="M461.788 62.8687H449.308V75.3636H461.788V62.8687Z" fill="#F6BCC2"/>
<path d="M449.308 62.8687H436.827V75.3636H449.308V62.8687Z" fill="#F6BCC2"/>
<path d="M436.827 62.8687H424.346V75.3636H436.827V62.8687Z" fill="#F6BCC2"/>
<path d="M424.346 62.8687H411.865V75.3636H424.346V62.8687Z" fill="#F6BCC2"/>
<path d="M411.865 62.8687H399.385V75.3636H411.865V62.8687Z" fill="#F6BCC2"/>
<path d="M399.385 62.8687H386.904V75.3636H399.385V62.8687Z" fill="#F6BCC2"/>
<path d="M386.904 62.8687H374.423V75.3636H386.904V62.8687Z" fill="#F6BCC2"/>
<path d="M374.423 62.8687H361.942V75.3636H374.423V62.8687Z" fill="#F6BCC2"/>
<path d="M361.942 62.8687H349.461V75.3636H361.942V62.8687Z" fill="#F6BCC2"/>
<path d="M349.461 62.8687H336.981V75.3636H349.461V62.8687Z" fill="#F6BCC2"/>
<path d="M336.981 62.8687H324.5V75.3636H336.981V62.8687Z" fill="#F6BCC2"/>
<path d="M324.5 62.8687H312.019V75.3636H324.5V62.8687Z" fill="#F6BCC2"/>
<path d="M312.019 62.8687H299.539V75.3636H312.019V62.8687Z" fill="#F6BCC2"/>
<path d="M299.539 62.8687H287.058V75.3636H299.539V62.8687Z" fill="#F6BCC2"/>
<path d="M287.058 62.8687H274.577V75.3636H287.058V62.8687Z" fill="#F6BCC2"/>
<path d="M274.577 62.8687H262.096V75.3636H274.577V62.8687Z" fill="#F6BCC2"/>
<path d="M212.173 62.8687H199.692V75.3636H212.173V62.8687Z" fill="#F6BCC2"/>
<path d="M199.692 62.8687H187.211V75.3636H199.692V62.8687Z" fill="#F6BCC2"/>
<path d="M187.211 62.8687H174.731V75.3636H187.211V62.8687Z" fill="#F6BCC2"/>
<path d="M174.731 62.8687H162.25V75.3636H174.731V62.8687Z" fill="#F6BCC2"/>
<path d="M162.25 62.8687H149.769V75.3636H162.25V62.8687Z" fill="#F6BCC2"/>
<path d="M149.769 62.8687H137.289V75.3636H149.769V62.8687Z" fill="#F6BCC2"/>
<path d="M137.289 62.8687H124.808V75.3636H137.289V62.8687Z" fill="#F6BCC2"/>
<path d="M124.808 62.8687H112.327V75.3636H124.808V62.8687Z" fill="#F6BCC2"/>
<path d="M112.327 62.8687H99.8462V75.3636H112.327V62.8687Z" fill="#F6BCC2"/>
<path d="M99.8462 62.8687H87.3655V75.3636H99.8462V62.8687Z" fill="#F6BCC2"/>
<path d="M87.3655 62.8687H74.8845V75.3636H87.3655V62.8687Z" fill="#F6BCC2"/>
<path d="M74.8845 62.8687H62.4038V75.3636H74.8845V62.8687Z" fill="#F6BCC2"/>
<path d="M62.4038 62.8687H49.9231V75.3636H62.4038V62.8687Z" fill="#F6BCC2"/>
<path d="M49.9231 62.8687H37.4424V75.3636H49.9231V62.8687Z" fill="#F6BCC2"/>
<path d="M37.4424 62.8687H24.9614V75.3636H37.4424V62.8687Z" fill="#F6BCC2"/>
<path d="M24.9614 62.8687H12.4807V75.3636L24.9614 75.3636V62.8687Z" fill="#F6BCC2"/>
<path d="M511.711 50.3737H499.231V62.8687H511.711V50.3737Z" fill="#F6BCC2"/>
<path d="M461.788 50.3737H449.308V62.8687H461.788V50.3737Z" fill="#F6BCC2"/>
<path d="M449.308 50.3737H436.827V62.8687H449.308V50.3737Z" fill="#F6BCC2"/>
<path d="M436.827 50.3737H424.346V62.8687H436.827V50.3737Z" fill="#F6BCC2"/>
<path d="M424.346 50.3737H411.865V62.8687H424.346V50.3737Z" fill="#F6BCC2"/>
<path d="M411.865 50.3737H399.385V62.8687H411.865V50.3737Z" fill="#F6BCC2"/>
<path d="M399.385 50.3737H386.904V62.8687H399.385V50.3737Z" fill="#F6BCC2"/>
<path d="M386.904 50.3737H374.423V62.8687H386.904V50.3737Z" fill="#F6BCC2"/>
<path d="M374.423 50.3737H361.942V62.8687H374.423V50.3737Z" fill="#F6BCC2"/>
<path d="M361.942 50.3737H349.461V62.8687H361.942V50.3737Z" fill="#F6BCC2"/>
<path d="M349.461 50.3737H336.981V62.8687H349.461V50.3737Z" fill="#F6BCC2"/>
<path d="M336.981 50.3737H324.5V62.8687H336.981V50.3737Z" fill="#F6BCC2"/>
<path d="M324.5 50.3737H312.019V62.8687H324.5V50.3737Z" fill="#F6BCC2"/>
<path d="M312.019 50.3737H299.539V62.8687H312.019V50.3737Z" fill="#F6BCC2"/>
<path d="M299.539 50.3737H287.058V62.8687H299.539V50.3737Z" fill="#F6BCC2"/>
<path d="M287.058 50.3737H274.577V62.8687H287.058V50.3737Z" fill="#F6BCC2"/>
<path d="M274.577 50.3737H262.096V62.8687H274.577V50.3737Z" fill="#F6BCC2"/>
<path d="M212.173 50.3737H199.692V62.8687H212.173V50.3737Z" fill="#F6BCC2"/>
<path d="M199.692 50.3737H187.211V62.8687H199.692V50.3737Z" fill="#F6BCC2"/>
<path d="M187.211 50.3737H174.731V62.8687H187.211V50.3737Z" fill="#F6BCC2"/>
<path d="M174.731 50.3737H162.25V62.8687H174.731V50.3737Z" fill="#F6BCC2"/>
<path d="M162.25 50.3737H149.769V62.8687H162.25V50.3737Z" fill="#F6BCC2"/>
<path d="M149.769 50.3737H137.289V62.8687H149.769V50.3737Z" fill="#F6BCC2"/>
<path d="M137.289 50.3737H124.808V62.8687H137.289V50.3737Z" fill="#F6BCC2"/>
<path d="M124.808 50.3737H112.327V62.8687H124.808V50.3737Z" fill="#F6BCC2"/>
<path d="M112.327 50.3737H99.8462V62.8687H112.327V50.3737Z" fill="#F6BCC2"/>
<path d="M99.8462 50.3737H87.3655V62.8687H99.8462V50.3737Z" fill="#F6BCC2"/>
<path d="M87.3655 50.3737H74.8845V62.8687H87.3655V50.3737Z" fill="#F6BCC2"/>
<path d="M74.8845 50.3737H62.4038V62.8687H74.8845V50.3737Z" fill="#F6BCC2"/>
<path d="M62.4038 50.3737H49.9231V62.8687H62.4038V50.3737Z" fill="#F6BCC2"/>
<path d="M49.9231 50.3737H37.4424V62.8687H49.9231V50.3737Z" fill="#F6BCC2"/>
<path d="M37.4424 50.3737H24.9614V62.8687H37.4424V50.3737Z" fill="#F6BCC2"/>
<path d="M24.9614 50.3737H12.4807V62.8687H24.9614V50.3737Z" fill="#F6BCC2"/>
<path d="M511.711 37.8788H499.231V50.3737H511.711V37.8788Z" fill="#F6BCC2"/>
<path d="M461.788 37.8788H449.308V50.3737H461.788V37.8788Z" fill="#F6BCC2"/>
<path d="M449.308 37.8788H436.827V50.3737H449.308V37.8788Z" fill="#F6BCC2"/>
<path d="M436.827 37.8788H424.346V50.3737H436.827V37.8788Z" fill="#F6BCC2"/>
<path d="M424.346 37.8788H411.865V50.3737H424.346V37.8788Z" fill="#F6BCC2"/>
<path d="M411.865 37.8788H399.385V50.3737H411.865V37.8788Z" fill="#F6BCC2"/>
<path d="M399.385 37.8788H386.904V50.3737H399.385V37.8788Z" fill="#F6BCC2"/>
<path d="M386.904 37.8788H374.423V50.3737H386.904V37.8788Z" fill="#F6BCC2"/>
<path d="M374.423 37.8788H361.942V50.3737H374.423V37.8788Z" fill="#F6BCC2"/>
<path d="M361.942 37.8788H349.461V50.3737H361.942V37.8788Z" fill="#F6BCC2"/>
<path d="M349.461 37.8788H336.981V50.3737H349.461V37.8788Z" fill="#F6BCC2"/>
<path d="M336.981 37.8788H324.5V50.3737H336.981V37.8788Z" fill="#F6BCC2"/>
<path d="M324.5 37.8788H312.019V50.3737H324.5V37.8788Z" fill="#F6BCC2"/>
<path d="M312.019 37.8788H299.539V50.3737H312.019V37.8788Z" fill="#F6BCC2"/>
<path d="M299.539 37.8788H287.058V50.3737H299.539V37.8788Z" fill="#F6BCC2"/>
<path d="M287.058 37.8788H274.577V50.3737H287.058V37.8788Z" fill="#F6BCC2"/>
<path d="M274.577 37.8788H262.096V50.3737H274.577V37.8788Z" fill="#F6BCC2"/>
<path d="M212.173 37.8788H199.692V50.3737H212.173V37.8788Z" fill="#F6BCC2"/>
<path d="M199.692 37.8788H187.211V50.3737H199.692V37.8788Z" fill="#F6BCC2"/>
<path d="M187.211 37.8788H174.731V50.3737H187.211V37.8788Z" fill="#F6BCC2"/>
<path d="M174.731 37.8788H162.25V50.3737H174.731V37.8788Z" fill="#F6BCC2"/>
<path d="M162.25 37.8788H149.769V50.3737H162.25V37.8788Z" fill="#F6BCC2"/>
<path d="M149.769 37.8788H137.289V50.3737H149.769V37.8788Z" fill="#F6BCC2"/>
<path d="M137.289 37.8788H124.808V50.3737H137.289V37.8788Z" fill="#F6BCC2"/>
<path d="M124.808 37.8788H112.327V50.3737H124.808V37.8788Z" fill="#F6BCC2"/>
<path d="M112.327 37.8788H99.8462V50.3737H112.327V37.8788Z" fill="#F6BCC2"/>
<path d="M99.8462 37.8788H87.3655V50.3737H99.8462V37.8788Z" fill="#F6BCC2"/>
<path d="M87.3655 37.8788H74.8845V50.3737H87.3655V37.8788Z" fill="#F6BCC2"/>
<path d="M74.8845 37.8788H62.4038V50.3737H74.8845V37.8788Z" fill="#F6BCC2"/>
<path d="M62.4038 37.8788H49.9231V50.3737H62.4038V37.8788Z" fill="#F6BCC2"/>
<path d="M49.9231 37.8788H37.4424V50.3737H49.9231V37.8788Z" fill="#F6BCC2"/>
<path d="M37.4424 37.8788H24.9614V50.3737H37.4424V37.8788Z" fill="#F6BCC2"/>
<path d="M24.9614 37.8788H12.4807V50.3737H24.9614V37.8788Z" fill="#F6BCC2"/>
<path d="M37.4422 25.3838H24.9614V37.8788H37.4424L37.4422 25.3838Z" fill="#F6BCC2"/>
<path d="M24.9614 25.3838H12.4807V37.8788H24.9614V25.3838Z" fill="#F6BCC2"/>
<path d="M511.711 12.8889H499.231V25.3839H511.711V12.8889Z" fill="#F6BCC2"/>
<path d="M461.788 12.8889H449.308V25.3839H461.788V12.8889Z" fill="#F6BCC2"/>
<path d="M449.308 12.8889H436.827V25.3839H449.308V12.8889Z" fill="#F6BCC2"/>
<path d="M436.827 12.8889H424.346V25.3839H436.827V12.8889Z" fill="#F6BCC2"/>
<path d="M424.346 12.8889H411.865V25.3839H424.346V12.8889Z" fill="#F6BCC2"/>
<path d="M411.865 12.8889H399.385V25.3839H411.865V12.8889Z" fill="#F6BCC2"/>
<path d="M399.385 12.8889H386.904V25.3839H399.385V12.8889Z" fill="#F6BCC2"/>
<path d="M386.904 12.8889H374.423V25.3839H386.904V12.8889Z" fill="#F6BCC2"/>
<path d="M374.423 12.8889H361.942V25.3839H374.423V12.8889Z" fill="#F6BCC2"/>
<path d="M361.942 12.8889H349.461V25.3839H361.942V12.8889Z" fill="#F6BCC2"/>
<path d="M349.461 12.8889H336.981V25.3839H349.461V12.8889Z" fill="#F6BCC2"/>
<path d="M336.981 12.8889H324.5V25.3839H336.981V12.8889Z" fill="#F6BCC2"/>
<path d="M324.5 12.8889H312.019V25.3839H324.5V12.8889Z" fill="#F6BCC2"/>
<path d="M312.019 12.8889H299.539V25.3839H312.019V12.8889Z" fill="#F6BCC2"/>
<path d="M299.539 12.8889H287.058V25.3839H299.539V12.8889Z" fill="#F6BCC2"/>
<path d="M287.058 12.8889H274.577V25.3839H287.058V12.8889Z" fill="#F6BCC2"/>
<path d="M274.577 12.8889H262.096V25.3839H274.577V12.8889Z" fill="#F6BCC2"/>
<path d="M212.173 12.8889H199.692V25.3839H212.173V12.8889Z" fill="#F6BCC2"/>
<path d="M199.692 12.8889H187.211V25.3839H199.692V12.8889Z" fill="#F6BCC2"/>
<path d="M187.211 12.8889H174.731V25.3839H187.211V12.8889Z" fill="#F6BCC2"/>
<path d="M174.731 12.8889H162.25V25.3839H174.731V12.8889Z" fill="#F6BCC2"/>
<path d="M162.25 12.8889H149.769V25.3839H162.25V12.8889Z" fill="#F6BCC2"/>
<path d="M149.769 12.8889H137.289V25.3839H149.769V12.8889Z" fill="#F6BCC2"/>
<path d="M137.289 12.8889H124.808V25.3839H137.289V12.8889Z" fill="#F6BCC2"/>
<path d="M124.808 12.8889H112.327V25.3839H124.808V12.8889Z" fill="#F6BCC2"/>
<path d="M112.327 12.8889H99.8462V25.3839H112.327V12.8889Z" fill="#F6BCC2"/>
<path d="M99.8462 12.8889H87.3655V25.3839H99.8462V12.8889Z" fill="#F6BCC2"/>
<path d="M87.3655 12.8889H74.8845V25.3839H87.3655V12.8889Z" fill="#F6BCC2"/>
<path d="M74.8845 12.8889H62.4038V25.3839H74.8845V12.8889Z" fill="#F6BCC2"/>
<path d="M62.4038 12.8889H49.9231V25.3839H62.4038V12.8889Z" fill="#F6BCC2"/>
<path d="M49.9231 12.8889H37.4424L37.4422 25.3838L49.9231 25.3839V12.8889Z" fill="#F6BCC2"/>
<path d="M37.4424 12.8889H24.9614V25.3838H37.4422L37.4424 12.8889Z" fill="#F6BCC2"/>
<path d="M499.231 75.3636H486.75V87.8586H499.231V75.3636Z" fill="#F6BCC2"/>
<path d="M486.75 75.3636H474.269V87.8586H486.75V75.3636Z" fill="#F6BCC2"/>
<path d="M474.269 75.3636H461.788V87.8586H474.269V75.3636Z" fill="#F6BCC2"/>
<path d="M499.231 62.8687H486.75V75.3636H499.231V62.8687Z" fill="#F6BCC2"/>
<path d="M486.75 62.8687H474.269V75.3636H486.75V62.8687Z" fill="#F6BCC2"/>
<path d="M474.269 62.8687H461.788V75.3636H474.269V62.8687Z" fill="#F6BCC2"/>
<path d="M499.231 50.3737H486.75V62.8687H499.231V50.3737Z" fill="#F6BCC2"/>
<path d="M486.75 50.3737H474.269V62.8687H486.75V50.3737Z" fill="#F6BCC2"/>
<path d="M474.269 50.3737H461.788V62.8687H474.269V50.3737Z" fill="#F6BCC2"/>
<path d="M499.231 37.8788H486.75V50.3737H499.231V37.8788Z" fill="#F6BCC2"/>
<path d="M486.75 37.8788H474.269V50.3737H486.75V37.8788Z" fill="#F6BCC2"/>
<path d="M474.269 37.8788H461.788V50.3737H474.269V37.8788Z" fill="#F6BCC2"/>
<path d="M499.231 12.8889H486.75V25.3839H499.231V12.8889Z" fill="#F6BCC2"/>
<path d="M486.75 12.8889H474.269V25.3839H486.75V12.8889Z" fill="#F6BCC2"/>
<path d="M474.269 12.8889H461.788V25.3839H474.269V12.8889Z" fill="#F6BCC2"/>
<path d="M262.096 75.3636H249.615V87.8586H262.096V75.3636Z" fill="#F6BCC2"/>
<path d="M249.615 75.3636H237.135V87.8586H249.615V75.3636Z" fill="#F6BCC2"/>
<path d="M237.135 75.3636H224.654V87.8586H237.135V75.3636Z" fill="#F6BCC2"/>
<path d="M224.654 75.3636H212.173V87.8586H224.654V75.3636Z" fill="#F6BCC2"/>
<path d="M262.096 62.8687H249.615V75.3636H262.096V62.8687Z" fill="#F6BCC2"/>
<path d="M249.615 62.8687H237.135V75.3636H249.615V62.8687Z" fill="#F6BCC2"/>
<path d="M237.135 62.8687H224.654V75.3636H237.135V62.8687Z" fill="#F6BCC2"/>
<path d="M224.654 62.8687H212.173V75.3636H224.654V62.8687Z" fill="#F6BCC2"/>
<path d="M262.096 50.3737H249.615V62.8687H262.096V50.3737Z" fill="#F6BCC2"/>
<path d="M249.615 50.3737H237.135V62.8687H249.615V50.3737Z" fill="#F6BCC2"/>
<path d="M237.135 50.3737H224.654V62.8687H237.135V50.3737Z" fill="#F6BCC2"/>
<path d="M224.654 50.3737H212.173V62.8687H224.654V50.3737Z" fill="#F6BCC2"/>
<path d="M262.096 37.8788H249.615V50.3737H262.096V37.8788Z" fill="#F6BCC2"/>
<path d="M249.615 37.8788H237.135V50.3737H249.615V37.8788Z" fill="#F6BCC2"/>
<path d="M237.135 37.8788H224.654V50.3737H237.135V37.8788Z" fill="#F6BCC2"/>
<path d="M224.654 37.8788H212.173V50.3737H224.654V37.8788Z" fill="#F6BCC2"/>
<path d="M262.096 12.8889H249.615V25.3839H262.096V12.8889Z" fill="#F6BCC2"/>
<path d="M249.615 12.8889H237.135V25.3839H249.615V12.8889Z" fill="#F6BCC2"/>
<path d="M237.135 12.8889H224.654V25.3839H237.135V12.8889Z" fill="#F6BCC2"/>
<path d="M224.654 12.8889H212.173V25.3839H224.654V12.8889Z" fill="#F6BCC2"/>
<path d="M624.038 75.3636H611.558V87.8586H624.038V75.3636Z" fill="#6D3435"/>
<path d="M611.558 75.3636H599.077V87.8586H611.558V75.3636Z" fill="#6D3435"/>
<path d="M636.519 62.8687H624.039L624.038 75.3636L636.519 75.3636V62.8687Z" fill="#6D3435"/>
<path d="M624.039 62.8687H611.558V75.3636H624.038L624.039 62.8687Z" fill="#6D3435"/>
<path d="M611.558 62.8687H599.077V75.3636H611.558V62.8687Z" fill="#6D3435"/>
<path d="M636.519 50.3737H624.039V62.8687H636.519V50.3737Z" fill="#6D3435"/>
<path d="M624.039 50.3737H611.558V62.8687H624.039V50.3737Z" fill="#6D3435"/>
<path d="M611.558 50.3737H599.077V62.8687H611.558V50.3737Z" fill="#6D3435"/>
<path d="M636.519 37.8788H624.039V50.3737H636.519V37.8788Z" fill="#6D3435"/>
<path d="M624.039 37.8788H611.558V50.3737H624.039V37.8788Z" fill="#6D3435"/>
<path d="M611.558 37.8788H599.077V50.3737H611.558V37.8788Z" fill="#6D3435"/>
<path d="M636.519 25.3838H624.039V37.8788H636.519V25.3838Z" fill="#6D3435"/>
<path d="M624.039 25.3838H611.558V37.8788H624.039V25.3838Z" fill="#6D3435"/>
<path d="M611.558 25.3838H599.077V37.8788H611.558V25.3838Z" fill="#6D3435"/>
<path d="M624.038 12.8889H611.558V25.3838H624.039L624.038 12.8889Z" fill="#6D3435"/>
<path d="M611.558 12.8889H599.077V25.3838H611.558V12.8889Z" fill="#6D3435"/>
<path d="M599.077 75.3636H586.596V87.8586H599.077V75.3636Z" fill="#6D3435"/>
<path d="M586.596 75.3636H574.115V87.8586H586.596V75.3636Z" fill="#6D3435"/>
<path d="M599.077 62.8687H586.596V75.3636H599.077V62.8687Z" fill="#6D3435"/>
<path d="M586.596 62.8687H574.115V75.3636H586.596V62.8687Z" fill="#6D3435"/>
<path d="M599.077 50.3737H586.596V62.8687H599.077V50.3737Z" fill="#6D3435"/>
<path d="M586.596 50.3737H574.115V62.8687H586.596V50.3737Z" fill="#6D3435"/>
<path d="M599.077 37.8788H586.596V50.3737H599.077V37.8788Z" fill="#6D3435"/>
<path d="M586.596 37.8788H574.115V50.3737H586.596V37.8788Z" fill="#6D3435"/>
<path d="M599.077 25.3838H586.596V37.8788H599.077V25.3838Z" fill="#6D3435"/>
<path d="M586.596 25.3838H574.115V37.8788H586.596V25.3838Z" fill="#6D3435"/>
<path d="M599.077 12.8889H586.596V25.3838H599.077V12.8889Z" fill="#6D3435"/>
<path d="M586.596 12.8889H574.115V25.3838H586.596V12.8889Z" fill="#6D3435"/>
<path d="M574.115 75.3636H561.635V87.8586H574.115V75.3636Z" fill="#6D3435"/>
<path d="M574.115 62.8687H561.635V75.3636H574.115V62.8687Z" fill="#6D3435"/>
<path d="M574.115 50.3737H561.635V62.8687H574.115V50.3737Z" fill="#6D3435"/>
<path d="M574.115 37.8788H561.635V50.3737H574.115V37.8788Z" fill="#6D3435"/>
<path d="M574.115 25.3838H561.635V37.8788H574.115V25.3838Z" fill="#6D3435"/>
<path d="M574.115 12.8889H561.635V25.3838H574.115V12.8889Z" fill="#6D3435"/>
<path d="M561.635 75.3636H549.154V87.8586H561.635V75.3636Z" fill="#6D3435"/>
<path d="M549.154 75.3636H536.673V87.8586H549.154V75.3636Z" fill="#6D3435"/>
<path d="M561.635 62.8687H549.154V75.3636H561.635V62.8687Z" fill="#6D3435"/>
<path d="M549.154 62.8687H536.673V75.3636H549.154V62.8687Z" fill="#6D3435"/>
<path d="M561.635 50.3737H549.154V62.8687H561.635V50.3737Z" fill="#6D3435"/>
<path d="M549.154 50.3737H536.673V62.8687H549.154V50.3737Z" fill="#6D3435"/>
<path d="M561.635 37.8788H549.154V50.3737H561.635V37.8788Z" fill="#6D3435"/>
<path d="M549.154 37.8788H536.673V50.3737H549.154V37.8788Z" fill="#6D3435"/>
<path d="M561.635 25.3838H549.154V37.8788H561.635V25.3838Z" fill="#6D3435"/>
<path d="M549.154 25.3838H536.673V37.8788H549.154V25.3838Z" fill="#6D3435"/>
<path d="M561.635 12.8889H549.154V25.3838H561.635V12.8889Z" fill="#6D3435"/>
<path d="M549.154 12.8889H536.673V25.3838H549.154V12.8889Z" fill="#6D3435"/>
<path d="M536.673 75.3636H524.192V87.8586H536.673V75.3636Z" fill="#6D3435"/>
<path d="M536.673 62.8687H524.192V75.3636H536.673V62.8687Z" fill="#6D3435"/>
<path d="M536.673 50.3737H524.192V62.8687H536.673V50.3737Z" fill="#6D3435"/>
<path d="M536.673 37.8788H524.192V50.3737H536.673V37.8788Z" fill="#6D3435"/>
<path d="M536.673 25.3838H524.192V37.8788H536.673V25.3838Z" fill="#6D3435"/>
<path d="M536.673 12.8889H524.192V25.3838H536.673V12.8889Z" fill="#6D3435"/>
<path d="M524.192 75.3636H511.711V87.8586H524.192V75.3636Z" fill="#6D3435"/>
<path d="M524.192 62.8687H511.711V75.3636H524.192V62.8687Z" fill="#6D3435"/>
<path d="M524.192 50.3737H511.711V62.8687H524.192V50.3737Z" fill="#6D3435"/>
<path d="M524.192 37.8788H511.711V50.3737H524.192V37.8788Z" fill="#6D3435"/>
<path d="M524.192 25.3838H511.711V37.8788H524.192V25.3838Z" fill="#6D3435"/>
<path d="M524.192 12.8889H511.711V25.3838H524.192V12.8889Z" fill="#6D3435"/>
<path d="M624.038 87.8587H611.558V100.354H624.038V87.8587Z" fill="#813E3F"/>
<path d="M611.558 87.8587H599.077V100.354H611.558V87.8587Z" fill="#813E3F"/>
<path d="M511.711 87.8587H499.231V100.354H511.711V87.8587Z" fill="#813E3F"/>
<path d="M461.788 87.8587H449.308V100.354H461.788V87.8587Z" fill="#813E3F"/>
<path d="M449.308 87.8587H436.827V100.354H449.308V87.8587Z" fill="#813E3F"/>
<path d="M436.827 87.8587H424.346V100.354H436.827V87.8587Z" fill="#813E3F"/>
<path d="M424.346 87.8587H411.865V100.354H424.346V87.8587Z" fill="#813E3F"/>
<path d="M411.865 87.8587H399.385V100.354H411.865V87.8587Z" fill="#813E3F"/>
<path d="M399.385 87.8587H386.904V100.354H399.385V87.8587Z" fill="#813E3F"/>
<path d="M386.904 87.8587H374.423V100.354H386.904V87.8587Z" fill="#813E3F"/>
<path d="M374.423 87.8587H361.942V100.354H374.423V87.8587Z" fill="#813E3F"/>
<path d="M361.942 87.8587H349.461V100.354H361.942V87.8587Z" fill="#813E3F"/>
<path d="M349.461 87.8587H336.981V100.354H349.461V87.8587Z" fill="#813E3F"/>
<path d="M336.981 87.8587H324.5V100.354H336.981V87.8587Z" fill="#813E3F"/>
<path d="M324.5 87.8587H312.019V100.354H324.5V87.8587Z" fill="#813E3F"/>
<path d="M312.019 87.8587H299.539V100.354H312.019V87.8587Z" fill="#813E3F"/>
<path d="M299.539 87.8587H287.058V100.354H299.539V87.8587Z" fill="#813E3F"/>
<path d="M287.058 87.8587H274.577V100.354H287.058V87.8587Z" fill="#813E3F"/>
<path d="M274.577 87.8587H262.096V100.354H274.577V87.8587Z" fill="#813E3F"/>
<path d="M212.173 87.8587H199.692V100.354H212.173V87.8587Z" fill="#813E3F"/>
<path d="M199.692 87.8587H187.211V100.354H199.692V87.8587Z" fill="#813E3F"/>
<path d="M187.211 87.8587H174.731V100.354H187.211V87.8587Z" fill="#813E3F"/>
<path d="M174.731 87.8587H162.25V100.354H174.731V87.8587Z" fill="#813E3F"/>
<path d="M162.25 87.8587H149.769V100.354H162.25V87.8587Z" fill="#813E3F"/>
<path d="M149.769 87.8587H137.289V100.354H149.769V87.8587Z" fill="#813E3F"/>
<path d="M137.289 87.8587H124.808V100.354H137.289V87.8587Z" fill="#813E3F"/>
<path d="M124.808 87.8587H112.327V100.354H124.808V87.8587Z" fill="#813E3F"/>
<path d="M112.327 87.8587H99.8462V100.354H112.327V87.8587Z" fill="#813E3F"/>
<path d="M99.8462 87.8587H87.3655V100.354H99.8462V87.8587Z" fill="#813E3F"/>
<path d="M87.3655 87.8587H74.8845V100.354H87.3655V87.8587Z" fill="#813E3F"/>
<path d="M74.8845 87.8587H62.4038V100.354H74.8845V87.8587Z" fill="#813E3F"/>
<path d="M62.4038 87.8587H49.9231V100.354H62.4038V87.8587Z" fill="#813E3F"/>
<path d="M49.9231 87.8587H37.4424V100.354H49.9231V87.8587Z" fill="#813E3F"/>
<path d="M37.4424 87.8587H24.9614V100.354H37.4424V87.8587Z" fill="#813E3F"/>
<path d="M636.519 75.3638H624.039L624.038 87.8587L636.519 87.8587V75.3638Z" fill="#813E3F"/>
<path d="M24.9615 75.3638H12.4807V87.8587L24.9614 87.8587L24.9615 75.3638Z" fill="#813E3F"/>
<path d="M649 62.8688H636.519L636.519 75.3638L649 75.3638V62.8688Z" fill="#813E3F"/>
<path d="M12.4808 62.8688H0V75.3638L12.4807 75.3638L12.4808 62.8688Z" fill="#813E3F"/>
<path d="M649 50.3738H636.519V62.8688H649V50.3738Z" fill="#813E3F"/>
<path d="M12.4808 50.3738H0V62.8688H12.4808V50.3738Z" fill="#813E3F"/>
<path d="M649 37.8789H636.519V50.3738H649V37.8789Z" fill="#813E3F"/>
<path d="M12.4808 37.8789H0V50.3738H12.4808V37.8789Z" fill="#813E3F"/>
<path d="M649 25.3839H636.519V37.8789H649V25.3839Z" fill="#813E3F"/>
<path d="M12.4808 25.3839H0V37.8789H12.4808V25.3839Z" fill="#813E3F"/>
<path d="M636.519 12.889H624.039V25.384L636.519 25.3839L636.519 12.889Z" fill="#813E3F"/>
<path d="M24.9615 12.889H12.4807L12.4808 25.3839L24.9615 25.384V12.889Z" fill="#813E3F"/>
<path d="M624.038 0.394043H611.558V12.889L624.039 12.889L624.038 0.394043Z" fill="#813E3F"/>
<path d="M611.558 0.394043H599.077V12.889H611.558V0.394043Z" fill="#813E3F"/>
<path d="M511.711 0.394043H499.231V12.889H511.711V0.394043Z" fill="#813E3F"/>
<path d="M461.788 0.394043H449.308V12.889H461.788V0.394043Z" fill="#813E3F"/>
<path d="M449.308 0.394043H436.827V12.889H449.308V0.394043Z" fill="#813E3F"/>
<path d="M436.827 0.394043H424.346V12.889H436.827V0.394043Z" fill="#813E3F"/>
<path d="M499.231 87.8587H486.75V100.354H499.231V87.8587Z" fill="#813E3F"/>
<path d="M486.75 87.8587H474.269V100.354H486.75V87.8587Z" fill="#813E3F"/>
<path d="M474.269 87.8587H461.788V100.354H474.269V87.8587Z" fill="#813E3F"/>
<path d="M499.231 0.394043H486.75V12.889H499.231V0.394043Z" fill="#813E3F"/>
<path d="M486.75 0.394043H474.269V12.889H486.75V0.394043Z" fill="#813E3F"/>
<path d="M599.077 87.8587H586.596V100.354H599.077V87.8587Z" fill="#813E3F"/>
<path d="M586.596 87.8587H574.115V100.354H586.596V87.8587Z" fill="#813E3F"/>
<path d="M599.077 0.394043H586.596V12.889H599.077V0.394043Z" fill="#813E3F"/>
<path d="M586.596 0.394043H574.115V12.889H586.596V0.394043Z" fill="#813E3F"/>
<path d="M474.269 0.394043H461.788V12.889H474.269V0.394043Z" fill="#813E3F"/>
<path d="M424.346 0.394043H411.865V12.889H424.346V0.394043Z" fill="#813E3F"/>
<path d="M411.865 0.394043H399.385V12.889H411.865V0.394043Z" fill="#813E3F"/>
<path d="M399.385 0.394043H386.904V12.889H399.385V0.394043Z" fill="#813E3F"/>
<path d="M386.904 0.394043H374.423V12.889H386.904V0.394043Z" fill="#813E3F"/>
<path d="M374.423 0.394043H361.942V12.889H374.423V0.394043Z" fill="#813E3F"/>
<path d="M361.942 0.394043H349.461V12.889H361.942V0.394043Z" fill="#813E3F"/>
<path d="M349.461 0.394043H336.981V12.889H349.461V0.394043Z" fill="#813E3F"/>
<path d="M336.981 0.394043H324.5V12.889H336.981V0.394043Z" fill="#813E3F"/>
<path d="M324.5 0.394043H312.019V12.889H324.5V0.394043Z" fill="#813E3F"/>
<path d="M312.019 0.394043H299.539V12.889H312.019V0.394043Z" fill="#813E3F"/>
<path d="M299.539 0.394043H287.058V12.889H299.539V0.394043Z" fill="#813E3F"/>
<path d="M287.058 0.394043H274.577V12.889H287.058V0.394043Z" fill="#813E3F"/>
<path d="M274.577 0.394043H262.096V12.889H274.577V0.394043Z" fill="#813E3F"/>
<path d="M212.173 0.394043H199.692V12.889H212.173V0.394043Z" fill="#813E3F"/>
<path d="M199.692 0.394043H187.211V12.889H199.692V0.394043Z" fill="#813E3F"/>
<path d="M187.211 0.394043H174.731V12.889H187.211V0.394043Z" fill="#813E3F"/>
<path d="M174.731 0.394043H162.25V12.889H174.731V0.394043Z" fill="#813E3F"/>
<path d="M262.096 87.8587H249.615V100.354H262.096V87.8587Z" fill="#813E3F"/>
<path d="M249.615 87.8587H237.135V100.354H249.615V87.8587Z" fill="#813E3F"/>
<path d="M237.135 87.8587H224.654V100.354H237.135V87.8587Z" fill="#813E3F"/>
<path d="M224.654 87.8587H212.173V100.354H224.654V87.8587Z" fill="#813E3F"/>
<path d="M262.096 0.394043H249.615V12.889H262.096V0.394043Z" fill="#813E3F"/>
<path d="M249.615 0.394043H237.135V12.889H249.615V0.394043Z" fill="#813E3F"/>
<path d="M237.135 0.394043H224.654V12.889H237.135V0.394043Z" fill="#813E3F"/>
<path d="M224.654 0.394043H212.173V12.889H224.654V0.394043Z" fill="#813E3F"/>
<path d="M162.25 0.394043H149.769V12.889H162.25V0.394043Z" fill="#813E3F"/>
<path d="M149.769 0.394043H137.289V12.889H149.769V0.394043Z" fill="#813E3F"/>
<path d="M137.289 0.394043H124.808V12.889H137.289V0.394043Z" fill="#813E3F"/>
<path d="M124.808 0.394043H112.327V12.889H124.808V0.394043Z" fill="#813E3F"/>
<path d="M112.327 0.394043H99.8462V12.889H112.327V0.394043Z" fill="#813E3F"/>
<path d="M99.8462 0.394043H87.3655V12.889H99.8462V0.394043Z" fill="#813E3F"/>
<path d="M87.3655 0.394043H74.8845V12.889H87.3655V0.394043Z" fill="#813E3F"/>
<path d="M74.8845 0.394043H62.4038V12.889H74.8845V0.394043Z" fill="#813E3F"/>
<path d="M62.4038 0.394043H49.9231V12.889H62.4038V0.394043Z" fill="#813E3F"/>
<path d="M49.9231 0.394043H37.4424V12.889H49.9231V0.394043Z" fill="#813E3F"/>
<path d="M37.4424 0.394043H24.9614L24.9615 12.889L37.4424 12.889V0.394043Z" fill="#813E3F"/>
<path d="M536.673 87.8587H524.192V100.354H536.673V87.8587Z" fill="#813E3F"/>
<path d="M536.673 0.394043H524.192V12.889H536.673V0.394043Z" fill="#813E3F"/>
<path d="M524.192 87.8587H511.711V100.354H524.192V87.8587Z" fill="#813E3F"/>
<path d="M524.192 0.394043H511.711V12.889H524.192V0.394043Z" fill="#813E3F"/>
<path d="M574.115 87.8587H561.635V100.354H574.115V87.8587Z" fill="#813E3F"/>
<path d="M574.115 0.394043H561.635V12.889H574.115V0.394043Z" fill="#813E3F"/>
<path d="M561.635 87.8587H549.154V100.354H561.635V87.8587Z" fill="#813E3F"/>
<path d="M549.154 87.8587H536.673V100.354H549.154V87.8587Z" fill="#813E3F"/>
<path d="M561.635 0.394043H549.154V12.889H561.635V0.394043Z" fill="#813E3F"/>
<path d="M549.154 0.394043H536.673V12.889H549.154V0.394043Z" fill="#813E3F"/>
</svg>
