<svg width="250" height="70" viewBox="0 0 649 101" fill="none" xmlns="http://www.w3.org/2000/svg">
<path d="M324.5 25.2324H312.019V37.7274H324.5V25.2324Z" fill="#FFFDFB"/>
<path d="M312.019 25.2324H299.539V37.7274H312.019V25.2324Z" fill="#FFFDFB"/>
<path d="M299.539 25.2324H287.058V37.7274H299.539V25.2324Z" fill="#FFFDFB"/>
<path d="M287.058 25.2324H274.577V37.7274H287.058V25.2324Z" fill="#FFFDFB"/>
<path d="M274.577 25.2324H262.096V37.7274H274.577V25.2324Z" fill="#FFFDFB"/>
<path d="M212.173 25.2324H199.692V37.7274H212.173V25.2324Z" fill="#FFFDFB"/>
<path d="M199.692 25.2324H187.211V37.7274H199.692V25.2324Z" fill="#FFFDFB"/>
<path d="M187.211 25.2324H174.731V37.7274H187.211V25.2324Z" fill="#FFFDFB"/>
<path d="M174.731 25.2324H162.25V37.7274H174.731V25.2324Z" fill="#FFFDFB"/>
<path d="M162.25 25.2324H149.769V37.7274H162.25V25.2324Z" fill="#FFFDFB"/>
<path d="M149.769 25.2324H137.289V37.7274H149.769V25.2324Z" fill="#FFFDFB"/>
<path d="M137.289 25.2324H124.808V37.7274H137.289V25.2324Z" fill="#FFFDFB"/>
<path d="M124.808 25.2324H112.327V37.7274H124.808V25.2324Z" fill="#FFFDFB"/>
<path d="M112.327 25.2324H99.8462V37.7274H112.327V25.2324Z" fill="#FFFDFB"/>
<path d="M99.8462 25.2324H87.3655V37.7274H99.8462V25.2324Z" fill="#FFFDFB"/>
<path d="M87.3655 25.2324H74.8845V37.7274H87.3655V25.2324Z" fill="#FFFDFB"/>
<path d="M74.8845 25.2324H62.4038V37.7274H74.8845V25.2324Z" fill="#FFFDFB"/>
<path d="M62.4038 25.2324H49.9231V37.7274H62.4038V25.2324Z" fill="#FFFDFB"/>
<path d="M49.9231 25.2324H37.4424V37.7274H49.9231V25.2324Z" fill="#FFFDFB"/>
<path d="M262.096 25.2324H249.615V37.7274H262.096V25.2324Z" fill="#FFFDFB"/>
<path d="M249.615 25.2324H237.135V37.7274H249.615V25.2324Z" fill="#FFFDFB"/>
<path d="M237.135 25.2324H224.654V37.7274H237.135V25.2324Z" fill="#FFFDFB"/>
<path d="M224.654 25.2324H212.173V37.7274H224.654V25.2324Z" fill="#FFFDFB"/>
<path d="M324.5 75.212H312.019V87.707H324.5V75.212Z" fill="#F6BCC2"/>
<path d="M312.019 75.212H299.539V87.707H312.019V75.212Z" fill="#F6BCC2"/>
<path d="M299.539 75.212H287.058V87.707H299.539V75.212Z" fill="#F6BCC2"/>
<path d="M287.058 75.212H274.577V87.707H287.058V75.212Z" fill="#F6BCC2"/>
<path d="M274.577 75.212H262.096V87.707H274.577V75.212Z" fill="#F6BCC2"/>
<path d="M212.173 75.212H199.692V87.707H212.173V75.212Z" fill="#F6BCC2"/>
<path d="M199.692 75.212H187.211V87.707H199.692V75.212Z" fill="#F6BCC2"/>
<path d="M187.211 75.212H174.731V87.707H187.211V75.212Z" fill="#F6BCC2"/>
<path d="M174.731 75.212H162.25V87.707H174.731V75.212Z" fill="#F6BCC2"/>
<path d="M162.25 75.212H149.769V87.707H162.25V75.212Z" fill="#F6BCC2"/>
<path d="M149.769 75.212H137.289V87.707H149.769V75.212Z" fill="#F6BCC2"/>
<path d="M137.289 75.212H124.808V87.707H137.289V75.212Z" fill="#F6BCC2"/>
<path d="M124.808 75.212H112.327V87.707H124.808V75.212Z" fill="#F6BCC2"/>
<path d="M112.327 75.212H99.8462V87.707H112.327V75.212Z" fill="#F6BCC2"/>
<path d="M99.8462 75.212H87.3655V87.707H99.8462V75.212Z" fill="#F6BCC2"/>
<path d="M87.3655 75.212H74.8845V87.707H87.3655V75.212Z" fill="#F6BCC2"/>
<path d="M74.8845 75.212H62.4038V87.707H74.8845V75.212Z" fill="#F6BCC2"/>
<path d="M62.4038 75.212H49.9231V87.707H62.4038V75.212Z" fill="#F6BCC2"/>
<path d="M49.9231 75.212H37.4424V87.707H49.9231V75.212Z" fill="#F6BCC2"/>
<path d="M37.4424 75.212H24.9614V87.707H37.4424V75.212Z" fill="#F6BCC2"/>
<path d="M324.5 62.7172H312.019V75.212H324.5V62.7172Z" fill="#F6BCC2"/>
<path d="M312.019 62.7172H299.539V75.212H312.019V62.7172Z" fill="#F6BCC2"/>
<path d="M299.539 62.7172H287.058V75.212H299.539V62.7172Z" fill="#F6BCC2"/>
<path d="M287.058 62.7172H274.577V75.212H287.058V62.7172Z" fill="#F6BCC2"/>
<path d="M274.577 62.7172H262.096V75.212H274.577V62.7172Z" fill="#F6BCC2"/>
<path d="M212.173 62.7172H199.692V75.212H212.173V62.7172Z" fill="#F6BCC2"/>
<path d="M199.692 62.7172H187.211V75.212H199.692V62.7172Z" fill="#F6BCC2"/>
<path d="M187.211 62.7172H174.731V75.212H187.211V62.7172Z" fill="#F6BCC2"/>
<path d="M174.731 62.7172H162.25V75.212H174.731V62.7172Z" fill="#F6BCC2"/>
<path d="M162.25 62.7172H149.769V75.212H162.25V62.7172Z" fill="#F6BCC2"/>
<path d="M149.769 62.7172H137.289V75.212H149.769V62.7172Z" fill="#F6BCC2"/>
<path d="M137.289 62.7172H124.808V75.212H137.289V62.7172Z" fill="#F6BCC2"/>
<path d="M124.808 62.7172H112.327V75.212H124.808V62.7172Z" fill="#F6BCC2"/>
<path d="M112.327 62.7172H99.8462V75.212H112.327V62.7172Z" fill="#F6BCC2"/>
<path d="M99.8462 62.7172H87.3655V75.212H99.8462V62.7172Z" fill="#F6BCC2"/>
<path d="M87.3655 62.7172H74.8845V75.212H87.3655V62.7172Z" fill="#F6BCC2"/>
<path d="M74.8845 62.7172H62.4038V75.212H74.8845V62.7172Z" fill="#F6BCC2"/>
<path d="M62.4038 62.7172H49.9231V75.212H62.4038V62.7172Z" fill="#F6BCC2"/>
<path d="M49.9231 62.7172H37.4424V75.212H49.9231V62.7172Z" fill="#F6BCC2"/>
<path d="M37.4424 62.7172H24.9614V75.212H37.4424V62.7172Z" fill="#F6BCC2"/>
<path d="M24.9614 62.7172H12.4807V75.2121L24.9614 75.212V62.7172Z" fill="#F6BCC2"/>
<path d="M324.5 50.2222H312.019V62.7172H324.5V50.2222Z" fill="#F6BCC2"/>
<path d="M312.019 50.2222H299.539V62.7172H312.019V50.2222Z" fill="#F6BCC2"/>
<path d="M299.539 50.2222H287.058V62.7172H299.539V50.2222Z" fill="#F6BCC2"/>
<path d="M287.058 50.2222H274.577V62.7172H287.058V50.2222Z" fill="#F6BCC2"/>
<path d="M274.577 50.2222H262.096V62.7172H274.577V50.2222Z" fill="#F6BCC2"/>
<path d="M212.173 50.2222H199.692V62.7172H212.173V50.2222Z" fill="#F6BCC2"/>
<path d="M199.692 50.2222H187.211V62.7172H199.692V50.2222Z" fill="#F6BCC2"/>
<path d="M187.211 50.2222H174.731V62.7172H187.211V50.2222Z" fill="#F6BCC2"/>
<path d="M174.731 50.2222H162.25V62.7172H174.731V50.2222Z" fill="#F6BCC2"/>
<path d="M162.25 50.2222H149.769V62.7172H162.25V50.2222Z" fill="#F6BCC2"/>
<path d="M149.769 50.2222H137.289V62.7172H149.769V50.2222Z" fill="#F6BCC2"/>
<path d="M137.289 50.2222H124.808V62.7172H137.289V50.2222Z" fill="#F6BCC2"/>
<path d="M124.808 50.2222H112.327V62.7172H124.808V50.2222Z" fill="#F6BCC2"/>
<path d="M112.327 50.2222H99.8462V62.7172H112.327V50.2222Z" fill="#F6BCC2"/>
<path d="M99.8462 50.2222H87.3655V62.7172H99.8462V50.2222Z" fill="#F6BCC2"/>
<path d="M87.3655 50.2222H74.8845V62.7172H87.3655V50.2222Z" fill="#F6BCC2"/>
<path d="M74.8845 50.2222H62.4038V62.7172H74.8845V50.2222Z" fill="#F6BCC2"/>
<path d="M62.4038 50.2222H49.9231V62.7172H62.4038V50.2222Z" fill="#F6BCC2"/>
<path d="M49.9231 50.2222H37.4424V62.7172H49.9231V50.2222Z" fill="#F6BCC2"/>
<path d="M37.4424 50.2222H24.9614V62.7172H37.4424V50.2222Z" fill="#F6BCC2"/>
<path d="M24.9614 50.2222H12.4807V62.7172H24.9614V50.2222Z" fill="#F6BCC2"/>
<path d="M324.5 37.7272H312.019V50.2222H324.5V37.7272Z" fill="#F6BCC2"/>
<path d="M312.019 37.7272H299.539V50.2222H312.019V37.7272Z" fill="#F6BCC2"/>
<path d="M299.539 37.7272H287.058V50.2222H299.539V37.7272Z" fill="#F6BCC2"/>
<path d="M287.058 37.7272H274.577V50.2222H287.058V37.7272Z" fill="#F6BCC2"/>
<path d="M274.577 37.7272H262.096V50.2222H274.577V37.7272Z" fill="#F6BCC2"/>
<path d="M212.173 37.7272H199.692V50.2222H212.173V37.7272Z" fill="#F6BCC2"/>
<path d="M199.692 37.7272H187.211V50.2222H199.692V37.7272Z" fill="#F6BCC2"/>
<path d="M187.211 37.7272H174.731V50.2222H187.211V37.7272Z" fill="#F6BCC2"/>
<path d="M174.731 37.7272H162.25V50.2222H174.731V37.7272Z" fill="#F6BCC2"/>
<path d="M162.25 37.7272H149.769V50.2222H162.25V37.7272Z" fill="#F6BCC2"/>
<path d="M149.769 37.7272H137.289V50.2222H149.769V37.7272Z" fill="#F6BCC2"/>
<path d="M137.289 37.7272H124.808V50.2222H137.289V37.7272Z" fill="#F6BCC2"/>
<path d="M124.808 37.7272H112.327V50.2222H124.808V37.7272Z" fill="#F6BCC2"/>
<path d="M112.327 37.7272H99.8462V50.2222H112.327V37.7272Z" fill="#F6BCC2"/>
<path d="M99.8462 37.7272H87.3655V50.2222H99.8462V37.7272Z" fill="#F6BCC2"/>
<path d="M87.3655 37.7272H74.8845V50.2222H87.3655V37.7272Z" fill="#F6BCC2"/>
<path d="M74.8845 37.7272H62.4038V50.2222H74.8845V37.7272Z" fill="#F6BCC2"/>
<path d="M62.4038 37.7272H49.9231V50.2222H62.4038V37.7272Z" fill="#F6BCC2"/>
<path d="M49.9231 37.7272H37.4424V50.2222H49.9231V37.7272Z" fill="#F6BCC2"/>
<path d="M37.4424 37.7272H24.9614V50.2222H37.4424V37.7272Z" fill="#F6BCC2"/>
<path d="M24.9614 37.7272H12.4807V50.2222H24.9614V37.7272Z" fill="#F6BCC2"/>
<path d="M37.4422 25.2323H24.9614V37.7272H37.4424L37.4422 25.2323Z" fill="#F6BCC2"/>
<path d="M24.9614 25.2323H12.4807V37.7272H24.9614V25.2323Z" fill="#F6BCC2"/>
<path d="M324.5 12.7373H312.019V25.2323H324.5V12.7373Z" fill="#F6BCC2"/>
<path d="M312.019 12.7373H299.539V25.2323H312.019V12.7373Z" fill="#F6BCC2"/>
<path d="M299.539 12.7373H287.058V25.2323H299.539V12.7373Z" fill="#F6BCC2"/>
<path d="M287.058 12.7373H274.577V25.2323H287.058V12.7373Z" fill="#F6BCC2"/>
<path d="M274.577 12.7373H262.096V25.2323H274.577V12.7373Z" fill="#F6BCC2"/>
<path d="M212.173 12.7373H199.692V25.2323H212.173V12.7373Z" fill="#F6BCC2"/>
<path d="M199.692 12.7373H187.211V25.2323H199.692V12.7373Z" fill="#F6BCC2"/>
<path d="M187.211 12.7373H174.731V25.2323H187.211V12.7373Z" fill="#F6BCC2"/>
<path d="M174.731 12.7373H162.25V25.2323H174.731V12.7373Z" fill="#F6BCC2"/>
<path d="M162.25 12.7373H149.769V25.2323H162.25V12.7373Z" fill="#F6BCC2"/>
<path d="M149.769 12.7373H137.289V25.2323H149.769V12.7373Z" fill="#F6BCC2"/>
<path d="M137.289 12.7373H124.808V25.2323H137.289V12.7373Z" fill="#F6BCC2"/>
<path d="M124.808 12.7373H112.327V25.2323H124.808V12.7373Z" fill="#F6BCC2"/>
<path d="M112.327 12.7373H99.8462V25.2323H112.327V12.7373Z" fill="#F6BCC2"/>
<path d="M99.8462 12.7373H87.3655V25.2323H99.8462V12.7373Z" fill="#F6BCC2"/>
<path d="M87.3655 12.7373H74.8845V25.2323H87.3655V12.7373Z" fill="#F6BCC2"/>
<path d="M74.8845 12.7373H62.4038V25.2323H74.8845V12.7373Z" fill="#F6BCC2"/>
<path d="M62.4038 12.7373H49.9231V25.2323H62.4038V12.7373Z" fill="#F6BCC2"/>
<path d="M49.9231 12.7373H37.4424L37.4422 25.2323L49.9231 25.2323V12.7373Z" fill="#F6BCC2"/>
<path d="M37.4424 12.7373H24.9614V25.2323H37.4422L37.4424 12.7373Z" fill="#F6BCC2"/>
<path d="M262.096 75.212H249.615V87.707H262.096V75.212Z" fill="#F6BCC2"/>
<path d="M249.615 75.212H237.135V87.707H249.615V75.212Z" fill="#F6BCC2"/>
<path d="M237.135 75.212H224.654V87.707H237.135V75.212Z" fill="#F6BCC2"/>
<path d="M224.654 75.212H212.173V87.707H224.654V75.212Z" fill="#F6BCC2"/>
<path d="M262.096 62.7172H249.615V75.212H262.096V62.7172Z" fill="#F6BCC2"/>
<path d="M249.615 62.7172H237.135V75.212H249.615V62.7172Z" fill="#F6BCC2"/>
<path d="M237.135 62.7172H224.654V75.212H237.135V62.7172Z" fill="#F6BCC2"/>
<path d="M224.654 62.7172H212.173V75.212H224.654V62.7172Z" fill="#F6BCC2"/>
<path d="M262.096 50.2222H249.615V62.7172H262.096V50.2222Z" fill="#F6BCC2"/>
<path d="M249.615 50.2222H237.135V62.7172H249.615V50.2222Z" fill="#F6BCC2"/>
<path d="M237.135 50.2222H224.654V62.7172H237.135V50.2222Z" fill="#F6BCC2"/>
<path d="M224.654 50.2222H212.173V62.7172H224.654V50.2222Z" fill="#F6BCC2"/>
<path d="M262.096 37.7272H249.615V50.2222H262.096V37.7272Z" fill="#F6BCC2"/>
<path d="M249.615 37.7272H237.135V50.2222H249.615V37.7272Z" fill="#F6BCC2"/>
<path d="M237.135 37.7272H224.654V50.2222H237.135V37.7272Z" fill="#F6BCC2"/>
<path d="M224.654 37.7272H212.173V50.2222H224.654V37.7272Z" fill="#F6BCC2"/>
<path d="M262.096 12.7373H249.615V25.2323H262.096V12.7373Z" fill="#F6BCC2"/>
<path d="M249.615 12.7373H237.135V25.2323H249.615V12.7373Z" fill="#F6BCC2"/>
<path d="M237.135 12.7373H224.654V25.2323H237.135V12.7373Z" fill="#F6BCC2"/>
<path d="M224.654 12.7373H212.173V25.2323H224.654V12.7373Z" fill="#F6BCC2"/>
<path d="M624.038 75.212H611.558V87.707H624.038V75.212Z" fill="#6D3435"/>
<path d="M611.558 75.212H599.077V87.707H611.558V75.212Z" fill="#6D3435"/>
<path d="M511.711 75.212H499.231V87.707H511.711V75.212Z" fill="#6D3435"/>
<path d="M461.788 75.212H449.308V87.707H461.788V75.212Z" fill="#6D3435"/>
<path d="M449.308 75.212H436.827V87.707H449.308V75.212Z" fill="#6D3435"/>
<path d="M436.827 75.212H424.346V87.707H436.827V75.212Z" fill="#6D3435"/>
<path d="M424.346 75.212H411.865V87.707H424.346V75.212Z" fill="#6D3435"/>
<path d="M411.865 75.212H399.385V87.707H411.865V75.212Z" fill="#6D3435"/>
<path d="M399.385 75.212H386.904V87.707H399.385V75.212Z" fill="#6D3435"/>
<path d="M386.904 75.212H374.423V87.707H386.904V75.212Z" fill="#6D3435"/>
<path d="M374.423 75.212H361.942V87.707H374.423V75.212Z" fill="#6D3435"/>
<path d="M361.942 75.212H349.461V87.707H361.942V75.212Z" fill="#6D3435"/>
<path d="M349.461 75.212H336.981V87.707H349.461V75.212Z" fill="#6D3435"/>
<path d="M336.981 75.212H324.5V87.707H336.981V75.212Z" fill="#6D3435"/>
<path d="M636.519 62.7172H624.039L624.038 75.212L636.519 75.2121V62.7172Z" fill="#6D3435"/>
<path d="M624.039 62.7172H611.558V75.212H624.038L624.039 62.7172Z" fill="#6D3435"/>
<path d="M611.558 62.7172H599.077V75.212H611.558V62.7172Z" fill="#6D3435"/>
<path d="M511.711 62.7172H499.231V75.212H511.711V62.7172Z" fill="#6D3435"/>
<path d="M461.788 62.7172H449.308V75.212H461.788V62.7172Z" fill="#6D3435"/>
<path d="M449.308 62.7172H436.827V75.212H449.308V62.7172Z" fill="#6D3435"/>
<path d="M436.827 62.7172H424.346V75.212H436.827V62.7172Z" fill="#6D3435"/>
<path d="M424.346 62.7172H411.865V75.212H424.346V62.7172Z" fill="#6D3435"/>
<path d="M411.865 62.7172H399.385V75.212H411.865V62.7172Z" fill="#6D3435"/>
<path d="M399.385 62.7172H386.904V75.212H399.385V62.7172Z" fill="#6D3435"/>
<path d="M386.904 62.7172H374.423V75.212H386.904V62.7172Z" fill="#6D3435"/>
<path d="M374.423 62.7172H361.942V75.212H374.423V62.7172Z" fill="#6D3435"/>
<path d="M361.942 62.7172H349.461V75.212H361.942V62.7172Z" fill="#6D3435"/>
<path d="M349.461 62.7172H336.981V75.212H349.461V62.7172Z" fill="#6D3435"/>
<path d="M336.981 62.7172H324.5V75.212H336.981V62.7172Z" fill="#6D3435"/>
<path d="M636.519 50.2222H624.039V62.7172H636.519V50.2222Z" fill="#6D3435"/>
<path d="M624.039 50.2222H611.558V62.7172H624.039V50.2222Z" fill="#6D3435"/>
<path d="M611.558 50.2222H599.077V62.7172H611.558V50.2222Z" fill="#6D3435"/>
<path d="M511.711 50.2222H499.231V62.7172H511.711V50.2222Z" fill="#6D3435"/>
<path d="M461.788 50.2222H449.308V62.7172H461.788V50.2222Z" fill="#6D3435"/>
<path d="M449.308 50.2222H436.827V62.7172H449.308V50.2222Z" fill="#6D3435"/>
<path d="M436.827 50.2222H424.346V62.7172H436.827V50.2222Z" fill="#6D3435"/>
<path d="M424.346 50.2222H411.865V62.7172H424.346V50.2222Z" fill="#6D3435"/>
<path d="M411.865 50.2222H399.385V62.7172H411.865V50.2222Z" fill="#6D3435"/>
<path d="M399.385 50.2222H386.904V62.7172H399.385V50.2222Z" fill="#6D3435"/>
<path d="M386.904 50.2222H374.423V62.7172H386.904V50.2222Z" fill="#6D3435"/>
<path d="M374.423 50.2222H361.942V62.7172H374.423V50.2222Z" fill="#6D3435"/>
<path d="M361.942 50.2222H349.461V62.7172H361.942V50.2222Z" fill="#6D3435"/>
<path d="M349.461 50.2222H336.981V62.7172H349.461V50.2222Z" fill="#6D3435"/>
<path d="M336.981 50.2222H324.5V62.7172H336.981V50.2222Z" fill="#6D3435"/>
<path d="M636.519 37.7272H624.039V50.2222H636.519V37.7272Z" fill="#6D3435"/>
<path d="M624.039 37.7272H611.558V50.2222H624.039V37.7272Z" fill="#6D3435"/>
<path d="M611.558 37.7272H599.077V50.2222H611.558V37.7272Z" fill="#6D3435"/>
<path d="M511.711 37.7272H499.231V50.2222H511.711V37.7272Z" fill="#6D3435"/>
<path d="M461.788 37.7272H449.308V50.2222H461.788V37.7272Z" fill="#6D3435"/>
<path d="M449.308 37.7272H436.827V50.2222H449.308V37.7272Z" fill="#6D3435"/>
<path d="M436.827 37.7272H424.346V50.2222H436.827V37.7272Z" fill="#6D3435"/>
<path d="M424.346 37.7272H411.865V50.2222H424.346V37.7272Z" fill="#6D3435"/>
<path d="M411.865 37.7272H399.385V50.2222H411.865V37.7272Z" fill="#6D3435"/>
<path d="M399.385 37.7272H386.904V50.2222H399.385V37.7272Z" fill="#6D3435"/>
<path d="M386.904 37.7272H374.423V50.2222H386.904V37.7272Z" fill="#6D3435"/>
<path d="M374.423 37.7272H361.942V50.2222H374.423V37.7272Z" fill="#6D3435"/>
<path d="M361.942 37.7272H349.461V50.2222H361.942V37.7272Z" fill="#6D3435"/>
<path d="M349.461 37.7272H336.981V50.2222H349.461V37.7272Z" fill="#6D3435"/>
<path d="M336.981 37.7272H324.5V50.2222H336.981V37.7272Z" fill="#6D3435"/>
<path d="M636.519 25.2323H624.039V37.7272H636.519V25.2323Z" fill="#6D3435"/>
<path d="M624.039 25.2323H611.558V37.7272H624.039V25.2323Z" fill="#6D3435"/>
<path d="M611.558 25.2323H599.077V37.7272H611.558V25.2323Z" fill="#6D3435"/>
<path d="M511.711 25.2323H499.231V37.7272H511.711V25.2323Z" fill="#6D3435"/>
<path d="M461.788 25.2323H449.308V37.7272H461.788V25.2323Z" fill="#6D3435"/>
<path d="M449.308 25.2323H436.827V37.7272H449.308V25.2323Z" fill="#6D3435"/>
<path d="M436.827 25.2323H424.346V37.7272H436.827V25.2323Z" fill="#6D3435"/>
<path d="M424.346 25.2323H411.865V37.7272H424.346V25.2323Z" fill="#6D3435"/>
<path d="M411.865 25.2323H399.385V37.7272H411.865V25.2323Z" fill="#6D3435"/>
<path d="M399.385 25.2323H386.904V37.7272H399.385V25.2323Z" fill="#6D3435"/>
<path d="M386.904 25.2323H374.423V37.7272H386.904V25.2323Z" fill="#6D3435"/>
<path d="M374.423 25.2323H361.942V37.7272H374.423V25.2323Z" fill="#6D3435"/>
<path d="M361.942 25.2323H349.461V37.7272H361.942V25.2323Z" fill="#6D3435"/>
<path d="M349.461 25.2323H336.981V37.7272H349.461V25.2323Z" fill="#6D3435"/>
<path d="M336.981 25.2323H324.5V37.7272H336.981V25.2323Z" fill="#6D3435"/>
<path d="M624.038 12.7373H611.558V25.2323H624.039L624.038 12.7373Z" fill="#6D3435"/>
<path d="M611.558 12.7373H599.077V25.2323H611.558V12.7373Z" fill="#6D3435"/>
<path d="M511.711 12.7373H499.231V25.2323H511.711V12.7373Z" fill="#6D3435"/>
<path d="M461.788 12.7373H449.308V25.2323H461.788V12.7373Z" fill="#6D3435"/>
<path d="M449.308 12.7373H436.827V25.2323H449.308V12.7373Z" fill="#6D3435"/>
<path d="M436.827 12.7373H424.346V25.2323H436.827V12.7373Z" fill="#6D3435"/>
<path d="M424.346 12.7373H411.865V25.2323H424.346V12.7373Z" fill="#6D3435"/>
<path d="M411.865 12.7373H399.385V25.2323H411.865V12.7373Z" fill="#6D3435"/>
<path d="M399.385 12.7373H386.904V25.2323H399.385V12.7373Z" fill="#6D3435"/>
<path d="M386.904 12.7373H374.423V25.2323H386.904V12.7373Z" fill="#6D3435"/>
<path d="M374.423 12.7373H361.942V25.2323H374.423V12.7373Z" fill="#6D3435"/>
<path d="M361.942 12.7373H349.461V25.2323H361.942V12.7373Z" fill="#6D3435"/>
<path d="M349.461 12.7373H336.981V25.2323H349.461V12.7373Z" fill="#6D3435"/>
<path d="M336.981 12.7373H324.5V25.2323H336.981V12.7373Z" fill="#6D3435"/>
<path d="M499.231 75.212H486.75V87.707H499.231V75.212Z" fill="#6D3435"/>
<path d="M486.75 75.212H474.269V87.707H486.75V75.212Z" fill="#6D3435"/>
<path d="M474.269 75.212H461.788V87.707H474.269V75.212Z" fill="#6D3435"/>
<path d="M499.231 62.7172H486.75V75.212H499.231V62.7172Z" fill="#6D3435"/>
<path d="M486.75 62.7172H474.269V75.212H486.75V62.7172Z" fill="#6D3435"/>
<path d="M474.269 62.7172H461.788V75.212H474.269V62.7172Z" fill="#6D3435"/>
<path d="M499.231 50.2222H486.75V62.7172H499.231V50.2222Z" fill="#6D3435"/>
<path d="M486.75 50.2222H474.269V62.7172H486.75V50.2222Z" fill="#6D3435"/>
<path d="M474.269 50.2222H461.788V62.7172H474.269V50.2222Z" fill="#6D3435"/>
<path d="M499.231 37.7272H486.75V50.2222H499.231V37.7272Z" fill="#6D3435"/>
<path d="M486.75 37.7272H474.269V50.2222H486.75V37.7272Z" fill="#6D3435"/>
<path d="M474.269 37.7272H461.788V50.2222H474.269V37.7272Z" fill="#6D3435"/>
<path d="M499.231 25.2323H486.75V37.7272H499.231V25.2323Z" fill="#6D3435"/>
<path d="M486.75 25.2323H474.269V37.7272H486.75V25.2323Z" fill="#6D3435"/>
<path d="M474.269 25.2323H461.788V37.7272H474.269V25.2323Z" fill="#6D3435"/>
<path d="M499.231 12.7373H486.75V25.2323H499.231V12.7373Z" fill="#6D3435"/>
<path d="M486.75 12.7373H474.269V25.2323H486.75V12.7373Z" fill="#6D3435"/>
<path d="M474.269 12.7373H461.788V25.2323H474.269V12.7373Z" fill="#6D3435"/>
<path d="M599.077 75.212H586.596V87.707H599.077V75.212Z" fill="#6D3435"/>
<path d="M586.596 75.212H574.115V87.707H586.596V75.212Z" fill="#6D3435"/>
<path d="M599.077 62.7172H586.596V75.212H599.077V62.7172Z" fill="#6D3435"/>
<path d="M586.596 62.7172H574.115V75.212H586.596V62.7172Z" fill="#6D3435"/>
<path d="M599.077 50.2222H586.596V62.7172H599.077V50.2222Z" fill="#6D3435"/>
<path d="M586.596 50.2222H574.115V62.7172H586.596V50.2222Z" fill="#6D3435"/>
<path d="M599.077 37.7272H586.596V50.2222H599.077V37.7272Z" fill="#6D3435"/>
<path d="M586.596 37.7272H574.115V50.2222H586.596V37.7272Z" fill="#6D3435"/>
<path d="M599.077 25.2323H586.596V37.7272H599.077V25.2323Z" fill="#6D3435"/>
<path d="M586.596 25.2323H574.115V37.7272H586.596V25.2323Z" fill="#6D3435"/>
<path d="M599.077 12.7373H586.596V25.2323H599.077V12.7373Z" fill="#6D3435"/>
<path d="M586.596 12.7373H574.115V25.2323H586.596V12.7373Z" fill="#6D3435"/>
<path d="M574.115 75.212H561.635V87.707H574.115V75.212Z" fill="#6D3435"/>
<path d="M574.115 62.7172H561.635V75.212H574.115V62.7172Z" fill="#6D3435"/>
<path d="M574.115 50.2222H561.635V62.7172H574.115V50.2222Z" fill="#6D3435"/>
<path d="M574.115 37.7272H561.635V50.2222H574.115V37.7272Z" fill="#6D3435"/>
<path d="M574.115 25.2323H561.635V37.7272H574.115V25.2323Z" fill="#6D3435"/>
<path d="M574.115 12.7373H561.635V25.2323H574.115V12.7373Z" fill="#6D3435"/>
<path d="M561.635 75.212H549.154V87.707H561.635V75.212Z" fill="#6D3435"/>
<path d="M549.154 75.212H536.673V87.707H549.154V75.212Z" fill="#6D3435"/>
<path d="M561.635 62.7172H549.154V75.212H561.635V62.7172Z" fill="#6D3435"/>
<path d="M549.154 62.7172H536.673V75.212H549.154V62.7172Z" fill="#6D3435"/>
<path d="M561.635 50.2222H549.154V62.7172H561.635V50.2222Z" fill="#6D3435"/>
<path d="M549.154 50.2222H536.673V62.7172H549.154V50.2222Z" fill="#6D3435"/>
<path d="M561.635 37.7272H549.154V50.2222H561.635V37.7272Z" fill="#6D3435"/>
<path d="M549.154 37.7272H536.673V50.2222H549.154V37.7272Z" fill="#6D3435"/>
<path d="M561.635 25.2323H549.154V37.7272H561.635V25.2323Z" fill="#6D3435"/>
<path d="M549.154 25.2323H536.673V37.7272H549.154V25.2323Z" fill="#6D3435"/>
<path d="M561.635 12.7373H549.154V25.2323H561.635V12.7373Z" fill="#6D3435"/>
<path d="M549.154 12.7373H536.673V25.2323H549.154V12.7373Z" fill="#6D3435"/>
<path d="M536.673 75.212H524.192V87.707H536.673V75.212Z" fill="#6D3435"/>
<path d="M536.673 62.7172H524.192V75.212H536.673V62.7172Z" fill="#6D3435"/>
<path d="M536.673 50.2222H524.192V62.7172H536.673V50.2222Z" fill="#6D3435"/>
<path d="M536.673 37.7272H524.192V50.2222H536.673V37.7272Z" fill="#6D3435"/>
<path d="M536.673 25.2323H524.192V37.7272H536.673V25.2323Z" fill="#6D3435"/>
<path d="M536.673 12.7373H524.192V25.2323H536.673V12.7373Z" fill="#6D3435"/>
<path d="M524.192 75.212H511.711V87.707H524.192V75.212Z" fill="#6D3435"/>
<path d="M524.192 62.7172H511.711V75.212H524.192V62.7172Z" fill="#6D3435"/>
<path d="M524.192 50.2222H511.711V62.7172H524.192V50.2222Z" fill="#6D3435"/>
<path d="M524.192 37.7272H511.711V50.2222H524.192V37.7272Z" fill="#6D3435"/>
<path d="M524.192 25.2323H511.711V37.7272H524.192V25.2323Z" fill="#6D3435"/>
<path d="M524.192 12.7373H511.711V25.2323H524.192V12.7373Z" fill="#6D3435"/>
<path d="M624.038 87.707H611.558V100.202H624.038V87.707Z" fill="#813E3F"/>
<path d="M611.558 87.707H599.077V100.202H611.558V87.707Z" fill="#813E3F"/>
<path d="M511.711 87.707H499.231V100.202H511.711V87.707Z" fill="#813E3F"/>
<path d="M461.788 87.707H449.308V100.202H461.788V87.707Z" fill="#813E3F"/>
<path d="M449.308 87.707H436.827V100.202H449.308V87.707Z" fill="#813E3F"/>
<path d="M436.827 87.707H424.346V100.202H436.827V87.707Z" fill="#813E3F"/>
<path d="M424.346 87.707H411.865V100.202H424.346V87.707Z" fill="#813E3F"/>
<path d="M411.865 87.707H399.385V100.202H411.865V87.707Z" fill="#813E3F"/>
<path d="M399.385 87.707H386.904V100.202H399.385V87.707Z" fill="#813E3F"/>
<path d="M386.904 87.707H374.423V100.202H386.904V87.707Z" fill="#813E3F"/>
<path d="M374.423 87.707H361.942V100.202H374.423V87.707Z" fill="#813E3F"/>
<path d="M361.942 87.707H349.461V100.202H361.942V87.707Z" fill="#813E3F"/>
<path d="M349.461 87.707H336.981V100.202H349.461V87.707Z" fill="#813E3F"/>
<path d="M336.981 87.707H324.5V100.202H336.981V87.707Z" fill="#813E3F"/>
<path d="M324.5 87.707H312.019V100.202H324.5V87.707Z" fill="#813E3F"/>
<path d="M312.019 87.707H299.539V100.202H312.019V87.707Z" fill="#813E3F"/>
<path d="M299.539 87.707H287.058V100.202H299.539V87.707Z" fill="#813E3F"/>
<path d="M287.058 87.707H274.577V100.202H287.058V87.707Z" fill="#813E3F"/>
<path d="M274.577 87.707H262.096V100.202H274.577V87.707Z" fill="#813E3F"/>
<path d="M212.173 87.707H199.692V100.202H212.173V87.707Z" fill="#813E3F"/>
<path d="M199.692 87.707H187.211V100.202H199.692V87.707Z" fill="#813E3F"/>
<path d="M187.211 87.707H174.731V100.202H187.211V87.707Z" fill="#813E3F"/>
<path d="M174.731 87.707H162.25V100.202H174.731V87.707Z" fill="#813E3F"/>
<path d="M162.25 87.707H149.769V100.202H162.25V87.707Z" fill="#813E3F"/>
<path d="M149.769 87.707H137.289V100.202H149.769V87.707Z" fill="#813E3F"/>
<path d="M137.289 87.707H124.808V100.202H137.289V87.707Z" fill="#813E3F"/>
<path d="M124.808 87.707H112.327V100.202H124.808V87.707Z" fill="#813E3F"/>
<path d="M112.327 87.707H99.8462V100.202H112.327V87.707Z" fill="#813E3F"/>
<path d="M99.8462 87.707H87.3655V100.202H99.8462V87.707Z" fill="#813E3F"/>
<path d="M87.3655 87.707H74.8845V100.202H87.3655V87.707Z" fill="#813E3F"/>
<path d="M74.8845 87.707H62.4038V100.202H74.8845V87.707Z" fill="#813E3F"/>
<path d="M62.4038 87.707H49.9231V100.202H62.4038V87.707Z" fill="#813E3F"/>
<path d="M49.9231 87.707H37.4424V100.202H49.9231V87.707Z" fill="#813E3F"/>
<path d="M37.4424 87.707H24.9614V100.202H37.4424V87.707Z" fill="#813E3F"/>
<path d="M636.519 75.2121H624.039L624.038 87.707L636.519 87.707V75.2121Z" fill="#813E3F"/>
<path d="M24.9615 75.2121H12.4807V87.707L24.9614 87.707L24.9615 75.2121Z" fill="#813E3F"/>
<path d="M649 62.7172H636.519L636.519 75.2121L649 75.2122V62.7172Z" fill="#813E3F"/>
<path d="M12.4808 62.7172H0V75.2122L12.4807 75.2121L12.4808 62.7172Z" fill="#813E3F"/>
<path d="M649 50.2222H636.519V62.7172H649V50.2222Z" fill="#813E3F"/>
<path d="M12.4808 50.2222H0V62.7172H12.4808V50.2222Z" fill="#813E3F"/>
<path d="M649 37.7273H636.519V50.2222H649V37.7273Z" fill="#813E3F"/>
<path d="M12.4808 37.7273H0V50.2222H12.4808V37.7273Z" fill="#813E3F"/>
<path d="M649 25.2324H636.519V37.7273H649V25.2324Z" fill="#813E3F"/>
<path d="M12.4808 25.2324H0V37.7273H12.4808V25.2324Z" fill="#813E3F"/>
<path d="M636.519 12.7374H624.039V25.2323L636.519 25.2324L636.519 12.7374Z" fill="#813E3F"/>
<path d="M24.9615 12.7374H12.4807L12.4808 25.2324L24.9615 25.2323V12.7374Z" fill="#813E3F"/>
<path d="M624.038 0.242432H611.558V12.7374L624.039 12.7374L624.038 0.242432Z" fill="#813E3F"/>
<path d="M611.558 0.242432H599.077V12.7374H611.558V0.242432Z" fill="#813E3F"/>
<path d="M511.711 0.242432H499.231V12.7374H511.711V0.242432Z" fill="#813E3F"/>
<path d="M461.788 0.242432H449.308V12.7374H461.788V0.242432Z" fill="#813E3F"/>
<path d="M449.308 0.242432H436.827V12.7374H449.308V0.242432Z" fill="#813E3F"/>
<path d="M436.827 0.242432H424.346V12.7374H436.827V0.242432Z" fill="#813E3F"/>
<path d="M499.231 87.707H486.75V100.202H499.231V87.707Z" fill="#813E3F"/>
<path d="M486.75 87.707H474.269V100.202H486.75V87.707Z" fill="#813E3F"/>
<path d="M474.269 87.707H461.788V100.202H474.269V87.707Z" fill="#813E3F"/>
<path d="M499.231 0.242432H486.75V12.7374H499.231V0.242432Z" fill="#813E3F"/>
<path d="M486.75 0.242432H474.269V12.7374H486.75V0.242432Z" fill="#813E3F"/>
<path d="M599.077 87.707H586.596V100.202H599.077V87.707Z" fill="#813E3F"/>
<path d="M586.596 87.707H574.115V100.202H586.596V87.707Z" fill="#813E3F"/>
<path d="M599.077 0.242432H586.596V12.7374H599.077V0.242432Z" fill="#813E3F"/>
<path d="M586.596 0.242432H574.115V12.7374H586.596V0.242432Z" fill="#813E3F"/>
<path d="M474.269 0.242432H461.788V12.7374H474.269V0.242432Z" fill="#813E3F"/>
<path d="M424.346 0.242432H411.865V12.7374H424.346V0.242432Z" fill="#813E3F"/>
<path d="M411.865 0.242432H399.385V12.7374H411.865V0.242432Z" fill="#813E3F"/>
<path d="M399.385 0.242432H386.904V12.7374H399.385V0.242432Z" fill="#813E3F"/>
<path d="M386.904 0.242432H374.423V12.7374H386.904V0.242432Z" fill="#813E3F"/>
<path d="M374.423 0.242432H361.942V12.7374H374.423V0.242432Z" fill="#813E3F"/>
<path d="M361.942 0.242432H349.461V12.7374H361.942V0.242432Z" fill="#813E3F"/>
<path d="M349.461 0.242432H336.981V12.7374H349.461V0.242432Z" fill="#813E3F"/>
<path d="M336.981 0.242432H324.5V12.7374H336.981V0.242432Z" fill="#813E3F"/>
<path d="M324.5 0.242432H312.019V12.7374H324.5V0.242432Z" fill="#813E3F"/>
<path d="M312.019 0.242432H299.539V12.7374H312.019V0.242432Z" fill="#813E3F"/>
<path d="M299.539 0.242432H287.058V12.7374H299.539V0.242432Z" fill="#813E3F"/>
<path d="M287.058 0.242432H274.577V12.7374H287.058V0.242432Z" fill="#813E3F"/>
<path d="M274.577 0.242432H262.096V12.7374H274.577V0.242432Z" fill="#813E3F"/>
<path d="M212.173 0.242432H199.692V12.7374H212.173V0.242432Z" fill="#813E3F"/>
<path d="M199.692 0.242432H187.211V12.7374H199.692V0.242432Z" fill="#813E3F"/>
<path d="M187.211 0.242432H174.731V12.7374H187.211V0.242432Z" fill="#813E3F"/>
<path d="M174.731 0.242432H162.25V12.7374H174.731V0.242432Z" fill="#813E3F"/>
<path d="M262.096 87.707H249.615V100.202H262.096V87.707Z" fill="#813E3F"/>
<path d="M249.615 87.707H237.135V100.202H249.615V87.707Z" fill="#813E3F"/>
<path d="M237.135 87.707H224.654V100.202H237.135V87.707Z" fill="#813E3F"/>
<path d="M224.654 87.707H212.173V100.202H224.654V87.707Z" fill="#813E3F"/>
<path d="M262.096 0.242432H249.615V12.7374H262.096V0.242432Z" fill="#813E3F"/>
<path d="M249.615 0.242432H237.135V12.7374H249.615V0.242432Z" fill="#813E3F"/>
<path d="M237.135 0.242432H224.654V12.7374H237.135V0.242432Z" fill="#813E3F"/>
<path d="M224.654 0.242432H212.173V12.7374H224.654V0.242432Z" fill="#813E3F"/>
<path d="M162.25 0.242432H149.769V12.7374H162.25V0.242432Z" fill="#813E3F"/>
<path d="M149.769 0.242432H137.289V12.7374H149.769V0.242432Z" fill="#813E3F"/>
<path d="M137.289 0.242432H124.808V12.7374H137.289V0.242432Z" fill="#813E3F"/>
<path d="M124.808 0.242432H112.327V12.7374H124.808V0.242432Z" fill="#813E3F"/>
<path d="M112.327 0.242432H99.8462V12.7374H112.327V0.242432Z" fill="#813E3F"/>
<path d="M99.8462 0.242432H87.3655V12.7374H99.8462V0.242432Z" fill="#813E3F"/>
<path d="M87.3655 0.242432H74.8845V12.7374H87.3655V0.242432Z" fill="#813E3F"/>
<path d="M74.8845 0.242432H62.4038V12.7374H74.8845V0.242432Z" fill="#813E3F"/>
<path d="M62.4038 0.242432H49.9231V12.7374H62.4038V0.242432Z" fill="#813E3F"/>
<path d="M49.9231 0.242432H37.4424V12.7374H49.9231V0.242432Z" fill="#813E3F"/>
<path d="M37.4424 0.242432H24.9614L24.9615 12.7374L37.4424 12.7374V0.242432Z" fill="#813E3F"/>
<path d="M536.673 87.707H524.192V100.202H536.673V87.707Z" fill="#813E3F"/>
<path d="M536.673 0.242432H524.192V12.7374H536.673V0.242432Z" fill="#813E3F"/>
<path d="M524.192 87.707H511.711V100.202H524.192V87.707Z" fill="#813E3F"/>
<path d="M524.192 0.242432H511.711V12.7374H524.192V0.242432Z" fill="#813E3F"/>
<path d="M574.115 87.707H561.635V100.202H574.115V87.707Z" fill="#813E3F"/>
<path d="M574.115 0.242432H561.635V12.7374H574.115V0.242432Z" fill="#813E3F"/>
<path d="M561.635 87.707H549.154V100.202H561.635V87.707Z" fill="#813E3F"/>
<path d="M549.154 87.707H536.673V100.202H549.154V87.707Z" fill="#813E3F"/>
<path d="M561.635 0.242432H549.154V12.7374H561.635V0.242432Z" fill="#813E3F"/>
<path d="M549.154 0.242432H536.673V12.7374H549.154V0.242432Z" fill="#813E3F"/>
</svg>
