<svg width="250" height="70" viewBox="0 0 649 101" fill="none" xmlns="http://www.w3.org/2000/svg">
<path d="M624.038 75.4142H611.558V87.9091H624.038V75.4142Z" fill="#6D3435"/>
<path d="M611.558 75.4142H599.077V87.9091H611.558V75.4142Z" fill="#6D3435"/>
<path d="M636.519 62.9193H624.039L624.038 75.4142L636.519 75.4142V62.9193Z" fill="#6D3435"/>
<path d="M624.039 62.9193H611.558V75.4142H624.038L624.039 62.9193Z" fill="#6D3435"/>
<path d="M611.558 62.9193H599.077V75.4142H611.558V62.9193Z" fill="#6D3435"/>
<path d="M636.519 50.4243H624.039V62.9193H636.519V50.4243Z" fill="#6D3435"/>
<path d="M624.039 50.4243H611.558V62.9193H624.039V50.4243Z" fill="#6D3435"/>
<path d="M611.558 50.4243H599.077V62.9193H611.558V50.4243Z" fill="#6D3435"/>
<path d="M636.519 37.9294H624.039V50.4243H636.519V37.9294Z" fill="#6D3435"/>
<path d="M624.039 37.9294H611.558V50.4243H624.039V37.9294Z" fill="#6D3435"/>
<path d="M611.558 37.9294H599.077V50.4243H611.558V37.9294Z" fill="#6D3435"/>
<path d="M636.519 25.4344H624.039V37.9294H636.519V25.4344Z" fill="#6D3435"/>
<path d="M624.039 25.4344H611.558V37.9294H624.039V25.4344Z" fill="#6D3435"/>
<path d="M611.558 25.4344H599.077V37.9294H611.558V25.4344Z" fill="#6D3435"/>
<path d="M624.038 12.9395H611.558V25.4344H624.039L624.038 12.9395Z" fill="#6D3435"/>
<path d="M611.558 12.9395H599.077V25.4344H611.558V12.9395Z" fill="#6D3435"/>
<path d="M599.077 75.4142H586.596V87.9091H599.077V75.4142Z" fill="#6D3435"/>
<path d="M586.596 75.4142H574.115V87.9091H586.596V75.4142Z" fill="#6D3435"/>
<path d="M599.077 62.9193H586.596V75.4142H599.077V62.9193Z" fill="#6D3435"/>
<path d="M586.596 62.9193H574.115V75.4142H586.596V62.9193Z" fill="#6D3435"/>
<path d="M599.077 50.4243H586.596V62.9193H599.077V50.4243Z" fill="#6D3435"/>
<path d="M586.596 50.4243H574.115V62.9193H586.596V50.4243Z" fill="#6D3435"/>
<path d="M599.077 37.9294H586.596V50.4243H599.077V37.9294Z" fill="#6D3435"/>
<path d="M586.596 37.9294H574.115V50.4243H586.596V37.9294Z" fill="#6D3435"/>
<path d="M599.077 25.4344H586.596V37.9294H599.077V25.4344Z" fill="#6D3435"/>
<path d="M586.596 25.4344H574.115V37.9294H586.596V25.4344Z" fill="#6D3435"/>
<path d="M599.077 12.9395H586.596V25.4344H599.077V12.9395Z" fill="#6D3435"/>
<path d="M586.596 12.9395H574.115V25.4344H586.596V12.9395Z" fill="#6D3435"/>
<path d="M511.711 25.4343H499.231V37.9293H511.711V25.4343Z" fill="#FFFDFB"/>
<path d="M461.788 25.4343H449.308V37.9293H461.788V25.4343Z" fill="#FFFDFB"/>
<path d="M449.308 25.4343H436.827V37.9293H449.308V25.4343Z" fill="#FFFDFB"/>
<path d="M436.827 25.4343H424.346V37.9293H436.827V25.4343Z" fill="#FFFDFB"/>
<path d="M424.346 25.4343H411.865V37.9293H424.346V25.4343Z" fill="#FFFDFB"/>
<path d="M411.865 25.4343H399.385V37.9293H411.865V25.4343Z" fill="#FFFDFB"/>
<path d="M399.385 25.4343H386.904V37.9293H399.385V25.4343Z" fill="#FFFDFB"/>
<path d="M386.904 25.4343H374.423V37.9293H386.904V25.4343Z" fill="#FFFDFB"/>
<path d="M374.423 25.4343H361.942V37.9293H374.423V25.4343Z" fill="#FFFDFB"/>
<path d="M361.942 25.4343H349.461V37.9293H361.942V25.4343Z" fill="#FFFDFB"/>
<path d="M349.461 25.4343H336.981V37.9293H349.461V25.4343Z" fill="#FFFDFB"/>
<path d="M336.981 25.4343H324.5V37.9293H336.981V25.4343Z" fill="#FFFDFB"/>
<path d="M324.5 25.4343H312.019V37.9293H324.5V25.4343Z" fill="#FFFDFB"/>
<path d="M312.019 25.4343H299.539V37.9293H312.019V25.4343Z" fill="#FFFDFB"/>
<path d="M299.539 25.4343H287.058V37.9293H299.539V25.4343Z" fill="#FFFDFB"/>
<path d="M287.058 25.4343H274.577V37.9293H287.058V25.4343Z" fill="#FFFDFB"/>
<path d="M274.577 25.4343H262.096V37.9293H274.577V25.4343Z" fill="#FFFDFB"/>
<path d="M212.173 25.4343H199.692V37.9293H212.173V25.4343Z" fill="#FFFDFB"/>
<path d="M199.692 25.4343H187.211V37.9293H199.692V25.4343Z" fill="#FFFDFB"/>
<path d="M187.211 25.4343H174.731V37.9293H187.211V25.4343Z" fill="#FFFDFB"/>
<path d="M174.731 25.4343H162.25V37.9293H174.731V25.4343Z" fill="#FFFDFB"/>
<path d="M162.25 25.4343H149.769V37.9293H162.25V25.4343Z" fill="#FFFDFB"/>
<path d="M149.769 25.4343H137.289V37.9293H149.769V25.4343Z" fill="#FFFDFB"/>
<path d="M137.289 25.4343H124.808V37.9293H137.289V25.4343Z" fill="#FFFDFB"/>
<path d="M124.808 25.4343H112.327V37.9293H124.808V25.4343Z" fill="#FFFDFB"/>
<path d="M112.327 25.4343H99.8462V37.9293H112.327V25.4343Z" fill="#FFFDFB"/>
<path d="M99.8462 25.4343H87.3655V37.9293H99.8462V25.4343Z" fill="#FFFDFB"/>
<path d="M87.3655 25.4343H74.8845V37.9293H87.3655V25.4343Z" fill="#FFFDFB"/>
<path d="M74.8845 25.4343H62.4038V37.9293H74.8845V25.4343Z" fill="#FFFDFB"/>
<path d="M62.4038 25.4343H49.9231V37.9293H62.4038V25.4343Z" fill="#FFFDFB"/>
<path d="M49.9231 25.4343H37.4424V37.9293H49.9231V25.4343Z" fill="#FFFDFB"/>
<path d="M499.231 25.4343H486.75V37.9293H499.231V25.4343Z" fill="#FFFDFB"/>
<path d="M486.75 25.4343H474.269V37.9293H486.75V25.4343Z" fill="#FFFDFB"/>
<path d="M474.269 25.4343H461.788V37.9293H474.269V25.4343Z" fill="#FFFDFB"/>
<path d="M262.096 25.4343H249.615V37.9293H262.096V25.4343Z" fill="#FFFDFB"/>
<path d="M249.615 25.4343H237.135V37.9293H249.615V25.4343Z" fill="#FFFDFB"/>
<path d="M237.135 25.4343H224.654V37.9293H237.135V25.4343Z" fill="#FFFDFB"/>
<path d="M224.654 25.4343H212.173V37.9293H224.654V25.4343Z" fill="#FFFDFB"/>
<path d="M574.115 25.4343H561.635V37.9293H574.115V25.4343Z" fill="#FFFDFB"/>
<path d="M561.635 25.4343H549.154V37.9293H561.635V25.4343Z" fill="#FFFDFB"/>
<path d="M549.154 25.4343H536.673V37.9293H549.154V25.4343Z" fill="#FFFDFB"/>
<path d="M536.673 25.4343H524.192V37.9293H536.673V25.4343Z" fill="#FFFDFB"/>
<path d="M524.192 25.4343H511.711V37.9293H524.192V25.4343Z" fill="#FFFDFB"/>
<path d="M511.711 75.4142H499.231V87.9091H511.711V75.4142Z" fill="#F6BCC2"/>
<path d="M461.788 75.4142H449.308V87.9091H461.788V75.4142Z" fill="#F6BCC2"/>
<path d="M449.308 75.4142H436.827V87.9091H449.308V75.4142Z" fill="#F6BCC2"/>
<path d="M436.827 75.4142H424.346V87.9091H436.827V75.4142Z" fill="#F6BCC2"/>
<path d="M424.346 75.4142H411.865V87.9091H424.346V75.4142Z" fill="#F6BCC2"/>
<path d="M411.865 75.4142H399.385V87.9091H411.865V75.4142Z" fill="#F6BCC2"/>
<path d="M399.385 75.4142H386.904V87.9091H399.385V75.4142Z" fill="#F6BCC2"/>
<path d="M386.904 75.4142H374.423V87.9091H386.904V75.4142Z" fill="#F6BCC2"/>
<path d="M374.423 75.4142H361.942V87.9091H374.423V75.4142Z" fill="#F6BCC2"/>
<path d="M361.942 75.4142H349.461V87.9091H361.942V75.4142Z" fill="#F6BCC2"/>
<path d="M349.461 75.4142H336.981V87.9091H349.461V75.4142Z" fill="#F6BCC2"/>
<path d="M336.981 75.4142H324.5V87.9091H336.981V75.4142Z" fill="#F6BCC2"/>
<path d="M324.5 75.4142H312.019V87.9091H324.5V75.4142Z" fill="#F6BCC2"/>
<path d="M312.019 75.4142H299.539V87.9091H312.019V75.4142Z" fill="#F6BCC2"/>
<path d="M299.539 75.4142H287.058V87.9091H299.539V75.4142Z" fill="#F6BCC2"/>
<path d="M287.058 75.4142H274.577V87.9091H287.058V75.4142Z" fill="#F6BCC2"/>
<path d="M274.577 75.4142H262.096V87.9091H274.577V75.4142Z" fill="#F6BCC2"/>
<path d="M212.173 75.4142H199.692V87.9091H212.173V75.4142Z" fill="#F6BCC2"/>
<path d="M199.692 75.4142H187.211V87.9091H199.692V75.4142Z" fill="#F6BCC2"/>
<path d="M187.211 75.4142H174.731V87.9091H187.211V75.4142Z" fill="#F6BCC2"/>
<path d="M174.731 75.4142H162.25V87.9091H174.731V75.4142Z" fill="#F6BCC2"/>
<path d="M162.25 75.4142H149.769V87.9091H162.25V75.4142Z" fill="#F6BCC2"/>
<path d="M149.769 75.4142H137.289V87.9091H149.769V75.4142Z" fill="#F6BCC2"/>
<path d="M137.289 75.4142H124.808V87.9091H137.289V75.4142Z" fill="#F6BCC2"/>
<path d="M124.808 75.4142H112.327V87.9091H124.808V75.4142Z" fill="#F6BCC2"/>
<path d="M112.327 75.4142H99.8462V87.9091H112.327V75.4142Z" fill="#F6BCC2"/>
<path d="M99.8462 75.4142H87.3655V87.9091H99.8462V75.4142Z" fill="#F6BCC2"/>
<path d="M87.3655 75.4142H74.8845V87.9091H87.3655V75.4142Z" fill="#F6BCC2"/>
<path d="M74.8845 75.4142H62.4038V87.9091H74.8845V75.4142Z" fill="#F6BCC2"/>
<path d="M62.4038 75.4142H49.9231V87.9091H62.4038V75.4142Z" fill="#F6BCC2"/>
<path d="M49.9231 75.4142H37.4424V87.9091H49.9231V75.4142Z" fill="#F6BCC2"/>
<path d="M37.4424 75.4142H24.9614V87.9091H37.4424V75.4142Z" fill="#F6BCC2"/>
<path d="M511.711 62.9193H499.231V75.4142H511.711V62.9193Z" fill="#F6BCC2"/>
<path d="M461.788 62.9193H449.308V75.4142H461.788V62.9193Z" fill="#F6BCC2"/>
<path d="M449.308 62.9193H436.827V75.4142H449.308V62.9193Z" fill="#F6BCC2"/>
<path d="M436.827 62.9193H424.346V75.4142H436.827V62.9193Z" fill="#F6BCC2"/>
<path d="M424.346 62.9193H411.865V75.4142H424.346V62.9193Z" fill="#F6BCC2"/>
<path d="M411.865 62.9193H399.385V75.4142H411.865V62.9193Z" fill="#F6BCC2"/>
<path d="M399.385 62.9193H386.904V75.4142H399.385V62.9193Z" fill="#F6BCC2"/>
<path d="M386.904 62.9193H374.423V75.4142H386.904V62.9193Z" fill="#F6BCC2"/>
<path d="M374.423 62.9193H361.942V75.4142H374.423V62.9193Z" fill="#F6BCC2"/>
<path d="M361.942 62.9193H349.461V75.4142H361.942V62.9193Z" fill="#F6BCC2"/>
<path d="M349.461 62.9193H336.981V75.4142H349.461V62.9193Z" fill="#F6BCC2"/>
<path d="M336.981 62.9193H324.5V75.4142H336.981V62.9193Z" fill="#F6BCC2"/>
<path d="M324.5 62.9193H312.019V75.4142H324.5V62.9193Z" fill="#F6BCC2"/>
<path d="M312.019 62.9193H299.539V75.4142H312.019V62.9193Z" fill="#F6BCC2"/>
<path d="M299.539 62.9193H287.058V75.4142H299.539V62.9193Z" fill="#F6BCC2"/>
<path d="M287.058 62.9193H274.577V75.4142H287.058V62.9193Z" fill="#F6BCC2"/>
<path d="M274.577 62.9193H262.096V75.4142H274.577V62.9193Z" fill="#F6BCC2"/>
<path d="M212.173 62.9193H199.692V75.4142H212.173V62.9193Z" fill="#F6BCC2"/>
<path d="M199.692 62.9193H187.211V75.4142H199.692V62.9193Z" fill="#F6BCC2"/>
<path d="M187.211 62.9193H174.731V75.4142H187.211V62.9193Z" fill="#F6BCC2"/>
<path d="M174.731 62.9193H162.25V75.4142H174.731V62.9193Z" fill="#F6BCC2"/>
<path d="M162.25 62.9193H149.769V75.4142H162.25V62.9193Z" fill="#F6BCC2"/>
<path d="M149.769 62.9193H137.289V75.4142H149.769V62.9193Z" fill="#F6BCC2"/>
<path d="M137.289 62.9193H124.808V75.4142H137.289V62.9193Z" fill="#F6BCC2"/>
<path d="M124.808 62.9193H112.327V75.4142H124.808V62.9193Z" fill="#F6BCC2"/>
<path d="M112.327 62.9193H99.8462V75.4142H112.327V62.9193Z" fill="#F6BCC2"/>
<path d="M99.8462 62.9193H87.3655V75.4142H99.8462V62.9193Z" fill="#F6BCC2"/>
<path d="M87.3655 62.9193H74.8845V75.4142H87.3655V62.9193Z" fill="#F6BCC2"/>
<path d="M74.8845 62.9193H62.4038V75.4142H74.8845V62.9193Z" fill="#F6BCC2"/>
<path d="M62.4038 62.9193H49.9231V75.4142H62.4038V62.9193Z" fill="#F6BCC2"/>
<path d="M49.9231 62.9193H37.4424V75.4142H49.9231V62.9193Z" fill="#F6BCC2"/>
<path d="M37.4424 62.9193H24.9614V75.4142H37.4424V62.9193Z" fill="#F6BCC2"/>
<path d="M24.9614 62.9193H12.4807V75.4142L24.9614 75.4142V62.9193Z" fill="#F6BCC2"/>
<path d="M511.711 50.4243H499.231V62.9193H511.711V50.4243Z" fill="#F6BCC2"/>
<path d="M461.788 50.4243H449.308V62.9193H461.788V50.4243Z" fill="#F6BCC2"/>
<path d="M449.308 50.4243H436.827V62.9193H449.308V50.4243Z" fill="#F6BCC2"/>
<path d="M436.827 50.4243H424.346V62.9193H436.827V50.4243Z" fill="#F6BCC2"/>
<path d="M424.346 50.4243H411.865V62.9193H424.346V50.4243Z" fill="#F6BCC2"/>
<path d="M411.865 50.4243H399.385V62.9193H411.865V50.4243Z" fill="#F6BCC2"/>
<path d="M399.385 50.4243H386.904V62.9193H399.385V50.4243Z" fill="#F6BCC2"/>
<path d="M386.904 50.4243H374.423V62.9193H386.904V50.4243Z" fill="#F6BCC2"/>
<path d="M374.423 50.4243H361.942V62.9193H374.423V50.4243Z" fill="#F6BCC2"/>
<path d="M361.942 50.4243H349.461V62.9193H361.942V50.4243Z" fill="#F6BCC2"/>
<path d="M349.461 50.4243H336.981V62.9193H349.461V50.4243Z" fill="#F6BCC2"/>
<path d="M336.981 50.4243H324.5V62.9193H336.981V50.4243Z" fill="#F6BCC2"/>
<path d="M324.5 50.4243H312.019V62.9193H324.5V50.4243Z" fill="#F6BCC2"/>
<path d="M312.019 50.4243H299.539V62.9193H312.019V50.4243Z" fill="#F6BCC2"/>
<path d="M299.539 50.4243H287.058V62.9193H299.539V50.4243Z" fill="#F6BCC2"/>
<path d="M287.058 50.4243H274.577V62.9193H287.058V50.4243Z" fill="#F6BCC2"/>
<path d="M274.577 50.4243H262.096V62.9193H274.577V50.4243Z" fill="#F6BCC2"/>
<path d="M212.173 50.4243H199.692V62.9193H212.173V50.4243Z" fill="#F6BCC2"/>
<path d="M199.692 50.4243H187.211V62.9193H199.692V50.4243Z" fill="#F6BCC2"/>
<path d="M187.211 50.4243H174.731V62.9193H187.211V50.4243Z" fill="#F6BCC2"/>
<path d="M174.731 50.4243H162.25V62.9193H174.731V50.4243Z" fill="#F6BCC2"/>
<path d="M162.25 50.4243H149.769V62.9193H162.25V50.4243Z" fill="#F6BCC2"/>
<path d="M149.769 50.4243H137.289V62.9193H149.769V50.4243Z" fill="#F6BCC2"/>
<path d="M137.289 50.4243H124.808V62.9193H137.289V50.4243Z" fill="#F6BCC2"/>
<path d="M124.808 50.4243H112.327V62.9193H124.808V50.4243Z" fill="#F6BCC2"/>
<path d="M112.327 50.4243H99.8462V62.9193H112.327V50.4243Z" fill="#F6BCC2"/>
<path d="M99.8462 50.4243H87.3655V62.9193H99.8462V50.4243Z" fill="#F6BCC2"/>
<path d="M87.3655 50.4243H74.8845V62.9193H87.3655V50.4243Z" fill="#F6BCC2"/>
<path d="M74.8845 50.4243H62.4038V62.9193H74.8845V50.4243Z" fill="#F6BCC2"/>
<path d="M62.4038 50.4243H49.9231V62.9193H62.4038V50.4243Z" fill="#F6BCC2"/>
<path d="M49.9231 50.4243H37.4424V62.9193H49.9231V50.4243Z" fill="#F6BCC2"/>
<path d="M37.4424 50.4243H24.9614V62.9193H37.4424V50.4243Z" fill="#F6BCC2"/>
<path d="M24.9614 50.4243H12.4807V62.9193H24.9614V50.4243Z" fill="#F6BCC2"/>
<path d="M511.711 37.9294H499.231V50.4243H511.711V37.9294Z" fill="#F6BCC2"/>
<path d="M461.788 37.9294H449.308V50.4243H461.788V37.9294Z" fill="#F6BCC2"/>
<path d="M449.308 37.9294H436.827V50.4243H449.308V37.9294Z" fill="#F6BCC2"/>
<path d="M436.827 37.9294H424.346V50.4243H436.827V37.9294Z" fill="#F6BCC2"/>
<path d="M424.346 37.9294H411.865V50.4243H424.346V37.9294Z" fill="#F6BCC2"/>
<path d="M411.865 37.9294H399.385V50.4243H411.865V37.9294Z" fill="#F6BCC2"/>
<path d="M399.385 37.9294H386.904V50.4243H399.385V37.9294Z" fill="#F6BCC2"/>
<path d="M386.904 37.9294H374.423V50.4243H386.904V37.9294Z" fill="#F6BCC2"/>
<path d="M374.423 37.9294H361.942V50.4243H374.423V37.9294Z" fill="#F6BCC2"/>
<path d="M361.942 37.9294H349.461V50.4243H361.942V37.9294Z" fill="#F6BCC2"/>
<path d="M349.461 37.9294H336.981V50.4243H349.461V37.9294Z" fill="#F6BCC2"/>
<path d="M336.981 37.9294H324.5V50.4243H336.981V37.9294Z" fill="#F6BCC2"/>
<path d="M324.5 37.9294H312.019V50.4243H324.5V37.9294Z" fill="#F6BCC2"/>
<path d="M312.019 37.9294H299.539V50.4243H312.019V37.9294Z" fill="#F6BCC2"/>
<path d="M299.539 37.9294H287.058V50.4243H299.539V37.9294Z" fill="#F6BCC2"/>
<path d="M287.058 37.9294H274.577V50.4243H287.058V37.9294Z" fill="#F6BCC2"/>
<path d="M274.577 37.9294H262.096V50.4243H274.577V37.9294Z" fill="#F6BCC2"/>
<path d="M212.173 37.9294H199.692V50.4243H212.173V37.9294Z" fill="#F6BCC2"/>
<path d="M199.692 37.9294H187.211V50.4243H199.692V37.9294Z" fill="#F6BCC2"/>
<path d="M187.211 37.9294H174.731V50.4243H187.211V37.9294Z" fill="#F6BCC2"/>
<path d="M174.731 37.9294H162.25V50.4243H174.731V37.9294Z" fill="#F6BCC2"/>
<path d="M162.25 37.9294H149.769V50.4243H162.25V37.9294Z" fill="#F6BCC2"/>
<path d="M149.769 37.9294H137.289V50.4243H149.769V37.9294Z" fill="#F6BCC2"/>
<path d="M137.289 37.9294H124.808V50.4243H137.289V37.9294Z" fill="#F6BCC2"/>
<path d="M124.808 37.9294H112.327V50.4243H124.808V37.9294Z" fill="#F6BCC2"/>
<path d="M112.327 37.9294H99.8462V50.4243H112.327V37.9294Z" fill="#F6BCC2"/>
<path d="M99.8462 37.9294H87.3655V50.4243H99.8462V37.9294Z" fill="#F6BCC2"/>
<path d="M87.3655 37.9294H74.8845V50.4243H87.3655V37.9294Z" fill="#F6BCC2"/>
<path d="M74.8845 37.9294H62.4038V50.4243H74.8845V37.9294Z" fill="#F6BCC2"/>
<path d="M62.4038 37.9294H49.9231V50.4243H62.4038V37.9294Z" fill="#F6BCC2"/>
<path d="M49.9231 37.9294H37.4424V50.4243H49.9231V37.9294Z" fill="#F6BCC2"/>
<path d="M37.4424 37.9294H24.9614V50.4243H37.4424V37.9294Z" fill="#F6BCC2"/>
<path d="M24.9614 37.9294H12.4807V50.4243H24.9614V37.9294Z" fill="#F6BCC2"/>
<path d="M37.4422 25.4344H24.9614V37.9294H37.4424L37.4422 25.4344Z" fill="#F6BCC2"/>
<path d="M24.9614 25.4344H12.4807V37.9294H24.9614V25.4344Z" fill="#F6BCC2"/>
<path d="M511.711 12.9395H499.231V25.4344H511.711V12.9395Z" fill="#F6BCC2"/>
<path d="M461.788 12.9395H449.308V25.4344H461.788V12.9395Z" fill="#F6BCC2"/>
<path d="M449.308 12.9395H436.827V25.4344H449.308V12.9395Z" fill="#F6BCC2"/>
<path d="M436.827 12.9395H424.346V25.4344H436.827V12.9395Z" fill="#F6BCC2"/>
<path d="M424.346 12.9395H411.865V25.4344H424.346V12.9395Z" fill="#F6BCC2"/>
<path d="M411.865 12.9395H399.385V25.4344H411.865V12.9395Z" fill="#F6BCC2"/>
<path d="M399.385 12.9395H386.904V25.4344H399.385V12.9395Z" fill="#F6BCC2"/>
<path d="M386.904 12.9395H374.423V25.4344H386.904V12.9395Z" fill="#F6BCC2"/>
<path d="M374.423 12.9395H361.942V25.4344H374.423V12.9395Z" fill="#F6BCC2"/>
<path d="M361.942 12.9395H349.461V25.4344H361.942V12.9395Z" fill="#F6BCC2"/>
<path d="M349.461 12.9395H336.981V25.4344H349.461V12.9395Z" fill="#F6BCC2"/>
<path d="M336.981 12.9395H324.5V25.4344H336.981V12.9395Z" fill="#F6BCC2"/>
<path d="M324.5 12.9395H312.019V25.4344H324.5V12.9395Z" fill="#F6BCC2"/>
<path d="M312.019 12.9395H299.539V25.4344H312.019V12.9395Z" fill="#F6BCC2"/>
<path d="M299.539 12.9395H287.058V25.4344H299.539V12.9395Z" fill="#F6BCC2"/>
<path d="M287.058 12.9395H274.577V25.4344H287.058V12.9395Z" fill="#F6BCC2"/>
<path d="M274.577 12.9395H262.096V25.4344H274.577V12.9395Z" fill="#F6BCC2"/>
<path d="M212.173 12.9395H199.692V25.4344H212.173V12.9395Z" fill="#F6BCC2"/>
<path d="M199.692 12.9395H187.211V25.4344H199.692V12.9395Z" fill="#F6BCC2"/>
<path d="M187.211 12.9395H174.731V25.4344H187.211V12.9395Z" fill="#F6BCC2"/>
<path d="M174.731 12.9395H162.25V25.4344H174.731V12.9395Z" fill="#F6BCC2"/>
<path d="M162.25 12.9395H149.769V25.4344H162.25V12.9395Z" fill="#F6BCC2"/>
<path d="M149.769 12.9395H137.289V25.4344H149.769V12.9395Z" fill="#F6BCC2"/>
<path d="M137.289 12.9395H124.808V25.4344H137.289V12.9395Z" fill="#F6BCC2"/>
<path d="M124.808 12.9395H112.327V25.4344H124.808V12.9395Z" fill="#F6BCC2"/>
<path d="M112.327 12.9395H99.8462V25.4344H112.327V12.9395Z" fill="#F6BCC2"/>
<path d="M99.8462 12.9395H87.3655V25.4344H99.8462V12.9395Z" fill="#F6BCC2"/>
<path d="M87.3655 12.9395H74.8845V25.4344H87.3655V12.9395Z" fill="#F6BCC2"/>
<path d="M74.8845 12.9395H62.4038V25.4344H74.8845V12.9395Z" fill="#F6BCC2"/>
<path d="M62.4038 12.9395H49.9231V25.4344H62.4038V12.9395Z" fill="#F6BCC2"/>
<path d="M49.9231 12.9395H37.4424L37.4422 25.4344L49.9231 25.4344V12.9395Z" fill="#F6BCC2"/>
<path d="M37.4424 12.9395H24.9614V25.4344H37.4422L37.4424 12.9395Z" fill="#F6BCC2"/>
<path d="M499.231 75.4142H486.75V87.9091H499.231V75.4142Z" fill="#F6BCC2"/>
<path d="M486.75 75.4142H474.269V87.9091H486.75V75.4142Z" fill="#F6BCC2"/>
<path d="M474.269 75.4142H461.788V87.9091H474.269V75.4142Z" fill="#F6BCC2"/>
<path d="M499.231 62.9193H486.75V75.4142H499.231V62.9193Z" fill="#F6BCC2"/>
<path d="M486.75 62.9193H474.269V75.4142H486.75V62.9193Z" fill="#F6BCC2"/>
<path d="M474.269 62.9193H461.788V75.4142H474.269V62.9193Z" fill="#F6BCC2"/>
<path d="M499.231 50.4243H486.75V62.9193H499.231V50.4243Z" fill="#F6BCC2"/>
<path d="M486.75 50.4243H474.269V62.9193H486.75V50.4243Z" fill="#F6BCC2"/>
<path d="M474.269 50.4243H461.788V62.9193H474.269V50.4243Z" fill="#F6BCC2"/>
<path d="M499.231 37.9294H486.75V50.4243H499.231V37.9294Z" fill="#F6BCC2"/>
<path d="M486.75 37.9294H474.269V50.4243H486.75V37.9294Z" fill="#F6BCC2"/>
<path d="M474.269 37.9294H461.788V50.4243H474.269V37.9294Z" fill="#F6BCC2"/>
<path d="M499.231 12.9395H486.75V25.4344H499.231V12.9395Z" fill="#F6BCC2"/>
<path d="M486.75 12.9395H474.269V25.4344H486.75V12.9395Z" fill="#F6BCC2"/>
<path d="M474.269 12.9395H461.788V25.4344H474.269V12.9395Z" fill="#F6BCC2"/>
<path d="M262.096 75.4142H249.615V87.9091H262.096V75.4142Z" fill="#F6BCC2"/>
<path d="M249.615 75.4142H237.135V87.9091H249.615V75.4142Z" fill="#F6BCC2"/>
<path d="M237.135 75.4142H224.654V87.9091H237.135V75.4142Z" fill="#F6BCC2"/>
<path d="M224.654 75.4142H212.173V87.9091H224.654V75.4142Z" fill="#F6BCC2"/>
<path d="M262.096 62.9193H249.615V75.4142H262.096V62.9193Z" fill="#F6BCC2"/>
<path d="M249.615 62.9193H237.135V75.4142H249.615V62.9193Z" fill="#F6BCC2"/>
<path d="M237.135 62.9193H224.654V75.4142H237.135V62.9193Z" fill="#F6BCC2"/>
<path d="M224.654 62.9193H212.173V75.4142H224.654V62.9193Z" fill="#F6BCC2"/>
<path d="M262.096 50.4243H249.615V62.9193H262.096V50.4243Z" fill="#F6BCC2"/>
<path d="M249.615 50.4243H237.135V62.9193H249.615V50.4243Z" fill="#F6BCC2"/>
<path d="M237.135 50.4243H224.654V62.9193H237.135V50.4243Z" fill="#F6BCC2"/>
<path d="M224.654 50.4243H212.173V62.9193H224.654V50.4243Z" fill="#F6BCC2"/>
<path d="M262.096 37.9294H249.615V50.4243H262.096V37.9294Z" fill="#F6BCC2"/>
<path d="M249.615 37.9294H237.135V50.4243H249.615V37.9294Z" fill="#F6BCC2"/>
<path d="M237.135 37.9294H224.654V50.4243H237.135V37.9294Z" fill="#F6BCC2"/>
<path d="M224.654 37.9294H212.173V50.4243H224.654V37.9294Z" fill="#F6BCC2"/>
<path d="M262.096 12.9395H249.615V25.4344H262.096V12.9395Z" fill="#F6BCC2"/>
<path d="M249.615 12.9395H237.135V25.4344H249.615V12.9395Z" fill="#F6BCC2"/>
<path d="M237.135 12.9395H224.654V25.4344H237.135V12.9395Z" fill="#F6BCC2"/>
<path d="M224.654 12.9395H212.173V25.4344H224.654V12.9395Z" fill="#F6BCC2"/>
<path d="M574.115 75.4142H561.635V87.9091H574.115V75.4142Z" fill="#F6BCC2"/>
<path d="M574.115 62.9193H561.635V75.4142H574.115V62.9193Z" fill="#F6BCC2"/>
<path d="M574.115 50.4243H561.635V62.9193H574.115V50.4243Z" fill="#F6BCC2"/>
<path d="M574.115 37.9294H561.635V50.4243H574.115V37.9294Z" fill="#F6BCC2"/>
<path d="M574.115 12.9395H561.635V25.4344H574.115V12.9395Z" fill="#F6BCC2"/>
<path d="M561.635 75.4142H549.154V87.9091H561.635V75.4142Z" fill="#F6BCC2"/>
<path d="M549.154 75.4142H536.673V87.9091H549.154V75.4142Z" fill="#F6BCC2"/>
<path d="M561.635 62.9193H549.154V75.4142H561.635V62.9193Z" fill="#F6BCC2"/>
<path d="M549.154 62.9193H536.673V75.4142H549.154V62.9193Z" fill="#F6BCC2"/>
<path d="M561.635 50.4243H549.154V62.9193H561.635V50.4243Z" fill="#F6BCC2"/>
<path d="M549.154 50.4243H536.673V62.9193H549.154V50.4243Z" fill="#F6BCC2"/>
<path d="M561.635 37.9294H549.154V50.4243H561.635V37.9294Z" fill="#F6BCC2"/>
<path d="M549.154 37.9294H536.673V50.4243H549.154V37.9294Z" fill="#F6BCC2"/>
<path d="M561.635 12.9395H549.154V25.4344H561.635V12.9395Z" fill="#F6BCC2"/>
<path d="M549.154 12.9395H536.673V25.4344H549.154V12.9395Z" fill="#F6BCC2"/>
<path d="M536.673 75.4142H524.192V87.9091H536.673V75.4142Z" fill="#F6BCC2"/>
<path d="M536.673 62.9193H524.192V75.4142H536.673V62.9193Z" fill="#F6BCC2"/>
<path d="M536.673 50.4243H524.192V62.9193H536.673V50.4243Z" fill="#F6BCC2"/>
<path d="M536.673 37.9294H524.192V50.4243H536.673V37.9294Z" fill="#F6BCC2"/>
<path d="M536.673 12.9395H524.192V25.4344H536.673V12.9395Z" fill="#F6BCC2"/>
<path d="M524.192 75.4142H511.711V87.9091H524.192V75.4142Z" fill="#F6BCC2"/>
<path d="M524.192 62.9193H511.711V75.4142H524.192V62.9193Z" fill="#F6BCC2"/>
<path d="M524.192 50.4243H511.711V62.9193H524.192V50.4243Z" fill="#F6BCC2"/>
<path d="M524.192 37.9294H511.711V50.4243H524.192V37.9294Z" fill="#F6BCC2"/>
<path d="M524.192 12.9395H511.711V25.4344H524.192V12.9395Z" fill="#F6BCC2"/>
<path d="M624.038 87.9089H611.558V100.404H624.038V87.9089Z" fill="#813E3F"/>
<path d="M611.558 87.9089H599.077V100.404H611.558V87.9089Z" fill="#813E3F"/>
<path d="M511.711 87.9089H499.231V100.404H511.711V87.9089Z" fill="#813E3F"/>
<path d="M461.788 87.9089H449.308V100.404H461.788V87.9089Z" fill="#813E3F"/>
<path d="M449.308 87.9089H436.827V100.404H449.308V87.9089Z" fill="#813E3F"/>
<path d="M436.827 87.9089H424.346V100.404H436.827V87.9089Z" fill="#813E3F"/>
<path d="M424.346 87.9089H411.865V100.404H424.346V87.9089Z" fill="#813E3F"/>
<path d="M411.865 87.9089H399.385V100.404H411.865V87.9089Z" fill="#813E3F"/>
<path d="M399.385 87.9089H386.904V100.404H399.385V87.9089Z" fill="#813E3F"/>
<path d="M386.904 87.9089H374.423V100.404H386.904V87.9089Z" fill="#813E3F"/>
<path d="M374.423 87.9089H361.942V100.404H374.423V87.9089Z" fill="#813E3F"/>
<path d="M361.942 87.9089H349.461V100.404H361.942V87.9089Z" fill="#813E3F"/>
<path d="M349.461 87.9089H336.981V100.404H349.461V87.9089Z" fill="#813E3F"/>
<path d="M336.981 87.9089H324.5V100.404H336.981V87.9089Z" fill="#813E3F"/>
<path d="M324.5 87.9089H312.019V100.404H324.5V87.9089Z" fill="#813E3F"/>
<path d="M312.019 87.9089H299.539V100.404H312.019V87.9089Z" fill="#813E3F"/>
<path d="M299.539 87.9089H287.058V100.404H299.539V87.9089Z" fill="#813E3F"/>
<path d="M287.058 87.9089H274.577V100.404H287.058V87.9089Z" fill="#813E3F"/>
<path d="M274.577 87.9089H262.096V100.404H274.577V87.9089Z" fill="#813E3F"/>
<path d="M212.173 87.9089H199.692V100.404H212.173V87.9089Z" fill="#813E3F"/>
<path d="M199.692 87.9089H187.211V100.404H199.692V87.9089Z" fill="#813E3F"/>
<path d="M187.211 87.9089H174.731V100.404H187.211V87.9089Z" fill="#813E3F"/>
<path d="M174.731 87.9089H162.25V100.404H174.731V87.9089Z" fill="#813E3F"/>
<path d="M162.25 87.9089H149.769V100.404H162.25V87.9089Z" fill="#813E3F"/>
<path d="M149.769 87.9089H137.289V100.404H149.769V87.9089Z" fill="#813E3F"/>
<path d="M137.289 87.9089H124.808V100.404H137.289V87.9089Z" fill="#813E3F"/>
<path d="M124.808 87.9089H112.327V100.404H124.808V87.9089Z" fill="#813E3F"/>
<path d="M112.327 87.9089H99.8462V100.404H112.327V87.9089Z" fill="#813E3F"/>
<path d="M99.8462 87.9089H87.3655V100.404H99.8462V87.9089Z" fill="#813E3F"/>
<path d="M87.3655 87.9089H74.8845V100.404H87.3655V87.9089Z" fill="#813E3F"/>
<path d="M74.8845 87.9089H62.4038V100.404H74.8845V87.9089Z" fill="#813E3F"/>
<path d="M62.4038 87.9089H49.9231V100.404H62.4038V87.9089Z" fill="#813E3F"/>
<path d="M49.9231 87.9089H37.4424V100.404H49.9231V87.9089Z" fill="#813E3F"/>
<path d="M37.4424 87.9089H24.9614V100.404H37.4424V87.9089Z" fill="#813E3F"/>
<path d="M636.519 75.414H624.039L624.038 87.9089L636.519 87.909V75.414Z" fill="#813E3F"/>
<path d="M24.9615 75.414H12.4807V87.909L24.9614 87.9089L24.9615 75.414Z" fill="#813E3F"/>
<path d="M649 62.9191H636.519L636.519 75.414L649 75.414V62.9191Z" fill="#813E3F"/>
<path d="M12.4808 62.9191H0V75.414L12.4807 75.414L12.4808 62.9191Z" fill="#813E3F"/>
<path d="M649 50.4241H636.519V62.9191H649V50.4241Z" fill="#813E3F"/>
<path d="M12.4808 50.4241H0V62.9191H12.4808V50.4241Z" fill="#813E3F"/>
<path d="M649 37.9292H636.519V50.4241H649V37.9292Z" fill="#813E3F"/>
<path d="M12.4808 37.9292H0V50.4241H12.4808V37.9292Z" fill="#813E3F"/>
<path d="M649 25.4342H636.519V37.9292H649V25.4342Z" fill="#813E3F"/>
<path d="M12.4808 25.4342H0V37.9292H12.4808V25.4342Z" fill="#813E3F"/>
<path d="M636.519 12.9393H624.039V25.4342L636.519 25.4342L636.519 12.9393Z" fill="#813E3F"/>
<path d="M24.9615 12.9393H12.4807L12.4808 25.4342L24.9615 25.4342V12.9393Z" fill="#813E3F"/>
<path d="M624.038 0.444336H611.558V12.9393L624.039 12.9393L624.038 0.444336Z" fill="#813E3F"/>
<path d="M611.558 0.444336H599.077V12.9393H611.558V0.444336Z" fill="#813E3F"/>
<path d="M511.711 0.444336H499.231V12.9393H511.711V0.444336Z" fill="#813E3F"/>
<path d="M461.788 0.444336H449.308V12.9393H461.788V0.444336Z" fill="#813E3F"/>
<path d="M449.308 0.444336H436.827V12.9393H449.308V0.444336Z" fill="#813E3F"/>
<path d="M436.827 0.444336H424.346V12.9393H436.827V0.444336Z" fill="#813E3F"/>
<path d="M499.231 87.9089H486.75V100.404H499.231V87.9089Z" fill="#813E3F"/>
<path d="M486.75 87.9089H474.269V100.404H486.75V87.9089Z" fill="#813E3F"/>
<path d="M474.269 87.9089H461.788V100.404H474.269V87.9089Z" fill="#813E3F"/>
<path d="M499.231 0.444336H486.75V12.9393H499.231V0.444336Z" fill="#813E3F"/>
<path d="M486.75 0.444336H474.269V12.9393H486.75V0.444336Z" fill="#813E3F"/>
<path d="M599.077 87.9089H586.596V100.404H599.077V87.9089Z" fill="#813E3F"/>
<path d="M586.596 87.9089H574.115V100.404H586.596V87.9089Z" fill="#813E3F"/>
<path d="M599.077 0.444336H586.596V12.9393H599.077V0.444336Z" fill="#813E3F"/>
<path d="M586.596 0.444336H574.115V12.9393H586.596V0.444336Z" fill="#813E3F"/>
<path d="M474.269 0.444336H461.788V12.9393H474.269V0.444336Z" fill="#813E3F"/>
<path d="M424.346 0.444336H411.865V12.9393H424.346V0.444336Z" fill="#813E3F"/>
<path d="M411.865 0.444336H399.385V12.9393H411.865V0.444336Z" fill="#813E3F"/>
<path d="M399.385 0.444336H386.904V12.9393H399.385V0.444336Z" fill="#813E3F"/>
<path d="M386.904 0.444336H374.423V12.9393H386.904V0.444336Z" fill="#813E3F"/>
<path d="M374.423 0.444336H361.942V12.9393H374.423V0.444336Z" fill="#813E3F"/>
<path d="M361.942 0.444336H349.461V12.9393H361.942V0.444336Z" fill="#813E3F"/>
<path d="M349.461 0.444336H336.981V12.9393H349.461V0.444336Z" fill="#813E3F"/>
<path d="M336.981 0.444336H324.5V12.9393H336.981V0.444336Z" fill="#813E3F"/>
<path d="M324.5 0.444336H312.019V12.9393H324.5V0.444336Z" fill="#813E3F"/>
<path d="M312.019 0.444336H299.539V12.9393H312.019V0.444336Z" fill="#813E3F"/>
<path d="M299.539 0.444336H287.058V12.9393H299.539V0.444336Z" fill="#813E3F"/>
<path d="M287.058 0.444336H274.577V12.9393H287.058V0.444336Z" fill="#813E3F"/>
<path d="M274.577 0.444336H262.096V12.9393H274.577V0.444336Z" fill="#813E3F"/>
<path d="M212.173 0.444336H199.692V12.9393H212.173V0.444336Z" fill="#813E3F"/>
<path d="M199.692 0.444336H187.211V12.9393H199.692V0.444336Z" fill="#813E3F"/>
<path d="M187.211 0.444336H174.731V12.9393H187.211V0.444336Z" fill="#813E3F"/>
<path d="M174.731 0.444336H162.25V12.9393H174.731V0.444336Z" fill="#813E3F"/>
<path d="M262.096 87.9089H249.615V100.404H262.096V87.9089Z" fill="#813E3F"/>
<path d="M249.615 87.9089H237.135V100.404H249.615V87.9089Z" fill="#813E3F"/>
<path d="M237.135 87.9089H224.654V100.404H237.135V87.9089Z" fill="#813E3F"/>
<path d="M224.654 87.9089H212.173V100.404H224.654V87.9089Z" fill="#813E3F"/>
<path d="M262.096 0.444336H249.615V12.9393H262.096V0.444336Z" fill="#813E3F"/>
<path d="M249.615 0.444336H237.135V12.9393H249.615V0.444336Z" fill="#813E3F"/>
<path d="M237.135 0.444336H224.654V12.9393H237.135V0.444336Z" fill="#813E3F"/>
<path d="M224.654 0.444336H212.173V12.9393H224.654V0.444336Z" fill="#813E3F"/>
<path d="M162.25 0.444336H149.769V12.9393H162.25V0.444336Z" fill="#813E3F"/>
<path d="M149.769 0.444336H137.289V12.9393H149.769V0.444336Z" fill="#813E3F"/>
<path d="M137.289 0.444336H124.808V12.9393H137.289V0.444336Z" fill="#813E3F"/>
<path d="M124.808 0.444336H112.327V12.9393H124.808V0.444336Z" fill="#813E3F"/>
<path d="M112.327 0.444336H99.8462V12.9393H112.327V0.444336Z" fill="#813E3F"/>
<path d="M99.8462 0.444336H87.3655V12.9393H99.8462V0.444336Z" fill="#813E3F"/>
<path d="M87.3655 0.444336H74.8845V12.9393H87.3655V0.444336Z" fill="#813E3F"/>
<path d="M74.8845 0.444336H62.4038V12.9393H74.8845V0.444336Z" fill="#813E3F"/>
<path d="M62.4038 0.444336H49.9231V12.9393H62.4038V0.444336Z" fill="#813E3F"/>
<path d="M49.9231 0.444336H37.4424V12.9393H49.9231V0.444336Z" fill="#813E3F"/>
<path d="M37.4424 0.444336H24.9614L24.9615 12.9393L37.4424 12.9393V0.444336Z" fill="#813E3F"/>
<path d="M536.673 87.9089H524.192V100.404H536.673V87.9089Z" fill="#813E3F"/>
<path d="M536.673 0.444336H524.192V12.9393H536.673V0.444336Z" fill="#813E3F"/>
<path d="M524.192 87.9089H511.711V100.404H524.192V87.9089Z" fill="#813E3F"/>
<path d="M524.192 0.444336H511.711V12.9393H524.192V0.444336Z" fill="#813E3F"/>
<path d="M574.115 87.9089H561.635V100.404H574.115V87.9089Z" fill="#813E3F"/>
<path d="M574.115 0.444336H561.635V12.9393H574.115V0.444336Z" fill="#813E3F"/>
<path d="M561.635 87.9089H549.154V100.404H561.635V87.9089Z" fill="#813E3F"/>
<path d="M549.154 87.9089H536.673V100.404H549.154V87.9089Z" fill="#813E3F"/>
<path d="M561.635 0.444336H549.154V12.9393H561.635V0.444336Z" fill="#813E3F"/>
<path d="M549.154 0.444336H536.673V12.9393H549.154V0.444336Z" fill="#813E3F"/>
</svg>
