<svg width="250" height="70" viewBox="0 0 649 100" fill="none" xmlns="http://www.w3.org/2000/svg">
<path d="M624.038 37.4847H611.558V49.9797H624.038V37.4847Z" fill="#FFFDFB"/>
<path d="M611.558 24.9897H599.077V37.4847L611.558 37.4847L611.558 24.9897Z" fill="#FFFDFB"/>
<path d="M511.711 24.9897H499.231V37.4847H511.711V24.9897Z" fill="#FFFDFB"/>
<path d="M461.788 24.9897H449.308V37.4847H461.788V24.9897Z" fill="#FFFDFB"/>
<path d="M449.308 24.9897H436.827V37.4847H449.308V24.9897Z" fill="#FFFDFB"/>
<path d="M436.827 24.9897H424.346V37.4847H436.827V24.9897Z" fill="#FFFDFB"/>
<path d="M424.346 24.9897H411.865V37.4847H424.346V24.9897Z" fill="#FFFDFB"/>
<path d="M411.865 24.9897H399.385V37.4847H411.865V24.9897Z" fill="#FFFDFB"/>
<path d="M399.385 24.9897H386.904V37.4847H399.385V24.9897Z" fill="#FFFDFB"/>
<path d="M386.904 24.9897H374.423V37.4847H386.904V24.9897Z" fill="#FFFDFB"/>
<path d="M374.423 24.9897H361.942V37.4847H374.423V24.9897Z" fill="#FFFDFB"/>
<path d="M361.942 24.9897H349.461V37.4847H361.942V24.9897Z" fill="#FFFDFB"/>
<path d="M349.461 24.9897H336.981V37.4847H349.461V24.9897Z" fill="#FFFDFB"/>
<path d="M336.981 24.9897H324.5V37.4847H336.981V24.9897Z" fill="#FFFDFB"/>
<path d="M324.5 24.9897H312.019V37.4847H324.5V24.9897Z" fill="#FFFDFB"/>
<path d="M312.019 24.9897H299.539V37.4847H312.019V24.9897Z" fill="#FFFDFB"/>
<path d="M299.539 24.9897H287.058V37.4847H299.539V24.9897Z" fill="#FFFDFB"/>
<path d="M287.058 24.9897H274.577V37.4847H287.058V24.9897Z" fill="#FFFDFB"/>
<path d="M274.577 24.9897H262.096V37.4847H274.577V24.9897Z" fill="#FFFDFB"/>
<path d="M212.173 24.9897H199.692V37.4847H212.173V24.9897Z" fill="#FFFDFB"/>
<path d="M199.692 24.9897H187.211V37.4847H199.692V24.9897Z" fill="#FFFDFB"/>
<path d="M187.211 24.9897H174.731V37.4847H187.211V24.9897Z" fill="#FFFDFB"/>
<path d="M174.731 24.9897H162.25V37.4847H174.731V24.9897Z" fill="#FFFDFB"/>
<path d="M162.25 24.9897H149.769V37.4847H162.25V24.9897Z" fill="#FFFDFB"/>
<path d="M149.769 24.9897H137.289V37.4847H149.769V24.9897Z" fill="#FFFDFB"/>
<path d="M137.289 24.9897H124.808V37.4847H137.289V24.9897Z" fill="#FFFDFB"/>
<path d="M124.808 24.9897H112.327V37.4847H124.808V24.9897Z" fill="#FFFDFB"/>
<path d="M112.327 24.9897H99.8462V37.4847H112.327V24.9897Z" fill="#FFFDFB"/>
<path d="M99.8462 24.9897H87.3655V37.4847H99.8462V24.9897Z" fill="#FFFDFB"/>
<path d="M87.3655 24.9897H74.8845V37.4847H87.3655V24.9897Z" fill="#FFFDFB"/>
<path d="M74.8845 24.9897H62.4038V37.4847H74.8845V24.9897Z" fill="#FFFDFB"/>
<path d="M62.4038 24.9897H49.9231V37.4847H62.4038V24.9897Z" fill="#FFFDFB"/>
<path d="M49.9231 24.9897H37.4424V37.4847H49.9231V24.9897Z" fill="#FFFDFB"/>
<path d="M499.231 24.9897H486.75V37.4847H499.231V24.9897Z" fill="#FFFDFB"/>
<path d="M486.75 24.9897H474.269V37.4847H486.75V24.9897Z" fill="#FFFDFB"/>
<path d="M474.269 24.9897H461.788V37.4847H474.269V24.9897Z" fill="#FFFDFB"/>
<path d="M574.115 24.9897H561.635V37.4847H574.115V24.9897Z" fill="#FFFDFB"/>
<path d="M561.635 24.9897H549.154V37.4847H561.635V24.9897Z" fill="#FFFDFB"/>
<path d="M549.154 24.9897H536.673V37.4847H549.154V24.9897Z" fill="#FFFDFB"/>
<path d="M599.077 24.9897H586.596V37.4847H599.077V24.9897Z" fill="#FFFDFB"/>
<path d="M586.596 24.9897H574.115V37.4847H586.596V24.9897Z" fill="#FFFDFB"/>
<path d="M262.096 24.9897H249.615V37.4847H262.096V24.9897Z" fill="#FFFDFB"/>
<path d="M249.615 24.9897H237.135V37.4847H249.615V24.9897Z" fill="#FFFDFB"/>
<path d="M237.135 24.9897H224.654V37.4847H237.135V24.9897Z" fill="#FFFDFB"/>
<path d="M224.654 24.9897H212.173V37.4847H224.654V24.9897Z" fill="#FFFDFB"/>
<path d="M536.673 24.9897H524.192V37.4847H536.673V24.9897Z" fill="#FFFDFB"/>
<path d="M524.192 24.9897H511.711V37.4847H524.192V24.9897Z" fill="#FFFDFB"/>
<path d="M624.038 74.9697H611.558V87.4646H624.038V74.9697Z" fill="#F6BCC2"/>
<path d="M611.558 74.9697H599.077V87.4646H611.558V74.9697Z" fill="#F6BCC2"/>
<path d="M511.711 74.9697H499.231V87.4646H511.711V74.9697Z" fill="#F6BCC2"/>
<path d="M461.788 74.9697H449.308V87.4646H461.788V74.9697Z" fill="#F6BCC2"/>
<path d="M449.308 74.9697H436.827V87.4646H449.308V74.9697Z" fill="#F6BCC2"/>
<path d="M436.827 74.9697H424.346V87.4646H436.827V74.9697Z" fill="#F6BCC2"/>
<path d="M424.346 74.9697H411.865V87.4646H424.346V74.9697Z" fill="#F6BCC2"/>
<path d="M411.865 74.9697H399.385V87.4646H411.865V74.9697Z" fill="#F6BCC2"/>
<path d="M399.385 74.9697H386.904V87.4646H399.385V74.9697Z" fill="#F6BCC2"/>
<path d="M386.904 74.9697H374.423V87.4646H386.904V74.9697Z" fill="#F6BCC2"/>
<path d="M374.423 74.9697H361.942V87.4646H374.423V74.9697Z" fill="#F6BCC2"/>
<path d="M361.942 74.9697H349.461V87.4646H361.942V74.9697Z" fill="#F6BCC2"/>
<path d="M349.461 74.9697H336.981V87.4646H349.461V74.9697Z" fill="#F6BCC2"/>
<path d="M336.981 74.9697H324.5V87.4646H336.981V74.9697Z" fill="#F6BCC2"/>
<path d="M324.5 74.9697H312.019V87.4646H324.5V74.9697Z" fill="#F6BCC2"/>
<path d="M312.019 74.9697H299.539V87.4646H312.019V74.9697Z" fill="#F6BCC2"/>
<path d="M299.539 74.9697H287.058V87.4646H299.539V74.9697Z" fill="#F6BCC2"/>
<path d="M287.058 74.9697H274.577V87.4646H287.058V74.9697Z" fill="#F6BCC2"/>
<path d="M274.577 74.9697H262.096V87.4646H274.577V74.9697Z" fill="#F6BCC2"/>
<path d="M212.173 74.9697H199.692V87.4646H212.173V74.9697Z" fill="#F6BCC2"/>
<path d="M199.692 74.9697H187.211V87.4646H199.692V74.9697Z" fill="#F6BCC2"/>
<path d="M187.211 74.9697H174.731V87.4646H187.211V74.9697Z" fill="#F6BCC2"/>
<path d="M174.731 74.9697H162.25V87.4646H174.731V74.9697Z" fill="#F6BCC2"/>
<path d="M162.25 74.9697H149.769V87.4646H162.25V74.9697Z" fill="#F6BCC2"/>
<path d="M149.769 74.9697H137.289V87.4646H149.769V74.9697Z" fill="#F6BCC2"/>
<path d="M137.289 74.9697H124.808V87.4646H137.289V74.9697Z" fill="#F6BCC2"/>
<path d="M124.808 74.9697H112.327V87.4646H124.808V74.9697Z" fill="#F6BCC2"/>
<path d="M112.327 74.9697H99.8462V87.4646H112.327V74.9697Z" fill="#F6BCC2"/>
<path d="M99.8462 74.9697H87.3655V87.4646H99.8462V74.9697Z" fill="#F6BCC2"/>
<path d="M87.3655 74.9697H74.8845V87.4646H87.3655V74.9697Z" fill="#F6BCC2"/>
<path d="M74.8845 74.9697H62.4038V87.4646H74.8845V74.9697Z" fill="#F6BCC2"/>
<path d="M62.4038 74.9697H49.9231V87.4646H62.4038V74.9697Z" fill="#F6BCC2"/>
<path d="M49.9231 74.9697H37.4424V87.4646H49.9231V74.9697Z" fill="#F6BCC2"/>
<path d="M37.4424 74.9697H24.9614V87.4646H37.4424V74.9697Z" fill="#F6BCC2"/>
<path d="M636.519 62.4747H624.039L624.038 74.9697L636.519 74.9696V62.4747Z" fill="#F6BCC2"/>
<path d="M624.039 62.4747H611.558V74.9697H624.038L624.039 62.4747Z" fill="#F6BCC2"/>
<path d="M611.558 62.4747H599.077V74.9697H611.558V62.4747Z" fill="#F6BCC2"/>
<path d="M511.711 62.4747H499.231V74.9697H511.711V62.4747Z" fill="#F6BCC2"/>
<path d="M461.788 62.4747H449.308V74.9697H461.788V62.4747Z" fill="#F6BCC2"/>
<path d="M449.308 62.4747H436.827V74.9697H449.308V62.4747Z" fill="#F6BCC2"/>
<path d="M436.827 62.4747H424.346V74.9697H436.827V62.4747Z" fill="#F6BCC2"/>
<path d="M424.346 62.4747H411.865V74.9697H424.346V62.4747Z" fill="#F6BCC2"/>
<path d="M411.865 62.4747H399.385V74.9697H411.865V62.4747Z" fill="#F6BCC2"/>
<path d="M399.385 62.4747H386.904V74.9697H399.385V62.4747Z" fill="#F6BCC2"/>
<path d="M386.904 62.4747H374.423V74.9697H386.904V62.4747Z" fill="#F6BCC2"/>
<path d="M374.423 62.4747H361.942V74.9697H374.423V62.4747Z" fill="#F6BCC2"/>
<path d="M361.942 62.4747H349.461V74.9697H361.942V62.4747Z" fill="#F6BCC2"/>
<path d="M349.461 62.4747H336.981V74.9697H349.461V62.4747Z" fill="#F6BCC2"/>
<path d="M336.981 62.4747H324.5V74.9697H336.981V62.4747Z" fill="#F6BCC2"/>
<path d="M324.5 62.4747H312.019V74.9697H324.5V62.4747Z" fill="#F6BCC2"/>
<path d="M312.019 62.4747H299.539V74.9697H312.019V62.4747Z" fill="#F6BCC2"/>
<path d="M299.539 62.4747H287.058V74.9697H299.539V62.4747Z" fill="#F6BCC2"/>
<path d="M287.058 62.4747H274.577V74.9697H287.058V62.4747Z" fill="#F6BCC2"/>
<path d="M274.577 62.4747H262.096V74.9697H274.577V62.4747Z" fill="#F6BCC2"/>
<path d="M212.173 62.4747H199.692V74.9697H212.173V62.4747Z" fill="#F6BCC2"/>
<path d="M199.692 62.4747H187.211V74.9697H199.692V62.4747Z" fill="#F6BCC2"/>
<path d="M187.211 62.4747H174.731V74.9697H187.211V62.4747Z" fill="#F6BCC2"/>
<path d="M174.731 62.4747H162.25V74.9697H174.731V62.4747Z" fill="#F6BCC2"/>
<path d="M162.25 62.4747H149.769V74.9697H162.25V62.4747Z" fill="#F6BCC2"/>
<path d="M149.769 62.4747H137.289V74.9697H149.769V62.4747Z" fill="#F6BCC2"/>
<path d="M137.289 62.4747H124.808V74.9697H137.289V62.4747Z" fill="#F6BCC2"/>
<path d="M124.808 62.4747H112.327V74.9697H124.808V62.4747Z" fill="#F6BCC2"/>
<path d="M112.327 62.4747H99.8462V74.9697H112.327V62.4747Z" fill="#F6BCC2"/>
<path d="M99.8462 62.4747H87.3655V74.9697H99.8462V62.4747Z" fill="#F6BCC2"/>
<path d="M87.3655 62.4747H74.8845V74.9697H87.3655V62.4747Z" fill="#F6BCC2"/>
<path d="M74.8845 62.4747H62.4038V74.9697H74.8845V62.4747Z" fill="#F6BCC2"/>
<path d="M62.4038 62.4747H49.9231V74.9697H62.4038V62.4747Z" fill="#F6BCC2"/>
<path d="M49.9231 62.4747H37.4424V74.9697H49.9231V62.4747Z" fill="#F6BCC2"/>
<path d="M37.4424 62.4747H24.9614V74.9697H37.4424V62.4747Z" fill="#F6BCC2"/>
<path d="M24.9614 62.4747H12.4807V74.9696L24.9614 74.9697V62.4747Z" fill="#F6BCC2"/>
<path d="M636.519 49.9797H624.039V62.4747H636.519V49.9797Z" fill="#F6BCC2"/>
<path d="M624.039 49.9797H611.558V62.4747H624.039V49.9797Z" fill="#F6BCC2"/>
<path d="M611.558 49.9797H599.077V62.4747H611.558V49.9797Z" fill="#F6BCC2"/>
<path d="M511.711 49.9797H499.231V62.4747H511.711V49.9797Z" fill="#F6BCC2"/>
<path d="M461.788 49.9797H449.308V62.4747H461.788V49.9797Z" fill="#F6BCC2"/>
<path d="M449.308 49.9797H436.827V62.4747H449.308V49.9797Z" fill="#F6BCC2"/>
<path d="M436.827 49.9797H424.346V62.4747H436.827V49.9797Z" fill="#F6BCC2"/>
<path d="M424.346 49.9797H411.865V62.4747H424.346V49.9797Z" fill="#F6BCC2"/>
<path d="M411.865 49.9797H399.385V62.4747H411.865V49.9797Z" fill="#F6BCC2"/>
<path d="M399.385 49.9797H386.904V62.4747H399.385V49.9797Z" fill="#F6BCC2"/>
<path d="M386.904 49.9797H374.423V62.4747H386.904V49.9797Z" fill="#F6BCC2"/>
<path d="M374.423 49.9797H361.942V62.4747H374.423V49.9797Z" fill="#F6BCC2"/>
<path d="M361.942 49.9797H349.461V62.4747H361.942V49.9797Z" fill="#F6BCC2"/>
<path d="M349.461 49.9797H336.981V62.4747H349.461V49.9797Z" fill="#F6BCC2"/>
<path d="M336.981 49.9797H324.5V62.4747H336.981V49.9797Z" fill="#F6BCC2"/>
<path d="M324.5 49.9797H312.019V62.4747H324.5V49.9797Z" fill="#F6BCC2"/>
<path d="M312.019 49.9797H299.539V62.4747H312.019V49.9797Z" fill="#F6BCC2"/>
<path d="M299.539 49.9797H287.058V62.4747H299.539V49.9797Z" fill="#F6BCC2"/>
<path d="M287.058 49.9797H274.577V62.4747H287.058V49.9797Z" fill="#F6BCC2"/>
<path d="M274.577 49.9797H262.096V62.4747H274.577V49.9797Z" fill="#F6BCC2"/>
<path d="M212.173 49.9797H199.692V62.4747H212.173V49.9797Z" fill="#F6BCC2"/>
<path d="M199.692 49.9797H187.211V62.4747H199.692V49.9797Z" fill="#F6BCC2"/>
<path d="M187.211 49.9797H174.731V62.4747H187.211V49.9797Z" fill="#F6BCC2"/>
<path d="M174.731 49.9797H162.25V62.4747H174.731V49.9797Z" fill="#F6BCC2"/>
<path d="M162.25 49.9797H149.769V62.4747H162.25V49.9797Z" fill="#F6BCC2"/>
<path d="M149.769 49.9797H137.289V62.4747H149.769V49.9797Z" fill="#F6BCC2"/>
<path d="M137.289 49.9797H124.808V62.4747H137.289V49.9797Z" fill="#F6BCC2"/>
<path d="M124.808 49.9797H112.327V62.4747H124.808V49.9797Z" fill="#F6BCC2"/>
<path d="M112.327 49.9797H99.8462V62.4747H112.327V49.9797Z" fill="#F6BCC2"/>
<path d="M99.8462 49.9797H87.3655V62.4747H99.8462V49.9797Z" fill="#F6BCC2"/>
<path d="M87.3655 49.9797H74.8845V62.4747H87.3655V49.9797Z" fill="#F6BCC2"/>
<path d="M74.8845 49.9797H62.4038V62.4747H74.8845V49.9797Z" fill="#F6BCC2"/>
<path d="M62.4038 49.9797H49.9231V62.4747H62.4038V49.9797Z" fill="#F6BCC2"/>
<path d="M49.9231 49.9797H37.4424V62.4747H49.9231V49.9797Z" fill="#F6BCC2"/>
<path d="M37.4424 49.9797H24.9614V62.4747H37.4424V49.9797Z" fill="#F6BCC2"/>
<path d="M24.9614 49.9797H12.4807V62.4747H24.9614V49.9797Z" fill="#F6BCC2"/>
<path d="M636.519 37.4848H624.039V49.9797H636.519V37.4848Z" fill="#F6BCC2"/>
<path d="M611.558 37.4848H599.077V49.9797H611.558L611.558 37.4848Z" fill="#F6BCC2"/>
<path d="M511.711 37.4848H499.231V49.9797H511.711V37.4848Z" fill="#F6BCC2"/>
<path d="M461.788 37.4848H449.308V49.9797H461.788V37.4848Z" fill="#F6BCC2"/>
<path d="M449.308 37.4848H436.827V49.9797H449.308V37.4848Z" fill="#F6BCC2"/>
<path d="M436.827 37.4848H424.346V49.9797H436.827V37.4848Z" fill="#F6BCC2"/>
<path d="M424.346 37.4848H411.865V49.9797H424.346V37.4848Z" fill="#F6BCC2"/>
<path d="M411.865 37.4848H399.385V49.9797H411.865V37.4848Z" fill="#F6BCC2"/>
<path d="M399.385 37.4848H386.904V49.9797H399.385V37.4848Z" fill="#F6BCC2"/>
<path d="M386.904 37.4848H374.423V49.9797H386.904V37.4848Z" fill="#F6BCC2"/>
<path d="M374.423 37.4848H361.942V49.9797H374.423V37.4848Z" fill="#F6BCC2"/>
<path d="M361.942 37.4848H349.461V49.9797H361.942V37.4848Z" fill="#F6BCC2"/>
<path d="M349.461 37.4848H336.981V49.9797H349.461V37.4848Z" fill="#F6BCC2"/>
<path d="M336.981 37.4848H324.5V49.9797H336.981V37.4848Z" fill="#F6BCC2"/>
<path d="M324.5 37.4848H312.019V49.9797H324.5V37.4848Z" fill="#F6BCC2"/>
<path d="M312.019 37.4848H299.539V49.9797H312.019V37.4848Z" fill="#F6BCC2"/>
<path d="M299.539 37.4848H287.058V49.9797H299.539V37.4848Z" fill="#F6BCC2"/>
<path d="M287.058 37.4848H274.577V49.9797H287.058V37.4848Z" fill="#F6BCC2"/>
<path d="M274.577 37.4848H262.096V49.9797H274.577V37.4848Z" fill="#F6BCC2"/>
<path d="M212.173 37.4848H199.692V49.9797H212.173V37.4848Z" fill="#F6BCC2"/>
<path d="M199.692 37.4848H187.211V49.9797H199.692V37.4848Z" fill="#F6BCC2"/>
<path d="M187.211 37.4848H174.731V49.9797H187.211V37.4848Z" fill="#F6BCC2"/>
<path d="M174.731 37.4848H162.25V49.9797H174.731V37.4848Z" fill="#F6BCC2"/>
<path d="M162.25 37.4848H149.769V49.9797H162.25V37.4848Z" fill="#F6BCC2"/>
<path d="M149.769 37.4848H137.289V49.9797H149.769V37.4848Z" fill="#F6BCC2"/>
<path d="M137.289 37.4848H124.808V49.9797H137.289V37.4848Z" fill="#F6BCC2"/>
<path d="M124.808 37.4848H112.327V49.9797H124.808V37.4848Z" fill="#F6BCC2"/>
<path d="M112.327 37.4848H99.8462V49.9797H112.327V37.4848Z" fill="#F6BCC2"/>
<path d="M99.8462 37.4848H87.3655V49.9797H99.8462V37.4848Z" fill="#F6BCC2"/>
<path d="M87.3655 37.4848H74.8845V49.9797H87.3655V37.4848Z" fill="#F6BCC2"/>
<path d="M74.8845 37.4848H62.4038V49.9797H74.8845V37.4848Z" fill="#F6BCC2"/>
<path d="M62.4038 37.4848H49.9231V49.9797H62.4038V37.4848Z" fill="#F6BCC2"/>
<path d="M49.9231 37.4848H37.4424V49.9797H49.9231V37.4848Z" fill="#F6BCC2"/>
<path d="M37.4424 37.4848H24.9614V49.9797H37.4424V37.4848Z" fill="#F6BCC2"/>
<path d="M24.9614 37.4848H12.4807V49.9797H24.9614V37.4848Z" fill="#F6BCC2"/>
<path d="M636.519 24.9898H624.039V37.4848H636.519V24.9898Z" fill="#F6BCC2"/>
<path d="M624.039 24.9898H611.558L611.558 37.4848H624.039V24.9898Z" fill="#F6BCC2"/>
<path d="M37.4422 24.9898H24.9614V37.4848H37.4424L37.4422 24.9898Z" fill="#F6BCC2"/>
<path d="M24.9614 24.9898H12.4807V37.4848H24.9614V24.9898Z" fill="#F6BCC2"/>
<path d="M624.038 12.4949H611.558V24.9898H624.039L624.038 12.4949Z" fill="#F6BCC2"/>
<path d="M611.558 12.4949H599.077V24.9898L611.558 24.9898V12.4949Z" fill="#F6BCC2"/>
<path d="M511.711 12.4949H499.231V24.9898H511.711V12.4949Z" fill="#F6BCC2"/>
<path d="M461.788 12.4949H449.308V24.9898H461.788V12.4949Z" fill="#F6BCC2"/>
<path d="M449.308 12.4949H436.827V24.9898H449.308V12.4949Z" fill="#F6BCC2"/>
<path d="M436.827 12.4949H424.346V24.9898H436.827V12.4949Z" fill="#F6BCC2"/>
<path d="M424.346 12.4949H411.865V24.9898H424.346V12.4949Z" fill="#F6BCC2"/>
<path d="M411.865 12.4949H399.385V24.9898H411.865V12.4949Z" fill="#F6BCC2"/>
<path d="M399.385 12.4949H386.904V24.9898H399.385V12.4949Z" fill="#F6BCC2"/>
<path d="M386.904 12.4949H374.423V24.9898H386.904V12.4949Z" fill="#F6BCC2"/>
<path d="M374.423 12.4949H361.942V24.9898H374.423V12.4949Z" fill="#F6BCC2"/>
<path d="M361.942 12.4949H349.461V24.9898H361.942V12.4949Z" fill="#F6BCC2"/>
<path d="M349.461 12.4949H336.981V24.9898H349.461V12.4949Z" fill="#F6BCC2"/>
<path d="M336.981 12.4949H324.5V24.9898H336.981V12.4949Z" fill="#F6BCC2"/>
<path d="M324.5 12.4949H312.019V24.9898H324.5V12.4949Z" fill="#F6BCC2"/>
<path d="M312.019 12.4949H299.539V24.9898H312.019V12.4949Z" fill="#F6BCC2"/>
<path d="M299.539 12.4949H287.058V24.9898H299.539V12.4949Z" fill="#F6BCC2"/>
<path d="M287.058 12.4949H274.577V24.9898H287.058V12.4949Z" fill="#F6BCC2"/>
<path d="M274.577 12.4949H262.096V24.9898H274.577V12.4949Z" fill="#F6BCC2"/>
<path d="M212.173 12.4949H199.692V24.9898H212.173V12.4949Z" fill="#F6BCC2"/>
<path d="M199.692 12.4949H187.211V24.9898H199.692V12.4949Z" fill="#F6BCC2"/>
<path d="M187.211 12.4949H174.731V24.9898H187.211V12.4949Z" fill="#F6BCC2"/>
<path d="M174.731 12.4949H162.25V24.9898H174.731V12.4949Z" fill="#F6BCC2"/>
<path d="M162.25 12.4949H149.769V24.9898H162.25V12.4949Z" fill="#F6BCC2"/>
<path d="M149.769 12.4949H137.289V24.9898H149.769V12.4949Z" fill="#F6BCC2"/>
<path d="M137.289 12.4949H124.808V24.9898H137.289V12.4949Z" fill="#F6BCC2"/>
<path d="M124.808 12.4949H112.327V24.9898H124.808V12.4949Z" fill="#F6BCC2"/>
<path d="M112.327 12.4949H99.8462V24.9898H112.327V12.4949Z" fill="#F6BCC2"/>
<path d="M99.8462 12.4949H87.3655V24.9898H99.8462V12.4949Z" fill="#F6BCC2"/>
<path d="M87.3655 12.4949H74.8845V24.9898H87.3655V12.4949Z" fill="#F6BCC2"/>
<path d="M74.8845 12.4949H62.4038V24.9898H74.8845V12.4949Z" fill="#F6BCC2"/>
<path d="M62.4038 12.4949H49.9231V24.9898H62.4038V12.4949Z" fill="#F6BCC2"/>
<path d="M49.9231 12.4949H37.4424L37.4422 24.9898L49.9231 24.9898V12.4949Z" fill="#F6BCC2"/>
<path d="M37.4424 12.4949H24.9614V24.9898H37.4422L37.4424 12.4949Z" fill="#F6BCC2"/>
<path d="M499.231 74.9697H486.75V87.4646H499.231V74.9697Z" fill="#F6BCC2"/>
<path d="M486.75 74.9697H474.269V87.4646H486.75V74.9697Z" fill="#F6BCC2"/>
<path d="M474.269 74.9697H461.788V87.4646H474.269V74.9697Z" fill="#F6BCC2"/>
<path d="M499.231 62.4747H486.75V74.9697H499.231V62.4747Z" fill="#F6BCC2"/>
<path d="M486.75 62.4747H474.269V74.9697H486.75V62.4747Z" fill="#F6BCC2"/>
<path d="M474.269 62.4747H461.788V74.9697H474.269V62.4747Z" fill="#F6BCC2"/>
<path d="M499.231 49.9797H486.75V62.4747H499.231V49.9797Z" fill="#F6BCC2"/>
<path d="M486.75 49.9797H474.269V62.4747H486.75V49.9797Z" fill="#F6BCC2"/>
<path d="M474.269 49.9797H461.788V62.4747H474.269V49.9797Z" fill="#F6BCC2"/>
<path d="M499.231 37.4848H486.75V49.9797H499.231V37.4848Z" fill="#F6BCC2"/>
<path d="M486.75 37.4848H474.269V49.9797H486.75V37.4848Z" fill="#F6BCC2"/>
<path d="M474.269 37.4848H461.788V49.9797H474.269V37.4848Z" fill="#F6BCC2"/>
<path d="M499.231 12.4949H486.75V24.9898H499.231V12.4949Z" fill="#F6BCC2"/>
<path d="M486.75 12.4949H474.269V24.9898H486.75V12.4949Z" fill="#F6BCC2"/>
<path d="M474.269 12.4949H461.788V24.9898H474.269V12.4949Z" fill="#F6BCC2"/>
<path d="M574.115 74.9697H561.635V87.4646H574.115V74.9697Z" fill="#F6BCC2"/>
<path d="M574.115 62.4747H561.635V74.9697H574.115V62.4747Z" fill="#F6BCC2"/>
<path d="M574.115 49.9797H561.635V62.4747H574.115V49.9797Z" fill="#F6BCC2"/>
<path d="M574.115 37.4848H561.635V49.9797H574.115V37.4848Z" fill="#F6BCC2"/>
<path d="M574.115 12.4949H561.635V24.9898H574.115V12.4949Z" fill="#F6BCC2"/>
<path d="M561.635 74.9697H549.154V87.4646H561.635V74.9697Z" fill="#F6BCC2"/>
<path d="M549.154 74.9697H536.673V87.4646H549.154V74.9697Z" fill="#F6BCC2"/>
<path d="M561.635 62.4747H549.154V74.9697H561.635V62.4747Z" fill="#F6BCC2"/>
<path d="M549.154 62.4747H536.673V74.9697H549.154V62.4747Z" fill="#F6BCC2"/>
<path d="M561.635 49.9797H549.154V62.4747H561.635V49.9797Z" fill="#F6BCC2"/>
<path d="M549.154 49.9797H536.673V62.4747H549.154V49.9797Z" fill="#F6BCC2"/>
<path d="M561.635 37.4848H549.154V49.9797H561.635V37.4848Z" fill="#F6BCC2"/>
<path d="M549.154 37.4848H536.673V49.9797H549.154V37.4848Z" fill="#F6BCC2"/>
<path d="M561.635 12.4949H549.154V24.9898H561.635V12.4949Z" fill="#F6BCC2"/>
<path d="M549.154 12.4949H536.673V24.9898H549.154V12.4949Z" fill="#F6BCC2"/>
<path d="M599.077 74.9697H586.596V87.4646H599.077V74.9697Z" fill="#F6BCC2"/>
<path d="M586.596 74.9697H574.115V87.4646H586.596V74.9697Z" fill="#F6BCC2"/>
<path d="M599.077 62.4747H586.596V74.9697H599.077V62.4747Z" fill="#F6BCC2"/>
<path d="M586.596 62.4747H574.115V74.9697H586.596V62.4747Z" fill="#F6BCC2"/>
<path d="M599.077 49.9797H586.596V62.4747H599.077V49.9797Z" fill="#F6BCC2"/>
<path d="M586.596 49.9797H574.115V62.4747H586.596V49.9797Z" fill="#F6BCC2"/>
<path d="M599.077 37.4848H586.596V49.9797H599.077V37.4848Z" fill="#F6BCC2"/>
<path d="M586.596 37.4848H574.115V49.9797H586.596V37.4848Z" fill="#F6BCC2"/>
<path d="M599.077 12.4949H586.596V24.9898H599.077V12.4949Z" fill="#F6BCC2"/>
<path d="M586.596 12.4949H574.115V24.9898H586.596V12.4949Z" fill="#F6BCC2"/>
<path d="M262.096 74.9697H249.615V87.4646H262.096V74.9697Z" fill="#F6BCC2"/>
<path d="M249.615 74.9697H237.135V87.4646H249.615V74.9697Z" fill="#F6BCC2"/>
<path d="M237.135 74.9697H224.654V87.4646H237.135V74.9697Z" fill="#F6BCC2"/>
<path d="M224.654 74.9697H212.173V87.4646H224.654V74.9697Z" fill="#F6BCC2"/>
<path d="M262.096 62.4747H249.615V74.9697H262.096V62.4747Z" fill="#F6BCC2"/>
<path d="M249.615 62.4747H237.135V74.9697H249.615V62.4747Z" fill="#F6BCC2"/>
<path d="M237.135 62.4747H224.654V74.9697H237.135V62.4747Z" fill="#F6BCC2"/>
<path d="M224.654 62.4747H212.173V74.9697H224.654V62.4747Z" fill="#F6BCC2"/>
<path d="M262.096 49.9797H249.615V62.4747H262.096V49.9797Z" fill="#F6BCC2"/>
<path d="M249.615 49.9797H237.135V62.4747H249.615V49.9797Z" fill="#F6BCC2"/>
<path d="M237.135 49.9797H224.654V62.4747H237.135V49.9797Z" fill="#F6BCC2"/>
<path d="M224.654 49.9797H212.173V62.4747H224.654V49.9797Z" fill="#F6BCC2"/>
<path d="M262.096 37.4848H249.615V49.9797H262.096V37.4848Z" fill="#F6BCC2"/>
<path d="M249.615 37.4848H237.135V49.9797H249.615V37.4848Z" fill="#F6BCC2"/>
<path d="M237.135 37.4848H224.654V49.9797H237.135V37.4848Z" fill="#F6BCC2"/>
<path d="M224.654 37.4848H212.173V49.9797H224.654V37.4848Z" fill="#F6BCC2"/>
<path d="M262.096 12.4949H249.615V24.9898H262.096V12.4949Z" fill="#F6BCC2"/>
<path d="M249.615 12.4949H237.135V24.9898H249.615V12.4949Z" fill="#F6BCC2"/>
<path d="M237.135 12.4949H224.654V24.9898H237.135V12.4949Z" fill="#F6BCC2"/>
<path d="M224.654 12.4949H212.173V24.9898H224.654V12.4949Z" fill="#F6BCC2"/>
<path d="M536.673 74.9697H524.192V87.4646H536.673V74.9697Z" fill="#F6BCC2"/>
<path d="M536.673 62.4747H524.192V74.9697H536.673V62.4747Z" fill="#F6BCC2"/>
<path d="M536.673 49.9797H524.192V62.4747H536.673V49.9797Z" fill="#F6BCC2"/>
<path d="M536.673 37.4848H524.192V49.9797H536.673V37.4848Z" fill="#F6BCC2"/>
<path d="M536.673 12.4949H524.192V24.9898H536.673V12.4949Z" fill="#F6BCC2"/>
<path d="M524.192 74.9697H511.711V87.4646H524.192V74.9697Z" fill="#F6BCC2"/>
<path d="M524.192 62.4747H511.711V74.9697H524.192V62.4747Z" fill="#F6BCC2"/>
<path d="M524.192 49.9797H511.711V62.4747H524.192V49.9797Z" fill="#F6BCC2"/>
<path d="M524.192 37.4848H511.711V49.9797H524.192V37.4848Z" fill="#F6BCC2"/>
<path d="M524.192 12.4949H511.711V24.9898H524.192V12.4949Z" fill="#F6BCC2"/>
<path d="M624.038 87.4647H611.558V99.9596H624.038V87.4647Z" fill="#813E3F"/>
<path d="M611.558 87.4647H599.077V99.9596H611.558V87.4647Z" fill="#813E3F"/>
<path d="M511.711 87.4647H499.231V99.9596H511.711V87.4647Z" fill="#813E3F"/>
<path d="M461.788 87.4647H449.308V99.9596H461.788V87.4647Z" fill="#813E3F"/>
<path d="M449.308 87.4647H436.827V99.9596H449.308V87.4647Z" fill="#813E3F"/>
<path d="M436.827 87.4647H424.346V99.9596H436.827V87.4647Z" fill="#813E3F"/>
<path d="M424.346 87.4647H411.865V99.9596H424.346V87.4647Z" fill="#813E3F"/>
<path d="M411.865 87.4647H399.385V99.9596H411.865V87.4647Z" fill="#813E3F"/>
<path d="M399.385 87.4647H386.904V99.9596H399.385V87.4647Z" fill="#813E3F"/>
<path d="M386.904 87.4647H374.423V99.9596H386.904V87.4647Z" fill="#813E3F"/>
<path d="M374.423 87.4647H361.942V99.9596H374.423V87.4647Z" fill="#813E3F"/>
<path d="M361.942 87.4647H349.461V99.9596H361.942V87.4647Z" fill="#813E3F"/>
<path d="M349.461 87.4647H336.981V99.9596H349.461V87.4647Z" fill="#813E3F"/>
<path d="M336.981 87.4647H324.5V99.9596H336.981V87.4647Z" fill="#813E3F"/>
<path d="M324.5 87.4647H312.019V99.9596H324.5V87.4647Z" fill="#813E3F"/>
<path d="M312.019 87.4647H299.539V99.9596H312.019V87.4647Z" fill="#813E3F"/>
<path d="M299.539 87.4647H287.058V99.9596H299.539V87.4647Z" fill="#813E3F"/>
<path d="M287.058 87.4647H274.577V99.9596H287.058V87.4647Z" fill="#813E3F"/>
<path d="M274.577 87.4647H262.096V99.9596H274.577V87.4647Z" fill="#813E3F"/>
<path d="M212.173 87.4647H199.692V99.9596H212.173V87.4647Z" fill="#813E3F"/>
<path d="M199.692 87.4647H187.211V99.9596H199.692V87.4647Z" fill="#813E3F"/>
<path d="M187.211 87.4647H174.731V99.9596H187.211V87.4647Z" fill="#813E3F"/>
<path d="M174.731 87.4647H162.25V99.9596H174.731V87.4647Z" fill="#813E3F"/>
<path d="M162.25 87.4647H149.769V99.9596H162.25V87.4647Z" fill="#813E3F"/>
<path d="M149.769 87.4647H137.289V99.9596H149.769V87.4647Z" fill="#813E3F"/>
<path d="M137.289 87.4647H124.808V99.9596H137.289V87.4647Z" fill="#813E3F"/>
<path d="M124.808 87.4647H112.327V99.9596H124.808V87.4647Z" fill="#813E3F"/>
<path d="M112.327 87.4647H99.8462V99.9596H112.327V87.4647Z" fill="#813E3F"/>
<path d="M99.8462 87.4647H87.3655V99.9596H99.8462V87.4647Z" fill="#813E3F"/>
<path d="M87.3655 87.4647H74.8845V99.9596H87.3655V87.4647Z" fill="#813E3F"/>
<path d="M74.8845 87.4647H62.4038V99.9596H74.8845V87.4647Z" fill="#813E3F"/>
<path d="M62.4038 87.4647H49.9231V99.9596H62.4038V87.4647Z" fill="#813E3F"/>
<path d="M49.9231 87.4647H37.4424V99.9596H49.9231V87.4647Z" fill="#813E3F"/>
<path d="M37.4424 87.4647H24.9614V99.9596H37.4424V87.4647Z" fill="#813E3F"/>
<path d="M636.519 74.9697H624.039L624.038 87.4647L636.519 87.4647V74.9697Z" fill="#813E3F"/>
<path d="M24.9615 74.9697H12.4807V87.4647L24.9614 87.4647L24.9615 74.9697Z" fill="#813E3F"/>
<path d="M649 62.4747H636.519L636.519 74.9697L649 74.9697V62.4747Z" fill="#813E3F"/>
<path d="M12.4808 62.4747H0V74.9697L12.4807 74.9697L12.4808 62.4747Z" fill="#813E3F"/>
<path d="M649 49.9798H636.519V62.4747H649V49.9798Z" fill="#813E3F"/>
<path d="M12.4808 49.9798H0V62.4747H12.4808V49.9798Z" fill="#813E3F"/>
<path d="M649 37.4849H636.519V49.9798H649V37.4849Z" fill="#813E3F"/>
<path d="M12.4808 37.4849H0V49.9798H12.4808V37.4849Z" fill="#813E3F"/>
<path d="M649 24.9899H636.519V37.4849H649V24.9899Z" fill="#813E3F"/>
<path d="M12.4808 24.9899H0V37.4849H12.4808V24.9899Z" fill="#813E3F"/>
<path d="M636.519 12.4949H624.039V24.9899L636.519 24.9899L636.519 12.4949Z" fill="#813E3F"/>
<path d="M24.9615 12.4949H12.4807L12.4808 24.9899L24.9615 24.9899V12.4949Z" fill="#813E3F"/>
<path d="M624.038 0H611.558V12.4949L624.039 12.4949L624.038 0Z" fill="#813E3F"/>
<path d="M611.558 0H599.077V12.4949H611.558V0Z" fill="#813E3F"/>
<path d="M511.711 0H499.231V12.4949H511.711V0Z" fill="#813E3F"/>
<path d="M461.788 0H449.308V12.4949H461.788V0Z" fill="#813E3F"/>
<path d="M449.308 0H436.827V12.4949H449.308V0Z" fill="#813E3F"/>
<path d="M436.827 0H424.346V12.4949H436.827V0Z" fill="#813E3F"/>
<path d="M499.231 87.4647H486.75V99.9596H499.231V87.4647Z" fill="#813E3F"/>
<path d="M486.75 87.4647H474.269V99.9596H486.75V87.4647Z" fill="#813E3F"/>
<path d="M474.269 87.4647H461.788V99.9596H474.269V87.4647Z" fill="#813E3F"/>
<path d="M499.231 0H486.75V12.4949H499.231V0Z" fill="#813E3F"/>
<path d="M486.75 0H474.269V12.4949H486.75V0Z" fill="#813E3F"/>
<path d="M574.115 87.4647H561.635V99.9596H574.115V87.4647Z" fill="#813E3F"/>
<path d="M574.115 0H561.635V12.4949H574.115V0Z" fill="#813E3F"/>
<path d="M561.635 87.4647H549.154V99.9596H561.635V87.4647Z" fill="#813E3F"/>
<path d="M549.154 87.4647H536.673V99.9596H549.154V87.4647Z" fill="#813E3F"/>
<path d="M561.635 0H549.154V12.4949H561.635V0Z" fill="#813E3F"/>
<path d="M549.154 0H536.673V12.4949H549.154V0Z" fill="#813E3F"/>
<path d="M599.077 87.4647H586.596V99.9596H599.077V87.4647Z" fill="#813E3F"/>
<path d="M586.596 87.4647H574.115V99.9596H586.596V87.4647Z" fill="#813E3F"/>
<path d="M599.077 0H586.596V12.4949H599.077V0Z" fill="#813E3F"/>
<path d="M586.596 0H574.115V12.4949H586.596V0Z" fill="#813E3F"/>
<path d="M474.269 0H461.788V12.4949H474.269V0Z" fill="#813E3F"/>
<path d="M424.346 0H411.865V12.4949H424.346V0Z" fill="#813E3F"/>
<path d="M411.865 0H399.385V12.4949H411.865V0Z" fill="#813E3F"/>
<path d="M399.385 0H386.904V12.4949H399.385V0Z" fill="#813E3F"/>
<path d="M386.904 0H374.423V12.4949H386.904V0Z" fill="#813E3F"/>
<path d="M374.423 0H361.942V12.4949H374.423V0Z" fill="#813E3F"/>
<path d="M361.942 0H349.461V12.4949H361.942V0Z" fill="#813E3F"/>
<path d="M349.461 0H336.981V12.4949H349.461V0Z" fill="#813E3F"/>
<path d="M336.981 0H324.5V12.4949H336.981V0Z" fill="#813E3F"/>
<path d="M324.5 0H312.019V12.4949H324.5V0Z" fill="#813E3F"/>
<path d="M312.019 0H299.539V12.4949H312.019V0Z" fill="#813E3F"/>
<path d="M299.539 0H287.058V12.4949H299.539V0Z" fill="#813E3F"/>
<path d="M287.058 0H274.577V12.4949H287.058V0Z" fill="#813E3F"/>
<path d="M274.577 0H262.096V12.4949H274.577V0Z" fill="#813E3F"/>
<path d="M212.173 0H199.692V12.4949H212.173V0Z" fill="#813E3F"/>
<path d="M199.692 0H187.211V12.4949H199.692V0Z" fill="#813E3F"/>
<path d="M187.211 0H174.731V12.4949H187.211V0Z" fill="#813E3F"/>
<path d="M174.731 0H162.25V12.4949H174.731V0Z" fill="#813E3F"/>
<path d="M262.096 87.4647H249.615V99.9596H262.096V87.4647Z" fill="#813E3F"/>
<path d="M249.615 87.4647H237.135V99.9596H249.615V87.4647Z" fill="#813E3F"/>
<path d="M237.135 87.4647H224.654V99.9596H237.135V87.4647Z" fill="#813E3F"/>
<path d="M224.654 87.4647H212.173V99.9596H224.654V87.4647Z" fill="#813E3F"/>
<path d="M262.096 0H249.615V12.4949H262.096V0Z" fill="#813E3F"/>
<path d="M249.615 0H237.135V12.4949H249.615V0Z" fill="#813E3F"/>
<path d="M237.135 0H224.654V12.4949H237.135V0Z" fill="#813E3F"/>
<path d="M224.654 0H212.173V12.4949H224.654V0Z" fill="#813E3F"/>
<path d="M162.25 0H149.769V12.4949H162.25V0Z" fill="#813E3F"/>
<path d="M149.769 0H137.289V12.4949H149.769V0Z" fill="#813E3F"/>
<path d="M137.289 0H124.808V12.4949H137.289V0Z" fill="#813E3F"/>
<path d="M124.808 0H112.327V12.4949H124.808V0Z" fill="#813E3F"/>
<path d="M112.327 0H99.8462V12.4949H112.327V0Z" fill="#813E3F"/>
<path d="M99.8462 0H87.3655V12.4949H99.8462V0Z" fill="#813E3F"/>
<path d="M87.3655 0H74.8845V12.4949H87.3655V0Z" fill="#813E3F"/>
<path d="M74.8845 0H62.4038V12.4949H74.8845V0Z" fill="#813E3F"/>
<path d="M62.4038 0H49.9231V12.4949H62.4038V0Z" fill="#813E3F"/>
<path d="M49.9231 0H37.4424V12.4949H49.9231V0Z" fill="#813E3F"/>
<path d="M37.4424 0H24.9614L24.9615 12.4949L37.4424 12.4949V0Z" fill="#813E3F"/>
<path d="M536.673 87.4647H524.192V99.9596H536.673V87.4647Z" fill="#813E3F"/>
<path d="M536.673 0H524.192V12.4949H536.673V0Z" fill="#813E3F"/>
<path d="M524.192 87.4647H511.711V99.9596H524.192V87.4647Z" fill="#813E3F"/>
<path d="M524.192 0H511.711V12.4949H524.192V0Z" fill="#813E3F"/>
</svg>
