<svg width="250" height="70" viewBox="0 0 649 101" fill="none" xmlns="http://www.w3.org/2000/svg">
<path d="M212.173 25.1816H199.692V37.6766H212.173V25.1816Z" fill="#FFFDFB"/>
<path d="M199.692 25.1816H187.211V37.6766H199.692V25.1816Z" fill="#FFFDFB"/>
<path d="M187.211 25.1816H174.731V37.6766H187.211V25.1816Z" fill="#FFFDFB"/>
<path d="M174.731 25.1816H162.25V37.6766H174.731V25.1816Z" fill="#FFFDFB"/>
<path d="M162.25 25.1816H149.769V37.6766H162.25V25.1816Z" fill="#FFFDFB"/>
<path d="M149.769 25.1816H137.289V37.6766H149.769V25.1816Z" fill="#FFFDFB"/>
<path d="M137.289 25.1816H124.808V37.6766H137.289V25.1816Z" fill="#FFFDFB"/>
<path d="M124.808 25.1816H112.327V37.6766H124.808V25.1816Z" fill="#FFFDFB"/>
<path d="M112.327 25.1816H99.8462V37.6766H112.327V25.1816Z" fill="#FFFDFB"/>
<path d="M99.8462 25.1816H87.3655V37.6766H99.8462V25.1816Z" fill="#FFFDFB"/>
<path d="M87.3655 25.1816H74.8845V37.6766H87.3655V25.1816Z" fill="#FFFDFB"/>
<path d="M74.8845 25.1816H62.4038V37.6766H74.8845V25.1816Z" fill="#FFFDFB"/>
<path d="M62.4038 25.1816H49.9231V37.6766H62.4038V25.1816Z" fill="#FFFDFB"/>
<path d="M49.9231 25.1816H37.4424V37.6766H49.9231V25.1816Z" fill="#FFFDFB"/>
<path d="M262.096 25.1816H249.615V37.6766H262.096V25.1816Z" fill="#FFFDFB"/>
<path d="M249.615 25.1816H237.135V37.6766H249.615V25.1816Z" fill="#FFFDFB"/>
<path d="M237.135 25.1816H224.654V37.6766H237.135V25.1816Z" fill="#FFFDFB"/>
<path d="M224.654 25.1816H212.173V37.6766H224.654V25.1816Z" fill="#FFFDFB"/>
<path d="M212.173 75.1616H199.692V87.6565H212.173V75.1616Z" fill="#F6BCC2"/>
<path d="M199.692 75.1616H187.211V87.6565H199.692V75.1616Z" fill="#F6BCC2"/>
<path d="M187.211 75.1616H174.731V87.6565H187.211V75.1616Z" fill="#F6BCC2"/>
<path d="M174.731 75.1616H162.25V87.6565H174.731V75.1616Z" fill="#F6BCC2"/>
<path d="M162.25 75.1616H149.769V87.6565H162.25V75.1616Z" fill="#F6BCC2"/>
<path d="M149.769 75.1616H137.289V87.6565H149.769V75.1616Z" fill="#F6BCC2"/>
<path d="M137.289 75.1616H124.808V87.6565H137.289V75.1616Z" fill="#F6BCC2"/>
<path d="M124.808 75.1616H112.327V87.6565H124.808V75.1616Z" fill="#F6BCC2"/>
<path d="M112.327 75.1616H99.8462V87.6565H112.327V75.1616Z" fill="#F6BCC2"/>
<path d="M99.8462 75.1616H87.3655V87.6565H99.8462V75.1616Z" fill="#F6BCC2"/>
<path d="M87.3655 75.1616H74.8845V87.6565H87.3655V75.1616Z" fill="#F6BCC2"/>
<path d="M74.8845 75.1616H62.4038V87.6565H74.8845V75.1616Z" fill="#F6BCC2"/>
<path d="M62.4038 75.1616H49.9231V87.6565H62.4038V75.1616Z" fill="#F6BCC2"/>
<path d="M49.9231 75.1616H37.4424V87.6565H49.9231V75.1616Z" fill="#F6BCC2"/>
<path d="M37.4424 75.1616H24.9614V87.6565H37.4424V75.1616Z" fill="#F6BCC2"/>
<path d="M212.173 62.6667H199.692V75.1616H212.173V62.6667Z" fill="#F6BCC2"/>
<path d="M199.692 62.6667H187.211V75.1616H199.692V62.6667Z" fill="#F6BCC2"/>
<path d="M187.211 62.6667H174.731V75.1616H187.211V62.6667Z" fill="#F6BCC2"/>
<path d="M174.731 62.6667H162.25V75.1616H174.731V62.6667Z" fill="#F6BCC2"/>
<path d="M162.25 62.6667H149.769V75.1616H162.25V62.6667Z" fill="#F6BCC2"/>
<path d="M149.769 62.6667H137.289V75.1616H149.769V62.6667Z" fill="#F6BCC2"/>
<path d="M137.289 62.6667H124.808V75.1616H137.289V62.6667Z" fill="#F6BCC2"/>
<path d="M124.808 62.6667H112.327V75.1616H124.808V62.6667Z" fill="#F6BCC2"/>
<path d="M112.327 62.6667H99.8462V75.1616H112.327V62.6667Z" fill="#F6BCC2"/>
<path d="M99.8462 62.6667H87.3655V75.1616H99.8462V62.6667Z" fill="#F6BCC2"/>
<path d="M87.3655 62.6667H74.8845V75.1616H87.3655V62.6667Z" fill="#F6BCC2"/>
<path d="M74.8845 62.6667H62.4038V75.1616H74.8845V62.6667Z" fill="#F6BCC2"/>
<path d="M62.4038 62.6667H49.9231V75.1616H62.4038V62.6667Z" fill="#F6BCC2"/>
<path d="M49.9231 62.6667H37.4424V75.1616H49.9231V62.6667Z" fill="#F6BCC2"/>
<path d="M37.4424 62.6667H24.9614V75.1616H37.4424V62.6667Z" fill="#F6BCC2"/>
<path d="M24.9614 62.6667H12.4807V75.1616L24.9614 75.1616V62.6667Z" fill="#F6BCC2"/>
<path d="M212.173 50.1716H199.692V62.6667H212.173V50.1716Z" fill="#F6BCC2"/>
<path d="M199.692 50.1716H187.211V62.6667H199.692V50.1716Z" fill="#F6BCC2"/>
<path d="M187.211 50.1716H174.731V62.6667H187.211V50.1716Z" fill="#F6BCC2"/>
<path d="M174.731 50.1716H162.25V62.6667H174.731V50.1716Z" fill="#F6BCC2"/>
<path d="M162.25 50.1716H149.769V62.6667H162.25V50.1716Z" fill="#F6BCC2"/>
<path d="M149.769 50.1716H137.289V62.6667H149.769V50.1716Z" fill="#F6BCC2"/>
<path d="M137.289 50.1716H124.808V62.6667H137.289V50.1716Z" fill="#F6BCC2"/>
<path d="M124.808 50.1716H112.327V62.6667H124.808V50.1716Z" fill="#F6BCC2"/>
<path d="M112.327 50.1716H99.8462V62.6667H112.327V50.1716Z" fill="#F6BCC2"/>
<path d="M99.8462 50.1716H87.3655V62.6667H99.8462V50.1716Z" fill="#F6BCC2"/>
<path d="M87.3655 50.1716H74.8845V62.6667H87.3655V50.1716Z" fill="#F6BCC2"/>
<path d="M74.8845 50.1716H62.4038V62.6667H74.8845V50.1716Z" fill="#F6BCC2"/>
<path d="M62.4038 50.1716H49.9231V62.6667H62.4038V50.1716Z" fill="#F6BCC2"/>
<path d="M49.9231 50.1716H37.4424V62.6667H49.9231V50.1716Z" fill="#F6BCC2"/>
<path d="M37.4424 50.1716H24.9614V62.6667H37.4424V50.1716Z" fill="#F6BCC2"/>
<path d="M24.9614 50.1716H12.4807V62.6667H24.9614V50.1716Z" fill="#F6BCC2"/>
<path d="M212.173 37.6767H199.692V50.1716H212.173V37.6767Z" fill="#F6BCC2"/>
<path d="M199.692 37.6767H187.211V50.1716H199.692V37.6767Z" fill="#F6BCC2"/>
<path d="M187.211 37.6767H174.731V50.1716H187.211V37.6767Z" fill="#F6BCC2"/>
<path d="M174.731 37.6767H162.25V50.1716H174.731V37.6767Z" fill="#F6BCC2"/>
<path d="M162.25 37.6767H149.769V50.1716H162.25V37.6767Z" fill="#F6BCC2"/>
<path d="M149.769 37.6767H137.289V50.1716H149.769V37.6767Z" fill="#F6BCC2"/>
<path d="M137.289 37.6767H124.808V50.1716H137.289V37.6767Z" fill="#F6BCC2"/>
<path d="M124.808 37.6767H112.327V50.1716H124.808V37.6767Z" fill="#F6BCC2"/>
<path d="M112.327 37.6767H99.8462V50.1716H112.327V37.6767Z" fill="#F6BCC2"/>
<path d="M99.8462 37.6767H87.3655V50.1716H99.8462V37.6767Z" fill="#F6BCC2"/>
<path d="M87.3655 37.6767H74.8845V50.1716H87.3655V37.6767Z" fill="#F6BCC2"/>
<path d="M74.8845 37.6767H62.4038V50.1716H74.8845V37.6767Z" fill="#F6BCC2"/>
<path d="M62.4038 37.6767H49.9231V50.1716H62.4038V37.6767Z" fill="#F6BCC2"/>
<path d="M49.9231 37.6767H37.4424V50.1716H49.9231V37.6767Z" fill="#F6BCC2"/>
<path d="M37.4424 37.6767H24.9614V50.1716H37.4424V37.6767Z" fill="#F6BCC2"/>
<path d="M24.9614 37.6767H12.4807V50.1716H24.9614V37.6767Z" fill="#F6BCC2"/>
<path d="M37.4422 25.1818H24.9614V37.6767H37.4424L37.4422 25.1818Z" fill="#F6BCC2"/>
<path d="M24.9614 25.1818H12.4807V37.6767H24.9614V25.1818Z" fill="#F6BCC2"/>
<path d="M212.173 12.6868H199.692V25.1817H212.173V12.6868Z" fill="#F6BCC2"/>
<path d="M199.692 12.6868H187.211V25.1817H199.692V12.6868Z" fill="#F6BCC2"/>
<path d="M187.211 12.6868H174.731V25.1817H187.211V12.6868Z" fill="#F6BCC2"/>
<path d="M174.731 12.6868H162.25V25.1817H174.731V12.6868Z" fill="#F6BCC2"/>
<path d="M162.25 12.6868H149.769V25.1817H162.25V12.6868Z" fill="#F6BCC2"/>
<path d="M149.769 12.6868H137.289V25.1817H149.769V12.6868Z" fill="#F6BCC2"/>
<path d="M137.289 12.6868H124.808V25.1817H137.289V12.6868Z" fill="#F6BCC2"/>
<path d="M124.808 12.6868H112.327V25.1817H124.808V12.6868Z" fill="#F6BCC2"/>
<path d="M112.327 12.6868H99.8462V25.1817H112.327V12.6868Z" fill="#F6BCC2"/>
<path d="M99.8462 12.6868H87.3655V25.1817H99.8462V12.6868Z" fill="#F6BCC2"/>
<path d="M87.3655 12.6868H74.8845V25.1817H87.3655V12.6868Z" fill="#F6BCC2"/>
<path d="M74.8845 12.6868H62.4038V25.1817H74.8845V12.6868Z" fill="#F6BCC2"/>
<path d="M62.4038 12.6868H49.9231V25.1817H62.4038V12.6868Z" fill="#F6BCC2"/>
<path d="M49.9231 12.6868H37.4424L37.4422 25.1818L49.9231 25.1817V12.6868Z" fill="#F6BCC2"/>
<path d="M37.4424 12.6868H24.9614V25.1818H37.4422L37.4424 12.6868Z" fill="#F6BCC2"/>
<path d="M262.096 75.1616H249.615V87.6565H262.096V75.1616Z" fill="#F6BCC2"/>
<path d="M249.615 75.1616H237.135V87.6565H249.615V75.1616Z" fill="#F6BCC2"/>
<path d="M237.135 75.1616H224.654V87.6565H237.135V75.1616Z" fill="#F6BCC2"/>
<path d="M224.654 75.1616H212.173V87.6565H224.654V75.1616Z" fill="#F6BCC2"/>
<path d="M262.096 62.6667H249.615V75.1616H262.096V62.6667Z" fill="#F6BCC2"/>
<path d="M249.615 62.6667H237.135V75.1616H249.615V62.6667Z" fill="#F6BCC2"/>
<path d="M237.135 62.6667H224.654V75.1616H237.135V62.6667Z" fill="#F6BCC2"/>
<path d="M224.654 62.6667H212.173V75.1616H224.654V62.6667Z" fill="#F6BCC2"/>
<path d="M262.096 50.1716H249.615V62.6667H262.096V50.1716Z" fill="#F6BCC2"/>
<path d="M249.615 50.1716H237.135V62.6667H249.615V50.1716Z" fill="#F6BCC2"/>
<path d="M237.135 50.1716H224.654V62.6667H237.135V50.1716Z" fill="#F6BCC2"/>
<path d="M224.654 50.1716H212.173V62.6667H224.654V50.1716Z" fill="#F6BCC2"/>
<path d="M262.096 37.6767H249.615V50.1716H262.096V37.6767Z" fill="#F6BCC2"/>
<path d="M249.615 37.6767H237.135V50.1716H249.615V37.6767Z" fill="#F6BCC2"/>
<path d="M237.135 37.6767H224.654V50.1716H237.135V37.6767Z" fill="#F6BCC2"/>
<path d="M224.654 37.6767H212.173V50.1716H224.654V37.6767Z" fill="#F6BCC2"/>
<path d="M262.096 12.6868H249.615V25.1817H262.096V12.6868Z" fill="#F6BCC2"/>
<path d="M249.615 12.6868H237.135V25.1817H249.615V12.6868Z" fill="#F6BCC2"/>
<path d="M237.135 12.6868H224.654V25.1817H237.135V12.6868Z" fill="#F6BCC2"/>
<path d="M224.654 12.6868H212.173V25.1817H224.654V12.6868Z" fill="#F6BCC2"/>
<path d="M624.038 75.1616H611.558V87.6565H624.038V75.1616Z" fill="#6D3435"/>
<path d="M611.558 75.1616H599.077V87.6565H611.558V75.1616Z" fill="#6D3435"/>
<path d="M511.711 75.1616H499.231V87.6565H511.711V75.1616Z" fill="#6D3435"/>
<path d="M461.788 75.1616H449.308V87.6565H461.788V75.1616Z" fill="#6D3435"/>
<path d="M449.308 75.1616H436.827V87.6565H449.308V75.1616Z" fill="#6D3435"/>
<path d="M436.827 75.1616H424.346V87.6565H436.827V75.1616Z" fill="#6D3435"/>
<path d="M424.346 75.1616H411.865V87.6565H424.346V75.1616Z" fill="#6D3435"/>
<path d="M411.865 75.1616H399.385V87.6565H411.865V75.1616Z" fill="#6D3435"/>
<path d="M399.385 75.1616H386.904V87.6565H399.385V75.1616Z" fill="#6D3435"/>
<path d="M386.904 75.1616H374.423V87.6565H386.904V75.1616Z" fill="#6D3435"/>
<path d="M374.423 75.1616H361.942V87.6565H374.423V75.1616Z" fill="#6D3435"/>
<path d="M361.942 75.1616H349.461V87.6565H361.942V75.1616Z" fill="#6D3435"/>
<path d="M349.461 75.1616H336.981V87.6565H349.461V75.1616Z" fill="#6D3435"/>
<path d="M336.981 75.1616H324.5V87.6565H336.981V75.1616Z" fill="#6D3435"/>
<path d="M324.5 75.1616H312.019V87.6565H324.5V75.1616Z" fill="#6D3435"/>
<path d="M312.019 75.1616H299.539V87.6565H312.019V75.1616Z" fill="#6D3435"/>
<path d="M299.539 75.1616H287.058V87.6565H299.539V75.1616Z" fill="#6D3435"/>
<path d="M287.058 75.1616H274.577V87.6565H287.058V75.1616Z" fill="#6D3435"/>
<path d="M274.577 75.1616H262.096V87.6565H274.577V75.1616Z" fill="#6D3435"/>
<path d="M636.519 62.6667H624.039L624.038 75.1616L636.519 75.1616V62.6667Z" fill="#6D3435"/>
<path d="M624.039 62.6667H611.558V75.1616H624.038L624.039 62.6667Z" fill="#6D3435"/>
<path d="M611.558 62.6667H599.077V75.1616H611.558V62.6667Z" fill="#6D3435"/>
<path d="M511.711 62.6667H499.231V75.1616H511.711V62.6667Z" fill="#6D3435"/>
<path d="M461.788 62.6667H449.308V75.1616H461.788V62.6667Z" fill="#6D3435"/>
<path d="M449.308 62.6667H436.827V75.1616H449.308V62.6667Z" fill="#6D3435"/>
<path d="M436.827 62.6667H424.346V75.1616H436.827V62.6667Z" fill="#6D3435"/>
<path d="M424.346 62.6667H411.865V75.1616H424.346V62.6667Z" fill="#6D3435"/>
<path d="M411.865 62.6667H399.385V75.1616H411.865V62.6667Z" fill="#6D3435"/>
<path d="M399.385 62.6667H386.904V75.1616H399.385V62.6667Z" fill="#6D3435"/>
<path d="M386.904 62.6667H374.423V75.1616H386.904V62.6667Z" fill="#6D3435"/>
<path d="M374.423 62.6667H361.942V75.1616H374.423V62.6667Z" fill="#6D3435"/>
<path d="M361.942 62.6667H349.461V75.1616H361.942V62.6667Z" fill="#6D3435"/>
<path d="M349.461 62.6667H336.981V75.1616H349.461V62.6667Z" fill="#6D3435"/>
<path d="M336.981 62.6667H324.5V75.1616H336.981V62.6667Z" fill="#6D3435"/>
<path d="M324.5 62.6667H312.019V75.1616H324.5V62.6667Z" fill="#6D3435"/>
<path d="M312.019 62.6667H299.539V75.1616H312.019V62.6667Z" fill="#6D3435"/>
<path d="M299.539 62.6667H287.058V75.1616H299.539V62.6667Z" fill="#6D3435"/>
<path d="M287.058 62.6667H274.577V75.1616H287.058V62.6667Z" fill="#6D3435"/>
<path d="M274.577 62.6667H262.096V75.1616H274.577V62.6667Z" fill="#6D3435"/>
<path d="M636.519 50.1716H624.039V62.6667H636.519V50.1716Z" fill="#6D3435"/>
<path d="M624.039 50.1716H611.558V62.6667H624.039V50.1716Z" fill="#6D3435"/>
<path d="M611.558 50.1716H599.077V62.6667H611.558V50.1716Z" fill="#6D3435"/>
<path d="M511.711 50.1716H499.231V62.6667H511.711V50.1716Z" fill="#6D3435"/>
<path d="M461.788 50.1716H449.308V62.6667H461.788V50.1716Z" fill="#6D3435"/>
<path d="M449.308 50.1716H436.827V62.6667H449.308V50.1716Z" fill="#6D3435"/>
<path d="M436.827 50.1716H424.346V62.6667H436.827V50.1716Z" fill="#6D3435"/>
<path d="M424.346 50.1716H411.865V62.6667H424.346V50.1716Z" fill="#6D3435"/>
<path d="M411.865 50.1716H399.385V62.6667H411.865V50.1716Z" fill="#6D3435"/>
<path d="M399.385 50.1716H386.904V62.6667H399.385V50.1716Z" fill="#6D3435"/>
<path d="M386.904 50.1716H374.423V62.6667H386.904V50.1716Z" fill="#6D3435"/>
<path d="M374.423 50.1716H361.942V62.6667H374.423V50.1716Z" fill="#6D3435"/>
<path d="M361.942 50.1716H349.461V62.6667H361.942V50.1716Z" fill="#6D3435"/>
<path d="M349.461 50.1716H336.981V62.6667H349.461V50.1716Z" fill="#6D3435"/>
<path d="M336.981 50.1716H324.5V62.6667H336.981V50.1716Z" fill="#6D3435"/>
<path d="M324.5 50.1716H312.019V62.6667H324.5V50.1716Z" fill="#6D3435"/>
<path d="M312.019 50.1716H299.539V62.6667H312.019V50.1716Z" fill="#6D3435"/>
<path d="M299.539 50.1716H287.058V62.6667H299.539V50.1716Z" fill="#6D3435"/>
<path d="M287.058 50.1716H274.577V62.6667H287.058V50.1716Z" fill="#6D3435"/>
<path d="M274.577 50.1716H262.096V62.6667H274.577V50.1716Z" fill="#6D3435"/>
<path d="M636.519 37.6767H624.039V50.1716H636.519V37.6767Z" fill="#6D3435"/>
<path d="M624.039 37.6767H611.558V50.1716H624.039V37.6767Z" fill="#6D3435"/>
<path d="M611.558 37.6767H599.077V50.1716H611.558V37.6767Z" fill="#6D3435"/>
<path d="M511.711 37.6767H499.231V50.1716H511.711V37.6767Z" fill="#6D3435"/>
<path d="M461.788 37.6767H449.308V50.1716H461.788V37.6767Z" fill="#6D3435"/>
<path d="M449.308 37.6767H436.827V50.1716H449.308V37.6767Z" fill="#6D3435"/>
<path d="M436.827 37.6767H424.346V50.1716H436.827V37.6767Z" fill="#6D3435"/>
<path d="M424.346 37.6767H411.865V50.1716H424.346V37.6767Z" fill="#6D3435"/>
<path d="M411.865 37.6767H399.385V50.1716H411.865V37.6767Z" fill="#6D3435"/>
<path d="M399.385 37.6767H386.904V50.1716H399.385V37.6767Z" fill="#6D3435"/>
<path d="M386.904 37.6767H374.423V50.1716H386.904V37.6767Z" fill="#6D3435"/>
<path d="M374.423 37.6767H361.942V50.1716H374.423V37.6767Z" fill="#6D3435"/>
<path d="M361.942 37.6767H349.461V50.1716H361.942V37.6767Z" fill="#6D3435"/>
<path d="M349.461 37.6767H336.981V50.1716H349.461V37.6767Z" fill="#6D3435"/>
<path d="M336.981 37.6767H324.5V50.1716H336.981V37.6767Z" fill="#6D3435"/>
<path d="M324.5 37.6767H312.019V50.1716H324.5V37.6767Z" fill="#6D3435"/>
<path d="M312.019 37.6767H299.539V50.1716H312.019V37.6767Z" fill="#6D3435"/>
<path d="M299.539 37.6767H287.058V50.1716H299.539V37.6767Z" fill="#6D3435"/>
<path d="M287.058 37.6767H274.577V50.1716H287.058V37.6767Z" fill="#6D3435"/>
<path d="M274.577 37.6767H262.096V50.1716H274.577V37.6767Z" fill="#6D3435"/>
<path d="M636.519 25.1818H624.039V37.6767H636.519V25.1818Z" fill="#6D3435"/>
<path d="M624.039 25.1818H611.558V37.6767H624.039V25.1818Z" fill="#6D3435"/>
<path d="M611.558 25.1818H599.077V37.6767H611.558V25.1818Z" fill="#6D3435"/>
<path d="M511.711 25.1818H499.231V37.6767H511.711V25.1818Z" fill="#6D3435"/>
<path d="M461.788 25.1818H449.308V37.6767H461.788V25.1818Z" fill="#6D3435"/>
<path d="M449.308 25.1818H436.827V37.6767H449.308V25.1818Z" fill="#6D3435"/>
<path d="M436.827 25.1818H424.346V37.6767H436.827V25.1818Z" fill="#6D3435"/>
<path d="M424.346 25.1818H411.865V37.6767H424.346V25.1818Z" fill="#6D3435"/>
<path d="M411.865 25.1818H399.385V37.6767H411.865V25.1818Z" fill="#6D3435"/>
<path d="M399.385 25.1818H386.904V37.6767H399.385V25.1818Z" fill="#6D3435"/>
<path d="M386.904 25.1818H374.423V37.6767H386.904V25.1818Z" fill="#6D3435"/>
<path d="M374.423 25.1818H361.942V37.6767H374.423V25.1818Z" fill="#6D3435"/>
<path d="M361.942 25.1818H349.461V37.6767H361.942V25.1818Z" fill="#6D3435"/>
<path d="M349.461 25.1818H336.981V37.6767H349.461V25.1818Z" fill="#6D3435"/>
<path d="M336.981 25.1818H324.5V37.6767H336.981V25.1818Z" fill="#6D3435"/>
<path d="M324.5 25.1818H312.019V37.6767H324.5V25.1818Z" fill="#6D3435"/>
<path d="M312.019 25.1818H299.539V37.6767H312.019V25.1818Z" fill="#6D3435"/>
<path d="M299.539 25.1818H287.058V37.6767H299.539V25.1818Z" fill="#6D3435"/>
<path d="M287.058 25.1818H274.577V37.6767H287.058V25.1818Z" fill="#6D3435"/>
<path d="M274.577 25.1818H262.096V37.6767H274.577V25.1818Z" fill="#6D3435"/>
<path d="M624.038 12.6868H611.558V25.1818H624.039L624.038 12.6868Z" fill="#6D3435"/>
<path d="M611.558 12.6868H599.077V25.1818H611.558V12.6868Z" fill="#6D3435"/>
<path d="M511.711 12.6868H499.231V25.1818H511.711V12.6868Z" fill="#6D3435"/>
<path d="M461.788 12.6868H449.308V25.1818H461.788V12.6868Z" fill="#6D3435"/>
<path d="M449.308 12.6868H436.827V25.1818H449.308V12.6868Z" fill="#6D3435"/>
<path d="M436.827 12.6868H424.346V25.1818H436.827V12.6868Z" fill="#6D3435"/>
<path d="M424.346 12.6868H411.865V25.1818H424.346V12.6868Z" fill="#6D3435"/>
<path d="M411.865 12.6868H399.385V25.1818H411.865V12.6868Z" fill="#6D3435"/>
<path d="M399.385 12.6868H386.904V25.1818H399.385V12.6868Z" fill="#6D3435"/>
<path d="M386.904 12.6868H374.423V25.1818H386.904V12.6868Z" fill="#6D3435"/>
<path d="M374.423 12.6868H361.942V25.1818H374.423V12.6868Z" fill="#6D3435"/>
<path d="M361.942 12.6868H349.461V25.1818H361.942V12.6868Z" fill="#6D3435"/>
<path d="M349.461 12.6868H336.981V25.1818H349.461V12.6868Z" fill="#6D3435"/>
<path d="M336.981 12.6868H324.5V25.1818H336.981V12.6868Z" fill="#6D3435"/>
<path d="M324.5 12.6868H312.019V25.1818H324.5V12.6868Z" fill="#6D3435"/>
<path d="M312.019 12.6868H299.539V25.1818H312.019V12.6868Z" fill="#6D3435"/>
<path d="M299.539 12.6868H287.058V25.1818H299.539V12.6868Z" fill="#6D3435"/>
<path d="M287.058 12.6868H274.577V25.1818H287.058V12.6868Z" fill="#6D3435"/>
<path d="M274.577 12.6868H262.096V25.1818H274.577V12.6868Z" fill="#6D3435"/>
<path d="M499.231 75.1616H486.75V87.6565H499.231V75.1616Z" fill="#6D3435"/>
<path d="M486.75 75.1616H474.269V87.6565H486.75V75.1616Z" fill="#6D3435"/>
<path d="M474.269 75.1616H461.788V87.6565H474.269V75.1616Z" fill="#6D3435"/>
<path d="M499.231 62.6667H486.75V75.1616H499.231V62.6667Z" fill="#6D3435"/>
<path d="M486.75 62.6667H474.269V75.1616H486.75V62.6667Z" fill="#6D3435"/>
<path d="M474.269 62.6667H461.788V75.1616H474.269V62.6667Z" fill="#6D3435"/>
<path d="M499.231 50.1716H486.75V62.6667H499.231V50.1716Z" fill="#6D3435"/>
<path d="M486.75 50.1716H474.269V62.6667H486.75V50.1716Z" fill="#6D3435"/>
<path d="M474.269 50.1716H461.788V62.6667H474.269V50.1716Z" fill="#6D3435"/>
<path d="M499.231 37.6767H486.75V50.1716H499.231V37.6767Z" fill="#6D3435"/>
<path d="M486.75 37.6767H474.269V50.1716H486.75V37.6767Z" fill="#6D3435"/>
<path d="M474.269 37.6767H461.788V50.1716H474.269V37.6767Z" fill="#6D3435"/>
<path d="M499.231 25.1818H486.75V37.6767H499.231V25.1818Z" fill="#6D3435"/>
<path d="M486.75 25.1818H474.269V37.6767H486.75V25.1818Z" fill="#6D3435"/>
<path d="M474.269 25.1818H461.788V37.6767H474.269V25.1818Z" fill="#6D3435"/>
<path d="M499.231 12.6868H486.75V25.1818H499.231V12.6868Z" fill="#6D3435"/>
<path d="M486.75 12.6868H474.269V25.1818H486.75V12.6868Z" fill="#6D3435"/>
<path d="M474.269 12.6868H461.788V25.1818H474.269V12.6868Z" fill="#6D3435"/>
<path d="M599.077 75.1616H586.596V87.6565H599.077V75.1616Z" fill="#6D3435"/>
<path d="M586.596 75.1616H574.115V87.6565H586.596V75.1616Z" fill="#6D3435"/>
<path d="M599.077 62.6667H586.596V75.1616H599.077V62.6667Z" fill="#6D3435"/>
<path d="M586.596 62.6667H574.115V75.1616H586.596V62.6667Z" fill="#6D3435"/>
<path d="M599.077 50.1716H586.596V62.6667H599.077V50.1716Z" fill="#6D3435"/>
<path d="M586.596 50.1716H574.115V62.6667H586.596V50.1716Z" fill="#6D3435"/>
<path d="M599.077 37.6767H586.596V50.1716H599.077V37.6767Z" fill="#6D3435"/>
<path d="M586.596 37.6767H574.115V50.1716H586.596V37.6767Z" fill="#6D3435"/>
<path d="M599.077 25.1818H586.596V37.6767H599.077V25.1818Z" fill="#6D3435"/>
<path d="M586.596 25.1818H574.115V37.6767H586.596V25.1818Z" fill="#6D3435"/>
<path d="M599.077 12.6868H586.596V25.1818H599.077V12.6868Z" fill="#6D3435"/>
<path d="M586.596 12.6868H574.115V25.1818H586.596V12.6868Z" fill="#6D3435"/>
<path d="M574.115 75.1616H561.635V87.6565H574.115V75.1616Z" fill="#6D3435"/>
<path d="M574.115 62.6667H561.635V75.1616H574.115V62.6667Z" fill="#6D3435"/>
<path d="M574.115 50.1716H561.635V62.6667H574.115V50.1716Z" fill="#6D3435"/>
<path d="M574.115 37.6767H561.635V50.1716H574.115V37.6767Z" fill="#6D3435"/>
<path d="M574.115 25.1818H561.635V37.6767H574.115V25.1818Z" fill="#6D3435"/>
<path d="M574.115 12.6868H561.635V25.1818H574.115V12.6868Z" fill="#6D3435"/>
<path d="M561.635 75.1616H549.154V87.6565H561.635V75.1616Z" fill="#6D3435"/>
<path d="M549.154 75.1616H536.673V87.6565H549.154V75.1616Z" fill="#6D3435"/>
<path d="M561.635 62.6667H549.154V75.1616H561.635V62.6667Z" fill="#6D3435"/>
<path d="M549.154 62.6667H536.673V75.1616H549.154V62.6667Z" fill="#6D3435"/>
<path d="M561.635 50.1716H549.154V62.6667H561.635V50.1716Z" fill="#6D3435"/>
<path d="M549.154 50.1716H536.673V62.6667H549.154V50.1716Z" fill="#6D3435"/>
<path d="M561.635 37.6767H549.154V50.1716H561.635V37.6767Z" fill="#6D3435"/>
<path d="M549.154 37.6767H536.673V50.1716H549.154V37.6767Z" fill="#6D3435"/>
<path d="M561.635 25.1818H549.154V37.6767H561.635V25.1818Z" fill="#6D3435"/>
<path d="M549.154 25.1818H536.673V37.6767H549.154V25.1818Z" fill="#6D3435"/>
<path d="M561.635 12.6868H549.154V25.1818H561.635V12.6868Z" fill="#6D3435"/>
<path d="M549.154 12.6868H536.673V25.1818H549.154V12.6868Z" fill="#6D3435"/>
<path d="M536.673 75.1616H524.192V87.6565H536.673V75.1616Z" fill="#6D3435"/>
<path d="M536.673 62.6667H524.192V75.1616H536.673V62.6667Z" fill="#6D3435"/>
<path d="M536.673 50.1716H524.192V62.6667H536.673V50.1716Z" fill="#6D3435"/>
<path d="M536.673 37.6767H524.192V50.1716H536.673V37.6767Z" fill="#6D3435"/>
<path d="M536.673 25.1818H524.192V37.6767H536.673V25.1818Z" fill="#6D3435"/>
<path d="M536.673 12.6868H524.192V25.1818H536.673V12.6868Z" fill="#6D3435"/>
<path d="M524.192 75.1616H511.711V87.6565H524.192V75.1616Z" fill="#6D3435"/>
<path d="M524.192 62.6667H511.711V75.1616H524.192V62.6667Z" fill="#6D3435"/>
<path d="M524.192 50.1716H511.711V62.6667H524.192V50.1716Z" fill="#6D3435"/>
<path d="M524.192 37.6767H511.711V50.1716H524.192V37.6767Z" fill="#6D3435"/>
<path d="M524.192 25.1818H511.711V37.6767H524.192V25.1818Z" fill="#6D3435"/>
<path d="M524.192 12.6868H511.711V25.1818H524.192V12.6868Z" fill="#6D3435"/>
<path d="M624.038 87.6566H611.558V100.152H624.038V87.6566Z" fill="#813E3F"/>
<path d="M624.038 87.6566H611.558V100.152H624.038V87.6566Z" fill="black" fill-opacity="0.2"/>
<path d="M611.558 87.6566H599.077V100.152H611.558V87.6566Z" fill="#813E3F"/>
<path d="M611.558 87.6566H599.077V100.152H611.558V87.6566Z" fill="black" fill-opacity="0.2"/>
<path d="M511.711 87.6566H499.231V100.152H511.711V87.6566Z" fill="#813E3F"/>
<path d="M511.711 87.6566H499.231V100.152H511.711V87.6566Z" fill="black" fill-opacity="0.2"/>
<path d="M461.788 87.6566H449.308V100.152H461.788V87.6566Z" fill="#813E3F"/>
<path d="M461.788 87.6566H449.308V100.152H461.788V87.6566Z" fill="black" fill-opacity="0.2"/>
<path d="M449.308 87.6566H436.827V100.152H449.308V87.6566Z" fill="#813E3F"/>
<path d="M449.308 87.6566H436.827V100.152H449.308V87.6566Z" fill="black" fill-opacity="0.2"/>
<path d="M436.827 87.6566H424.346V100.152H436.827V87.6566Z" fill="#813E3F"/>
<path d="M436.827 87.6566H424.346V100.152H436.827V87.6566Z" fill="black" fill-opacity="0.2"/>
<path d="M424.346 87.6566H411.865V100.152H424.346V87.6566Z" fill="#813E3F"/>
<path d="M424.346 87.6566H411.865V100.152H424.346V87.6566Z" fill="black" fill-opacity="0.2"/>
<path d="M411.865 87.6566H399.385V100.152H411.865V87.6566Z" fill="#813E3F"/>
<path d="M411.865 87.6566H399.385V100.152H411.865V87.6566Z" fill="black" fill-opacity="0.2"/>
<path d="M399.385 87.6566H386.904V100.152H399.385V87.6566Z" fill="#813E3F"/>
<path d="M399.385 87.6566H386.904V100.152H399.385V87.6566Z" fill="black" fill-opacity="0.2"/>
<path d="M386.904 87.6566H374.423V100.152H386.904V87.6566Z" fill="#813E3F"/>
<path d="M386.904 87.6566H374.423V100.152H386.904V87.6566Z" fill="black" fill-opacity="0.2"/>
<path d="M374.423 87.6566H361.942V100.152H374.423V87.6566Z" fill="#813E3F"/>
<path d="M374.423 87.6566H361.942V100.152H374.423V87.6566Z" fill="black" fill-opacity="0.2"/>
<path d="M361.942 87.6566H349.461V100.152H361.942V87.6566Z" fill="#813E3F"/>
<path d="M361.942 87.6566H349.461V100.152H361.942V87.6566Z" fill="black" fill-opacity="0.2"/>
<path d="M349.461 87.6566H336.981V100.152H349.461V87.6566Z" fill="#813E3F"/>
<path d="M349.461 87.6566H336.981V100.152H349.461V87.6566Z" fill="black" fill-opacity="0.2"/>
<path d="M336.981 87.6566H324.5V100.152H336.981V87.6566Z" fill="#813E3F"/>
<path d="M336.981 87.6566H324.5V100.152H336.981V87.6566Z" fill="black" fill-opacity="0.2"/>
<path d="M324.5 87.6566H312.019V100.152H324.5V87.6566Z" fill="#813E3F"/>
<path d="M324.5 87.6566H312.019V100.152H324.5V87.6566Z" fill="black" fill-opacity="0.2"/>
<path d="M312.019 87.6566H299.539V100.152H312.019V87.6566Z" fill="#813E3F"/>
<path d="M312.019 87.6566H299.539V100.152H312.019V87.6566Z" fill="black" fill-opacity="0.2"/>
<path d="M299.539 87.6566H287.058V100.152H299.539V87.6566Z" fill="#813E3F"/>
<path d="M299.539 87.6566H287.058V100.152H299.539V87.6566Z" fill="black" fill-opacity="0.2"/>
<path d="M287.058 87.6566H274.577V100.152H287.058V87.6566Z" fill="#813E3F"/>
<path d="M287.058 87.6566H274.577V100.152H287.058V87.6566Z" fill="black" fill-opacity="0.2"/>
<path d="M274.577 87.6566H262.096V100.152H274.577V87.6566Z" fill="#813E3F"/>
<path d="M274.577 87.6566H262.096V100.152H274.577V87.6566Z" fill="black" fill-opacity="0.2"/>
<path d="M212.173 87.6566H199.692V100.152H212.173V87.6566Z" fill="#813E3F"/>
<path d="M212.173 87.6566H199.692V100.152H212.173V87.6566Z" fill="black" fill-opacity="0.2"/>
<path d="M199.692 87.6566H187.211V100.152H199.692V87.6566Z" fill="#813E3F"/>
<path d="M199.692 87.6566H187.211V100.152H199.692V87.6566Z" fill="black" fill-opacity="0.2"/>
<path d="M187.211 87.6566H174.731V100.152H187.211V87.6566Z" fill="#813E3F"/>
<path d="M187.211 87.6566H174.731V100.152H187.211V87.6566Z" fill="black" fill-opacity="0.2"/>
<path d="M174.731 87.6566H162.25V100.152H174.731V87.6566Z" fill="#813E3F"/>
<path d="M174.731 87.6566H162.25V100.152H174.731V87.6566Z" fill="black" fill-opacity="0.2"/>
<path d="M162.25 87.6566H149.769V100.152H162.25V87.6566Z" fill="#813E3F"/>
<path d="M162.25 87.6566H149.769V100.152H162.25V87.6566Z" fill="black" fill-opacity="0.2"/>
<path d="M149.769 87.6566H137.289V100.152H149.769V87.6566Z" fill="#813E3F"/>
<path d="M149.769 87.6566H137.289V100.152H149.769V87.6566Z" fill="black" fill-opacity="0.2"/>
<path d="M137.289 87.6566H124.808V100.152H137.289V87.6566Z" fill="#813E3F"/>
<path d="M137.289 87.6566H124.808V100.152H137.289V87.6566Z" fill="black" fill-opacity="0.2"/>
<path d="M124.808 87.6566H112.327V100.152H124.808V87.6566Z" fill="#813E3F"/>
<path d="M124.808 87.6566H112.327V100.152H124.808V87.6566Z" fill="black" fill-opacity="0.2"/>
<path d="M112.327 87.6566H99.8462V100.152H112.327V87.6566Z" fill="#813E3F"/>
<path d="M112.327 87.6566H99.8462V100.152H112.327V87.6566Z" fill="black" fill-opacity="0.2"/>
<path d="M99.8462 87.6566H87.3655V100.152H99.8462V87.6566Z" fill="#813E3F"/>
<path d="M99.8462 87.6566H87.3655V100.152H99.8462V87.6566Z" fill="black" fill-opacity="0.2"/>
<path d="M87.3655 87.6566H74.8845V100.152H87.3655V87.6566Z" fill="#813E3F"/>
<path d="M87.3655 87.6566H74.8845V100.152H87.3655V87.6566Z" fill="black" fill-opacity="0.2"/>
<path d="M74.8845 87.6566H62.4038V100.152H74.8845V87.6566Z" fill="#813E3F"/>
<path d="M74.8845 87.6566H62.4038V100.152H74.8845V87.6566Z" fill="black" fill-opacity="0.2"/>
<path d="M62.4038 87.6566H49.9231V100.152H62.4038V87.6566Z" fill="#813E3F"/>
<path d="M62.4038 87.6566H49.9231V100.152H62.4038V87.6566Z" fill="black" fill-opacity="0.2"/>
<path d="M49.9231 87.6566H37.4424V100.152H49.9231V87.6566Z" fill="#813E3F"/>
<path d="M49.9231 87.6566H37.4424V100.152H49.9231V87.6566Z" fill="black" fill-opacity="0.2"/>
<path d="M37.4424 87.6566H24.9614V100.152H37.4424V87.6566Z" fill="#813E3F"/>
<path d="M37.4424 87.6566H24.9614V100.152H37.4424V87.6566Z" fill="black" fill-opacity="0.2"/>
<path d="M636.519 75.1616H624.039L624.038 87.6566L636.519 87.6565V75.1616Z" fill="#813E3F"/>
<path d="M636.519 75.1616H624.039L624.038 87.6566L636.519 87.6565V75.1616Z" fill="black" fill-opacity="0.2"/>
<path d="M24.9615 75.1616H12.4807V87.6565L24.9614 87.6566L24.9615 75.1616Z" fill="#813E3F"/>
<path d="M24.9615 75.1616H12.4807V87.6565L24.9614 87.6566L24.9615 75.1616Z" fill="black" fill-opacity="0.2"/>
<path d="M649 62.6667H636.519L636.519 75.1616L649 75.1616V62.6667Z" fill="#813E3F"/>
<path d="M649 62.6667H636.519L636.519 75.1616L649 75.1616V62.6667Z" fill="black" fill-opacity="0.2"/>
<path d="M12.4808 62.6667H0V75.1616L12.4807 75.1616L12.4808 62.6667Z" fill="#813E3F"/>
<path d="M12.4808 62.6667H0V75.1616L12.4807 75.1616L12.4808 62.6667Z" fill="black" fill-opacity="0.2"/>
<path d="M649 50.1716H636.519V62.6667H649V50.1716Z" fill="#813E3F"/>
<path d="M649 50.1716H636.519V62.6667H649V50.1716Z" fill="black" fill-opacity="0.2"/>
<path d="M12.4808 50.1716H0V62.6667H12.4808V50.1716Z" fill="#813E3F"/>
<path d="M12.4808 50.1716H0V62.6667H12.4808V50.1716Z" fill="black" fill-opacity="0.2"/>
<path d="M649 37.6767H636.519V50.1716H649V37.6767Z" fill="#813E3F"/>
<path d="M649 37.6767H636.519V50.1716H649V37.6767Z" fill="black" fill-opacity="0.2"/>
<path d="M12.4808 37.6767H0V50.1716H12.4808V37.6767Z" fill="#813E3F"/>
<path d="M12.4808 37.6767H0V50.1716H12.4808V37.6767Z" fill="black" fill-opacity="0.2"/>
<path d="M649 25.1818H636.519V37.6767H649V25.1818Z" fill="#813E3F"/>
<path d="M649 25.1818H636.519V37.6767H649V25.1818Z" fill="black" fill-opacity="0.2"/>
<path d="M12.4808 25.1818H0V37.6767H12.4808V25.1818Z" fill="#813E3F"/>
<path d="M12.4808 25.1818H0V37.6767H12.4808V25.1818Z" fill="black" fill-opacity="0.2"/>
<path d="M636.519 12.6868H624.039V25.1817L636.519 25.1818L636.519 12.6868Z" fill="#813E3F"/>
<path d="M636.519 12.6868H624.039V25.1817L636.519 25.1818L636.519 12.6868Z" fill="black" fill-opacity="0.2"/>
<path d="M24.9615 12.6868H12.4807L12.4808 25.1818L24.9615 25.1817V12.6868Z" fill="#813E3F"/>
<path d="M24.9615 12.6868H12.4807L12.4808 25.1818L24.9615 25.1817V12.6868Z" fill="black" fill-opacity="0.2"/>
<path d="M624.038 0.191895H611.558V12.6868L624.039 12.6868L624.038 0.191895Z" fill="#813E3F"/>
<path d="M624.038 0.191895H611.558V12.6868L624.039 12.6868L624.038 0.191895Z" fill="black" fill-opacity="0.2"/>
<path d="M611.558 0.191895H599.077V12.6868H611.558V0.191895Z" fill="#813E3F"/>
<path d="M611.558 0.191895H599.077V12.6868H611.558V0.191895Z" fill="black" fill-opacity="0.2"/>
<path d="M511.711 0.191895H499.231V12.6868H511.711V0.191895Z" fill="#813E3F"/>
<path d="M511.711 0.191895H499.231V12.6868H511.711V0.191895Z" fill="black" fill-opacity="0.2"/>
<path d="M461.788 0.191895H449.308V12.6868H461.788V0.191895Z" fill="#813E3F"/>
<path d="M461.788 0.191895H449.308V12.6868H461.788V0.191895Z" fill="black" fill-opacity="0.2"/>
<path d="M449.308 0.191895H436.827V12.6868H449.308V0.191895Z" fill="#813E3F"/>
<path d="M449.308 0.191895H436.827V12.6868H449.308V0.191895Z" fill="black" fill-opacity="0.2"/>
<path d="M436.827 0.191895H424.346V12.6868H436.827V0.191895Z" fill="#813E3F"/>
<path d="M436.827 0.191895H424.346V12.6868H436.827V0.191895Z" fill="black" fill-opacity="0.2"/>
<path d="M499.231 87.6566H486.75V100.152H499.231V87.6566Z" fill="#813E3F"/>
<path d="M499.231 87.6566H486.75V100.152H499.231V87.6566Z" fill="black" fill-opacity="0.2"/>
<path d="M486.75 87.6566H474.269V100.152H486.75V87.6566Z" fill="#813E3F"/>
<path d="M486.75 87.6566H474.269V100.152H486.75V87.6566Z" fill="black" fill-opacity="0.2"/>
<path d="M474.269 87.6566H461.788V100.152H474.269V87.6566Z" fill="#813E3F"/>
<path d="M474.269 87.6566H461.788V100.152H474.269V87.6566Z" fill="black" fill-opacity="0.2"/>
<path d="M499.231 0.191895H486.75V12.6868H499.231V0.191895Z" fill="#813E3F"/>
<path d="M499.231 0.191895H486.75V12.6868H499.231V0.191895Z" fill="black" fill-opacity="0.2"/>
<path d="M486.75 0.191895H474.269V12.6868H486.75V0.191895Z" fill="#813E3F"/>
<path d="M486.75 0.191895H474.269V12.6868H486.75V0.191895Z" fill="black" fill-opacity="0.2"/>
<path d="M599.077 87.6566H586.596V100.152H599.077V87.6566Z" fill="#813E3F"/>
<path d="M599.077 87.6566H586.596V100.152H599.077V87.6566Z" fill="black" fill-opacity="0.2"/>
<path d="M586.596 87.6566H574.115V100.152H586.596V87.6566Z" fill="#813E3F"/>
<path d="M586.596 87.6566H574.115V100.152H586.596V87.6566Z" fill="black" fill-opacity="0.2"/>
<path d="M599.077 0.191895H586.596V12.6868H599.077V0.191895Z" fill="#813E3F"/>
<path d="M599.077 0.191895H586.596V12.6868H599.077V0.191895Z" fill="black" fill-opacity="0.2"/>
<path d="M586.596 0.191895H574.115V12.6868H586.596V0.191895Z" fill="#813E3F"/>
<path d="M586.596 0.191895H574.115V12.6868H586.596V0.191895Z" fill="black" fill-opacity="0.2"/>
<path d="M474.269 0.191895H461.788V12.6868H474.269V0.191895Z" fill="#813E3F"/>
<path d="M474.269 0.191895H461.788V12.6868H474.269V0.191895Z" fill="black" fill-opacity="0.2"/>
<path d="M424.346 0.191895H411.865V12.6868H424.346V0.191895Z" fill="#813E3F"/>
<path d="M424.346 0.191895H411.865V12.6868H424.346V0.191895Z" fill="black" fill-opacity="0.2"/>
<path d="M411.865 0.191895H399.385V12.6868H411.865V0.191895Z" fill="#813E3F"/>
<path d="M411.865 0.191895H399.385V12.6868H411.865V0.191895Z" fill="black" fill-opacity="0.2"/>
<path d="M399.385 0.191895H386.904V12.6868H399.385V0.191895Z" fill="#813E3F"/>
<path d="M399.385 0.191895H386.904V12.6868H399.385V0.191895Z" fill="black" fill-opacity="0.2"/>
<path d="M386.904 0.191895H374.423V12.6868H386.904V0.191895Z" fill="#813E3F"/>
<path d="M386.904 0.191895H374.423V12.6868H386.904V0.191895Z" fill="black" fill-opacity="0.2"/>
<path d="M374.423 0.191895H361.942V12.6868H374.423V0.191895Z" fill="#813E3F"/>
<path d="M374.423 0.191895H361.942V12.6868H374.423V0.191895Z" fill="black" fill-opacity="0.2"/>
<path d="M361.942 0.191895H349.461V12.6868H361.942V0.191895Z" fill="#813E3F"/>
<path d="M361.942 0.191895H349.461V12.6868H361.942V0.191895Z" fill="black" fill-opacity="0.2"/>
<path d="M349.461 0.191895H336.981V12.6868H349.461V0.191895Z" fill="#813E3F"/>
<path d="M349.461 0.191895H336.981V12.6868H349.461V0.191895Z" fill="black" fill-opacity="0.2"/>
<path d="M336.981 0.191895H324.5V12.6868H336.981V0.191895Z" fill="#813E3F"/>
<path d="M336.981 0.191895H324.5V12.6868H336.981V0.191895Z" fill="black" fill-opacity="0.2"/>
<path d="M324.5 0.191895H312.019V12.6868H324.5V0.191895Z" fill="#813E3F"/>
<path d="M324.5 0.191895H312.019V12.6868H324.5V0.191895Z" fill="black" fill-opacity="0.2"/>
<path d="M312.019 0.191895H299.539V12.6868H312.019V0.191895Z" fill="#813E3F"/>
<path d="M312.019 0.191895H299.539V12.6868H312.019V0.191895Z" fill="black" fill-opacity="0.2"/>
<path d="M299.539 0.191895H287.058V12.6868H299.539V0.191895Z" fill="#813E3F"/>
<path d="M299.539 0.191895H287.058V12.6868H299.539V0.191895Z" fill="black" fill-opacity="0.2"/>
<path d="M287.058 0.191895H274.577V12.6868H287.058V0.191895Z" fill="#813E3F"/>
<path d="M287.058 0.191895H274.577V12.6868H287.058V0.191895Z" fill="black" fill-opacity="0.2"/>
<path d="M274.577 0.191895H262.096V12.6868H274.577V0.191895Z" fill="#813E3F"/>
<path d="M274.577 0.191895H262.096V12.6868H274.577V0.191895Z" fill="black" fill-opacity="0.2"/>
<path d="M212.173 0.191895H199.692V12.6868H212.173V0.191895Z" fill="#813E3F"/>
<path d="M212.173 0.191895H199.692V12.6868H212.173V0.191895Z" fill="black" fill-opacity="0.2"/>
<path d="M199.692 0.191895H187.211V12.6868H199.692V0.191895Z" fill="#813E3F"/>
<path d="M199.692 0.191895H187.211V12.6868H199.692V0.191895Z" fill="black" fill-opacity="0.2"/>
<path d="M187.211 0.191895H174.731V12.6868H187.211V0.191895Z" fill="#813E3F"/>
<path d="M187.211 0.191895H174.731V12.6868H187.211V0.191895Z" fill="black" fill-opacity="0.2"/>
<path d="M174.731 0.191895H162.25V12.6868H174.731V0.191895Z" fill="#813E3F"/>
<path d="M174.731 0.191895H162.25V12.6868H174.731V0.191895Z" fill="black" fill-opacity="0.2"/>
<path d="M262.096 87.6566H249.615V100.152H262.096V87.6566Z" fill="#813E3F"/>
<path d="M262.096 87.6566H249.615V100.152H262.096V87.6566Z" fill="black" fill-opacity="0.2"/>
<path d="M249.615 87.6566H237.135V100.152H249.615V87.6566Z" fill="#813E3F"/>
<path d="M249.615 87.6566H237.135V100.152H249.615V87.6566Z" fill="black" fill-opacity="0.2"/>
<path d="M237.135 87.6566H224.654V100.152H237.135V87.6566Z" fill="#813E3F"/>
<path d="M237.135 87.6566H224.654V100.152H237.135V87.6566Z" fill="black" fill-opacity="0.2"/>
<path d="M224.654 87.6566H212.173V100.152H224.654V87.6566Z" fill="#813E3F"/>
<path d="M224.654 87.6566H212.173V100.152H224.654V87.6566Z" fill="black" fill-opacity="0.2"/>
<path d="M262.096 0.191895H249.615V12.6868H262.096V0.191895Z" fill="#813E3F"/>
<path d="M262.096 0.191895H249.615V12.6868H262.096V0.191895Z" fill="black" fill-opacity="0.2"/>
<path d="M249.615 0.191895H237.135V12.6868H249.615V0.191895Z" fill="#813E3F"/>
<path d="M249.615 0.191895H237.135V12.6868H249.615V0.191895Z" fill="black" fill-opacity="0.2"/>
<path d="M237.135 0.191895H224.654V12.6868H237.135V0.191895Z" fill="#813E3F"/>
<path d="M237.135 0.191895H224.654V12.6868H237.135V0.191895Z" fill="black" fill-opacity="0.2"/>
<path d="M224.654 0.191895H212.173V12.6868H224.654V0.191895Z" fill="#813E3F"/>
<path d="M224.654 0.191895H212.173V12.6868H224.654V0.191895Z" fill="black" fill-opacity="0.2"/>
<path d="M162.25 0.191895H149.769V12.6868H162.25V0.191895Z" fill="#813E3F"/>
<path d="M162.25 0.191895H149.769V12.6868H162.25V0.191895Z" fill="black" fill-opacity="0.2"/>
<path d="M149.769 0.191895H137.289V12.6868H149.769V0.191895Z" fill="#813E3F"/>
<path d="M149.769 0.191895H137.289V12.6868H149.769V0.191895Z" fill="black" fill-opacity="0.2"/>
<path d="M137.289 0.191895H124.808V12.6868H137.289V0.191895Z" fill="#813E3F"/>
<path d="M137.289 0.191895H124.808V12.6868H137.289V0.191895Z" fill="black" fill-opacity="0.2"/>
<path d="M124.808 0.191895H112.327V12.6868H124.808V0.191895Z" fill="#813E3F"/>
<path d="M124.808 0.191895H112.327V12.6868H124.808V0.191895Z" fill="black" fill-opacity="0.2"/>
<path d="M112.327 0.191895H99.8462V12.6868H112.327V0.191895Z" fill="#813E3F"/>
<path d="M112.327 0.191895H99.8462V12.6868H112.327V0.191895Z" fill="black" fill-opacity="0.2"/>
<path d="M99.8462 0.191895H87.3655V12.6868H99.8462V0.191895Z" fill="#813E3F"/>
<path d="M99.8462 0.191895H87.3655V12.6868H99.8462V0.191895Z" fill="black" fill-opacity="0.2"/>
<path d="M87.3655 0.191895H74.8845V12.6868H87.3655V0.191895Z" fill="#813E3F"/>
<path d="M87.3655 0.191895H74.8845V12.6868H87.3655V0.191895Z" fill="black" fill-opacity="0.2"/>
<path d="M74.8845 0.191895H62.4038V12.6868H74.8845V0.191895Z" fill="#813E3F"/>
<path d="M74.8845 0.191895H62.4038V12.6868H74.8845V0.191895Z" fill="black" fill-opacity="0.2"/>
<path d="M62.4038 0.191895H49.9231V12.6868H62.4038V0.191895Z" fill="#813E3F"/>
<path d="M62.4038 0.191895H49.9231V12.6868H62.4038V0.191895Z" fill="black" fill-opacity="0.2"/>
<path d="M49.9231 0.191895H37.4424V12.6868H49.9231V0.191895Z" fill="#813E3F"/>
<path d="M49.9231 0.191895H37.4424V12.6868H49.9231V0.191895Z" fill="black" fill-opacity="0.2"/>
<path d="M37.4424 0.191895H24.9614L24.9615 12.6868L37.4424 12.6868V0.191895Z" fill="#813E3F"/>
<path d="M37.4424 0.191895H24.9614L24.9615 12.6868L37.4424 12.6868V0.191895Z" fill="black" fill-opacity="0.2"/>
<path d="M536.673 87.6566H524.192V100.152H536.673V87.6566Z" fill="#813E3F"/>
<path d="M536.673 87.6566H524.192V100.152H536.673V87.6566Z" fill="black" fill-opacity="0.2"/>
<path d="M536.673 0.191895H524.192V12.6868H536.673V0.191895Z" fill="#813E3F"/>
<path d="M536.673 0.191895H524.192V12.6868H536.673V0.191895Z" fill="black" fill-opacity="0.2"/>
<path d="M524.192 87.6566H511.711V100.152H524.192V87.6566Z" fill="#813E3F"/>
<path d="M524.192 87.6566H511.711V100.152H524.192V87.6566Z" fill="black" fill-opacity="0.2"/>
<path d="M524.192 0.191895H511.711V12.6868H524.192V0.191895Z" fill="#813E3F"/>
<path d="M524.192 0.191895H511.711V12.6868H524.192V0.191895Z" fill="black" fill-opacity="0.2"/>
<path d="M574.115 87.6566H561.635V100.152H574.115V87.6566Z" fill="#813E3F"/>
<path d="M574.115 87.6566H561.635V100.152H574.115V87.6566Z" fill="black" fill-opacity="0.2"/>
<path d="M574.115 0.191895H561.635V12.6868H574.115V0.191895Z" fill="#813E3F"/>
<path d="M574.115 0.191895H561.635V12.6868H574.115V0.191895Z" fill="black" fill-opacity="0.2"/>
<path d="M561.635 87.6566H549.154V100.152H561.635V87.6566Z" fill="#813E3F"/>
<path d="M561.635 87.6566H549.154V100.152H561.635V87.6566Z" fill="black" fill-opacity="0.2"/>
<path d="M549.154 87.6566H536.673V100.152H549.154V87.6566Z" fill="#813E3F"/>
<path d="M549.154 87.6566H536.673V100.152H549.154V87.6566Z" fill="black" fill-opacity="0.2"/>
<path d="M561.635 0.191895H549.154V12.6868H561.635V0.191895Z" fill="#813E3F"/>
<path d="M561.635 0.191895H549.154V12.6868H561.635V0.191895Z" fill="black" fill-opacity="0.2"/>
<path d="M549.154 0.191895H536.673V12.6868H549.154V0.191895Z" fill="#813E3F"/>
<path d="M549.154 0.191895H536.673V12.6868H549.154V0.191895Z" fill="black" fill-opacity="0.2"/>
</svg>
