<svg width="250" height="70" viewBox="0 0 649 100" fill="none" xmlns="http://www.w3.org/2000/svg">
<path d="M74.8846 25.0303H62.4038V37.5252H74.8846V25.0303Z" fill="#FFFDFB"/>
<path d="M62.4038 25.0303H49.9231V37.5252H62.4038V25.0303Z" fill="#FFFDFB"/>
<path d="M49.9231 25.0303H37.4424V37.5252H49.9231V25.0303Z" fill="#FFFDFB"/>
<path d="M74.8846 75.01H62.4038V87.505H74.8846V75.01Z" fill="#F6BCC2"/>
<path d="M62.4038 75.01H49.9231V87.505H62.4038V75.01Z" fill="#F6BCC2"/>
<path d="M49.9231 75.01H37.4424V87.505H49.9231V75.01Z" fill="#F6BCC2"/>
<path d="M37.4424 75.01H24.9614V87.505H37.4424V75.01Z" fill="#F6BCC2"/>
<path d="M74.8846 62.515H62.4038V75.01H74.8846V62.515Z" fill="#F6BCC2"/>
<path d="M62.4038 62.515H49.9231V75.01H62.4038V62.515Z" fill="#F6BCC2"/>
<path d="M49.9231 62.515H37.4424V75.01H49.9231V62.515Z" fill="#F6BCC2"/>
<path d="M37.4424 62.515H24.9614V75.01H37.4424V62.515Z" fill="#F6BCC2"/>
<path d="M24.9614 62.515H12.4807V75.01L24.9614 75.01V62.515Z" fill="#F6BCC2"/>
<path d="M74.8846 50.02H62.4038V62.515H74.8846V50.02Z" fill="#F6BCC2"/>
<path d="M62.4038 50.02H49.9231V62.515H62.4038V50.02Z" fill="#F6BCC2"/>
<path d="M49.9231 50.02H37.4424V62.515H49.9231V50.02Z" fill="#F6BCC2"/>
<path d="M37.4424 50.02H24.9614V62.515H37.4424V50.02Z" fill="#F6BCC2"/>
<path d="M24.9614 50.02H12.4807V62.515H24.9614V50.02Z" fill="#F6BCC2"/>
<path d="M74.8846 37.5251H62.4038V50.02H74.8846V37.5251Z" fill="#F6BCC2"/>
<path d="M62.4038 37.5251H49.9231V50.02H62.4038V37.5251Z" fill="#F6BCC2"/>
<path d="M49.9231 37.5251H37.4424V50.02H49.9231V37.5251Z" fill="#F6BCC2"/>
<path d="M37.4424 37.5251H24.9614V50.02H37.4424V37.5251Z" fill="#F6BCC2"/>
<path d="M24.9614 37.5251H12.4807V50.02H24.9614V37.5251Z" fill="#F6BCC2"/>
<path d="M37.4422 25.0303H24.9614V37.5251H37.4424L37.4422 25.0303Z" fill="#F6BCC2"/>
<path d="M24.9614 25.0303H12.4807V37.5251H24.9614V25.0303Z" fill="#F6BCC2"/>
<path d="M74.8846 12.5352H62.4038V25.0301H74.8846V12.5352Z" fill="#F6BCC2"/>
<path d="M62.4038 12.5352H49.9231V25.0301H62.4038V12.5352Z" fill="#F6BCC2"/>
<path d="M49.9231 12.5352H37.4424L37.4422 25.0303L49.9231 25.0301V12.5352Z" fill="#F6BCC2"/>
<path d="M37.4424 12.5352H24.9614V25.0303H37.4422L37.4424 12.5352Z" fill="#F6BCC2"/>
<path d="M624.038 75.01H611.558V87.505H624.038V75.01Z" fill="#6D3435"/>
<path d="M611.558 75.01H599.077V87.505H611.558V75.01Z" fill="#6D3435"/>
<path d="M511.711 75.01H499.231V87.505H511.711V75.01Z" fill="#6D3435"/>
<path d="M461.788 75.01H449.308V87.505H461.788V75.01Z" fill="#6D3435"/>
<path d="M449.308 75.01H436.827V87.505H449.308V75.01Z" fill="#6D3435"/>
<path d="M436.827 75.01H424.346V87.505H436.827V75.01Z" fill="#6D3435"/>
<path d="M424.346 75.01H411.865V87.505H424.346V75.01Z" fill="#6D3435"/>
<path d="M411.865 75.01H399.385V87.505H411.865V75.01Z" fill="#6D3435"/>
<path d="M399.385 75.01H386.904V87.505H399.385V75.01Z" fill="#6D3435"/>
<path d="M386.904 75.01H374.423V87.505H386.904V75.01Z" fill="#6D3435"/>
<path d="M374.423 75.01H361.942V87.505H374.423V75.01Z" fill="#6D3435"/>
<path d="M361.942 75.01H349.461V87.505H361.942V75.01Z" fill="#6D3435"/>
<path d="M349.461 75.01H336.981V87.505H349.461V75.01Z" fill="#6D3435"/>
<path d="M336.981 75.01H324.5V87.505H336.981V75.01Z" fill="#6D3435"/>
<path d="M324.5 75.01H312.019V87.505H324.5V75.01Z" fill="#6D3435"/>
<path d="M312.019 75.01H299.539V87.505H312.019V75.01Z" fill="#6D3435"/>
<path d="M299.539 75.01H287.058V87.505H299.539V75.01Z" fill="#6D3435"/>
<path d="M287.058 75.01H274.577V87.505H287.058V75.01Z" fill="#6D3435"/>
<path d="M274.577 75.01H262.096V87.505H274.577V75.01Z" fill="#6D3435"/>
<path d="M212.173 75.01H199.692V87.505H212.173V75.01Z" fill="#6D3435"/>
<path d="M199.692 75.01H187.211V87.505H199.692V75.01Z" fill="#6D3435"/>
<path d="M187.211 75.01H174.731V87.505H187.211V75.01Z" fill="#6D3435"/>
<path d="M174.731 75.01H162.25V87.505H174.731V75.01Z" fill="#6D3435"/>
<path d="M162.25 75.01H149.769V87.505H162.25V75.01Z" fill="#6D3435"/>
<path d="M149.769 75.01H137.289V87.505H149.769V75.01Z" fill="#6D3435"/>
<path d="M137.289 75.01H124.808V87.505H137.289V75.01Z" fill="#6D3435"/>
<path d="M124.808 75.01H112.327V87.505H124.808V75.01Z" fill="#6D3435"/>
<path d="M112.327 75.01H99.8462V87.505H112.327V75.01Z" fill="#6D3435"/>
<path d="M99.8462 75.01H87.3655V87.505H99.8462V75.01Z" fill="#6D3435"/>
<path d="M87.3655 75.01H74.8845V87.505H87.3655V75.01Z" fill="#6D3435"/>
<path d="M636.519 62.515H624.039L624.038 75.01L636.519 75.01V62.515Z" fill="#6D3435"/>
<path d="M624.039 62.515H611.558V75.01H624.038L624.039 62.515Z" fill="#6D3435"/>
<path d="M611.558 62.515H599.077V75.01H611.558V62.515Z" fill="#6D3435"/>
<path d="M511.711 62.515H499.231V75.01H511.711V62.515Z" fill="#6D3435"/>
<path d="M461.788 62.515H449.308V75.01H461.788V62.515Z" fill="#6D3435"/>
<path d="M449.308 62.515H436.827V75.01H449.308V62.515Z" fill="#6D3435"/>
<path d="M436.827 62.515H424.346V75.01H436.827V62.515Z" fill="#6D3435"/>
<path d="M424.346 62.515H411.865V75.01H424.346V62.515Z" fill="#6D3435"/>
<path d="M411.865 62.515H399.385V75.01H411.865V62.515Z" fill="#6D3435"/>
<path d="M399.385 62.515H386.904V75.01H399.385V62.515Z" fill="#6D3435"/>
<path d="M386.904 62.515H374.423V75.01H386.904V62.515Z" fill="#6D3435"/>
<path d="M374.423 62.515H361.942V75.01H374.423V62.515Z" fill="#6D3435"/>
<path d="M361.942 62.515H349.461V75.01H361.942V62.515Z" fill="#6D3435"/>
<path d="M349.461 62.515H336.981V75.01H349.461V62.515Z" fill="#6D3435"/>
<path d="M336.981 62.515H324.5V75.01H336.981V62.515Z" fill="#6D3435"/>
<path d="M324.5 62.515H312.019V75.01H324.5V62.515Z" fill="#6D3435"/>
<path d="M312.019 62.515H299.539V75.01H312.019V62.515Z" fill="#6D3435"/>
<path d="M299.539 62.515H287.058V75.01H299.539V62.515Z" fill="#6D3435"/>
<path d="M287.058 62.515H274.577V75.01H287.058V62.515Z" fill="#6D3435"/>
<path d="M274.577 62.515H262.096V75.01H274.577V62.515Z" fill="#6D3435"/>
<path d="M212.173 62.515H199.692V75.01H212.173V62.515Z" fill="#6D3435"/>
<path d="M199.692 62.515H187.211V75.01H199.692V62.515Z" fill="#6D3435"/>
<path d="M187.211 62.515H174.731V75.01H187.211V62.515Z" fill="#6D3435"/>
<path d="M174.731 62.515H162.25V75.01H174.731V62.515Z" fill="#6D3435"/>
<path d="M162.25 62.515H149.769V75.01H162.25V62.515Z" fill="#6D3435"/>
<path d="M149.769 62.515H137.289V75.01H149.769V62.515Z" fill="#6D3435"/>
<path d="M137.289 62.515H124.808V75.01H137.289V62.515Z" fill="#6D3435"/>
<path d="M124.808 62.515H112.327V75.01H124.808V62.515Z" fill="#6D3435"/>
<path d="M112.327 62.515H99.8462V75.01H112.327V62.515Z" fill="#6D3435"/>
<path d="M99.8462 62.515H87.3655V75.01H99.8462V62.515Z" fill="#6D3435"/>
<path d="M87.3655 62.515H74.8845V75.01H87.3655V62.515Z" fill="#6D3435"/>
<path d="M636.519 50.02H624.039V62.515H636.519V50.02Z" fill="#6D3435"/>
<path d="M624.039 50.02H611.558V62.515H624.039V50.02Z" fill="#6D3435"/>
<path d="M611.558 50.02H599.077V62.515H611.558V50.02Z" fill="#6D3435"/>
<path d="M511.711 50.02H499.231V62.515H511.711V50.02Z" fill="#6D3435"/>
<path d="M461.788 50.02H449.308V62.515H461.788V50.02Z" fill="#6D3435"/>
<path d="M449.308 50.02H436.827V62.515H449.308V50.02Z" fill="#6D3435"/>
<path d="M436.827 50.02H424.346V62.515H436.827V50.02Z" fill="#6D3435"/>
<path d="M424.346 50.02H411.865V62.515H424.346V50.02Z" fill="#6D3435"/>
<path d="M411.865 50.02H399.385V62.515H411.865V50.02Z" fill="#6D3435"/>
<path d="M399.385 50.02H386.904V62.515H399.385V50.02Z" fill="#6D3435"/>
<path d="M386.904 50.02H374.423V62.515H386.904V50.02Z" fill="#6D3435"/>
<path d="M374.423 50.02H361.942V62.515H374.423V50.02Z" fill="#6D3435"/>
<path d="M361.942 50.02H349.461V62.515H361.942V50.02Z" fill="#6D3435"/>
<path d="M349.461 50.02H336.981V62.515H349.461V50.02Z" fill="#6D3435"/>
<path d="M336.981 50.02H324.5V62.515H336.981V50.02Z" fill="#6D3435"/>
<path d="M324.5 50.02H312.019V62.515H324.5V50.02Z" fill="#6D3435"/>
<path d="M312.019 50.02H299.539V62.515H312.019V50.02Z" fill="#6D3435"/>
<path d="M299.539 50.02H287.058V62.515H299.539V50.02Z" fill="#6D3435"/>
<path d="M287.058 50.02H274.577V62.515H287.058V50.02Z" fill="#6D3435"/>
<path d="M274.577 50.02H262.096V62.515H274.577V50.02Z" fill="#6D3435"/>
<path d="M212.173 50.02H199.692V62.515H212.173V50.02Z" fill="#6D3435"/>
<path d="M199.692 50.02H187.211V62.515H199.692V50.02Z" fill="#6D3435"/>
<path d="M187.211 50.02H174.731V62.515H187.211V50.02Z" fill="#6D3435"/>
<path d="M174.731 50.02H162.25V62.515H174.731V50.02Z" fill="#6D3435"/>
<path d="M162.25 50.02H149.769V62.515H162.25V50.02Z" fill="#6D3435"/>
<path d="M149.769 50.02H137.289V62.515H149.769V50.02Z" fill="#6D3435"/>
<path d="M137.289 50.02H124.808V62.515H137.289V50.02Z" fill="#6D3435"/>
<path d="M124.808 50.02H112.327V62.515H124.808V50.02Z" fill="#6D3435"/>
<path d="M112.327 50.02H99.8462V62.515H112.327V50.02Z" fill="#6D3435"/>
<path d="M99.8462 50.02H87.3655V62.515H99.8462V50.02Z" fill="#6D3435"/>
<path d="M87.3655 50.02H74.8845V62.515H87.3655V50.02Z" fill="#6D3435"/>
<path d="M636.519 37.5251H624.039V50.02H636.519V37.5251Z" fill="#6D3435"/>
<path d="M624.039 37.5251H611.558V50.02H624.039V37.5251Z" fill="#6D3435"/>
<path d="M611.558 37.5251H599.077V50.02H611.558V37.5251Z" fill="#6D3435"/>
<path d="M511.711 37.5251H499.231V50.02H511.711V37.5251Z" fill="#6D3435"/>
<path d="M461.788 37.5251H449.308V50.02H461.788V37.5251Z" fill="#6D3435"/>
<path d="M449.308 37.5251H436.827V50.02H449.308V37.5251Z" fill="#6D3435"/>
<path d="M436.827 37.5251H424.346V50.02H436.827V37.5251Z" fill="#6D3435"/>
<path d="M424.346 37.5251H411.865V50.02H424.346V37.5251Z" fill="#6D3435"/>
<path d="M411.865 37.5251H399.385V50.02H411.865V37.5251Z" fill="#6D3435"/>
<path d="M399.385 37.5251H386.904V50.02H399.385V37.5251Z" fill="#6D3435"/>
<path d="M386.904 37.5251H374.423V50.02H386.904V37.5251Z" fill="#6D3435"/>
<path d="M374.423 37.5251H361.942V50.02H374.423V37.5251Z" fill="#6D3435"/>
<path d="M361.942 37.5251H349.461V50.02H361.942V37.5251Z" fill="#6D3435"/>
<path d="M349.461 37.5251H336.981V50.02H349.461V37.5251Z" fill="#6D3435"/>
<path d="M336.981 37.5251H324.5V50.02H336.981V37.5251Z" fill="#6D3435"/>
<path d="M324.5 37.5251H312.019V50.02H324.5V37.5251Z" fill="#6D3435"/>
<path d="M312.019 37.5251H299.539V50.02H312.019V37.5251Z" fill="#6D3435"/>
<path d="M299.539 37.5251H287.058V50.02H299.539V37.5251Z" fill="#6D3435"/>
<path d="M287.058 37.5251H274.577V50.02H287.058V37.5251Z" fill="#6D3435"/>
<path d="M274.577 37.5251H262.096V50.02H274.577V37.5251Z" fill="#6D3435"/>
<path d="M212.173 37.5251H199.692V50.02H212.173V37.5251Z" fill="#6D3435"/>
<path d="M199.692 37.5251H187.211V50.02H199.692V37.5251Z" fill="#6D3435"/>
<path d="M187.211 37.5251H174.731V50.02H187.211V37.5251Z" fill="#6D3435"/>
<path d="M174.731 37.5251H162.25V50.02H174.731V37.5251Z" fill="#6D3435"/>
<path d="M162.25 37.5251H149.769V50.02H162.25V37.5251Z" fill="#6D3435"/>
<path d="M149.769 37.5251H137.289V50.02H149.769V37.5251Z" fill="#6D3435"/>
<path d="M137.289 37.5251H124.808V50.02H137.289V37.5251Z" fill="#6D3435"/>
<path d="M124.808 37.5251H112.327V50.02H124.808V37.5251Z" fill="#6D3435"/>
<path d="M112.327 37.5251H99.8462V50.02H112.327V37.5251Z" fill="#6D3435"/>
<path d="M99.8462 37.5251H87.3655V50.02H99.8462V37.5251Z" fill="#6D3435"/>
<path d="M87.3655 37.5251H74.8845V50.02H87.3655V37.5251Z" fill="#6D3435"/>
<path d="M636.519 25.0303H624.039V37.5251H636.519V25.0303Z" fill="#6D3435"/>
<path d="M624.039 25.0303H611.558V37.5251H624.039V25.0303Z" fill="#6D3435"/>
<path d="M611.558 25.0303H599.077V37.5251H611.558V25.0303Z" fill="#6D3435"/>
<path d="M511.711 25.0303H499.231V37.5251H511.711V25.0303Z" fill="#6D3435"/>
<path d="M461.788 25.0303H449.308V37.5251H461.788V25.0303Z" fill="#6D3435"/>
<path d="M449.308 25.0303H436.827V37.5251H449.308V25.0303Z" fill="#6D3435"/>
<path d="M436.827 25.0303H424.346V37.5251H436.827V25.0303Z" fill="#6D3435"/>
<path d="M424.346 25.0303H411.865V37.5251H424.346V25.0303Z" fill="#6D3435"/>
<path d="M411.865 25.0303H399.385V37.5251H411.865V25.0303Z" fill="#6D3435"/>
<path d="M399.385 25.0303H386.904V37.5251H399.385V25.0303Z" fill="#6D3435"/>
<path d="M386.904 25.0303H374.423V37.5251H386.904V25.0303Z" fill="#6D3435"/>
<path d="M374.423 25.0303H361.942V37.5251H374.423V25.0303Z" fill="#6D3435"/>
<path d="M361.942 25.0303H349.461V37.5251H361.942V25.0303Z" fill="#6D3435"/>
<path d="M349.461 25.0303H336.981V37.5251H349.461V25.0303Z" fill="#6D3435"/>
<path d="M336.981 25.0303H324.5V37.5251H336.981V25.0303Z" fill="#6D3435"/>
<path d="M324.5 25.0303H312.019V37.5251H324.5V25.0303Z" fill="#6D3435"/>
<path d="M312.019 25.0303H299.539V37.5251H312.019V25.0303Z" fill="#6D3435"/>
<path d="M299.539 25.0303H287.058V37.5251H299.539V25.0303Z" fill="#6D3435"/>
<path d="M287.058 25.0303H274.577V37.5251H287.058V25.0303Z" fill="#6D3435"/>
<path d="M274.577 25.0303H262.096V37.5251H274.577V25.0303Z" fill="#6D3435"/>
<path d="M212.173 25.0303H199.692V37.5251H212.173V25.0303Z" fill="#6D3435"/>
<path d="M199.692 25.0303H187.211V37.5251H199.692V25.0303Z" fill="#6D3435"/>
<path d="M187.211 25.0303H174.731V37.5251H187.211V25.0303Z" fill="#6D3435"/>
<path d="M174.731 25.0303H162.25V37.5251H174.731V25.0303Z" fill="#6D3435"/>
<path d="M162.25 25.0303H149.769V37.5251H162.25V25.0303Z" fill="#6D3435"/>
<path d="M149.769 25.0303H137.289V37.5251H149.769V25.0303Z" fill="#6D3435"/>
<path d="M137.289 25.0303H124.808V37.5251H137.289V25.0303Z" fill="#6D3435"/>
<path d="M124.808 25.0303H112.327V37.5251H124.808V25.0303Z" fill="#6D3435"/>
<path d="M112.327 25.0303H99.8462V37.5251H112.327V25.0303Z" fill="#6D3435"/>
<path d="M99.8462 25.0303H87.3655V37.5251H99.8462V25.0303Z" fill="#6D3435"/>
<path d="M87.3655 25.0303H74.8845V37.5251H87.3655V25.0303Z" fill="#6D3435"/>
<path d="M624.038 12.5352H611.558V25.0303H624.039L624.038 12.5352Z" fill="#6D3435"/>
<path d="M611.558 12.5352H599.077V25.0303H611.558V12.5352Z" fill="#6D3435"/>
<path d="M511.711 12.5352H499.231V25.0303H511.711V12.5352Z" fill="#6D3435"/>
<path d="M461.788 12.5352H449.308V25.0303H461.788V12.5352Z" fill="#6D3435"/>
<path d="M449.308 12.5352H436.827V25.0303H449.308V12.5352Z" fill="#6D3435"/>
<path d="M436.827 12.5352H424.346V25.0303H436.827V12.5352Z" fill="#6D3435"/>
<path d="M424.346 12.5352H411.865V25.0303H424.346V12.5352Z" fill="#6D3435"/>
<path d="M411.865 12.5352H399.385V25.0303H411.865V12.5352Z" fill="#6D3435"/>
<path d="M399.385 12.5352H386.904V25.0303H399.385V12.5352Z" fill="#6D3435"/>
<path d="M386.904 12.5352H374.423V25.0303H386.904V12.5352Z" fill="#6D3435"/>
<path d="M374.423 12.5352H361.942V25.0303H374.423V12.5352Z" fill="#6D3435"/>
<path d="M361.942 12.5352H349.461V25.0303H361.942V12.5352Z" fill="#6D3435"/>
<path d="M349.461 12.5352H336.981V25.0303H349.461V12.5352Z" fill="#6D3435"/>
<path d="M336.981 12.5352H324.5V25.0303H336.981V12.5352Z" fill="#6D3435"/>
<path d="M324.5 12.5352H312.019V25.0303H324.5V12.5352Z" fill="#6D3435"/>
<path d="M312.019 12.5352H299.539V25.0303H312.019V12.5352Z" fill="#6D3435"/>
<path d="M299.539 12.5352H287.058V25.0303H299.539V12.5352Z" fill="#6D3435"/>
<path d="M287.058 12.5352H274.577V25.0303H287.058V12.5352Z" fill="#6D3435"/>
<path d="M274.577 12.5352H262.096V25.0303H274.577V12.5352Z" fill="#6D3435"/>
<path d="M212.173 12.5352H199.692V25.0303H212.173V12.5352Z" fill="#6D3435"/>
<path d="M199.692 12.5352H187.211V25.0303H199.692V12.5352Z" fill="#6D3435"/>
<path d="M187.211 12.5352H174.731V25.0303H187.211V12.5352Z" fill="#6D3435"/>
<path d="M174.731 12.5352H162.25V25.0303H174.731V12.5352Z" fill="#6D3435"/>
<path d="M162.25 12.5352H149.769V25.0303H162.25V12.5352Z" fill="#6D3435"/>
<path d="M149.769 12.5352H137.289V25.0303H149.769V12.5352Z" fill="#6D3435"/>
<path d="M137.289 12.5352H124.808V25.0303H137.289V12.5352Z" fill="#6D3435"/>
<path d="M124.808 12.5352H112.327V25.0303H124.808V12.5352Z" fill="#6D3435"/>
<path d="M112.327 12.5352H99.8462V25.0303H112.327V12.5352Z" fill="#6D3435"/>
<path d="M99.8462 12.5352H87.3655V25.0303H99.8462V12.5352Z" fill="#6D3435"/>
<path d="M87.3655 12.5352H74.8845V25.0303H87.3655V12.5352Z" fill="#6D3435"/>
<path d="M499.231 75.01H486.75V87.505H499.231V75.01Z" fill="#6D3435"/>
<path d="M486.75 75.01H474.269V87.505H486.75V75.01Z" fill="#6D3435"/>
<path d="M474.269 75.01H461.788V87.505H474.269V75.01Z" fill="#6D3435"/>
<path d="M499.231 62.515H486.75V75.01H499.231V62.515Z" fill="#6D3435"/>
<path d="M486.75 62.515H474.269V75.01H486.75V62.515Z" fill="#6D3435"/>
<path d="M474.269 62.515H461.788V75.01H474.269V62.515Z" fill="#6D3435"/>
<path d="M499.231 50.02H486.75V62.515H499.231V50.02Z" fill="#6D3435"/>
<path d="M486.75 50.02H474.269V62.515H486.75V50.02Z" fill="#6D3435"/>
<path d="M474.269 50.02H461.788V62.515H474.269V50.02Z" fill="#6D3435"/>
<path d="M499.231 37.5251H486.75V50.02H499.231V37.5251Z" fill="#6D3435"/>
<path d="M486.75 37.5251H474.269V50.02H486.75V37.5251Z" fill="#6D3435"/>
<path d="M474.269 37.5251H461.788V50.02H474.269V37.5251Z" fill="#6D3435"/>
<path d="M499.231 25.0303H486.75V37.5251H499.231V25.0303Z" fill="#6D3435"/>
<path d="M486.75 25.0303H474.269V37.5251H486.75V25.0303Z" fill="#6D3435"/>
<path d="M474.269 25.0303H461.788V37.5251H474.269V25.0303Z" fill="#6D3435"/>
<path d="M499.231 12.5352H486.75V25.0303H499.231V12.5352Z" fill="#6D3435"/>
<path d="M486.75 12.5352H474.269V25.0303H486.75V12.5352Z" fill="#6D3435"/>
<path d="M474.269 12.5352H461.788V25.0303H474.269V12.5352Z" fill="#6D3435"/>
<path d="M574.115 75.01H561.635V87.505H574.115V75.01Z" fill="#6D3435"/>
<path d="M574.115 62.515H561.635V75.01H574.115V62.515Z" fill="#6D3435"/>
<path d="M574.115 50.02H561.635V62.515H574.115V50.02Z" fill="#6D3435"/>
<path d="M574.115 37.5251H561.635V50.02H574.115V37.5251Z" fill="#6D3435"/>
<path d="M574.115 25.0303H561.635V37.5251H574.115V25.0303Z" fill="#6D3435"/>
<path d="M574.115 12.5352H561.635V25.0303H574.115V12.5352Z" fill="#6D3435"/>
<path d="M561.635 75.01H549.154V87.505H561.635V75.01Z" fill="#6D3435"/>
<path d="M549.154 75.01H536.673V87.505H549.154V75.01Z" fill="#6D3435"/>
<path d="M561.635 62.515H549.154V75.01H561.635V62.515Z" fill="#6D3435"/>
<path d="M549.154 62.515H536.673V75.01H549.154V62.515Z" fill="#6D3435"/>
<path d="M561.635 50.02H549.154V62.515H561.635V50.02Z" fill="#6D3435"/>
<path d="M549.154 50.02H536.673V62.515H549.154V50.02Z" fill="#6D3435"/>
<path d="M561.635 37.5251H549.154V50.02H561.635V37.5251Z" fill="#6D3435"/>
<path d="M549.154 37.5251H536.673V50.02H549.154V37.5251Z" fill="#6D3435"/>
<path d="M561.635 25.0303H549.154V37.5251H561.635V25.0303Z" fill="#6D3435"/>
<path d="M549.154 25.0303H536.673V37.5251H549.154V25.0303Z" fill="#6D3435"/>
<path d="M561.635 12.5352H549.154V25.0303H561.635V12.5352Z" fill="#6D3435"/>
<path d="M549.154 12.5352H536.673V25.0303H549.154V12.5352Z" fill="#6D3435"/>
<path d="M599.077 75.01H586.596V87.505H599.077V75.01Z" fill="#6D3435"/>
<path d="M586.596 75.01H574.115V87.505H586.596V75.01Z" fill="#6D3435"/>
<path d="M599.077 62.515H586.596V75.01H599.077V62.515Z" fill="#6D3435"/>
<path d="M586.596 62.515H574.115V75.01H586.596V62.515Z" fill="#6D3435"/>
<path d="M599.077 50.02H586.596V62.515H599.077V50.02Z" fill="#6D3435"/>
<path d="M586.596 50.02H574.115V62.515H586.596V50.02Z" fill="#6D3435"/>
<path d="M599.077 37.5251H586.596V50.02H599.077V37.5251Z" fill="#6D3435"/>
<path d="M586.596 37.5251H574.115V50.02H586.596V37.5251Z" fill="#6D3435"/>
<path d="M599.077 25.0303H586.596V37.5251H599.077V25.0303Z" fill="#6D3435"/>
<path d="M586.596 25.0303H574.115V37.5251H586.596V25.0303Z" fill="#6D3435"/>
<path d="M599.077 12.5352H586.596V25.0303H599.077V12.5352Z" fill="#6D3435"/>
<path d="M586.596 12.5352H574.115V25.0303H586.596V12.5352Z" fill="#6D3435"/>
<path d="M262.096 75.01H249.615V87.505H262.096V75.01Z" fill="#6D3435"/>
<path d="M249.615 75.01H237.135V87.505H249.615V75.01Z" fill="#6D3435"/>
<path d="M237.135 75.01H224.654V87.505H237.135V75.01Z" fill="#6D3435"/>
<path d="M224.654 75.01H212.173V87.505H224.654V75.01Z" fill="#6D3435"/>
<path d="M262.096 62.515H249.615V75.01H262.096V62.515Z" fill="#6D3435"/>
<path d="M249.615 62.515H237.135V75.01H249.615V62.515Z" fill="#6D3435"/>
<path d="M237.135 62.515H224.654V75.01H237.135V62.515Z" fill="#6D3435"/>
<path d="M224.654 62.515H212.173V75.01H224.654V62.515Z" fill="#6D3435"/>
<path d="M262.096 50.02H249.615V62.515H262.096V50.02Z" fill="#6D3435"/>
<path d="M249.615 50.02H237.135V62.515H249.615V50.02Z" fill="#6D3435"/>
<path d="M237.135 50.02H224.654V62.515H237.135V50.02Z" fill="#6D3435"/>
<path d="M224.654 50.02H212.173V62.515H224.654V50.02Z" fill="#6D3435"/>
<path d="M262.096 37.5251H249.615V50.02H262.096V37.5251Z" fill="#6D3435"/>
<path d="M249.615 37.5251H237.135V50.02H249.615V37.5251Z" fill="#6D3435"/>
<path d="M237.135 37.5251H224.654V50.02H237.135V37.5251Z" fill="#6D3435"/>
<path d="M224.654 37.5251H212.173V50.02H224.654V37.5251Z" fill="#6D3435"/>
<path d="M262.096 25.0303H249.615V37.5251H262.096V25.0303Z" fill="#6D3435"/>
<path d="M249.615 25.0303H237.135V37.5251H249.615V25.0303Z" fill="#6D3435"/>
<path d="M237.135 25.0303H224.654V37.5251H237.135V25.0303Z" fill="#6D3435"/>
<path d="M224.654 25.0303H212.173V37.5251H224.654V25.0303Z" fill="#6D3435"/>
<path d="M262.096 12.5352H249.615V25.0303H262.096V12.5352Z" fill="#6D3435"/>
<path d="M249.615 12.5352H237.135V25.0303H249.615V12.5352Z" fill="#6D3435"/>
<path d="M237.135 12.5352H224.654V25.0303H237.135V12.5352Z" fill="#6D3435"/>
<path d="M224.654 12.5352H212.173V25.0303H224.654V12.5352Z" fill="#6D3435"/>
<path d="M536.673 75.01H524.192V87.505H536.673V75.01Z" fill="#6D3435"/>
<path d="M536.673 62.515H524.192V75.01H536.673V62.515Z" fill="#6D3435"/>
<path d="M536.673 50.02H524.192V62.515H536.673V50.02Z" fill="#6D3435"/>
<path d="M536.673 37.5251H524.192V50.02H536.673V37.5251Z" fill="#6D3435"/>
<path d="M536.673 25.0303H524.192V37.5251H536.673V25.0303Z" fill="#6D3435"/>
<path d="M536.673 12.5352H524.192V25.0303H536.673V12.5352Z" fill="#6D3435"/>
<path d="M524.192 75.01H511.711V87.505H524.192V75.01Z" fill="#6D3435"/>
<path d="M524.192 62.515H511.711V75.01H524.192V62.515Z" fill="#6D3435"/>
<path d="M524.192 50.02H511.711V62.515H524.192V50.02Z" fill="#6D3435"/>
<path d="M524.192 37.5251H511.711V50.02H524.192V37.5251Z" fill="#6D3435"/>
<path d="M524.192 25.0303H511.711V37.5251H524.192V25.0303Z" fill="#6D3435"/>
<path d="M524.192 12.5352H511.711V25.0303H524.192V12.5352Z" fill="#6D3435"/>
<path d="M624.038 87.5052H611.558V100H624.038V87.5052Z" fill="#813E3F"/>
<path d="M611.558 87.5052H599.077V100H611.558V87.5052Z" fill="#813E3F"/>
<path d="M511.711 87.5052H499.231V100H511.711V87.5052Z" fill="#813E3F"/>
<path d="M461.788 87.5052H449.308V100H461.788V87.5052Z" fill="#813E3F"/>
<path d="M449.308 87.5052H436.827V100H449.308V87.5052Z" fill="#813E3F"/>
<path d="M436.827 87.5052H424.346V100H436.827V87.5052Z" fill="#813E3F"/>
<path d="M424.346 87.5052H411.865V100H424.346V87.5052Z" fill="#813E3F"/>
<path d="M411.865 87.5052H399.385V100H411.865V87.5052Z" fill="#813E3F"/>
<path d="M399.385 87.5052H386.904V100H399.385V87.5052Z" fill="#813E3F"/>
<path d="M386.904 87.5052H374.423V100H386.904V87.5052Z" fill="#813E3F"/>
<path d="M374.423 87.5052H361.942V100H374.423V87.5052Z" fill="#813E3F"/>
<path d="M361.942 87.5052H349.461V100H361.942V87.5052Z" fill="#813E3F"/>
<path d="M349.461 87.5052H336.981V100H349.461V87.5052Z" fill="#813E3F"/>
<path d="M336.981 87.5052H324.5V100H336.981V87.5052Z" fill="#813E3F"/>
<path d="M324.5 87.5052H312.019V100H324.5V87.5052Z" fill="#813E3F"/>
<path d="M312.019 87.5052H299.539V100H312.019V87.5052Z" fill="#813E3F"/>
<path d="M299.539 87.5052H287.058V100H299.539V87.5052Z" fill="#813E3F"/>
<path d="M287.058 87.5052H274.577V100H287.058V87.5052Z" fill="#813E3F"/>
<path d="M274.577 87.5052H262.096V100H274.577V87.5052Z" fill="#813E3F"/>
<path d="M212.173 87.5052H199.692V100H212.173V87.5052Z" fill="#813E3F"/>
<path d="M199.692 87.5052H187.211V100H199.692V87.5052Z" fill="#813E3F"/>
<path d="M187.211 87.5052H174.731V100H187.211V87.5052Z" fill="#813E3F"/>
<path d="M174.731 87.5052H162.25V100H174.731V87.5052Z" fill="#813E3F"/>
<path d="M162.25 87.5052H149.769V100H162.25V87.5052Z" fill="#813E3F"/>
<path d="M149.769 87.5052H137.289V100H149.769V87.5052Z" fill="#813E3F"/>
<path d="M137.289 87.5052H124.808V100H137.289V87.5052Z" fill="#813E3F"/>
<path d="M124.808 87.5052H112.327V100H124.808V87.5052Z" fill="#813E3F"/>
<path d="M112.327 87.5052H99.8462V100H112.327V87.5052Z" fill="#813E3F"/>
<path d="M99.8462 87.5052H87.3655V100H99.8462V87.5052Z" fill="#813E3F"/>
<path d="M87.3655 87.5052H74.8845V100H87.3655V87.5052Z" fill="#813E3F"/>
<path d="M74.8845 87.5052H62.4038V100H74.8845V87.5052Z" fill="#813E3F"/>
<path d="M62.4038 87.5052H49.9231V100H62.4038V87.5052Z" fill="#813E3F"/>
<path d="M49.9231 87.5052H37.4424V100H49.9231V87.5052Z" fill="#813E3F"/>
<path d="M37.4424 87.5052H24.9614V100H37.4424V87.5052Z" fill="#813E3F"/>
<path d="M636.519 75.0103H624.039L624.038 87.5052L636.519 87.5052V75.0103Z" fill="#813E3F"/>
<path d="M24.9615 75.0103H12.4807V87.5052L24.9614 87.5052L24.9615 75.0103Z" fill="#813E3F"/>
<path d="M649 62.5153H636.519L636.519 75.0103L649 75.0102V62.5153Z" fill="#813E3F"/>
<path d="M12.4808 62.5153H0V75.0102L12.4807 75.0103L12.4808 62.5153Z" fill="#813E3F"/>
<path d="M649 50.0203H636.519V62.5153H649V50.0203Z" fill="#813E3F"/>
<path d="M12.4808 50.0203H0V62.5153H12.4808V50.0203Z" fill="#813E3F"/>
<path d="M649 37.5254H636.519V50.0203H649V37.5254Z" fill="#813E3F"/>
<path d="M12.4808 37.5254H0V50.0203H12.4808V37.5254Z" fill="#813E3F"/>
<path d="M649 25.0305H636.519V37.5254H649V25.0305Z" fill="#813E3F"/>
<path d="M12.4808 25.0305H0V37.5254H12.4808V25.0305Z" fill="#813E3F"/>
<path d="M636.519 12.5354H624.039V25.0303L636.519 25.0305L636.519 12.5354Z" fill="#813E3F"/>
<path d="M24.9615 12.5354H12.4807L12.4808 25.0305L24.9615 25.0303V12.5354Z" fill="#813E3F"/>
<path d="M624.038 0.0405273H611.558V12.5355L624.039 12.5354L624.038 0.0405273Z" fill="#813E3F"/>
<path d="M611.558 0.0405273H599.077V12.5355H611.558V0.0405273Z" fill="#813E3F"/>
<path d="M511.711 0.0405273H499.231V12.5355H511.711V0.0405273Z" fill="#813E3F"/>
<path d="M461.788 0.0405273H449.308V12.5355H461.788V0.0405273Z" fill="#813E3F"/>
<path d="M449.308 0.0405273H436.827V12.5355H449.308V0.0405273Z" fill="#813E3F"/>
<path d="M436.827 0.0405273H424.346V12.5355H436.827V0.0405273Z" fill="#813E3F"/>
<path d="M499.231 87.5052H486.75V100H499.231V87.5052Z" fill="#813E3F"/>
<path d="M486.75 87.5052H474.269V100H486.75V87.5052Z" fill="#813E3F"/>
<path d="M474.269 87.5052H461.788V100H474.269V87.5052Z" fill="#813E3F"/>
<path d="M499.231 0.0405273H486.75V12.5355H499.231V0.0405273Z" fill="#813E3F"/>
<path d="M536.673 87.5052H524.192V100H536.673V87.5052Z" fill="#813E3F"/>
<path d="M536.673 0.0405273H524.192V12.5355H536.673V0.0405273Z" fill="#813E3F"/>
<path d="M524.192 87.5052H511.711V100H524.192V87.5052Z" fill="#813E3F"/>
<path d="M524.192 0.0405273H511.711V12.5355H524.192V0.0405273Z" fill="#813E3F"/>
<path d="M486.75 0.0405273H474.269V12.5355H486.75V0.0405273Z" fill="#813E3F"/>
<path d="M574.115 87.5052H561.635V100H574.115V87.5052Z" fill="#813E3F"/>
<path d="M574.115 0.0405273H561.635V12.5355H574.115V0.0405273Z" fill="#813E3F"/>
<path d="M561.635 87.5052H549.154V100H561.635V87.5052Z" fill="#813E3F"/>
<path d="M549.154 87.5052H536.673V100H549.154V87.5052Z" fill="#813E3F"/>
<path d="M561.635 0.0405273H549.154V12.5355H561.635V0.0405273Z" fill="#813E3F"/>
<path d="M549.154 0.0405273H536.673V12.5355H549.154V0.0405273Z" fill="#813E3F"/>
<path d="M599.077 87.5052H586.596V100H599.077V87.5052Z" fill="#813E3F"/>
<path d="M586.596 87.5052H574.115V100H586.596V87.5052Z" fill="#813E3F"/>
<path d="M599.077 0.0405273H586.596V12.5355H599.077V0.0405273Z" fill="#813E3F"/>
<path d="M586.596 0.0405273H574.115V12.5355H586.596V0.0405273Z" fill="#813E3F"/>
<path d="M474.269 0.0405273H461.788V12.5355H474.269V0.0405273Z" fill="#813E3F"/>
<path d="M424.346 0.0405273H411.865V12.5355H424.346V0.0405273Z" fill="#813E3F"/>
<path d="M411.865 0.0405273H399.385V12.5355H411.865V0.0405273Z" fill="#813E3F"/>
<path d="M399.385 0.0405273H386.904V12.5355H399.385V0.0405273Z" fill="#813E3F"/>
<path d="M386.904 0.0405273H374.423V12.5355H386.904V0.0405273Z" fill="#813E3F"/>
<path d="M374.423 0.0405273H361.942V12.5355H374.423V0.0405273Z" fill="#813E3F"/>
<path d="M361.942 0.0405273H349.461V12.5355H361.942V0.0405273Z" fill="#813E3F"/>
<path d="M349.461 0.0405273H336.981V12.5355H349.461V0.0405273Z" fill="#813E3F"/>
<path d="M336.981 0.0405273H324.5V12.5355H336.981V0.0405273Z" fill="#813E3F"/>
<path d="M324.5 0.0405273H312.019V12.5355H324.5V0.0405273Z" fill="#813E3F"/>
<path d="M312.019 0.0405273H299.539V12.5355H312.019V0.0405273Z" fill="#813E3F"/>
<path d="M299.539 0.0405273H287.058V12.5355H299.539V0.0405273Z" fill="#813E3F"/>
<path d="M287.058 0.0405273H274.577V12.5355H287.058V0.0405273Z" fill="#813E3F"/>
<path d="M274.577 0.0405273H262.096V12.5355H274.577V0.0405273Z" fill="#813E3F"/>
<path d="M212.173 0.0405273H199.692V12.5355H212.173V0.0405273Z" fill="#813E3F"/>
<path d="M199.692 0.0405273H187.211V12.5355H199.692V0.0405273Z" fill="#813E3F"/>
<path d="M187.211 0.0405273H174.731V12.5355H187.211V0.0405273Z" fill="#813E3F"/>
<path d="M174.731 0.0405273H162.25V12.5355H174.731V0.0405273Z" fill="#813E3F"/>
<path d="M262.096 87.5052H249.615V100H262.096V87.5052Z" fill="#813E3F"/>
<path d="M249.615 87.5052H237.135V100H249.615V87.5052Z" fill="#813E3F"/>
<path d="M237.135 87.5052H224.654V100H237.135V87.5052Z" fill="#813E3F"/>
<path d="M224.654 87.5052H212.173V100H224.654V87.5052Z" fill="#813E3F"/>
<path d="M262.096 0.0405273H249.615V12.5355H262.096V0.0405273Z" fill="#813E3F"/>
<path d="M249.615 0.0405273H237.135V12.5355H249.615V0.0405273Z" fill="#813E3F"/>
<path d="M237.135 0.0405273H224.654V12.5355H237.135V0.0405273Z" fill="#813E3F"/>
<path d="M224.654 0.0405273H212.173V12.5355H224.654V0.0405273Z" fill="#813E3F"/>
<path d="M162.25 0.0405273H149.769V12.5355H162.25V0.0405273Z" fill="#813E3F"/>
<path d="M149.769 0.0405273H137.289V12.5355H149.769V0.0405273Z" fill="#813E3F"/>
<path d="M137.289 0.0405273H124.808V12.5355H137.289V0.0405273Z" fill="#813E3F"/>
<path d="M124.808 0.0405273H112.327V12.5355H124.808V0.0405273Z" fill="#813E3F"/>
<path d="M112.327 0.0405273H99.8462V12.5355H112.327V0.0405273Z" fill="#813E3F"/>
<path d="M99.8462 0.0405273H87.3655V12.5355H99.8462V0.0405273Z" fill="#813E3F"/>
<path d="M87.3655 0.0405273H74.8845V12.5355H87.3655V0.0405273Z" fill="#813E3F"/>
<path d="M74.8845 0.0405273H62.4038V12.5355H74.8845V0.0405273Z" fill="#813E3F"/>
<path d="M62.4038 0.0405273H49.9231V12.5355H62.4038V0.0405273Z" fill="#813E3F"/>
<path d="M49.9231 0.0405273H37.4424V12.5355H49.9231V0.0405273Z" fill="#813E3F"/>
<path d="M37.4424 0.0405273H24.9614L24.9615 12.5354L37.4424 12.5355V0.0405273Z" fill="#813E3F"/>
</svg>
