<svg width="100%" height="100" viewBox="0 0 1120 247" fill="none" xmlns="http://www.w3.org/2000/svg">
<path fill-rule="evenodd" clip-rule="evenodd" d="M451.105 18.0576C451.46 29.7816 453.457 41.3979 457.038 52.5675C488.289 148.147 626.702 152.789 664.433 60.0418C668.814 49.2684 671.413 37.9008 672.46 26.2675C673.495 14.7774 682.466 5 694.003 5H1095C1106.05 5 1115 13.9543 1115 25V233C1115 244.046 1106.05 253 1095 253H25C13.9543 253 5 244.046 5 233V25C5 13.9543 13.9543 5 25 5H438.128C445.232 5 450.837 10.9583 451.105 18.0576Z" fill="#FF7880"/>
<path d="M457.038 52.5675L452.277 54.0941L452.282 54.1077L452.286 54.1214L457.038 52.5675ZM664.433 60.0418L669.065 61.9259L669.065 61.9251L664.433 60.0418ZM672.46 26.2675L667.48 25.819L672.46 26.2675ZM461.8 51.0409C458.361 40.3164 456.444 29.1631 456.103 17.9064L446.107 18.2088C446.476 30.4002 448.553 42.4793 452.277 54.0941L461.8 51.0409ZM659.802 58.1576C623.825 146.593 491.593 142.163 461.791 51.0136L452.286 54.1214C484.985 154.131 629.58 158.984 669.065 61.9259L659.802 58.1576ZM667.48 25.819C666.473 37.0063 663.979 47.8851 659.801 58.1584L669.065 61.9251C673.649 50.6517 676.352 38.7953 677.44 26.7159L667.48 25.819ZM694.003 10H1095V0H694.003V10ZM1110 25V233H1120V25H1110ZM1095 248H25V258H1095V248ZM10 233V25H0V233H10ZM25 10H438.128V0H25V10ZM438.128 10C442.267 10 445.931 13.5473 446.109 18.2464L456.102 17.8687C455.743 8.36921 448.197 0 438.128 0V10ZM10 25C10 16.7157 16.7157 10 25 10V0C11.1929 0 0 11.1929 0 25H10ZM25 248C16.7157 248 10 241.284 10 233H0C0 246.807 11.1929 258 25 258V248ZM1110 233C1110 241.284 1103.28 248 1095 248V258C1108.81 258 1120 246.807 1120 233H1110ZM1095 10C1103.28 10 1110 16.7157 1110 25H1120C1120 11.1929 1108.81 0 1095 0V10ZM677.44 26.7159C678.287 17.3077 685.523 10 694.003 10V0C679.409 0 668.702 12.2472 667.48 25.819L677.44 26.7159Z" fill="#6F272F"/>
</svg>
