<svg width="1120" height="248" viewBox="0 0 1120 248" fill="none" xmlns="http://www.w3.org/2000/svg">
<path fill-rule="evenodd" clip-rule="evenodd" d="M451.105 17.5311C451.46 28.7824 453.457 39.9302 457.038 50.6495C488.289 142.375 626.702 146.829 664.433 57.8223C668.695 47.7639 671.27 37.1658 672.371 26.3183C673.539 14.8201 682.501 5 694.059 5H1095C1106.05 5 1115 13.9543 1115 25V223C1115 234.046 1106.05 243 1095 243H25C13.9543 243 5 234.046 5 223V25C5 13.9543 13.9543 5 25 5L438.654 5C445.468 5 450.837 10.7227 451.105 17.5311V17.5311Z" fill="#FF7880"/>
<path d="M457.038 50.6495L452.296 52.2338L452.301 52.2479L452.306 52.2619L457.038 50.6495ZM664.433 57.8223L669.037 59.7738L669.037 59.773L664.433 57.8223ZM672.371 26.3183L667.397 25.8133L672.371 26.3183ZM461.781 49.0651C458.353 38.8046 456.442 28.1374 456.103 17.3735L446.108 17.6887C446.478 29.4274 448.562 41.0558 452.296 52.2338L461.781 49.0651ZM659.83 55.8709C641.928 98.1017 600.063 118.412 558.474 117.013C516.889 115.615 476.596 92.5497 461.771 49.037L452.306 52.2619C468.732 100.475 513.27 125.499 558.138 127.008C603 128.516 649.208 106.55 669.037 59.7738L659.83 55.8709ZM667.397 25.8133C666.342 36.206 663.88 46.312 659.829 55.8717L669.037 59.773C673.51 49.2159 676.199 38.1257 677.346 26.8232L667.397 25.8133ZM694.059 10H1095V0H694.059V10ZM1110 25V223H1120V25H1110ZM1095 238H25V248H1095V238ZM10 223V25H0V223H10ZM25 10L438.654 10V0L25 0L25 10ZM438.654 10C442.495 10 445.935 13.3046 446.109 17.7278L456.101 17.3343C455.739 8.14089 448.441 0 438.654 0V10ZM10 25C10 16.7157 16.7157 10 25 10L25 0C11.1929 0 0 11.1929 0 25H10ZM25 238C16.7157 238 10 231.284 10 223H0C0 236.807 11.1929 248 25 248V238ZM1110 223C1110 231.284 1103.28 238 1095 238V248C1108.81 248 1120 236.807 1120 223H1110ZM1095 10C1103.28 10 1110 16.7157 1110 25H1120C1120 11.1929 1108.81 0 1095 0V10ZM677.346 26.8232C678.309 17.3383 685.575 10 694.059 10V0C679.427 0 668.769 12.3019 667.397 25.8133L677.346 26.8232Z" fill="#6F272F"/>
</svg>
