<svg width="21" height="31" viewBox="0 0 21 31" fill="none" xmlns="http://www.w3.org/2000/svg">
<path fill-rule="evenodd" clip-rule="evenodd" d="M0.294189 30.5L0.294189 27.7727L3.67654 27.7727L3.67654 30.5L0.294189 30.5ZM3.67669 22.3183L3.67669 25.0455L3.67669 25.0456L3.67669 27.7728L7.05904 27.7728L7.05904 25.0456L10.4411 25.0456L10.4411 22.3183L7.05904 22.3183L7.05875 22.3183L3.67669 22.3183ZM0.294189 22.3182L0.294189 25.0454L0.294189 25.0455L0.294189 27.7727L3.67654 27.7727L3.67654 25.0455L3.67654 25.0454L3.67654 22.3182L0.294189 22.3182ZM10.4411 22.318L7.05904 22.318L7.05875 22.318L3.67669 22.318L3.67669 19.5908L3.67669 19.5907L3.67669 16.8636L3.67669 16.8635L3.67669 14.1364L3.67669 14.1363L3.67669 11.4092L3.67669 11.4091L3.67669 8.68201L3.67669 8.68194L3.67669 5.95474L7.05875 5.95474L7.05904 5.95474L10.4411 5.95474L10.4411 8.68194L10.4411 8.68201L10.4411 11.4091L10.4411 11.4092L10.4411 14.1363L10.4411 14.1364L10.4411 16.8635L10.4411 16.8636L10.4411 19.5907L10.4411 19.5908L10.4411 22.318ZM0.294189 22.3182L0.294189 19.5909L3.67654 19.5909L3.67654 22.3182L0.294189 22.3182ZM10.4412 19.5908L10.4412 22.318L13.8236 22.318L13.8236 19.5908L13.8236 19.5907L13.8236 16.8636L13.8236 16.8635L13.8236 14.1364L13.8236 14.1363L13.8236 11.4092L13.8236 11.4091L13.8236 8.68194L10.4412 8.68194L10.4412 11.4091L10.4412 11.4092L10.4412 14.1363L10.4412 14.1364L10.4412 16.8635L10.4412 16.8636L10.4412 19.5907L10.4412 19.5908ZM0.294189 19.5909L0.294189 16.8636L3.67654 16.8636L3.67654 19.5909L0.294189 19.5909ZM13.8237 19.5908L13.8237 16.8636L13.8237 16.8635L13.8237 14.1364L13.8237 14.1363L13.8237 11.4091L17.2061 11.4091L17.2061 14.1363L20.5882 14.1363L20.5882 16.8636L17.2061 16.8636L17.2061 19.5908L13.8237 19.5908ZM0.294189 14.1364L0.294189 16.8636L3.67654 16.8636L3.67654 14.1364L3.67654 14.1363L3.67654 11.4091L0.294189 11.4091L0.294189 14.1363L0.294189 14.1364ZM0.294189 11.4091L0.294188 8.68183L3.67654 8.68183L3.67654 11.4091L0.294189 11.4091ZM0.294188 3.22722L0.294188 0.500031L3.67654 0.50003L3.67654 3.22722L3.67654 3.2273L3.67654 5.9545L0.294188 5.9545L0.294188 3.2273L0.294188 3.22722ZM0.294188 5.95453L0.294188 8.6818L3.67654 8.6818L3.67654 5.95453L0.294188 5.95453ZM3.67669 3.22712L3.67669 5.95439L7.05904 5.95439L7.05904 3.22712L3.67669 3.22712Z" fill="#6F272F"/>
</svg>
