<svg width="68" height="56" viewBox="0 0 68 56" fill="none" xmlns="http://www.w3.org/2000/svg">
<path fill-rule="evenodd" clip-rule="evenodd" d="M20 33V0H13V33H12.3636H9.27273H6.18182H3.09091H0V36.8333H3.09082V40.6667H6.18164V44.5H9.27255V40.6667V36.8333H9.27273H9.27295V40.6667V44.5V48.3333H12.3638V52.1667H15.4546V56H18.5455V52.1667H21.6363V48.3333H24.7271V44.5H27.818V40.6667V36.8333H27.8182H27.8184V40.6667H30.9093V36.8333H34V33H30.9091H27.8182H24.7273H21.6364H20Z" fill="#6F272F"/>
<path fill-rule="evenodd" clip-rule="evenodd" d="M48 23L48 56L55 56L55 23L55.6364 23L58.7273 23L61.8182 23L64.9091 23L68 23L68 19.1667L64.9092 19.1667L64.9092 15.3333L61.8184 15.3333L61.8184 11.5L58.7275 11.5L58.7275 15.3333L58.7275 19.1667L58.7273 19.1667L58.7271 19.1667L58.7271 15.3333L58.7271 11.5L58.7271 7.66667L55.6362 7.66667L55.6362 3.83333L52.5454 3.83333L52.5454 -1.35108e-06L49.4545 -1.6213e-06L49.4545 3.83333L46.3637 3.83333L46.3637 7.66667L43.2729 7.66667L43.2729 11.5L40.182 11.5L40.182 15.3333L40.182 19.1667L40.1818 19.1667L40.1816 19.1667L40.1816 15.3333L37.0907 15.3333L37.0907 19.1667L34 19.1667L34 23L37.0909 23L40.1818 23L43.2727 23L46.3636 23L48 23Z" fill="#6F272F"/>
</svg>
