<svg width="21" height="31" viewBox="0 0 21 31" fill="none" xmlns="http://www.w3.org/2000/svg">
<path fill-rule="evenodd" clip-rule="evenodd" d="M20.2942 0.5L20.2942 3.22727L16.9118 3.22727L16.9118 0.5L20.2942 0.5ZM16.9117 8.68166L16.9117 5.95447L16.9117 5.95439L16.9117 3.22719L13.5293 3.22719L13.5293 5.95439L10.1473 5.95439L10.1473 8.68166L13.5293 8.68166L13.5296 8.68166L16.9117 8.68166ZM20.2942 8.68177L20.2942 5.95457L20.2942 5.9545L20.2942 3.2273L16.9118 3.2273L16.9118 5.9545L16.9118 5.95457L16.9118 8.68177L20.2942 8.68177ZM10.1473 8.68201L13.5293 8.68201L13.5296 8.68201L16.9117 8.68201L16.9117 11.4092L16.9117 11.4093L16.9117 14.1364L16.9117 14.1365L16.9117 16.8636L16.9117 16.8637L16.9117 19.5908L16.9117 19.5909L16.9117 22.318L16.9117 22.3181L16.9117 25.0453L13.5296 25.0453L13.5293 25.0453L10.1473 25.0453L10.1473 22.3181L10.1473 22.318L10.1473 19.5909L10.1473 19.5908L10.1473 16.8637L10.1473 16.8636L10.1473 14.1365L10.1473 14.1364L10.1473 11.4093L10.1473 11.4092L10.1473 8.68201ZM20.2942 8.6818L20.2942 11.4091L16.9118 11.4091L16.9118 8.6818L20.2942 8.6818ZM10.1471 11.4092L10.1471 8.68201L6.76478 8.68201L6.76478 11.4092L6.76478 11.4093L6.76478 14.1364L6.76478 14.1365L6.76478 16.8636L6.76478 16.8637L6.76478 19.5908L6.76478 19.5909L6.76478 22.3181L10.1471 22.3181L10.1471 19.5909L10.1471 19.5908L10.1471 16.8637L10.1471 16.8636L10.1471 14.1365L10.1471 14.1364L10.1471 11.4093L10.1471 11.4092ZM20.2942 11.4091L20.2942 14.1364L16.9118 14.1364L16.9118 11.4091L20.2942 11.4091ZM6.76463 11.4092L6.76463 14.1364L6.76463 14.1365L6.76463 16.8636L6.76463 16.8637L6.76463 19.5909L3.38228 19.5909L3.38228 16.8637L0.000214815 16.8637L0.000214934 14.1364L3.38228 14.1364L3.38228 11.4092L6.76463 11.4092ZM20.2942 16.8636L20.2942 14.1364L16.9118 14.1364L16.9118 16.8636L16.9118 16.8637L16.9118 19.5909L20.2942 19.5909L20.2942 16.8637L20.2942 16.8636ZM20.2942 19.5909L20.2942 22.3182L16.9118 22.3182L16.9118 19.5909L20.2942 19.5909ZM20.2942 27.7728L20.2942 30.5L16.9118 30.5L16.9118 27.7728L16.9118 27.7727L16.9118 25.0455L20.2942 25.0455L20.2942 27.7727L20.2942 27.7728ZM20.2942 25.0455L20.2942 22.3182L16.9118 22.3182L16.9118 25.0455L20.2942 25.0455ZM16.9117 27.7729L16.9117 25.0456L13.5293 25.0456L13.5293 27.7729L16.9117 27.7729Z" fill="#6F272F"/>
</svg>
