<svg width="40" height="29" viewBox="0 0 40 29" fill="none" xmlns="http://www.w3.org/2000/svg">
<path fill-rule="evenodd" clip-rule="evenodd" d="M3.63617 28.0294L-0.000183105 28.0294L-0.000182711 23.5196L3.63617 23.5196L7.27251 23.5196L7.27251 28.0294L3.63617 28.0294ZM14.5456 28.0294L10.9092 28.0294L7.2729 28.0294L7.2729 23.5196L10.9092 23.5196L14.5456 23.5196L18.1819 23.5196L21.8179 23.5196L21.8183 23.5196L25.4542 23.5196L25.4542 23.5196L29.0906 23.5196L29.0906 28.0294L25.4542 28.0294L25.4542 28.0294L21.8183 28.0294L21.8179 28.0294L18.1819 28.0294L14.5456 28.0294ZM29.091 28.0294L32.7273 28.0294L32.7273 28.0294L36.3637 28.0294L36.3637 28.0294L40 28.0294L40 23.5196L36.3637 23.5196L36.3637 19.0098L32.7273 19.0098L32.7273 14.5L29.091 14.5L29.091 19.0098L29.091 23.5196L32.7273 23.5196L32.7273 23.5196L36.3636 23.5196L36.3636 23.5196L32.7273 23.5196L32.7273 23.5196L29.091 23.5196L29.091 28.0294ZM29.0906 14.5L29.0906 19.0098L29.0906 23.5196L25.4542 23.5196L25.4542 23.5196L21.8183 23.5196L21.8179 23.5196L18.1819 23.5196L14.5456 23.5196L10.9092 23.5196L7.2729 23.5196L7.2729 19.0098L7.2729 14.5L10.9092 14.5L10.9092 9.99019L14.5456 9.99019L14.5456 5.4804L18.1819 5.4804L21.8179 5.4804L21.8183 5.4804L25.4542 5.4804L25.4542 9.99019L29.0906 9.99019L29.0906 14.5L25.4542 14.5L29.0906 14.5ZM18.1819 5.48039L18.1819 0.970596L21.8183 0.970597L21.8183 5.48039L18.1819 5.48039ZM3.63616 19.0098L3.63616 23.5196L7.27251 23.5196L7.27252 19.0098L3.63616 19.0098Z" fill="#6F272F"/>
</svg>
