<svg width="40" height="28" viewBox="0 0 40 28" fill="none" xmlns="http://www.w3.org/2000/svg">
<path fill-rule="evenodd" clip-rule="evenodd" d="M10.909 0L7.2727 0L7.27269 0L3.63634 0V5.28684e-06L0 5.28684e-06L0 4.5098L3.63634 4.5098L3.63634 9.01958L7.27269 9.01958L7.27269 13.5294H10.909V9.01958L10.909 4.50979V4.50979V0ZM10.9094 13.5294V9.01957L10.9094 4.50979V0L14.5458 0L14.5458 0L18.1817 0L18.1821 0L21.8181 0L25.4544 0L29.0908 0L32.7271 0V4.50979V9.01957V13.5294H29.0908L29.0908 18.0391H25.4544V22.5489H21.8181V27.0587H18.1817V22.5489H14.5458L14.5458 18.0391L10.9094 18.0391V13.5294ZM36.3638 0L40.0002 0V4.50979L36.3638 4.50979L36.3638 9.01958L32.7275 9.01958V4.50979V0L36.3638 0Z" fill="#6F272F"/>
</svg>
