<svg width="51" height="50" viewBox="0 0 51 50" fill="none" xmlns="http://www.w3.org/2000/svg">
<g clip-path="url(#clip0_29_95)">
<path d="M17.1788 26.4606H13.877V29.7624H17.1788V26.4606Z" fill="#F2FDFF"/>
<path d="M17.1788 23.1587H13.877V26.4606H17.1788V23.1587Z" fill="#F2FDFF"/>
<path d="M17.1788 16.555H13.877V19.8568H17.1788V16.555Z" fill="#FFF9D9"/>
<path d="M17.1788 13.2532H13.877V16.555H17.1788V13.2532Z" fill="#FFF9D9"/>
<path d="M40.2918 39.6679H36.99V42.9697H40.2918V39.6679Z" fill="#FF7880"/>
<path d="M36.99 39.6679H33.6881V42.9697H36.99V39.6679Z" fill="#FF7880"/>
<path d="M30.3863 39.6679H27.0845V42.9697H30.3863V39.6679Z" fill="#FF7880"/>
<path d="M27.0845 39.6679H23.7826V42.9697H27.0845V39.6679Z" fill="#FF7880"/>
<path d="M40.2918 36.3661H36.99V39.6679H40.2918V36.3661Z" fill="#FF7880"/>
<path d="M36.99 36.3661H33.6881V39.6679H36.99V36.3661Z" fill="#FF7880"/>
<path d="M40.2918 33.0642H36.99V36.3661H40.2918V33.0642Z" fill="#FF7880"/>
<path d="M36.99 33.0642H33.6881V36.3661H36.99V33.0642Z" fill="#FF7880"/>
<path d="M40.2918 29.7624H36.99V33.0642H40.2918V29.7624Z" fill="#FF7880"/>
<path d="M40.2918 26.4606H36.99V29.7624H40.2918V26.4606Z" fill="#FF7880"/>
<path d="M36.99 42.9697H33.6881V46.2716H36.99L36.99 42.9697Z" fill="#FF7880"/>
<path d="M33.6881 42.9697H30.3863L30.3863 46.2716H33.6881V42.9697Z" fill="#FF7880"/>
<path d="M30.3863 42.9697H27.0845V46.2716H30.3863L30.3863 42.9697Z" fill="#FF7880"/>
<path d="M27.0845 42.9697H23.7826V46.2716H27.0845V42.9697Z" fill="#FF7880"/>
<path d="M23.7826 42.9697L20.4808 42.9697V46.2716H23.7826V42.9697Z" fill="#FF7880"/>
<path d="M20.4808 42.9697H17.179V46.2716H20.4808V42.9697Z" fill="#FF7880"/>
<path d="M23.7826 39.6678H20.4808V42.9697H23.7826V39.6678Z" fill="#F6BCC2"/>
<path d="M17.1789 39.6678H13.8771V42.9697H17.1789V39.6678Z" fill="#F6BCC2"/>
<path d="M13.8771 39.6678H10.5753V42.9697H13.8771V39.6678Z" fill="#F6BCC2"/>
<path d="M30.3863 36.366H27.0844V39.6678H30.3863V36.366Z" fill="#F6BCC2"/>
<path d="M27.0844 36.366H23.7826V39.6678L27.0844 39.6678V36.366Z" fill="#F6BCC2"/>
<path d="M23.7826 36.366H20.4808V39.6678H23.7826V36.366Z" fill="#F6BCC2"/>
<path d="M17.1789 36.366H13.8771V39.6678H17.1789V36.366Z" fill="#F6BCC2"/>
<path d="M13.8771 36.366H10.5753V39.6678H13.8771V36.366Z" fill="#F6BCC2"/>
<path d="M30.3863 33.0642H27.0844V36.366H30.3863V33.0642Z" fill="#F6BCC2"/>
<path d="M27.0844 33.0642H23.7826V36.366H27.0844V33.0642Z" fill="#F6BCC2"/>
<path d="M23.7826 33.0642H20.4808V36.366H23.7826V33.0642Z" fill="#F6BCC2"/>
<path d="M17.1789 33.0642H13.8771V36.366H17.1789V33.0642Z" fill="#F6BCC2"/>
<path d="M13.8771 33.0642H10.5753V36.366H13.8771V33.0642Z" fill="#F6BCC2"/>
<path d="M36.9899 29.7623H33.6881V33.0642H36.9899V29.7623Z" fill="#F6BCC2"/>
<path d="M30.3863 29.7623H27.0844V33.0642H30.3863V29.7623Z" fill="#F6BCC2"/>
<path d="M27.0844 29.7623H23.7826V33.0642H27.0844V29.7623Z" fill="#F6BCC2"/>
<path d="M23.7826 29.7623H20.4808V33.0642H23.7826V29.7623Z" fill="#F6BCC2"/>
<path d="M17.1789 29.7623H13.8771V33.0642H17.1789V29.7623Z" fill="#F6BCC2"/>
<path d="M13.8771 29.7623H10.5753V33.0642H13.8771V29.7623Z" fill="#F6BCC2"/>
<path d="M36.9899 26.4605H33.6881V29.7623H36.9899V26.4605Z" fill="#F6BCC2"/>
<path d="M30.3863 26.4605H27.0844V29.7623H30.3863V26.4605Z" fill="#F6BCC2"/>
<path d="M27.0844 26.4605H23.7826V29.7623H27.0844V26.4605Z" fill="#F6BCC2"/>
<path d="M23.7826 26.4605H20.4808V29.7623H23.7826V26.4605Z" fill="#F6BCC2"/>
<path d="M13.8771 26.4605H10.5753V29.7623H13.8771L13.8771 26.4605Z" fill="#F6BCC2"/>
<path d="M36.9899 23.1587H33.6881V26.4605H36.9899V23.1587Z" fill="#F6BCC2"/>
<path d="M33.6881 23.1587H30.3863L30.3863 26.4605H33.6881V23.1587Z" fill="#F6BCC2"/>
<path d="M30.3863 23.1587H27.0844V26.4605H30.3863L30.3863 23.1587Z" fill="#F6BCC2"/>
<path d="M27.0844 23.1587H23.7826V26.4605H27.0844V23.1587Z" fill="#F6BCC2"/>
<path d="M23.7826 23.1587H20.4808V26.4605H23.7826V23.1587Z" fill="#F6BCC2"/>
<path d="M20.4808 23.1587H17.1789V26.4605L20.4808 26.4605V23.1587Z" fill="#F6BCC2"/>
<path d="M43.5936 16.555H40.2918V19.8568H43.5936V16.555Z" fill="#F6BCC2"/>
<path d="M40.2918 16.555H36.99V19.8568H40.2918V16.555Z" fill="#F6BCC2"/>
<path d="M36.99 16.555H33.6881V19.8568H36.99V16.555Z" fill="#F6BCC2"/>
<path d="M33.6881 16.555H30.3863V19.8568H33.6881V16.555Z" fill="#F6BCC2"/>
<path d="M30.3863 16.555H27.0844V19.8568H30.3863V16.555Z" fill="#F6BCC2"/>
<path d="M27.0844 16.555H23.7826V19.8568H27.0844V16.555Z" fill="#F6BCC2"/>
<path d="M23.7826 16.555H20.4808V19.8568H23.7826V16.555Z" fill="#F6BCC2"/>
<path d="M20.4808 16.555H17.1789V19.8568H20.4808V16.555Z" fill="#F6BCC2"/>
<path d="M13.8771 16.555H10.5753V19.8568H13.8771V16.555Z" fill="#F6BCC2"/>
<path d="M10.5753 16.555H7.27344V19.8568H10.5753V16.555Z" fill="#F6BCC2"/>
<path d="M43.5936 13.2532H40.2918V16.555H43.5936V13.2532Z" fill="#F6BCC2"/>
<path d="M40.2918 13.2532H36.99V16.555H40.2918V13.2532Z" fill="#F6BCC2"/>
<path d="M36.99 13.2532H33.6881V16.555H36.99V13.2532Z" fill="#F6BCC2"/>
<path d="M33.6881 13.2532H30.3863V16.555H33.6881V13.2532Z" fill="#F6BCC2"/>
<path d="M30.3863 13.2532H27.0844V16.555H30.3863V13.2532Z" fill="#F6BCC2"/>
<path d="M27.0844 13.2532H23.7826V16.555H27.0844V13.2532Z" fill="#F6BCC2"/>
<path d="M23.7826 13.2532H20.4808V16.555H23.7826V13.2532Z" fill="#F6BCC2"/>
<path d="M20.4808 13.2532H17.1789V16.555H20.4808V13.2532Z" fill="#F6BCC2"/>
<path d="M13.8771 13.2532H10.5753V16.555H13.8771V13.2532Z" fill="#F6BCC2"/>
<path d="M10.5753 13.2532H7.27344V16.555H10.5753V13.2532Z" fill="#F6BCC2"/>
<path d="M30.3863 6.64949H27.0844V9.95133H30.3863V6.64949Z" fill="#F6BCC2"/>
<path d="M27.0844 6.64949H23.7826V9.95133H27.0844V6.64949Z" fill="#F6BCC2"/>
<path d="M23.7826 6.64949H20.4808V9.95133H23.7826V6.64949Z" fill="#F6BCC2"/>
<path d="M27.0844 3.34766H23.7826V6.64949H27.0844L27.0844 3.34766Z" fill="#F6BCC2"/>
<path d="M17.1789 42.9697H13.8771V46.2715H17.1789V42.9697Z" fill="#F6BCC2"/>
<path d="M43.5935 39.6679H40.2917V42.9698H43.5935V39.6679Z" fill="#6F272F"/>
<path d="M33.688 39.6679H30.3862V42.9698H33.688V39.6679Z" fill="#6F272F"/>
<path d="M20.4807 39.6679H17.1789V42.9698H20.4807V39.6679Z" fill="#6F272F"/>
<path d="M10.5752 39.6679H7.27335V42.9698H10.5752V39.6679Z" fill="#6F272F"/>
<path d="M43.5935 36.3661H40.2917V39.6679H43.5935V36.3661Z" fill="#6F272F"/>
<path d="M33.688 36.3661H30.3862V39.6679H33.688V36.3661Z" fill="#6F272F"/>
<path d="M20.4807 36.3661H17.1789V39.6679H20.4807V36.3661Z" fill="#6F272F"/>
<path d="M10.5752 36.3661H7.27335V39.6679H10.5752V36.3661Z" fill="#6F272F"/>
<path d="M43.5935 33.0642H40.2917V36.3661H43.5935V33.0642Z" fill="#6F272F"/>
<path d="M33.688 33.0642H30.3862V36.3661H33.688V33.0642Z" fill="#6F272F"/>
<path d="M20.4807 33.0642H17.1789V36.3661H20.4807V33.0642Z" fill="#6F272F"/>
<path d="M10.5752 33.0642H7.27335V36.3661H10.5752V33.0642Z" fill="#6F272F"/>
<path d="M43.5935 29.7624H40.2917V33.0642H43.5935V29.7624Z" fill="#6F272F"/>
<path d="M33.688 29.7624H30.3862V33.0642H33.688V29.7624Z" fill="#6F272F"/>
<path d="M20.4807 29.7624H17.1789V33.0642H20.4807V29.7624Z" fill="#6F272F"/>
<path d="M10.5752 29.7624H7.27335V33.0642H10.5752V29.7624Z" fill="#6F272F"/>
<path d="M43.5935 26.4606H40.2917V29.7624H43.5935V26.4606Z" fill="#6F272F"/>
<path d="M33.688 26.4606H30.3862V29.7624H33.688V26.4606Z" fill="#6F272F"/>
<path d="M20.4807 26.4606H17.1789V29.7624H20.4807V26.4606Z" fill="#6F272F"/>
<path d="M10.5752 26.4606H7.27335V29.7624H10.5752V26.4606Z" fill="#6F272F"/>
<path d="M43.5935 23.1587H40.2917V26.4606H43.5935V23.1587Z" fill="#6F272F"/>
<path d="M40.2917 23.1587H36.9899V26.4606L40.2917 26.4606V23.1587Z" fill="#6F272F"/>
<path d="M13.877 23.1587H10.5752L10.5752 26.4606L13.877 26.4606V23.1587Z" fill="#6F272F"/>
<path d="M10.5752 23.1587H7.27335V26.4606H10.5752L10.5752 23.1587Z" fill="#6F272F"/>
<path d="M43.5935 19.8569H40.2917V23.1587H43.5935V19.8569Z" fill="#6F272F"/>
<path d="M40.2917 19.8569H36.9899V23.1587H40.2917V19.8569Z" fill="#6F272F"/>
<path d="M36.9899 19.8569H33.688V23.1587L36.9899 23.1587V19.8569Z" fill="#6F272F"/>
<path d="M33.688 19.8569H30.3862V23.1587H33.688V19.8569Z" fill="#6F272F"/>
<path d="M30.3862 19.8569H27.0844V23.1587H30.3862V19.8569Z" fill="#6F272F"/>
<path d="M27.0844 19.8569H23.7825V23.1587H27.0844V19.8569Z" fill="#6F272F"/>
<path d="M23.7825 19.8569H20.4807V23.1587H23.7825V19.8569Z" fill="#6F272F"/>
<path d="M20.4807 19.8569H17.1789V23.1587H20.4807V19.8569Z" fill="#6F272F"/>
<path d="M17.1789 19.8569H13.877L13.877 23.1587L17.1789 23.1587V19.8569Z" fill="#6F272F"/>
<path d="M13.877 19.8569H10.5752V23.1587H13.877L13.877 19.8569Z" fill="#6F272F"/>
<path d="M10.5752 19.8569H7.27335V23.1587H10.5752V19.8569Z" fill="#6F272F"/>
<path d="M7.27335 19.8569H3.97151V23.1587L7.27335 23.1587V19.8569Z" fill="#6F272F"/>
<path d="M7.27335 16.5551H3.97151V19.8569H7.27335V16.5551Z" fill="#6F272F"/>
<path d="M3.97151 16.5551H0.669678V19.8569H3.97151V16.5551Z" fill="#6F272F"/>
<path d="M7.27335 13.2532H3.97151V16.5551H7.27335V13.2532Z" fill="#6F272F"/>
<path d="M3.97151 13.2532H0.669678V16.5551H3.97151V13.2532Z" fill="#6F272F"/>
<path d="M43.5935 9.9514H40.2917V13.2532H43.5935V9.9514Z" fill="#6F272F"/>
<path d="M40.2917 9.9514H36.9899V13.2532H40.2917V9.9514Z" fill="#6F272F"/>
<path d="M36.9899 9.9514H33.688V13.2532H36.9899V9.9514Z" fill="#6F272F"/>
<path d="M33.688 9.9514H30.3862V13.2532H33.688V9.9514Z" fill="#6F272F"/>
<path d="M30.3862 9.9514H27.0844V13.2532H30.3862V9.9514Z" fill="#6F272F"/>
<path d="M27.0844 9.9514H23.7825V13.2532H27.0844V9.9514Z" fill="#6F272F"/>
<path d="M23.7825 9.9514H20.4807V13.2532H23.7825V9.9514Z" fill="#6F272F"/>
<path d="M20.4807 9.9514H17.1789V13.2532H20.4807V9.9514Z" fill="#6F272F"/>
<path d="M17.1789 9.9514H13.877V13.2532H17.1789V9.9514Z" fill="#6F272F"/>
<path d="M13.877 9.9514H10.5752V13.2532H13.877V9.9514Z" fill="#6F272F"/>
<path d="M10.5752 9.9514H7.27335V13.2532L10.5752 13.2532V9.9514Z" fill="#6F272F"/>
<path d="M7.27335 9.9514H3.97151V13.2532H7.27335V9.9514Z" fill="#6F272F"/>
<path d="M33.688 6.64957H30.3862V9.9514H33.688L33.688 6.64957Z" fill="#6F272F"/>
<path d="M20.4807 6.64957H17.1789V9.9514H20.4807V6.64957Z" fill="#6F272F"/>
<path d="M33.688 3.34773H30.3862V6.64957H33.688V3.34773Z" fill="#6F272F"/>
<path d="M30.3862 3.34773H27.0844V6.64957H30.3862V3.34773Z" fill="#6F272F"/>
<path d="M23.7825 3.34773H20.4807V6.64957H23.7825V3.34773Z" fill="#6F272F"/>
<path d="M20.4807 3.34773H17.1789V6.64957H20.4807V3.34773Z" fill="#6F272F"/>
<path d="M40.2917 46.2716H36.9899V49.5734H40.2917V46.2716Z" fill="#6F272F"/>
<path d="M36.9899 46.2716H33.688V49.5734H36.9899V46.2716Z" fill="#6F272F"/>
<path d="M33.688 46.2716H30.3862V49.5734H33.688V46.2716Z" fill="#6F272F"/>
<path d="M30.3862 46.2716H27.0844V49.5734H30.3862V46.2716Z" fill="#6F272F"/>
<path d="M27.0844 46.2716H23.7825V49.5734H27.0844V46.2716Z" fill="#6F272F"/>
<path d="M23.7825 46.2716H20.4807V49.5734H23.7825V46.2716Z" fill="#6F272F"/>
<path d="M20.4807 46.2716H17.1789V49.5734H20.4807V46.2716Z" fill="#6F272F"/>
<path d="M17.1789 46.2716H13.877V49.5734H17.1789V46.2716Z" fill="#6F272F"/>
<path d="M13.877 46.2716H10.5752V49.5734H13.877V46.2716Z" fill="#6F272F"/>
<path d="M43.5935 42.9698H40.2917V46.2716L43.5935 46.2716V42.9698Z" fill="#6F272F"/>
<path d="M40.2917 42.9698H36.9899V46.2716H40.2917V42.9698Z" fill="#6F272F"/>
<path d="M13.877 42.9698H10.5752L10.5752 46.2716H13.877L13.877 42.9698Z" fill="#6F272F"/>
<path d="M10.5752 42.9698H7.27335V46.2716L10.5752 46.2716L10.5752 42.9698Z" fill="#6F272F"/>
<path d="M46.8954 19.8569H43.5935V23.1587L46.8954 23.1587V19.8569Z" fill="#6F272F"/>
<path d="M50.1972 16.5551H46.8954L46.8954 19.8569H50.1972V16.5551Z" fill="#6F272F"/>
<path d="M46.8954 16.5551H43.5935V19.8569H46.8954L46.8954 16.5551Z" fill="#6F272F"/>
<path d="M50.1972 13.2532H46.8954V16.5551H50.1972V13.2532Z" fill="#6F272F"/>
<path d="M46.8954 13.2532L43.5935 13.2532V16.5551H46.8954V13.2532Z" fill="#6F272F"/>
<path d="M46.8954 9.9514H43.5935V13.2532L46.8954 13.2532L46.8954 9.9514Z" fill="#6F272F"/>
<path d="M30.3862 0.0458984H27.0844V3.34773H30.3862L30.3862 0.0458984Z" fill="#6F272F"/>
<path d="M27.0844 0.0458984H23.7825L23.7825 3.34773H27.0844V0.0458984Z" fill="#6F272F"/>
<path d="M23.7825 0.0458984H20.4807V3.34773H23.7825L23.7825 0.0458984Z" fill="#6F272F"/>
</g>
<defs>
<clipPath id="clip0_29_95">
<rect width="49.5275" height="49.5275" fill="white" transform="translate(0.669678 0.0457764)"/>
</clipPath>
</defs>
</svg>
