<svg width="49" height="49" viewBox="0 0 49 49" fill="none" xmlns="http://www.w3.org/2000/svg">
<path d="M37.4818 4.50354H33.6479V8.3374H37.4818V4.50354Z" fill="#F2767D"/>
<path d="M40.7678 4.50354H37.4818V8.3374H40.7678V4.50354Z" fill="#F2767D"/>
<path d="M37.4818 8.3374H33.6479V12.1713H37.4818V8.3374Z" fill="#F2767D"/>
<path d="M40.7678 8.3374H37.4818V12.1713H40.7678V8.3374Z" fill="#F2767D"/>
<path d="M44.6014 8.3374L40.7678 8.3374V12.1713H44.6014V8.3374Z" fill="#F2767D"/>
<path d="M40.7678 12.1713H37.4818L37.4816 15.4574H40.7678V12.1713Z" fill="#F2767D"/>
<path d="M29.814 12.1713H25.9801V15.4574H29.814V12.1713Z" fill="#F6BCC2"/>
<path d="M33.6476 12.1713H29.814V15.4574H33.6476V12.1713Z" fill="#F6BCC2"/>
<path d="M25.9801 15.4574L22.1463 15.4574V19.2913H25.9801L25.9801 15.4574Z" fill="#F6BCC2"/>
<path d="M29.814 15.4574H25.9801L25.9801 19.2913H29.814V15.4574Z" fill="#F6BCC2"/>
<path d="M33.6476 15.4574H29.814V19.2913H33.6476V15.4574Z" fill="#F6BCC2"/>
<path d="M22.1463 19.2913H18.8599V23.1251H22.1461L22.1463 19.2913Z" fill="#F6BCC2"/>
<path d="M25.9801 19.2913H22.1463L22.1461 23.1251H25.9801V19.2913Z" fill="#F6BCC2"/>
<path d="M29.814 19.2913H25.9801V23.1251H29.814V19.2913Z" fill="#F6BCC2"/>
<path d="M18.8599 23.1251L15.0262 23.1251V26.959H18.8601L18.8599 23.1251Z" fill="#F6BCC2"/>
<path d="M22.1461 23.1251H18.8599L18.8601 26.959H22.1461V23.1251Z" fill="#F6BCC2"/>
<path d="M25.9801 23.1251H22.1461V26.959H25.9801V23.1251Z" fill="#F6BCC2"/>
<path d="M29.814 23.1251H25.9801V26.959H29.814V23.1251Z" fill="#F6BCC2"/>
<path d="M33.6476 23.1251L29.814 23.1251V26.959H33.6476V23.1251Z" fill="#F6BCC2"/>
<path d="M22.6938 19.2913H18.8599V22.5774H22.6938V19.2913Z" fill="#F6BCC2"/>
<path d="M18.8601 26.959H15.0262V30.7929H18.8601V26.959Z" fill="#F6BCC2"/>
<path d="M22.1461 26.959H18.8601V30.7929H22.1461V26.959Z" fill="#F6BCC2"/>
<path d="M25.9801 26.959H22.1461V30.7929H25.9801V26.959Z" fill="#F6BCC2"/>
<path d="M29.814 26.959H25.9801V30.7929H29.814V26.959Z" fill="#F6BCC2"/>
<path d="M18.8599 22.5774H15.0262V26.4113H18.8601L18.8599 22.5774Z" fill="#F6BCC2"/>
<path d="M22.6938 22.5774H18.8599L18.8601 26.4113H22.6938V22.5774Z" fill="#F6BCC2"/>
<path d="M26.528 22.5774H22.6938V26.4113H26.528V22.5774Z" fill="#F6BCC2"/>
<path d="M15.0262 26.4113L11.1924 26.4113V30.2452H15.0262V26.4113Z" fill="#F6BCC2"/>
<path d="M18.8601 26.4113H15.0262V30.2452H18.8601V26.4113Z" fill="#F6BCC2"/>
<path d="M22.6938 26.4113H18.8601V30.2452H22.6938V26.4113Z" fill="#F6BCC2"/>
<path d="M15.0262 30.2452H11.1924V34.079H15.0262V30.2452Z" fill="#F6BCC2"/>
<path d="M18.8601 30.2452H15.0262V34.079H18.8601V30.2452Z" fill="#F6BCC2"/>
<path d="M37.482 15.4575H33.6482V19.2914H37.482V15.4575Z" fill="#FF7880"/>
<path d="M33.6482 19.2914H29.8139V23.1252H33.6478L33.6482 19.2914Z" fill="#FF7880"/>
<path d="M37.482 19.2914H33.6482L33.6478 23.1252H37.482V19.2914Z" fill="#FF7880"/>
<path d="M29.8141 22.5775H26.5279V26.4114H29.8141V22.5775Z" fill="#FF7880"/>
<path d="M33.6478 22.5775H29.8141V26.4114H33.6478V22.5775Z" fill="#FF7880"/>
<path d="M26.5279 26.4114L22.6943 26.4114V30.2452H26.5281L26.5279 26.4114Z" fill="#FF7880"/>
<path d="M29.8141 26.4114H26.5279L26.5281 30.2452H29.8141V26.4114Z" fill="#FF7880"/>
<path d="M22.6943 30.2452L18.86 30.2452V34.0791H22.6939L22.6943 30.2452Z" fill="#FF7880"/>
<path d="M26.5281 30.2452H22.6943L22.6939 34.0791H26.5281V30.2452Z" fill="#FF7880"/>
<path d="M18.86 34.0791L15.0264 34.0791V37.913H18.8602L18.86 34.0791Z" fill="#FF7880"/>
<path d="M22.6939 34.0791H18.86L18.8602 37.913H22.6939V34.0791Z" fill="#FF7880"/>
<path d="M11.1923 30.2452H7.90617V34.0791H11.1923V30.2452Z" fill="#FFEFDD"/>
<path d="M7.90617 34.0791L4.07251 34.0791V37.9129H7.90637L7.90617 34.0791Z" fill="#FFEFDD"/>
<path d="M11.1923 34.0791H7.90617L7.90637 37.9129H11.1923V34.0791Z" fill="#FFEFDD"/>
<path d="M15.0264 34.0791L11.1923 34.0791V37.9129H15.0264V34.0791Z" fill="#FFEFDD"/>
<path d="M7.90637 37.9129H4.07251V41.1991H7.90637V37.9129Z" fill="#FFEFDD"/>
<path d="M11.1923 37.9129H7.90637V41.1991H11.1923V37.9129Z" fill="#FFEFDD"/>
<path d="M15.0264 37.9129H11.1923V41.1991H15.0264V37.9129Z" fill="#FFEFDD"/>
<path d="M18.8602 37.913L15.0264 37.9129V41.1991H18.8602V37.913Z" fill="#FFEFDD"/>
<path d="M11.1923 41.1991H7.90637L7.90617 45.033H11.1923V41.1991Z" fill="#FFEFDD"/>
<path d="M15.0264 41.1991H11.1923V45.033H15.0264V41.1991Z" fill="#FFEFDD"/>
<path d="M37.4819 0.6698H33.648V4.50366H37.4819V0.6698Z" fill="#6E3234"/>
<path d="M40.7679 0.6698H37.4819V4.50366H40.7679V0.6698Z" fill="#6E3234"/>
<path d="M33.648 4.50366H29.8138V8.33751H33.6476L33.648 4.50366Z" fill="#6E3234"/>
<path d="M44.6015 4.50366H40.7679L40.7677 8.33751H44.6015V4.50366Z" fill="#6E3234"/>
<path d="M29.8138 8.33751L25.9801 8.33751V12.1714H29.814L29.8138 8.33751Z" fill="#6E3234"/>
<path d="M33.6476 8.33751H29.8138L29.814 12.1714H33.6476V8.33751Z" fill="#6E3234"/>
<path d="M48.4358 8.33751L44.6015 8.33751L44.6019 12.1714H48.4358V8.33751Z" fill="#6E3234"/>
<path d="M25.9801 12.1714H22.1463V15.4575H25.9801L25.9801 12.1714Z" fill="#6E3234"/>
<path d="M37.4819 12.1714H33.6476L33.648 15.4575H37.4819V12.1714Z" fill="#6E3234"/>
<path d="M44.6019 12.1714H40.7677V15.4575H44.6015L44.6019 12.1714Z" fill="#6E3234"/>
<path d="M48.4358 12.1714H44.6019L44.6015 15.4575H48.4358V12.1714Z" fill="#6E3234"/>
<path d="M22.1463 15.4575L18.8599 15.4575V19.2914H22.1461L22.1463 15.4575Z" fill="#6E3234"/>
<path d="M40.7677 15.4575H37.4819L37.4817 19.2914H40.7679L40.7677 15.4575Z" fill="#6E3234"/>
<path d="M44.6015 15.4575H40.7677L40.7679 19.2914H44.6015V15.4575Z" fill="#6E3234"/>
<path d="M18.8599 19.2914H15.0263V23.1252H18.8601L18.8599 19.2914Z" fill="#6E3234"/>
<path d="M40.7679 19.2914H37.4817V23.1252H40.7679V19.2914Z" fill="#6E3234"/>
<path d="M37.4817 23.1252L33.648 23.1252V26.9591H37.4819L37.4817 23.1252Z" fill="#6E3234"/>
<path d="M18.8599 19.2914H15.0263V22.5775H18.8601L18.8599 19.2914Z" fill="#6E3234"/>
<path d="M33.648 26.9591H29.8138V30.793H33.6476L33.648 26.9591Z" fill="#6E3234"/>
<path d="M15.0263 22.5775L11.1924 22.5775V26.4114H15.0263V22.5775Z" fill="#6E3234"/>
<path d="M11.1924 26.4114H7.90604V30.2453H11.1922L11.1924 26.4114Z" fill="#6E3234"/>
<path d="M33.6476 26.4114H29.8138V30.2453H33.6476V26.4114Z" fill="#6E3234"/>
<path d="M7.90604 30.2453L4.07238 30.2453V34.0791H7.90624L7.90604 30.2453Z" fill="#6E3234"/>
<path d="M29.8138 30.2453L26.5278 30.2453V34.0791H29.814L29.8138 30.2453Z" fill="#6E3234"/>
<path d="M4.07238 34.0791H0.238525V37.913H4.07238V34.0791Z" fill="#6E3234"/>
<path d="M26.5278 34.0791H22.6942V37.913H26.528L26.5278 34.0791Z" fill="#6E3234"/>
<path d="M4.07238 37.913H0.238525V41.1991H4.07238V37.913Z" fill="#6E3234"/>
<path d="M22.6942 37.913L18.8599 37.913V41.1991H22.6938L22.6942 37.913Z" fill="#6E3234"/>
<path d="M4.07238 41.1991H0.238525V45.033H4.07238V41.1991Z" fill="#6E3234"/>
<path d="M7.90624 41.1991H4.07238V45.033H7.90624V41.1991Z" fill="#6E3234"/>
<path d="M18.8599 41.1991H15.0263V45.033H18.8601L18.8599 41.1991Z" fill="#6E3234"/>
<path d="M4.07238 45.033H0.238525V48.8668H4.07238V45.033Z" fill="#6E3234"/>
<path d="M7.90624 45.033H4.07238V48.8668H7.90624V45.033Z" fill="#6E3234"/>
<path d="M11.1922 45.033H7.90624V48.8668H11.1922V45.033Z" fill="#6E3234"/>
<path d="M15.0263 45.033H11.1922V48.8668H15.0263V45.033Z" fill="#6E3234"/>
</svg>
