<svg width="638" height="194" viewBox="0 0 638 194" fill="none" xmlns="http://www.w3.org/2000/svg">
<g filter="url(#filter0_d_14_2)">
<g filter="url(#filter1_i_14_2)">
<path d="M6.20752 22.2361L27.5394 4.37158L605.664 6.60464L611.538 12.1873L618.648 18.6073L623.595 21.6778V160.128L611.847 171.014L605.973 175.759L510.752 177.155H25.0661L6.20752 160.965V22.2361Z" fill="#FF7880"/>
</g>
<rect x="20.0601" y="1.50024" width="588.88" height="8.57018" fill="#6F272F" stroke="#6F272F" stroke-width="3"/>
<rect x="20.2695" y="172.591" width="586.295" height="8.7752" fill="#6F272F" stroke="#6F272F" stroke-width="3"/>
<rect x="10.6865" y="18.2107" width="146.153" height="9.18669" transform="rotate(90 10.6865 18.2107)" fill="#6F272F" stroke="#6F272F" stroke-width="3"/>
<rect x="627.5" y="18.2107" width="146.153" height="9.18669" transform="rotate(90 627.5 18.2107)" fill="#6F272F" stroke="#6F272F" stroke-width="3"/>
<rect x="13.8735" y="7.07031" width="9.18669" height="8.57018" fill="#6F272F" stroke="#6F272F" stroke-width="3"/>
<rect x="612.127" y="161.364" width="9.18669" height="8.57018" fill="#6F272F" stroke="#6F272F" stroke-width="3"/>
<rect x="7.68652" y="161.364" width="9.18669" height="8.57018" fill="#6F272F" stroke="#6F272F" stroke-width="3"/>
<rect x="605.939" y="7.07031" width="9.18669" height="8.57018" fill="#6F272F" stroke="#6F272F" stroke-width="3"/>
<rect x="7.68652" y="12.6406" width="9.18669" height="8.57018" fill="#6F272F" stroke="#6F272F" stroke-width="3"/>
<rect x="605.939" y="166.935" width="9.18669" height="8.57018" fill="#6F272F" stroke="#6F272F" stroke-width="3"/>
<rect x="13.8735" y="166.935" width="9.18669" height="8.57018" fill="#6F272F" stroke="#6F272F" stroke-width="3"/>
<rect x="612.127" y="12.6406" width="9.18669" height="8.57018" fill="#6F272F" stroke="#6F272F" stroke-width="3"/>
</g>
<defs>
<filter id="filter0_d_14_2" x="0" y="0.000244141" width="638" height="193.865" filterUnits="userSpaceOnUse" color-interpolation-filters="sRGB">
<feFlood flood-opacity="0" result="BackgroundImageFix"/>
<feColorMatrix in="SourceAlpha" type="matrix" values="0 0 0 0 0 0 0 0 0 0 0 0 0 0 0 0 0 0 127 0" result="hardAlpha"/>
<feOffset dx="9" dy="11"/>
<feComposite in2="hardAlpha" operator="out"/>
<feColorMatrix type="matrix" values="0 0 0 0 0.427451 0 0 0 0 0.203922 0 0 0 0 0.207843 0 0 0 1 0"/>
<feBlend mode="normal" in2="BackgroundImageFix" result="effect1_dropShadow_14_2"/>
<feBlend mode="normal" in="SourceGraphic" in2="effect1_dropShadow_14_2" result="shape"/>
</filter>
<filter id="filter1_i_14_2" x="6.20752" y="4.37158" width="617.387" height="172.783" filterUnits="userSpaceOnUse" color-interpolation-filters="sRGB">
<feFlood flood-opacity="0" result="BackgroundImageFix"/>
<feBlend mode="normal" in="SourceGraphic" in2="BackgroundImageFix" result="shape"/>
<feColorMatrix in="SourceAlpha" type="matrix" values="0 0 0 0 0 0 0 0 0 0 0 0 0 0 0 0 0 0 127 0" result="hardAlpha"/>
<feOffset dx="12" dy="16"/>
<feComposite in2="hardAlpha" operator="arithmetic" k2="-1" k3="1"/>
<feColorMatrix type="matrix" values="0 0 0 0 0 0 0 0 0 0 0 0 0 0 0 0 0 0 0.25 0"/>
<feBlend mode="normal" in2="shape" result="effect1_innerShadow_14_2"/>
</filter>
</defs>
</svg>
