<svg width="878" height="309" viewBox="0 0 878 309" fill="none" xmlns="http://www.w3.org/2000/svg">
<g id="&#235;&#167;&#144;&#237;&#146;&#141;&#236;&#132;&#160;" filter="url(#filter0_d_76_4)">
<path id="Vector 6326" d="M7.44287 29.6464L36.9925 4.8999L837.829 7.99321L845.966 15.7265L855.816 24.6197L862.668 28.873V220.658L846.394 235.738L838.257 242.311L706.355 244.245L696.077 249.658L649.614 291.9L642.094 283.313L638.585 244.245H33.5664L7.44287 221.818V29.6464Z" fill="#FFFDFB"/>
<g id="Group 34109">
<g id="Vector">
<mask id="path-2-outside-1_76_4" maskUnits="userSpaceOnUse" x="0" y="0" width="869" height="298" fill="black">
<rect fill="white" width="869" height="298"/>
<path d="M28.7102 3H840.29V10.716H28.7102V3Z"/>
<path d="M28.7102 239.881H638.895V247.597H28.7102V239.881Z"/>
<path d="M11.57 26.1479L11.57 224.449H3L3.00001 26.1479H11.57Z"/>
<path d="M866 26.1479V224.449H857.43V26.1479H866Z"/>
<path d="M20.1404 10.7159L28.7102 10.716L28.7104 18.4319H20.1404V10.7159Z"/>
<path d="M848.86 224.449L857.43 224.449L857.43 232.165H848.86V224.449Z"/>
<path d="M11.57 224.449L20.14 224.449V232.165H11.57L11.57 224.449Z"/>
<path d="M840.29 10.716L848.859 10.7159V18.4319H840.289L840.29 10.716Z"/>
<path d="M11.57 18.432L20.1404 18.4319L20.14 26.148L11.57 26.1479V18.432Z"/>
<path d="M840.289 232.165L848.86 232.165L848.859 239.881H840.289V232.165Z"/>
<path d="M647.24 294.141V286.425H655.81V294.141H647.24Z"/>
<path d="M655.81 286.425L655.81 278.71H664.38V286.426L655.81 286.425Z"/>
<path d="M664.38 278.71L664.38 270.994H672.95V278.71L664.38 278.71Z"/>
<path d="M672.95 270.994L672.951 263.278H681.521V270.994L672.95 270.994Z"/>
<path d="M681.358 263.278V255.562H689.928V263.278H681.358Z"/>
<path d="M690.09 255.561V247.845H698.66V255.561H690.09Z"/>
<path d="M638.208 246.942H647.24V286.695H638.208V246.942Z"/>
<path d="M840.289 239.881V247.597H698.884V239.881L840.289 239.881Z"/>
<path d="M20.14 232.165L28.7104 232.165L28.7102 239.881L20.1404 239.881L20.14 232.165Z"/>
<path d="M848.859 18.4319L857.43 18.432L857.43 26.1479L848.86 26.148L848.859 18.4319Z"/>
</mask>
<path d="M28.7102 3H840.29V10.716H28.7102V3Z" fill="#6F272F"/>
<path d="M28.7102 239.881H638.895V247.597H28.7102V239.881Z" fill="#6F272F"/>
<path d="M11.57 26.1479L11.57 224.449H3L3.00001 26.1479H11.57Z" fill="#6F272F"/>
<path d="M866 26.1479V224.449H857.43V26.1479H866Z" fill="#6F272F"/>
<path d="M20.1404 10.7159L28.7102 10.716L28.7104 18.4319H20.1404V10.7159Z" fill="#6F272F"/>
<path d="M848.86 224.449L857.43 224.449L857.43 232.165H848.86V224.449Z" fill="#6F272F"/>
<path d="M11.57 224.449L20.14 224.449V232.165H11.57L11.57 224.449Z" fill="#6F272F"/>
<path d="M840.29 10.716L848.859 10.7159V18.4319H840.289L840.29 10.716Z" fill="#6F272F"/>
<path d="M11.57 18.432L20.1404 18.4319L20.14 26.148L11.57 26.1479V18.432Z" fill="#6F272F"/>
<path d="M840.289 232.165L848.86 232.165L848.859 239.881H840.289V232.165Z" fill="#6F272F"/>
<path d="M647.24 294.141V286.425H655.81V294.141H647.24Z" fill="#6F272F"/>
<path d="M655.81 286.425L655.81 278.71H664.38V286.426L655.81 286.425Z" fill="#6F272F"/>
<path d="M664.38 278.71L664.38 270.994H672.95V278.71L664.38 278.71Z" fill="#6F272F"/>
<path d="M672.95 270.994L672.951 263.278H681.521V270.994L672.95 270.994Z" fill="#6F272F"/>
<path d="M681.358 263.278V255.562H689.928V263.278H681.358Z" fill="#6F272F"/>
<path d="M690.09 255.561V247.845H698.66V255.561H690.09Z" fill="#6F272F"/>
<path d="M638.208 246.942H647.24V286.695H638.208V246.942Z" fill="#6F272F"/>
<path d="M840.289 239.881V247.597H698.884V239.881L840.289 239.881Z" fill="#6F272F"/>
<path d="M20.14 232.165L28.7104 232.165L28.7102 239.881L20.1404 239.881L20.14 232.165Z" fill="#6F272F"/>
<path d="M848.859 18.4319L857.43 18.432L857.43 26.1479L848.86 26.148L848.859 18.4319Z" fill="#6F272F"/>
<path d="M28.7102 3V0H25.7102V3H28.7102ZM840.29 3H843.29V0H840.29V3ZM638.895 239.881H641.895V236.881H638.895V239.881ZM638.895 247.597V250.597H641.895V247.597H638.895ZM28.7102 247.597H25.7102V250.597H28.7102V247.597ZM3 224.449L0 224.449L-1.45648e-07 227.449H3V224.449ZM3.00001 26.1479V23.1479H9.77305e-06L9.6274e-06 26.1479L3.00001 26.1479ZM866 26.1479H869V23.1479H866V26.1479ZM866 224.449V227.449H869V224.449H866ZM20.1404 10.7159L20.1404 7.71594L17.1404 7.71593V10.7159H20.1404ZM28.7104 18.4319V21.4319H31.7105L31.7104 18.4319L28.7104 18.4319ZM848.86 224.449L848.86 221.449L845.86 221.449V224.449H848.86ZM857.43 232.165V235.165H860.431L860.43 232.165L857.43 232.165ZM20.14 224.449H23.14V221.449L20.14 221.449L20.14 224.449ZM11.57 232.165L8.57001 232.165L8.57001 235.165H11.57V232.165ZM848.859 10.7159H851.859V7.71593L848.859 7.71594L848.859 10.7159ZM840.289 18.4319L837.289 18.4317L837.289 21.4319H840.289V18.4319ZM11.57 18.432L11.57 15.432L8.57001 15.432V18.432H11.57ZM20.14 26.148L20.14 29.148L23.1399 29.148L23.14 26.1481L20.14 26.148ZM840.289 232.165L840.289 229.165L837.289 229.165V232.165H840.289ZM848.859 239.881V242.881H851.859L851.859 239.881L848.859 239.881ZM647.24 294.141H644.24V297.141H647.24V294.141ZM647.24 286.425V283.425H644.24V286.425H647.24ZM655.81 294.141V297.141H658.81V294.141H655.81ZM655.81 278.71V275.71H652.81L652.81 278.71L655.81 278.71ZM664.38 286.426L664.38 289.426L667.38 289.426V286.426H664.38ZM664.38 270.994V267.994H661.38L661.38 270.994L664.38 270.994ZM672.95 278.71L672.95 281.71L675.95 281.71V278.71H672.95ZM672.951 263.278V260.278H669.951L669.951 263.277L672.951 263.278ZM681.521 263.278H684.521V260.278H681.521V263.278ZM681.521 270.994L681.521 273.994L684.521 273.994V270.994H681.521ZM681.358 263.278H678.358V266.278H681.358V263.278ZM681.358 255.562V252.562H678.358V255.562H681.358ZM689.928 255.562H692.928V252.562H689.928V255.562ZM689.928 263.278V266.278H692.928V263.278H689.928ZM690.09 255.561H687.09V258.561H690.09V255.561ZM690.09 247.845V244.845H687.09V247.845H690.09ZM698.66 247.845H701.66V244.845H698.66V247.845ZM698.66 255.561V258.561H701.66V255.561H698.66ZM638.208 246.942V243.942H635.208V246.942H638.208ZM647.24 246.942H650.24V243.942H647.24V246.942ZM647.24 286.695V289.695H650.24V286.695H647.24ZM638.208 286.695H635.208V289.695H638.208V286.695ZM840.289 247.597V250.597H843.289V247.597H840.289ZM698.884 247.597H695.884V250.597H698.884V247.597ZM698.884 239.881L698.884 236.881L695.884 236.881V239.881H698.884ZM28.7104 232.165L31.7104 232.165L31.7105 229.165L28.7104 229.165L28.7104 232.165ZM20.1404 239.881L17.1404 239.881L17.1405 242.881L20.1404 242.881L20.1404 239.881ZM857.43 18.432L860.43 18.4321L860.431 15.432L857.43 15.432L857.43 18.432ZM848.86 26.148L845.86 26.1484L845.861 29.148L848.86 29.148L848.86 26.148ZM28.7102 6H840.29V0H28.7102V6ZM837.29 3V10.716H843.29V3H837.29ZM840.29 7.71599H28.7102V13.716H840.29V7.71599ZM31.7102 10.716V3H25.7102V10.716H31.7102ZM28.7102 242.881H638.895V236.881H28.7102V242.881ZM635.895 239.881V247.597H641.895V239.881H635.895ZM638.895 244.597H28.7102V250.597H638.895V244.597ZM31.7102 247.597V239.881H25.7102V247.597H31.7102ZM8.57001 26.1479L8.57 224.449L14.57 224.449L14.57 26.1479L8.57001 26.1479ZM11.57 221.449H3V227.449H11.57V221.449ZM6 224.449L6.00001 26.1479L9.6274e-06 26.1479L0 224.449L6 224.449ZM3.00001 29.1479H11.57V23.1479H3.00001V29.1479ZM863 26.1479V224.449H869V26.1479H863ZM866 221.449H857.43V227.449H866V221.449ZM860.43 224.449V26.1479H854.43V224.449H860.43ZM857.43 29.1479H866V23.1479H857.43V29.1479ZM20.1404 13.7159L28.7102 13.716L28.7102 7.71599L20.1404 7.71594L20.1404 13.7159ZM25.7102 10.7161L25.7104 18.432L31.7104 18.4319L31.7102 10.7159L25.7102 10.7161ZM28.7104 15.4319H20.1404V21.4319H28.7104V15.4319ZM23.1404 18.4319V10.7159H17.1404V18.4319H23.1404ZM848.86 227.449L857.43 227.449L857.43 221.449L848.86 221.449L848.86 227.449ZM854.43 224.449L854.43 232.165L860.43 232.165L860.43 224.449L854.43 224.449ZM857.43 229.165H848.86V235.165H857.43V229.165ZM851.86 232.165V224.449H845.86V232.165H851.86ZM11.57 227.449L20.14 227.449L20.14 221.449L11.57 221.449L11.57 227.449ZM17.14 224.449V232.165H23.14V224.449H17.14ZM20.14 229.165H11.57V235.165H20.14V229.165ZM14.57 232.165L14.57 224.449L8.57 224.449L8.57001 232.165L14.57 232.165ZM840.29 13.716L848.859 13.7159L848.859 7.71594L840.29 7.71599L840.29 13.716ZM845.859 10.7159V18.4319H851.859V10.7159H845.859ZM848.859 15.4319H840.289V21.4319H848.859V15.4319ZM843.289 18.4321L843.29 10.7162L837.29 10.7158L837.289 18.4317L843.289 18.4321ZM11.57 21.432L20.1404 21.4319L20.1403 15.4319L11.57 15.432L11.57 21.432ZM17.1404 18.4318L17.14 26.1479L23.14 26.1481L23.1404 18.4321L17.1404 18.4318ZM20.14 23.148L11.57 23.1479L11.57 29.1479L20.14 29.148L20.14 23.148ZM14.57 26.1479V18.432H8.57001V26.1479H14.57ZM840.289 235.165L848.86 235.165L848.86 229.165L840.289 229.165L840.289 235.165ZM845.86 232.164L845.859 239.881L851.859 239.881L851.86 232.165L845.86 232.164ZM848.859 236.881H840.289V242.881H848.859V236.881ZM843.289 239.881V232.165H837.289V239.881H843.289ZM650.24 294.141V286.425H644.24V294.141H650.24ZM647.24 289.425H655.81V283.425H647.24V289.425ZM652.81 286.425V294.141H658.81V286.425H652.81ZM655.81 291.141H647.24V297.141H655.81V291.141ZM658.81 286.425L658.81 278.709L652.81 278.71L652.81 286.425L658.81 286.425ZM655.81 281.71H664.38V275.71H655.81V281.71ZM661.38 278.71V286.426H667.38V278.71H661.38ZM664.38 283.426L655.81 283.425L655.81 289.425L664.38 289.426L664.38 283.426ZM667.38 278.709L667.38 270.994L661.38 270.994L661.38 278.71L667.38 278.709ZM664.38 273.994H672.95V267.994H664.38V273.994ZM669.95 270.994V278.71H675.95V270.994H669.95ZM672.95 275.71L664.38 275.71L664.38 281.71L672.95 281.71L672.95 275.71ZM675.95 270.994L675.951 263.278L669.951 263.277L669.95 270.993L675.95 270.994ZM672.951 266.278H681.521V260.278H672.951V266.278ZM678.521 263.278V270.994H684.521V263.278H678.521ZM681.521 267.994L672.95 267.994L672.95 273.994L681.521 273.994L681.521 267.994ZM684.358 263.278V255.562H678.358V263.278H684.358ZM681.358 258.562H689.928V252.562H681.358V258.562ZM686.928 255.562V263.278H692.928V255.562H686.928ZM689.928 260.278H681.358V266.278H689.928V260.278ZM693.09 255.561V247.845H687.09V255.561H693.09ZM690.09 250.845H698.66V244.845H690.09V250.845ZM695.66 247.845V255.561H701.66V247.845H695.66ZM698.66 252.561H690.09V258.561H698.66V252.561ZM638.208 249.942H647.24V243.942H638.208V249.942ZM644.24 246.942V286.695H650.24V246.942H644.24ZM647.24 283.695H638.208V289.695H647.24V283.695ZM641.208 286.695V246.942H635.208V286.695H641.208ZM837.289 239.881V247.597H843.289V239.881H837.289ZM840.289 244.597H698.884V250.597H840.289V244.597ZM701.884 247.597V239.881H695.884V247.597H701.884ZM698.884 242.881L840.289 242.881L840.289 236.881L698.884 236.881L698.884 242.881ZM20.14 235.165L28.7104 235.165L28.7104 229.165L20.14 229.165L20.14 235.165ZM25.7104 232.165L25.7102 239.881L31.7102 239.881L31.7104 232.165L25.7104 232.165ZM28.7102 236.881L20.1404 236.881L20.1404 242.881L28.7102 242.881L28.7102 236.881ZM23.1404 239.881L23.14 232.165L17.14 232.165L17.1404 239.881L23.1404 239.881ZM848.859 21.4319L857.43 21.432L857.43 15.432L848.859 15.4319L848.859 21.4319ZM854.43 18.4319L854.43 26.1478L860.43 26.1481L860.43 18.4321L854.43 18.4319ZM857.43 23.1479L848.86 23.148L848.86 29.148L857.43 29.1479L857.43 23.1479ZM851.86 26.1476L851.859 18.4316L845.859 18.4323L845.86 26.1484L851.86 26.1476Z" fill="#6F272F" mask="url(#path-2-outside-1_76_4)"/>
</g>
</g>
</g>
<defs>
<filter id="filter0_d_76_4" x="0" y="0" width="878" height="308.141" filterUnits="userSpaceOnUse" color-interpolation-filters="sRGB">
<feFlood flood-opacity="0" result="BackgroundImageFix"/>
<feColorMatrix in="SourceAlpha" type="matrix" values="0 0 0 0 0 0 0 0 0 0 0 0 0 0 0 0 0 0 127 0" result="hardAlpha"/>
<feOffset dx="9" dy="11"/>
<feComposite in2="hardAlpha" operator="out"/>
<feColorMatrix type="matrix" values="0 0 0 0 0.427451 0 0 0 0 0.203922 0 0 0 0 0.207843 0 0 0 1 0"/>
<feBlend mode="normal" in2="BackgroundImageFix" result="effect1_dropShadow_76_4"/>
<feBlend mode="normal" in="SourceGraphic" in2="effect1_dropShadow_76_4" result="shape"/>
</filter>
</defs>
</svg>
